<?xml version="1.0" encoding="UTF-8" standalone="no"?>
<!-- Created with Inkscape (http://www.inkscape.org/) -->

<svg
   xmlns:dc="http://purl.org/dc/elements/1.1/"
   xmlns:cc="http://creativecommons.org/ns#"
   xmlns:rdf="http://www.w3.org/1999/02/22-rdf-syntax-ns#"
   xmlns:svg="http://www.w3.org/2000/svg"
   xmlns="http://www.w3.org/2000/svg"
   xmlns:sodipodi="http://sodipodi.sourceforge.net/DTD/sodipodi-0.dtd"
   xmlns:inkscape="http://www.inkscape.org/namespaces/inkscape"
   width="124.5"
   height="227.5"
   id="svg2"
   version="1.1"
   inkscape:version="0.91 r13725"
   sodipodi:docname="aleona.svg"
   inkscape:export-filename="/home/mimooh/wargus.png"
   inkscape:export-xdpi="90"
   inkscape:export-ydpi="90">
  <defs
     id="defs4">
    <filter
       inkscape:collect="always"
       id="filter4519"
       x="-0.088692531"
       width="1.1773851"
       y="-0.1854682"
       height="1.3709364"
       style="color-interpolation-filters:sRGB">
      <feGaussianBlur
         inkscape:collect="always"
         stdDeviation="0.75660286"
         id="feGaussianBlur4521" />
    </filter>
  </defs>
  <sodipodi:namedview
     id="base"
     pagecolor="#ffffff"
     bordercolor="#666666"
     borderopacity="1.0"
     inkscape:pageopacity="0.0"
     inkscape:pageshadow="2"
     inkscape:zoom="1"
     inkscape:cx="182.45118"
     inkscape:cy="99.111092"
     inkscape:document-units="px"
     inkscape:current-layer="layer1"
     showgrid="false"
     inkscape:window-width="1198"
     inkscape:window-height="975"
     inkscape:window-x="478"
     inkscape:window-y="0"
     inkscape:window-maximized="0"
     fit-margin-top="0"
     fit-margin-left="0"
     fit-margin-right="0"
     fit-margin-bottom="0"
     showguides="true"
     inkscape:guide-bbox="true"
     inkscape:snap-bbox="false"
     inkscape:snap-global="false" />
  <metadata
     id="metadata7">
    <rdf:RDF>
      <cc:Work
         rdf:about="">
        <dc:format>image/svg+xml</dc:format>
        <dc:type
           rdf:resource="http://purl.org/dc/dcmitype/StillImage" />
        <dc:title></dc:title>
      </cc:Work>
    </rdf:RDF>
  </metadata>
  <g
     inkscape:label="Layer 1"
     inkscape:groupmode="layer"
     id="layer1"
     transform="translate(1941.7336,-580.72528)">
    <g
       transform="matrix(0.8710547,-0.00256253,0.00194429,1.1480278,0,0)"
       style="color:#000000;font-style:normal;font-weight:normal;font-size:56.95957184px;line-height:125%;font-family:Sans;letter-spacing:0px;word-spacing:0px;clip-rule:nonzero;display:inline;overflow:visible;visibility:visible;opacity:1;isolation:auto;mix-blend-mode:normal;color-interpolation:sRGB;color-interpolation-filters:linearRGB;solid-color:#000000;solid-opacity:1;fill:#5c3566;fill-opacity:1;fill-rule:nonzero;stroke:none;stroke-width:1.24492085;stroke-linecap:butt;stroke-linejoin:miter;stroke-miterlimit:4;stroke-dasharray:none;stroke-dashoffset:0;stroke-opacity:1;color-rendering:auto;image-rendering:auto;shape-rendering:auto;text-rendering:auto;enable-background:accumulate"
       id="text3537" />
    <g
       id="g3659"
       transform="translate(-315.36962,0)">
      <g
         id="g3537"
         transform="matrix(0.90626031,0,0,0.90626031,-426.87666,91.512928)">
        <g
           transform="matrix(1.6281124,0,0,1.6281124,-1471.902,663.02363)"
           id="g3541">
          <path
             sodipodi:nodetypes="ccsccccccc"
             inkscape:connector-curvature="0"
             id="path3543"
             transform="matrix(0.62995741,0,0,0.62995741,906.64029,-453.22758)"
             d="m -1218.7578,674.12695 -27.3008,0.60157 c -4.8012,6.61837 -34.1946,2.38157 -20.5156,53.97851 2.6044,9.82391 -4.9572,8.86237 -6.5,17.46485 -0.2665,1.48573 -4.3295,2.60654 -6.9453,0.14453 -0.7345,4.87209 11.0614,7.53826 13.9394,5.41315 1.8171,0.73089 3.6878,2.64347 2.9075,5.73951 l 69.2977,0.33562 c 2.0599,-31.85128 -16.232,-53.96273 -24.8828,-83.67774 z"
             style="fill:#f57900;stroke:none" />
          <path
             style="opacity:0.2;fill:#000000;stroke:none"
             d="m 118.28865,-18.87524 c -2.20946,0.743914 -7.77056,2.964058 -8.93475,4.840399 -1.63393,7.5450694 2.53176,15.5893537 1.88081,23.615974 -0.26759,1.905482 -1.61202,3.350276 -2.81159,4.74805 1.08405,-0.54479 2.35003,-1.727154 3.46673,-2.566061 1.43742,-1.096346 2.0703,-3.04556 1.47017,-4.766121 -0.27725,-1.824253 1.32125,-3.208746 2.42597,-4.434667 2.74122,-2.61081102 5.85022,-4.872099 9.24712,-6.553 -2.32398,-4.400019 -3.24906,-9.414142 -5.68823,-13.763595 -0.28049,-0.424888 -0.55739,-0.925888 -1.05623,-1.120979 z m -11.12566,32.35913 c -0.92197,2.344738 -1.98299,4.161035 -4.45226,4.992266 -1.58046,0.278705 0.44943,2.093433 1.65407,0.806058 2.53949,-1.242314 2.55439,-3.18187 2.79819,-5.798324 z"
             id="path3545"
             inkscape:connector-curvature="0"
             sodipodi:nodetypes="cccccccccccccc" />
          <path
             style="opacity:0.4;fill:#ffffff;stroke:none"
             d="m 139.06169,-28.556182 -17.19727,0.3789 c -3.02453,4.16929 -20.79099,1.18754 -12.17383,33.691409 1.64067,6.188643 -3.78002,6.457757 -4.75195,11.001953 -0.10094,0.471958 1.28752,-1.715902 1.39453,-2.3125 1.65943,-3.387946 5.84438,-1.90706 4.20371,-8.095703 -8.61716,-32.503869 9.01004,-30.115869 12.03457,-34.285159 l 16.49414,-0.36328 c -0.002,-0.0052 -0.002,-0.01043 -0.004,-0.01562 z"
             id="path3547"
             inkscape:connector-curvature="0"
             sodipodi:nodetypes="ccsscscccc" />
        </g>
        <g
           transform="matrix(1.578365,0,0,1.578365,-1363.9614,185.14911)"
           id="g3549">
          <path
             style="color:#000000;display:inline;overflow:visible;visibility:visible;fill:#2d3c50;fill-opacity:1;fill-rule:nonzero;stroke:none;enable-background:accumulate"
             d="m 16.09375,-96.929688 c -0.370027,-0.0126 -0.911539,0.110254 -0.996094,0.470704 l -8.2089841,33.445312 c -0.054192,0.230253 2.0984294,2.404619 3.0097656,3.31836 l 5.2128905,0 0.748808,-3.153352 -0.417033,-1.757069 0.956759,-0.9315 0.788403,-3.574439 -1.256207,-1.300017 1.501268,-0.654872 5.189721,-24.706877 c 0.112872,-0.476928 -0.238694,-0.936595 -0.728516,-0.953124 z"
             transform="matrix(1.0315183,0,0,1.0315183,78.965533,389.26043)"
             id="path3551"
             inkscape:connector-curvature="0"
             sodipodi:nodetypes="cccccccccccccc" />
          <path
             style="color:#000000;display:inline;overflow:visible;visibility:visible;fill:#618599;fill-opacity:1;fill-rule:nonzero;stroke:none;enable-background:accumulate"
             d="m 16.880859,-96.154297 -8.3144528,35.091797 1.3339844,1.367188 3.5937504,0 0.907722,-3.801304 -0.459219,-1.41809 0.972473,-1.114723 0.659561,-2.94005 -1.321728,-1.840723 1.886105,-1.011564 L 21.4375,-95.0625 Z"
             transform="matrix(1.0315183,0,0,1.0315183,78.965533,389.26043)"
             id="path3553"
             inkscape:connector-curvature="0"
             sodipodi:nodetypes="cccccccccccc" />
          <path
             sodipodi:nodetypes="ccccccccccccccccccccccc"
             inkscape:connector-curvature="0"
             id="path3555"
             d="m 101.74023,272.35547 c -2.086545,-4.5e-4 -3.795372,1.70837 -3.794918,3.79492 5.09e-4,1.14321 0.603854,2.13296 1.46875,2.8457 l -2.535307,8.04875 c -2.550347,-0.38628 -4.791544,-0.75846 -7.30462,-1.12697 -0.324591,-0.0481 -0.645056,0.10979 -0.804687,0.39648 l -2.552836,4.85572 c -0.282865,0.5105 0.06749,1.14073 0.650391,1.16993 l 8.009833,0.42967 c -0.399954,2.06177 -1.978379,15.12516 -0.953261,17.11022 1.883076,-0.80574 6.057863,-14.85717 6.698935,-16.24265 l 1.05668,0.40784 0.23686,0.0914 6.41217,2.24642 c 0.56583,0.20796 1.14631,-0.27002 1.05078,-0.86524 l -0.49212,-5.22085 c -0.0488,-0.30223 -0.26807,-0.54893 -0.5625,-0.63281 0,0 -4.04252,-1.31194 -6.66797,-1.88287 l 1.44518,-8.15227 c 1.42908,-0.56221 2.43089,-1.90587 2.4336,-3.47657 l 0,-0.002 c 4.5e-4,-2.08655 -1.70838,-3.79537 -3.79493,-3.79492 z"
             style="color:#000000;display:inline;overflow:visible;visibility:visible;fill:#2d3c50;fill-opacity:1;fill-rule:nonzero;stroke:none;enable-background:accumulate" />
          <path
             style="color:#000000;display:inline;overflow:visible;visibility:visible;fill:#425b68;fill-opacity:1;fill-rule:nonzero;stroke:none;enable-background:accumulate"
             d="m 101.73962,273.14499 c -1.66024,-3.6e-4 -3.006226,1.34562 -3.005864,3.00586 4.84e-4,1.08897 0.590036,2.09248 1.541014,2.62305 l -2.212889,9.4746 c -2.788413,-0.44065 -5.511674,-0.75794 -8.28125,-1.16406 l -2.164481,3.88871 8.512138,0.72262 c -1.04795,4.89757 -2.341591,18.35266 -2.10253,17.69923 0.0636,0.67326 5.687192,-15.47845 6.077832,-17.17947 l 8.23916,2.91054 -0.75084,-4.64002 c 0,0 -5.00948,-1.52774 -7.39526,-1.96543 l 2.954,-9.94936 c 1.35915,-0.31621 1.59243,-1.02496 1.59483,-2.42041 3.6e-4,-1.66024 -1.34562,-3.00622 -3.00586,-3.00586 z"
             id="path3557"
             inkscape:connector-curvature="0"
             sodipodi:nodetypes="ccccccccccccccc" />
        </g>
        <path
           sodipodi:nodetypes="ccccc"
           inkscape:connector-curvature="0"
           id="path3559"
           d="m -1213.8431,646.35689 -12.7127,52.56004 1.8484,1.97058 c 1.5955,-7.05274 8.3439,-29.04859 8.3439,-29.04859 1.1234,-17.10407 2.5204,-25.48203 2.5204,-25.48203 z"
           style="fill:#ffffff;fill-rule:evenodd;stroke:none" />
        <path
           inkscape:connector-curvature="0"
           id="path3561"
           d="m -1207.0398,632.98315 c -0.6838,0.0116 -1.1242,0.16734 -1.1684,0.41309 -0.075,0.3981 0.8957,0.91058 2.1672,1.1437 1.2708,0.23349 2.3604,0.0995 2.4323,-0.29904 0.075,-0.39809 -0.8957,-0.91058 -2.1672,-1.14369 -0.4406,-0.081 -0.8794,-0.12061 -1.2639,-0.11412 z m -0.8355,3.07041 c -0.6837,0.0116 -1.1241,0.16734 -1.1683,0.41309 -0.07,0.39783 0.8996,0.90813 2.1672,1.14062 1.269,0.23263 2.3564,0.0988 2.4291,-0.29903 0.07,-0.39783 -0.8996,-0.90812 -2.1671,-1.14061 -0.4394,-0.0808 -0.877,-0.12037 -1.2609,-0.11411 z m -13.934,1.84966 -0.3946,1.18377 28.312,4.7351 c -3.8705,-1.568 -7.8405,-2.57462 -11.8501,-3.35403 0.3934,-0.0627 0.63,-0.19308 0.6659,-0.36686 0.076,-0.39776 -0.8932,-0.91014 -2.1641,-1.14368 -0.4406,-0.081 -0.8794,-0.12061 -1.264,-0.11412 -0.6837,0.0116 -1.1241,0.16734 -1.1683,0.41309 -0.031,0.18456 0.1646,0.40295 0.5456,0.61039 -4.2196,-0.70018 -8.4653,-1.24929 -12.6824,-1.96371 z"
           style="color:#000000;display:inline;overflow:visible;visibility:visible;opacity:0.4;fill:#ffffff;fill-opacity:1;fill-rule:nonzero;stroke:none;enable-background:accumulate"
           sodipodi:nodetypes="ccccccccccccccccccccccccc" />
        <path
           style="color:#000000;display:inline;overflow:visible;visibility:visible;fill:#2d3c50;fill-opacity:1;fill-rule:nonzero;stroke:none;enable-background:accumulate"
           d="m -1200.0965,608.30946 c -4.4305,0.1616 -9.1185,1.18158 -9.1185,1.18158 l -18.9639,-0.51345 c -3.2262,11.75137 1.6794,17.57612 5.453,27.40692 0.3613,-0.43507 9.1322,-8.99916 12.1589,-12.18433 0,0 1.7444,5.36896 2.5193,5.95019 1.2593,0.64578 5.3334,2.3911 8.6966,-0.94082 l 0.628,-1.17877 9.3993,-3.19937 c 1.3274,-7.64011 -4.1426,-15.48307 -4.1426,-15.48307 -1.4065,-0.92375 -3.9716,-1.13582 -6.6301,-1.03888 z"
           id="path3563"
           inkscape:connector-curvature="0"
           sodipodi:nodetypes="scccccccccs" />
        <path
           inkscape:connector-curvature="0"
           style="fill:#000000;fill-opacity:1;stroke:none"
           d="m -1251.7965,610.53683 c -1.8522,0.0329 -3.843,0.59781 -6.1118,0.59781 -4.3658,0 -8.4199,2.32428 -11.772,6.28033 -5.1767,-0.4115 -9.8283,-2.28324 -13.5366,-0.69624 -19.1988,6.37751 -24.6261,19.43457 -25.8084,26.99816 7.0287,-0.47912 10.6287,-1.2785 19.341,-2.53711 l 10.7606,-5.75043 c 2.8297,13.01773 -1.5245,33.55747 -3.5589,42.77272 -1.2016,2.6346 -2.2153,4.24682 -1.7267,5.2691 1.8528,2.15674 4.5397,1.25842 8.1279,1.32602 -0.8368,2.84999 -1.4023,6.18084 -1.0558,8.87512 -4.9278,1.32215 -9.4518,4.89877 -10.3983,9.30615 l 63.0544,0 c -5.4264,-5.27603 -13.6634,-9.19543 -20.4118,-9.92623 2.3535,-3.06141 3.449,-6.05938 4.1688,-9.48566 5.3211,-0.76188 11.5089,-1.56269 12.5486,-3.36741 -0.3793,-13.30434 -3.5757,-33.34036 -4.8446,-41.91497 -0.078,-0.52889 -0.739,-5.22055 -0.819,-5.66089 l 1.2163,3.97653 10.1766,-4.57484 c 1.9381,1.00524 -1.356,-17.96713 -3.8969,-17.89733 -2.7175,0.75323 -12.3187,1.66148 -14.9152,2.37788 -1.4888,0.41076 -3.8681,-3.77857 -5.2595,-3.38024 -1.7131,-2.1224 -3.4265,-2.62139 -5.2787,-2.58844 z m -1.8157,74.10455 0,0.003 c -0.6474,2.81802 -0.6703,5.54122 -0.067,7.62859 -4.455,-0.29154 -8.6541,0.54035 -12.7769,0.35933 -0.095,-0.003 -0.1853,-0.006 -0.2798,-0.01 1.1588,-2.47759 1.8902,-5.18562 2.1051,-7.73672 3.5647,-0.0169 7.3166,-0.0901 11.0184,-0.24486 z"
           id="path3565"
           sodipodi:nodetypes="csccccccccccccccscccccccccccccccc" />
        <path
           inkscape:connector-curvature="0"
           id="path3567"
           d="m -1255.106,567.7338 c -5.242,-0.0211 -12.4828,1.03073 -18.4286,2.73747 -2.9723,0.8532 -5.6107,1.85669 -7.5682,3.0735 -0.9766,0.60713 -1.8088,1.26971 -2.4045,2.09933 -0.5374,0.7485 -0.7922,1.70112 -0.6844,2.66659 1.489,12.71598 3.181,25.51195 4.7988,38.2476 0.067,0.52283 0.403,0.976 0.8847,1.18994 6.1343,2.71882 12.0668,4.15371 17.1401,4.58403 5.0707,0.43011 9.2743,-0.0857 12.1213,-1.58144 0.6073,-0.31827 0.9264,-1.01236 0.7707,-1.68009 l -0.01,-0.0462 2.7005,0.74294 c 0.1153,0.0315 0.2386,0.0124 0.3391,-0.0524 l 7.8518,-5.07729 c 0.3694,-0.21001 0.548,-0.58374 0.6288,-0.94331 0.081,-0.35958 0.071,-0.72907 -0.032,-1.06047 -0.1488,-0.48522 -0.9576,-3.60134 -1.9853,-7.68835 -1.0278,-4.08748 -2.3197,-9.28472 -3.5852,-14.39334 -2.5311,-10.21718 -4.954,-20.09025 -4.954,-20.09025 l 0,0 c -0.013,-0.0467 -0.026,-0.0949 -0.043,-0.14174 -0.2388,-0.67751 -0.6971,-1.16494 -1.2361,-1.49204 -0.5402,-0.3278 -1.159,-0.51557 -1.7788,-0.66588 -1.2567,-0.3048 -2.779,-0.42146 -4.5254,-0.4285 z m 4.917,21.6501 0.5117,2.51244 -2.5093,1.49822 c -0.5565,0.33202 -0.8387,0.98548 -0.6998,1.61844 l -0.01,-0.0246 2.5679,16.11042 -3.6191,-15.58943 c -0.1683,-0.72288 -0.8445,-1.219 -1.5846,-1.1622 l -6.819,0.52099 -0.7152,-3.03651 c 3.4243,0.16602 6.5134,-0.18457 8.9338,-0.87549 1.6932,-0.48334 2.9132,-1.03285 3.9397,-1.57221 z"
           style="color:#000000;display:inline;overflow:visible;visibility:visible;fill:#2c3e46;fill-opacity:1;fill-rule:nonzero;stroke:none;enable-background:accumulate"
           sodipodi:nodetypes="cssccccsccccccccsscccccccccccccccccscc" />
        <path
           sodipodi:nodetypes="ccccccc"
           inkscape:connector-curvature="0"
           id="path3569"
           d="m -1271.8237,586.4085 5.7674,33.49649 8.5591,0.50005 c 3.0089,-1.82431 6.1541,-2.33736 9.5447,-2.9244 l 2.5355,-1.06423 -1.8872,-35.32087 z"
           style="fill:#000000;fill-rule:evenodd;stroke:none" />
        <path
           sodipodi:nodetypes="scccccccccccccs"
           inkscape:connector-curvature="0"
           id="path3571"
           d="m -1255.1122,569.24124 c -10.0592,-0.0405 -28.7524,4.15497 -27.6152,9.0972 l 4.8313,38.02944 c 11.9683,5.30457 23.133,5.57601 27.9506,3.04503 l -5.1537,-23.17873 -8.4187,0.23847 -3.4279,-6.18205 c 8.233,1.00568 18.3288,-3.32705 19.8799,-4.54335 l -0.1117,0.71059 0.1932,5.98477 -4.4301,2.24689 5.4361,23.31105 c 1.2765,-1.05332 7.5407,-4.92267 7.5407,-4.92267 -0.8462,-2.75835 -10.5492,-42.25516 -10.5492,-42.25516 -0.3804,-1.08361 -2.7723,-1.56792 -6.1254,-1.58146 z"
           style="fill:#425b68;fill-opacity:1;stroke:none" />
        <path
           sodipodi:nodetypes="cccccccccccccc"
           inkscape:connector-curvature="0"
           id="path3573"
           d="m -1247.1435,586.42629 -1.131,0.7055 -0.113,4.65408 -4.3204,2.04116 4.577,23.65631 2.2251,0.49324 -4.4963,-23.16259 3.5916,-2.24388 z m -9.0053,8.17811 -7.5678,1.01751 0.3407,1.53842 8.243,-0.87531 z"
           style="fill:#70979f;fill-opacity:1;stroke:none" />
        <path
           style="color:#000000;display:inline;overflow:visible;visibility:visible;fill:#2c3e46;fill-opacity:1;fill-rule:nonzero;stroke:none;enable-background:accumulate"
           d="m -1248.598,569.95067 c 0.3426,1.69254 -6.8757,5.59842 -15.7526,7.23113 -8.8768,1.63272 -18.2507,1.39076 -18.5932,-0.30169 -0.3426,-1.69252 7.6845,-5.05812 16.5613,-6.69082 8.8769,-1.63275 17.442,-1.93107 17.7845,-0.23854 z"
           id="path3575"
           inkscape:connector-curvature="0"
           sodipodi:nodetypes="cssssc" />
        <path
           sodipodi:nodetypes="ccccc"
           inkscape:connector-curvature="0"
           id="path3577"
           d="m -1275.4168,617.01213 c -3.7636,-36.59569 4.9008,-44.6579 10.6576,-47.16691 -6.0237,0.39336 -14.7785,2.58401 -18.3667,7.41172 0.3624,1.63086 5.6453,38.50245 5.6453,38.50245 z"
           style="opacity:0.3;fill:#000000;fill-opacity:1;stroke:none" />
        <path
           style="color:#000000;display:inline;overflow:visible;visibility:visible;fill:#618599;fill-opacity:1;fill-rule:nonzero;stroke:none;enable-background:accumulate"
           d="m -1225.6383,611.33611 c 2.3317,2.92658 5.7525,12.64552 4.9994,20.63342 3.2654,-4.30965 5.4327,-6.20643 9.8372,-10.35337 2.3126,0.69447 4.07,6.28709 4.07,6.28709 1.9272,1.08581 4.946,1.74434 6.5337,-1.58459 0,0 -2.8452,-5.03568 -3.4702,-7.28944 2.1875,1.40574 8.1533,-1.50328 8.1533,-1.50328 0.1926,0.18283 -3.5231,2.29691 -3.7908,2.86416 -0.051,0.10573 2.9025,-0.11817 2.8712,0.0393 -0.038,0.19088 -2.7783,1.0061 -2.8018,1.23142 -0.1538,1.47526 1.1629,2.95755 1.4851,2.82859 l 6.2643,-2.5075 c 1.04,-1.3307 -2.9972,-11.23376 -2.9972,-11.23376 -0.1652,-0.82599 -8.3021,-0.95249 -14.1888,0.9577 -4.6287,0.0941 -16.4621,-0.97367 -16.9654,-0.36971 z"
           id="path3579"
           inkscape:connector-curvature="0"
           sodipodi:nodetypes="ccccccssssscccc" />
        <path
           style="color:#000000;display:inline;overflow:visible;visibility:visible;opacity:0.6;fill:#ffffff;fill-opacity:1;fill-rule:evenodd;stroke:none;enable-background:accumulate"
           d="m -1225.7261,611.13563 2.5053,4.0338 15.1004,-1.47889 c 0,0 2.3507,-1.60315 13.1367,-2.97564 l -13.9111,1.05907 z"
           id="path3581"
           inkscape:connector-curvature="0"
           sodipodi:nodetypes="cccccc" />
        <g
           id="g3583"
           transform="matrix(1.6281124,0,0,1.6281124,-1465.5701,670.50675)">
          <g
             transform="translate(23.422913,-3.9774757)"
             id="g3585">
            <path
               style="fill:#ce5c00;fill-opacity:1;fill-rule:evenodd;stroke:none"
               d="m 189.05487,-32.209897 c -3.30908,-0.242547 -7.65142,0.310977 -8.53219,2.541188 -0.006,0.02516 1.01349,-0.108714 1.72377,-0.137918 -0.91854,0.07454 -4.65166,1.091771 -4.77189,3.363622 -0.16274,0.126338 1.69776,-0.279874 1.69776,-0.279874 -3.45957,1.972878 -4.4954,3.076655 -3.82032,5.401649 0.008,0.198658 0.47749,-0.37786 1.46582,-1.042124 -3.17815,4.076443 2.40874,9.208374 6.33987,11.097596 0.49486,0.289501 -0.73314,-1.28009 0.32786,-3.888071 0.13853,-0.340501 -1.28459,-1.140324 -1.36456,-1.453366 -0.14661,-0.789726 1.92089,-0.88538 0.37999,-2.752487 0.83206,-1.102756 2.55456,-0.83331 3.7568,-1.612963 0.63792,-0.424084 0.97114,-0.95032 1.19531,-1.34375 0.22418,-0.393431 0.34334,-0.623754 0.625,-0.826172 0.28167,-0.202418 0.7962,-0.41411 1.85352,-0.517578 0.50828,-0.04974 0.77946,-0.278695 1.00977,-0.386719 0.2303,-0.108024 0.25394,-0.0822 0.21875,-0.101563 0.20861,0.11433 0.46227,0.109124 0.66601,-0.01367 4.77143,-1.825536 0.92405,-7.594497 -2.77127,-8.0478 z"
               id="path3587"
               inkscape:connector-curvature="0"
               sodipodi:nodetypes="ccccccccscccccccccc"
               transform="matrix(1.9613291,0,0,1.9613291,-274.66355,-10.474304)" />
            <path
               sodipodi:nodetypes="csscccccccscccccccc"
               inkscape:connector-curvature="0"
               id="path3589"
               d="m 100.89573,-58.985211 c 4.90496,-0.02871 4.8311,-8.073467 -0.83677,-11.899948 -3.441356,-2.32332 -11.154676,-1.986701 -18.858245,1.538622 -0.202616,0.09272 6.930619,-1.390988 10.14569,0.582854 -4.955082,-1.423768 -14.319439,1.804032 -16.434052,5.316954 3.46241,-0.962805 8.955276,-2.54653 9.83339,-2.805617 -6.567902,2.981363 -13.039829,6.913769 -13.999034,11.123487 -0.254609,0.483309 5.412369,-2.581718 9.99646,-4.666873 -5.522079,4.021782 -9.032981,3.514446 -8.954019,10.55258 0.18727,8.371327 12.343552,15.906965 12.343552,15.906965 0,0 -2.054396,-4.149309 -0.965956,-6.241437 0.892325,-1.715169 -1.779586,-1.984993 -2.079628,-3.460066 -0.119189,-1.049727 0.835791,-1.917744 0.835791,-1.917744 -0.639474,0.569106 -3.657129,0.404513 -3.558697,0.147451 0.109662,-0.235658 1.897524,-0.504443 2.827186,-3.707751 -0.787467,1.127869 -2.269962,0.80777 -2.269962,0.80777 -0.119944,-1.78067 1.65677,-1.853619 4.069336,-3.330234 11.523039,7.000072 14.69401,-3.90439 15.134826,-7.231672 0.904224,-0.148935 1.764832,-1.268254 2.770132,-0.715341 z"
               style="fill:#f57900;fill-rule:evenodd;stroke:none" />
            <path
               inkscape:connector-curvature="0"
               style="color:#000000;display:inline;overflow:visible;visibility:visible;opacity:0.2;fill:#000000;fill-opacity:1;fill-rule:evenodd;stroke:none;enable-background:accumulate"
               d="m -47.8125,-154.35742 c 0.63234,1.00622 1.951339,1.83729 3.193359,2.90039 -1.88021,-1.13881 -11.391958,0.41009 -13.173828,-0.19922 2.30272,2.09603 15.781173,0.27028 15.132813,8.41602 l 0.251953,-0.0899 c 0.42939,-3.2166 0.126041,-5.10355 -0.605469,-6.44922 1.14862,1.58705 1.949821,3.0077 0.712891,6.38868 l 0.253906,-0.13868 c 5.98498,-10.38661 -2.201675,-8.98103 -5.765625,-10.82812 z m -2.898438,6.08594 c -4.353479,-0.14824 -9.819522,1.15027 -14.707031,3.63671 3.02148,0.75262 19.254928,-6.03874 22.548828,1.43946 l 0.189453,-0.0332 c -0.436944,-3.30057 -3.67777,-4.89473 -8.03125,-5.04296 z"
               id="path3591"
               transform="translate(142.85075,83.852018)" />
            <path
               style="opacity:0.3;fill:#ffffff;fill-rule:evenodd;stroke:none"
               d="m -49.402344,-156.21484 c -3.577375,0.0593 -7.914789,1.03263 -12.248047,3.01562 -0.131097,0.06 2.806856,-0.52746 5.769532,-0.42383 2.792383,-0.80617 5.425966,-1.62086 9.800781,-2.34375 -1.002877,-0.18365 -2.11847,-0.26798 -3.322266,-0.24804 z m -9.548828,3.88476 c -3.923956,0.97148 -7.731611,2.94684 -8.986328,5.03125 0.796418,-0.22146 1.773258,-0.42523 2.703661,-0.68872 z m -5.544315,5.64967 c -4.626441,2.21767 -7.173224,5.79169 -7.608029,7.69994 -0.118247,0.22446 1.111123,-0.35635 2.845704,-1.20898 0.123016,-2.11709 3.868496,-4.98668 4.762325,-6.49096 z m -4.738888,7.66674 c -1.208738,1.20199 -1.862689,2.83714 -1.828125,5.91797 0.06887,3.07852 1.76083,6.04126 3.867188,8.56054 -2.573338,-4.51576 -2.821286,-9.61727 -2.039063,-14.47851 z"
               id="path3593"
               inkscape:connector-curvature="0"
               sodipodi:nodetypes="scccscccccccccccc"
               transform="translate(142.85075,83.852018)" />
            <path
               style="color:#000000;display:inline;overflow:visible;visibility:visible;opacity:0.3;fill:#000000;fill-opacity:1;fill-rule:evenodd;stroke:none;enable-background:accumulate"
               d="m 83.39678,-51.61118 c 0.0818,-0.106293 8.48039,3.856742 13.93881,-4.56185 -0.32871,1.139581 -4.40216,11.281243 -13.93881,4.56185 z"
               id="path3595"
               inkscape:connector-curvature="0"
               sodipodi:nodetypes="ccc" />
            <path
               style="color:#000000;display:inline;overflow:visible;visibility:visible;opacity:0.3;fill:#ffffff;fill-opacity:1;fill-rule:evenodd;stroke:none;filter:url(#filter4519);enable-background:accumulate"
               d="m 94.975754,-55.900288 c -1.972225,4.567875 -7.631748,3.321188 -11.41504,2.630879 -2.410376,1.602043 -6.966195,5.301753 -8.210724,0.365881 -0.4091,-3.980511 4.754933,-3.586565 6.227265,-6.69233 3.180684,-2.189681 6.434611,2.212684 10.039408,0.808537 1.957392,-0.51581 5.893647,0.231756 3.359091,2.887033 z"
               id="path3597"
               inkscape:connector-curvature="0" />
          </g>
          <g
             transform="translate(-3.2703689,-4.7729708)"
             id="g3599">
            <path
               style="color:#000000;display:inline;overflow:visible;visibility:visible;fill:#888a85;fill-opacity:1;fill-rule:nonzero;stroke:none;enable-background:accumulate"
               d="m 124.82774,-55.639338 0.0459,-3.115323 2.66074,-0.553212 1.63416,2.907099 c -1.24721,0.913486 -2.82311,1.337031 -4.34078,0.761436 z"
               id="path3601"
               inkscape:connector-curvature="0"
               sodipodi:nodetypes="ccccc" />
            <path
               style="color:#000000;display:inline;overflow:visible;visibility:visible;fill:#d3d7cf;fill-opacity:1;fill-rule:nonzero;stroke:none;enable-background:accumulate"
               d="m 127.78304,-60.10279 c 1.00017,0.421313 0.6989,1.423368 0.4011,1.712729 -1.27771,1.068332 -2.90082,0.869151 -3.66007,0.468359 l -0.20697,-1.100396 c 0.46218,-0.570182 2.34976,0.30469 3.46594,-1.080692 z"
               id="path3603"
               inkscape:connector-curvature="0"
               sodipodi:nodetypes="ccccc" />
          </g>
        </g>
        <ellipse
           style="color:#000000;display:inline;overflow:visible;visibility:visible;fill:#ffffff;fill-opacity:1;fill-rule:nonzero;stroke:none;enable-background:accumulate"
           id="ellipse3605"
           cx="28.329063"
           cy="-136.91936"
           rx="0.8125"
           ry="0.6875"
           transform="matrix(0.8202505,1.4063922,-1.4063922,0.8202505,-1471.902,663.02363)" />
        <ellipse
           ry="0.6875"
           rx="0.8125"
           cy="-139.07039"
           cx="-28.587622"
           id="ellipse3607"
           style="color:#000000;display:inline;overflow:visible;visibility:visible;fill:#ffffff;fill-opacity:1;fill-rule:nonzero;stroke:none;enable-background:accumulate"
           transform="matrix(0.19501726,1.6163905,-1.6163905,0.19501726,-1471.902,663.02363)" />
        <g
           transform="matrix(0.99677612,0.08023333,-0.08023333,0.99677612,49.620678,99.72388)"
           id="g3611">
          <g
             id="g3613"
             transform="matrix(0.85612445,-0.16382124,0.16382124,0.85612445,-301.28846,-120.17596)">
            <path
               sodipodi:nodetypes="ccccscssssscccc"
               inkscape:connector-curvature="0"
               id="path3615"
               d="m -1279.5156,637.10332 c -10.0834,-2.21012 -22.9776,7.10793 -30.2761,12.58097 6.7242,3.71907 5.2015,13.6918 21.423,12.29426 0,0 0.2641,0.40834 0.6156,1.12312 -1.3454,-0.80858 -5.0581,3.15545 -5.0581,3.15545 -1.3301,4.13254 4.2638,8.16364 4.2638,8.16364 1.2494,3.49229 5.3965,4.77157 6.1999,4.73241 2.5164,-0.12265 6.2159,-0.67289 9.2466,-1.68208 0.3167,-0.10547 0.377,-1.21705 0.6935,-1.31356 1.6302,-0.49705 3.4899,-0.38133 4.932,-1.02789 0.3616,-0.16212 0.1722,-1.12862 0.5186,-1.29707 2.0331,-0.98877 3.7044,-1.27961 5.052,-2.34017 l 1.2376,-10.79455 c -3.5159,-4.28628 -13.2555,-8.87095 -13.2555,-8.87095 z"
               style="color:#000000;display:inline;overflow:visible;visibility:visible;fill:#2d3c50;fill-opacity:1;fill-rule:nonzero;stroke:none;enable-background:accumulate" />
            <path
               style="color:#000000;display:inline;overflow:visible;visibility:visible;fill:#618599;fill-opacity:1;fill-rule:nonzero;stroke:none;enable-background:accumulate"
               d="m -1305.9207,649.85402 c 2.413,-2.10868 8.4629,-10.07068 25.4497,-10.74822 0,0 3.0045,11.45692 5.9583,14.04574 7.3207,4.76706 10.742,7.11333 12.0433,8.04899 l -1.158,8.84694 c -0.1597,1.22012 -1.598,1.7706 -3.3196,2.17802 l 0.4956,-5.09932 c -0.5757,1.83039 -1.9145,4.48709 -2.4026,6.12173 -1.2867,1.1746 -3.2165,1.3099 -4.1313,1.31674 -0.2864,0.11131 1.7253,-3.58376 0.3676,-5.45835 -0.4115,0.91244 -1.9952,5.79507 -2.4589,6.02645 -4.7565,2.23371 -11.1398,1.34721 -11.7019,-2.5294 -2.1928,-1.40419 -3.9182,-3.76349 -3.5207,-5.17381 0,0 2.0508,-2.05907 4.0732,-1.73197 0.327,-0.17328 0.4405,3.46796 2.427,5.05866 1.9916,-6.92583 -3.7291,-5.74355 -3.8646,-14.22125 l -0.609,3.55917 c -15.1996,-1.44647 -12.4965,-7.29962 -17.6481,-10.24012 z"
               id="path3617"
               inkscape:connector-curvature="0"
               sodipodi:nodetypes="ccccscccccccsccccc" />
            <path
               style="color:#000000;display:inline;overflow:visible;visibility:visible;opacity:0.4;fill:#ffffff;fill-opacity:1;fill-rule:evenodd;stroke:none;enable-background:accumulate"
               d="m -1281.0255,639.30805 c -8.0581,-0.91114 -18.4552,5.43495 -23.858,10.16604 2.5834,2.94284 2.3624,6.15653 8.0403,8.42742 4.6362,-6.02228 -4.1352,-14.06255 15.9856,-17.12734 0.5942,-0.76857 0.1931,-0.65092 -0.1679,-1.46612 z"
               id="path3619"
               inkscape:connector-curvature="0"
               sodipodi:nodetypes="ccccc" />
          </g>
          <path
             sodipodi:nodetypes="ccssccccccsccsccc"
             inkscape:connector-curvature="0"
             id="path3621"
             d="m -1302.5767,640.31887 c 0.1802,0.33467 -7.9387,5.43324 -9.671,9.2564 5.1691,6.12814 9.1852,6.45461 16.0404,6.40554 0.1951,-10e-4 -0.1381,-3.47178 0.063,-3.4735 0,0 0.8303,3.3997 1.2142,3.3967 l 2.0322,2.58293 c 2.3269,2.27223 2.7546,3.29643 2.4349,6.30593 l -3.1037,-4.26026 c -1.7568,0.48671 -2.0065,1.22461 -2.8708,1.86007 0.3995,1.12559 -0.3513,2.14058 3.891,4.14097 1.5624,2.21904 3.2738,2.34544 4.2813,2.25002 1.4837,-0.14051 1.1414,-1.33084 2.2111,-2.4914 l 0.8964,-8.29264 c -5.4311,-2.99592 -3.4349,-3.91219 -6.7331,-6.19639 -0.2911,-0.2016 5.9911,-3.70224 5.9911,-3.70224 0,0 -8.9205,2.64776 -9.1552,2.60024 -9.6426,0.4826 -17.1928,-1.12597 -7.5218,-10.38237 z"
             style="color:#000000;display:inline;overflow:visible;visibility:visible;opacity:0.3;fill:#ffffff;fill-opacity:1;fill-rule:evenodd;stroke:none;enable-background:accumulate" />
          <path
             sodipodi:nodetypes="ccccsc"
             inkscape:connector-curvature="0"
             id="path3623"
             d="m -1284.4965,657.91094 c 3.1322,0.57279 9.4548,-1.80428 10.6265,-5.51038 l 1.2313,9.52552 c -4.4282,3.5461 -10.6152,5.52241 -15.0434,7.45727 0.3863,-0.45531 1.7594,-1.43156 2.0324,-2.424 0.7907,-2.87388 1.1532,-9.04841 1.1532,-9.04841 z"
             style="color:#000000;display:inline;overflow:visible;visibility:visible;opacity:0.7;fill:#2d3c50;fill-opacity:1;fill-rule:nonzero;stroke:none;enable-background:accumulate" />
        </g>
      </g>
      <path
         sodipodi:nodetypes="cccccccccscssccccscccccccscccssccsccscssccccsscsscsccccscccccsscccscsccccccccccccccccccscccsccsccsscccccscsccssccsccsssccscccccccsccccccscsscccccccsccsssccccccccccscsccccccssscccccsccscscscccssccssscccccccccccccsccccssscccssscssccsccsccccccccscsccccccccccccssccccccscccccssssccsssccccsccccsccccscccccsccsscccccssscccsscccsccscccccsccccscsccccccscccssccccscsccccsscccscccccccscsccccccssccccccccccccccccccscccscccsscccscccscsccscccsccscccccccscsscscccccccsccccccsccscccccccssccc"
         inkscape:connector-curvature="0"
         id="path3515"
         d="m -1615.2643,723.62676 c -0.1369,0.003 -0.2789,0.0128 -0.4306,0.0281 -1.3704,0.13798 -2.6722,0.79921 -4.2997,2.18342 -2.3643,2.01102 -4.2741,5.07623 -4.4768,7.18553 -0.093,0.96367 -0.044,1.11498 0.533,1.65311 0.917,0.85567 2.5366,1.37741 4.0334,1.29935 l 1.2466,-0.0649 0.021,-1.49796 c 0.025,-1.81175 0.3471,-2.48547 1.816,-3.80609 1.0282,-0.92445 1.1642,-0.98078 2.7371,-1.13016 1.5901,-0.15102 2.8496,-0.0245 5.5608,0.55772 0.618,0.13269 1.1235,0.32812 1.1235,0.43434 0,0.33664 -2.3261,2.03485 -4.6811,3.41756 -3.885,2.28104 -6.9467,4.22846 -7.8048,4.96467 -0.6909,0.59272 -0.8423,0.87456 -0.9412,1.75209 l -0.1177,1.04556 0.974,-0.13341 c 1.6041,-0.21987 1.5501,-0.51646 1.5501,8.49859 0,7.8262 -0.01,7.95141 -0.4822,8.84098 -0.6112,1.14385 -1.1309,1.42404 -2.3124,1.24685 l -0.9269,-0.13909 0.1735,0.60587 c 0.096,0.33327 0.3711,0.99238 0.6119,1.46452 0.3781,0.741 0.6054,0.91107 1.6622,1.24418 2.2301,0.70301 5.1096,-0.19174 9.6377,-2.99525 0.8338,-0.51621 1.6652,-0.93857 1.8477,-0.93857 0.3655,0 0.8691,0.66806 1.1292,1.49796 0.4154,1.32524 1.2811,2.82339 1.7956,3.1076 l 0,3.4e-4 c 1.1685,0.64556 1.426,0.4469 4.7951,-3.69676 2.3827,-2.93045 3.1432,-4.00764 3.0461,-4.31366 -0.2093,-0.65963 -0.6231,-0.65902 -1.6063,10e-4 -0.7175,0.48184 -0.9905,0.56596 -1.2188,0.37649 -0.2445,-0.20298 -0.284,-2.30505 -0.2354,-12.46484 0.057,-11.89764 0.07,-12.24449 0.5046,-13.11318 0.4366,-0.87319 0.4382,-0.91813 0.072,-2.10317 -0.3532,-1.1418 -0.9159,-2.03328 -1.2833,-2.03328 -0.09,0 -0.4415,0.2774 -0.7804,0.61624 -0.443,0.44308 -0.9133,0.65583 -1.6748,0.75767 -2.0683,0.2766 -3.7452,-0.31295 -7.7319,-2.71773 -2.1909,-1.32156 -2.9078,-1.65196 -3.8663,-1.63204 z m 26.4169,42.19904 c -1.6247,0.0366 -3.5718,0.84953 -6.165,2.54854 -3.0514,1.99912 -5.6709,5.17341 -5.6709,6.87156 0,0.88437 0.467,2.41446 0.7369,2.41446 0.3768,0 1.0205,-0.75111 2.2179,-2.58833 1.4362,-2.20372 2.1076,-2.6591 3.893,-2.63915 1.4947,0.0167 2.675,0.43626 2.675,0.9506 0,0.18197 -0.7862,0.73012 -1.8367,1.28096 -2.267,1.18867 -3.2845,1.93856 -5.3104,3.91342 -2.4715,2.40924 -4.2958,5.06492 -5.397,7.85628 -0.1745,0.44212 -0.296,1.53804 -0.2943,2.67493 0,1.69102 0.09,2.14783 0.7306,3.7449 0.4012,1.00043 1.0208,2.30044 1.3769,2.88893 2.8467,4.70354 7.8577,8.84324 12.1833,10.06476 1.7553,0.49568 4.5615,0.2758 6.7338,-0.52729 5.1253,-1.89473 10.6379,-5.61096 11.8513,-7.98936 0.8152,-1.59782 0.03,-1.91866 -1.5133,-0.61857 -1.0775,0.90754 -3.8312,2.53077 -4.636,2.73277 l -0.5136,0.12907 0,-10.49376 c 0,-11.61198 -0.055,-11.16616 1.3706,-11.16616 0.3839,0 1.2541,-0.11157 1.934,-0.2481 1.07,-0.2149 1.3193,-0.36297 1.8547,-1.10208 0.601,-0.8298 0.6195,-0.92684 0.6172,-3.4433 0,-2.49985 -0.254,-4.19429 -0.6259,-4.19429 -0.098,0 -0.2296,0.19393 -0.2916,0.43099 -0.07,0.26691 -0.5886,0.65073 -1.3625,1.00812 -1.0395,0.48005 -1.5555,0.57856 -3.0685,0.58547 -2.2253,0.0102 -2.836,-0.25075 -5.9925,-2.56158 -2.6589,-1.94647 -2.9768,-2.12114 -4.42,-2.42649 -0.3446,-0.0729 -0.7021,-0.10575 -1.077,-0.0973 z m 71.837,-36.59874 c -0.026,-2.5e-4 -0.052,10e-4 -0.076,0.005 0.1354,6.29608 -3.6628,7.24019 -6.1684,10.60376 -0.158,0.82264 2.9605,5.63852 3.0013,6.64854 0.097,-0.79169 2.8632,-8.03517 5.6153,-7.69377 3.6037,-2.03795 -0.7284,-9.54776 -2.372,-9.56355 z m -3.2433,17.25732 c 0,0.0309 0,0.0555 -4e-4,0.0659 0,-0.019 0,-0.0427 4e-4,-0.0659 z m -76.0644,-15.35578 c -0.2734,-0.003 -0.4383,0.0792 -0.5019,0.24476 -0.077,0.2005 0.3235,0.99239 1.0128,2.00386 l 1.1399,1.6725 0.059,11.3601 c 0.058,11.17319 0.052,11.36623 -0.3745,11.75198 -0.7032,0.63645 -0.5298,1.28069 0.7353,2.7311 0.6428,0.73689 1.4836,1.89352 1.8685,2.57027 0.3848,0.67676 0.8255,1.23047 0.9793,1.23047 0.3511,0 2.5845,-4.54041 2.7555,-5.60197 0.097,-0.60041 0.019,-0.93826 -0.3266,-1.42407 -0.4484,-0.62962 -0.4534,-0.76643 -0.4534,-12.01847 l 0,-11.38183 0.8559,-1.2201 c 0.4708,-0.67116 0.856,-1.28842 0.856,-1.37157 0,-0.0832 -0.2791,-0.15114 -0.6199,-0.15114 -0.4741,0 -0.8164,0.23326 -1.4572,0.9924 l -0.8376,0.99207 -2.2399,-1.10475 c -1.7234,-0.85019 -2.8495,-1.26905 -3.451,-1.27561 z m 44.0888,42.06897 c -0.6666,0.003 -0.5991,0.55567 0.1936,1.65913 1.7611,2.45131 1.6411,1.43473 1.6411,13.88958 0,10.8313 -0.011,11.11266 -0.428,11.4905 -0.6977,0.63146 -0.5219,1.27861 0.7406,2.72609 0.6428,0.7369 1.4837,1.89352 1.8685,2.57028 0.3848,0.67676 0.8255,1.23047 0.9793,1.23047 0.3511,0 2.5845,-4.54042 2.7556,-5.60198 0.097,-0.60041 0.019,-0.93826 -0.3267,-1.42407 -0.4484,-0.62962 -0.4534,-0.76643 -0.4534,-12.01846 l 0,-11.38184 0.856,-1.2201 c 0.4707,-0.67115 0.8559,-1.28841 0.8559,-1.37157 0,-0.0832 -0.279,-0.15113 -0.6199,-0.15113 -0.4745,0 -0.8169,0.23373 -1.4615,0.99741 l -0.8416,0.99708 -2.2744,-1.11611 c -1.7371,-0.85261 -2.8969,-1.27793 -3.4851,-1.27528 z m -54.0783,-39.922 c 0.055,-0.002 0.097,0.009 0.125,0.0371 0.059,0.0593 -0.132,0.71634 -0.4249,1.46018 -0.481,1.22126 -0.5417,1.7313 -0.6276,5.25624 -0.1072,4.39461 -0.027,4.16699 -1.9838,5.608 -1.3914,1.02452 -1.5194,1.0954 -1.6822,0.93254 -0.2205,-0.22044 -0.1572,-4.57951 0.087,-5.96442 0.3803,-2.16057 1.2836,-4.20512 2.6201,-5.93066 0.5292,-0.68323 1.5032,-1.38312 1.8868,-1.39899 z m 22.9579,42.87881 0.5884,0.13675 c 0.9462,0.22009 2.3364,0.8682 2.5402,1.18433 0.1035,0.16046 0.2016,1.83266 0.2174,3.71581 0.016,1.88315 0.097,4.24244 0.1802,5.24287 0.2186,2.62831 -0.049,3.28467 -1.8073,4.44038 -0.7612,0.50022 -1.4593,0.90948 -1.5514,0.90948 -0.092,0 -0.1675,-3.51663 -0.1675,-7.81481 z m -7.5835,0.54802 c 0.053,0.003 0.096,0.0182 0.1254,0.0482 0.1294,0.12941 0.1824,3.69597 0.1411,9.493 -0.062,8.78433 -0.089,9.33156 -0.4938,10.14133 -0.6308,1.2616 -1.0878,1.2128 -2.4998,-0.26749 -1.9505,-2.04492 -2.8612,-4.40913 -3.1002,-8.0482 -0.2103,-3.20126 0.7911,-6.37737 2.8294,-8.9744 0.9666,-1.23156 2.4844,-2.41817 2.9979,-2.39239 z m 59.3806,-39.40006 c -0.5582,0 -3.8972,3.49346 -5.1827,5.42243 -1.7656,2.64939 -1.7494,3.12322 0.1314,3.82481 0.6209,0.23161 1.0937,0.52591 1.0509,0.65436 -0.09,0.27079 -1.3398,0.75795 -2.0052,0.78175 -0.2504,0.009 -0.5759,0.16154 -0.7232,0.33904 -0.2239,0.26972 -0.105,0.49686 0.7229,1.38194 l 0.9907,1.05894 0.01,3.16578 c 0,1.74107 0.09,3.8118 0.1923,4.60189 0.1797,1.39362 0.2322,1.48861 1.7584,3.17514 0.8653,0.95614 1.8134,1.86552 2.1072,2.02091 0.6236,0.32985 0.6061,0.33807 2.1573,-1.00109 0.6565,-0.56671 1.3795,-1.03052 1.6067,-1.03052 0.2605,0 0.6277,0.35531 0.9947,0.96298 0.3199,0.52963 0.7173,0.96297 0.8834,0.96297 0.3345,0 2.1613,-2.1722 3.5312,-4.19897 0.9484,-1.40307 1.1366,-2.22099 0.5109,-2.22087 -0.3487,8e-5 -0.3706,-0.39347 -0.3176,-5.72435 0.033,-3.35053 0.1538,-6.0429 0.2906,-6.49273 0.2933,-0.96483 -0.1865,-2.03464 -1.0533,-2.34825 -1.1989,-0.43381 -1.6856,-0.78645 -3.6854,-2.67092 -1.9783,-1.86432 -3.1707,-2.66524 -3.9682,-2.66524 z m -34.4465,0.214 c -0.1327,0 -0.806,0.87023 -1.4963,1.93398 -1.1071,1.70631 -1.4663,2.07652 -3.0507,3.1417 -1.7257,1.16013 -1.7907,1.23286 -1.6565,1.86409 0.1989,0.93587 0.21,11.66572 0.013,12.37925 -0.1449,0.52418 -0.041,0.71428 0.8767,1.60931 0.5727,0.5582 1.619,1.50911 2.3252,2.11353 0.7062,0.60441 1.621,1.63646 2.033,2.29342 0.4119,0.65696 0.8719,1.19582 1.0221,1.19737 0.1503,10e-4 1.1133,-0.69601 2.14,-1.55013 1.0267,-0.85412 2.2038,-1.78695 2.6157,-2.07274 0.412,-0.28578 1.2064,-0.89589 1.7655,-1.35585 l 1.0165,-0.83625 0,-6.18411 c 0,-5.95234 0.016,-6.19433 0.4279,-6.4516 1.0113,-0.63156 0.3119,-1.49386 -3.3169,-4.08997 -1.1769,-0.84204 -2.6651,-2.08477 -3.3069,-2.76153 -0.6417,-0.67676 -1.2753,-1.23047 -1.408,-1.23047 z m -13.3676,0.01 c -0.1766,-0.004 -0.5504,0.32991 -0.8306,0.74129 -0.2801,0.41138 -1.3331,1.44157 -2.3399,2.2894 -3.0293,2.55099 -4.3193,3.9051 -4.3193,4.53401 0,0.44815 0.1022,0.55739 0.5223,0.55739 0.2873,0 0.5678,0.0734 0.6232,0.16317 0.055,0.0897 0.1328,3.2804 0.1719,7.09058 l 0.071,6.92773 0.6433,0.4835 c 0.3538,0.26596 1.7507,1.07553 3.1043,1.79889 1.3535,0.72336 2.6019,1.45563 2.7742,1.62736 0.5797,0.57765 1.0534,0.35714 1.6661,-0.77539 0.3237,-0.59816 0.8972,-1.50162 1.2746,-2.00787 l 0.6865,-0.92052 -1.7564,-0.67575 c -0.9659,-0.37171 -2.0932,-0.84127 -2.5051,-1.04322 l -0.749,-0.36714 -0.06,-2.61407 c -0.07,-3.05567 -0.5367,-2.67114 3.6981,-3.04675 1.5301,-0.13571 2.8601,-0.32384 2.9555,-0.41796 0.095,-0.0941 0.1435,-0.64195 0.107,-1.21743 l -0.067,-1.04623 -1.498,-0.0545 c -1.7776,-0.0646 -2.4609,-0.19906 -2.4609,-0.4845 0,-0.11542 0.8666,-0.89431 1.9259,-1.73101 1.0593,-0.83671 1.926,-1.65609 1.926,-1.82063 0,-0.16453 -0.8971,-1.62246 -1.9935,-3.24001 -3.091,-4.56001 -3.2287,-4.74326 -3.5704,-4.75034 z m 33.7035,0.20429 c -0.1537,0 -0.588,0.55372 -0.965,1.23047 -0.804,1.44329 -1.8629,2.62143 -2.356,2.62143 -0.4688,0 -1.0903,-0.71077 -1.9176,-2.19344 -0.3776,-0.67676 -0.7608,-1.23047 -0.8516,-1.23047 -0.2389,0 -3.4319,4.87979 -3.4319,5.24487 0,0.0981 0.1661,0.36182 0.3691,0.58615 0.3345,0.36962 0.3626,0.96319 0.2996,6.32956 -0.061,5.19142 -0.1197,6.05393 -0.4761,6.99193 -0.2236,0.58849 -0.4065,1.13229 -0.4066,1.2084 -2e-4,0.21069 2.3029,3.17928 3.1714,4.08797 0.4219,0.44136 0.8234,0.80248 0.8918,0.80248 0.068,0 0.3085,-0.31297 0.5337,-0.69549 0.2251,-0.38251 0.6545,-0.88807 0.9546,-1.12347 0.3,-0.23539 0.8222,-0.67353 1.1602,-0.97367 l 0.6146,-0.54569 -0.6139,-1.16627 -0.6136,-1.16627 0.037,-6.17742 c 0.02,-3.39754 0.09,-6.39043 0.1555,-6.65088 0.1388,-0.55328 1.3517,-1.27265 1.951,-1.15724 0.8545,0.16455 0.953,0.86384 0.9623,6.81672 0.01,5.16768 -0.033,5.83341 -0.4631,7.50285 -0.2596,1.0076 -0.4089,1.99668 -0.3317,2.19779 0.077,0.20112 0.463,0.55595 0.8576,0.78878 0.3947,0.23282 1.0321,0.86119 1.4164,1.39631 0.8558,1.1917 0.8124,1.21903 2.8251,-1.79087 l 1.501,-2.24427 -0.5835,-0.4651 -0.5835,-0.46544 0.1889,-2.97853 c 0.104,-1.63823 0.1912,-4.67895 0.194,-6.75721 0,-2.07827 0.077,-3.85186 0.1658,-3.94118 0.3485,-0.35266 0.091,-0.76394 -1.6832,-2.69031 -1.014,-1.1009 -2.035,-2.31449 -2.2683,-2.697 -0.2334,-0.38252 -0.5498,-0.69549 -0.7035,-0.69549 z m 35.4953,0.24342 c -0.2082,0.013 -0.4073,0.21364 -0.6085,0.60287 -0.4894,0.9462 -2.2856,2.65423 -3.7276,3.54428 -1.4549,0.89804 -1.5756,1.09053 -1.295,2.06906 0.2615,0.91166 0.2521,3.32612 -0.02,5.09608 -0.5404,3.5192 -0.5454,3.38606 0.1404,3.5386 1.7881,0.39766 2.6499,0.78455 2.6499,1.18934 0,0.2275 -0.6741,1.75923 -1.498,3.40385 -0.8238,1.64462 -1.4973,3.15986 -1.4973,3.3674 5e-4,0.20754 0.1979,0.70062 0.4387,1.09572 0.3777,0.6195 0.5176,0.69811 1.0158,0.56976 0.3178,-0.0819 0.9643,-0.19638 1.4368,-0.25445 0.8049,-0.0989 0.9263,-0.037 1.926,0.9817 0.5868,0.59796 1.2186,1.08719 1.404,1.08736 0.1854,1.7e-4 0.8501,-0.6321 1.4772,-1.40501 0.6271,-0.77291 1.6792,-1.77399 2.3379,-2.22454 1.8368,-1.25637 2.459,-1.99754 2.2864,-2.72341 -0.079,-0.33089 -0.1413,-0.69783 -0.1391,-0.81552 0.073,-3.96589 0.3231,-7.35445 0.5714,-7.74961 0.1638,-0.26068 0.2979,-0.66995 0.2979,-0.90948 0,-0.39258 -0.1347,-0.43568 -1.3672,-0.43568 -1.0016,0 -1.4956,-0.1039 -1.8467,-0.3882 l -0.4791,-0.38786 1.2044,-2.41647 c 1.3768,-2.76182 1.4743,-3.47872 0.6607,-4.86704 -0.6142,-1.04803 -0.741,-1.10461 -1.1185,-0.50021 -0.1634,0.26161 -0.4954,0.42618 -0.854,0.42331 -0.8645,-0.007 -2.3194,-0.73489 -2.7344,-1.36823 -0.2371,-0.36186 -0.4542,-0.53661 -0.6624,-0.52362 z m -52.0649,41.39857 c -0.9887,0 -5.6578,5.3836 -6.3647,7.33867 -0.3814,1.05474 -0.1701,1.37464 1.2612,1.90857 0.6209,0.2316 1.0937,0.52649 1.0506,0.65569 -0.075,0.22501 -1.1026,0.61354 -2.3519,0.88908 -0.3237,0.0714 -0.5885,0.23847 -0.5885,0.37114 0,0.13268 0.4197,0.6902 0.9329,1.23883 l 0.9332,0.99742 0.102,4.41196 c 0.081,3.50644 0.1699,4.51419 0.434,4.90951 0.1827,0.27358 1.0971,1.29199 2.0319,2.26299 0.9349,0.971 1.7927,1.76545 1.9062,1.76545 0.1136,0 0.8281,-0.53057 1.5876,-1.17897 0.8352,-0.71299 1.5473,-1.15701 1.8019,-1.12348 0.2315,0.0305 0.6952,0.46477 1.0305,0.96499 0.3353,0.50021 0.7327,0.90947 0.8831,0.90947 0.2907,0 1.4194,-1.27748 2.8358,-3.20991 1.5197,-2.07343 1.9431,-3.21008 1.196,-3.20992 -0.3488,7e-5 -0.3706,-0.39348 -0.3177,-5.72436 0.034,-3.4334 0.1526,-6.03842 0.296,-6.50911 0.2079,-0.68277 0.1792,-0.88137 -0.2211,-1.52905 -0.263,-0.42561 -0.7049,-0.80604 -1.0318,-0.88808 -0.8251,-0.20707 -1.6459,-0.82378 -3.7008,-2.78093 -1.7163,-1.63469 -2.9695,-2.46996 -3.7064,-2.46996 z m 27.0318,0.22101 c -0.1765,-0.002 -0.5504,0.33259 -0.8305,0.74397 -0.2802,0.41138 -1.3,1.41385 -2.2667,2.22788 -3.2204,2.71188 -4.3926,3.93136 -4.3926,4.57012 0,0.47522 0.096,0.5828 0.5223,0.5828 0.2873,0 0.5678,0.0735 0.6233,0.16318 0.055,0.0897 0.1325,3.27288 0.1715,7.07352 0.068,6.59655 0.09,6.92793 0.5002,7.3039 0.2362,0.21661 1.5606,0.99018 2.9431,1.71897 1.3825,0.7288 2.7306,1.50606 2.9959,1.72734 0.7074,0.59011 1.1744,0.50736 1.5729,-0.27886 0.1939,-0.38251 0.7341,-1.26015 1.2007,-1.95036 0.4666,-0.69021 0.7681,-1.32729 0.6697,-1.41571 -0.098,-0.0884 -0.853,-0.41894 -1.6768,-0.7346 -0.8239,-0.31566 -1.835,-0.73863 -2.247,-0.9399 l -0.749,-0.36614 -0.06,-2.61407 c -0.07,-3.05142 -0.5171,-2.67117 3.573,-3.03638 1.4612,-0.13048 2.7897,-0.34773 2.9525,-0.48283 0.1933,-0.1605 0.274,-0.586 0.2323,-1.22746 l -0.064,-0.9817 -1.498,-0.0545 c -1.77,-0.0643 -2.4609,-0.19917 -2.4609,-0.48015 0,-0.11295 0.8667,-0.89924 1.9259,-1.7474 1.0593,-0.84816 1.926,-1.66511 1.926,-1.81561 0,-0.1505 -0.7061,-1.31246 -1.5689,-2.58198 -0.8627,-1.26951 -2.0423,-3.00372 -2.6214,-3.8539 -0.579,-0.85018 -1.197,-1.5478 -1.3736,-1.55013 z m 13.1323,0.4504 c -0.2082,0.013 -0.4073,0.21363 -0.6086,0.60286 -0.4893,0.9462 -2.2855,2.65423 -3.7275,3.54428 -1.4232,0.87845 -1.602,1.14464 -1.3004,1.93799 0.2675,0.70345 0.2599,3.44138 -0.014,5.22715 -0.5404,3.5192 -0.5455,3.38606 0.1404,3.5386 1.788,0.39766 2.6499,0.78456 2.6499,1.18934 0,0.22751 -0.6741,1.75923 -1.498,3.40385 -0.8239,1.64462 -1.4973,3.15987 -1.4973,3.36741 5e-4,0.20753 0.1978,0.70061 0.4387,1.09571 0.3777,0.61951 0.5176,0.69811 1.0158,0.56977 0.3178,-0.0819 0.9643,-0.19638 1.4368,-0.25446 0.8049,-0.0989 0.9262,-0.037 1.9259,0.9817 0.5868,0.59796 1.2186,1.08719 1.404,1.08736 0.1855,1.8e-4 0.8502,-0.63209 1.4773,-1.405 0.6271,-0.77291 1.6792,-1.77399 2.3378,-2.22454 1.8369,-1.25638 2.459,-1.99754 2.2864,-2.72342 -0.079,-0.33089 -0.1412,-0.69782 -0.1391,-0.81552 0.073,-3.96589 0.3232,-7.35444 0.5715,-7.74961 0.1638,-0.26068 0.2979,-0.66994 0.2979,-0.90948 0,-0.39258 -0.1347,-0.43568 -1.3672,-0.43568 -1.0016,0 -1.4956,-0.10389 -1.8467,-0.3882 l -0.4792,-0.38786 1.2044,-2.41647 c 1.3769,-2.76181 1.4743,-3.47872 0.6607,-4.86703 -0.6142,-1.04804 -0.741,-1.10462 -1.1184,-0.50022 -0.1634,0.26161 -0.4954,0.42619 -0.854,0.42331 -0.8646,-0.007 -2.3195,-0.73489 -2.7345,-1.36823 -0.2371,-0.36186 -0.4542,-0.53661 -0.6623,-0.52361 z m -11.133,-38.17628 c 0.1218,0.005 0.2623,0.024 0.4323,0.0548 1.4493,0.2624 3.2634,1.37241 3.2634,1.99683 0,0.2633 -0.4534,0.59061 -1.4615,1.05526 -0.8038,0.37052 -1.7703,0.67375 -2.1476,0.67375 -0.6111,0 -0.732,-0.1071 -1.1064,-0.9807 -0.5511,-1.28563 -0.5303,-1.71061 0.1146,-2.35561 0.34,-0.33998 0.5396,-0.45834 0.9052,-0.44437 z m -30.7391,42.12381 c 0.6642,-0.0271 1.5185,0.24301 2.4757,0.81418 1.6439,0.98096 1.6027,1.39193 -0.2247,2.23423 -1.5422,0.71084 -2.6378,0.86208 -2.9779,0.41094 -0.3839,-0.50924 -0.7543,-2.02701 -0.6075,-2.48936 0.1962,-0.61826 0.6702,-0.94288 1.3344,-0.96999 z m -16.1428,-40.9204 c 0.1724,-0.003 0.4033,0.14061 0.7149,0.39289 0.3813,0.30874 0.5188,0.67898 0.5955,1.60395 0.1247,1.50326 -0.019,2.08522 -0.7196,2.91802 -1.0448,1.24169 -1.1933,0.92784 -1.1117,-2.34793 0.046,-1.84115 0.1416,-2.55988 0.5209,-2.56693 z m 13.9575,0.0943 c 0.1839,-0.005 0.4156,0.12628 0.8563,0.43166 1.8756,1.29981 1.752,0.6942 1.6882,8.27156 -0.049,5.77534 -0.1017,6.72891 -0.3775,6.77928 -0.3216,0.0587 -1.1382,-0.40059 -2.1399,-1.20405 l -0.535,-0.42933 -0.076,-6.70873 c -0.067,-5.96713 -0.037,-6.74008 0.2695,-6.99461 0.1104,-0.0916 0.2036,-0.14308 0.314,-0.14578 z m 55.8248,0.12906 c 0.6767,0 2.4177,0.76144 2.5268,1.10508 0.1459,0.45964 -0.2994,1.52573 -1.2733,3.04809 -0.7839,1.22544 -1.1641,1.43316 -1.6193,0.88473 -0.3987,-0.48044 -0.068,-5.0379 0.3658,-5.0379 z m -25.7226,41.88841 c 0.3858,-0.0202 0.8824,0.318 1.1463,0.82823 0.3757,0.72664 0.4205,2.60752 0.078,3.27278 -0.1324,0.25708 -0.4383,0.68411 -0.6795,0.94893 -0.8767,0.96257 -1.0057,0.66413 -1.0057,-2.32351 0,-1.46383 0.091,-2.57568 0.216,-2.6532 0.073,-0.0451 0.156,-0.0686 0.245,-0.0732 z m 13.8218,0.18156 c 0.6766,0 2.4177,0.76144 2.5268,1.10509 0.1458,0.45963 -0.2995,1.52572 -1.2733,3.04808 -0.7839,1.22545 -1.1638,1.43317 -1.619,0.88473 -0.3987,-0.48043 -0.068,-5.0379 0.3655,-5.0379 z m -6.7756,-38.42905 c 0.602,0.0158 0.5417,1.18028 0.5417,5.42208 0,5.29546 -0.012,5.44261 -0.4889,6.15235 -0.6039,0.89832 -1.1976,1.00978 -1.8246,0.34239 -0.7552,-0.80392 -0.8964,-1.70847 -0.8964,-5.7394 0,-4.99293 0.01,-5.0351 1.3692,-5.66785 0.6151,-0.28643 1.0254,-0.51674 1.299,-0.50957 z m -78.5921,0.88874 c 0.093,-0.0392 0.1698,2.28743 0.1698,5.17031 l 0,5.24153 -0.9095,0.43869 c -0.5002,0.24132 -1.8243,0.58673 -2.9424,0.76737 -1.1181,0.18064 -2.3523,0.32867 -2.7428,0.32902 -0.6387,7.7e-4 -0.6948,-0.0473 -0.5581,-0.48049 0.084,-0.26482 0.7166,-1.47638 1.4064,-2.69232 1.0151,-1.78943 1.2971,-2.50319 1.4806,-3.7449 0.3717,-2.5162 0.4828,-2.70428 2.2914,-3.88801 0.8991,-0.58849 1.7111,-1.10196 1.8046,-1.1412 z m 47.8541,41.18223 c 0.6071,0.006 0.5473,1.13752 0.5473,5.24588 0,5.57661 -0.1301,6.44459 -1.0378,6.93041 -0.2377,0.12717 -0.526,0.23138 -0.641,0.23138 -0.4511,0 -1.2991,-1.3329 -1.4642,-2.30144 -0.2252,-1.32106 -0.2235,-6.71172 0,-8.04085 0.167,-0.98188 0.2312,-1.05946 1.2836,-1.54945 0.6198,-0.28858 1.0334,-0.51858 1.3094,-0.51593 z m 50.4369,-36.85887 c 0.145,-0.01 0.3602,0.0438 0.5477,0.14411 0.4307,0.23052 0.4507,0.37439 0.3791,2.7592 -0.052,1.72222 -0.1684,2.62734 -0.3694,2.86953 -0.3449,0.41543 -2.1995,0.43107 -3.3979,0.0288 -0.1817,-0.061 0.1791,-0.98216 1.1218,-2.86451 0.7643,-1.52615 1.4848,-2.83383 1.601,-2.90565 0.029,-0.018 0.069,-0.0282 0.1177,-0.0314 z m -71.075,41.50924 -0.013,2.22019 c -0.014,2.44066 -0.2315,4.15495 -0.5698,4.49322 -0.3445,0.34449 -4.0759,0.42208 -5.5164,0.11469 -1.2696,-0.27093 -2.5366,-0.81388 -2.7662,-1.18533 -0.1357,-0.21957 0.9146,-1.06645 2.0173,-1.62636 0.4119,-0.20918 1.822,-1.13855 3.1336,-2.06538 1.3116,-0.92683 2.6839,-1.74483 3.0495,-1.81795 l 0.6647,-0.13308 z m 59.1741,0.56073 c 0.145,-0.01 0.3603,0.0438 0.5477,0.14412 0.4307,0.23051 0.4507,0.37439 0.3792,2.75919 -0.052,1.72222 -0.1681,2.62734 -0.3691,2.86953 -0.3449,0.41543 -2.1999,0.43108 -3.3982,0.0288 -0.1817,-0.061 0.1791,-0.98217 1.1218,-2.86452 0.7643,-1.52615 1.4844,-2.83383 1.6006,-2.90564 0.029,-0.018 0.07,-0.0282 0.118,-0.0314 z"
         style="fill:#ce5c00" />
      <path
         style="color:#000000;clip-rule:nonzero;display:inline;overflow:visible;visibility:visible;opacity:1;isolation:auto;mix-blend-mode:normal;color-interpolation:sRGB;color-interpolation-filters:linearRGB;solid-color:#000000;solid-opacity:1;fill:#f57900;fill-opacity:1;fill-rule:nonzero;stroke:none;stroke-width:0.90626031;stroke-linecap:butt;stroke-linejoin:miter;stroke-miterlimit:4;stroke-dasharray:none;stroke-dashoffset:0;stroke-opacity:1;color-rendering:auto;image-rendering:auto;shape-rendering:auto;text-rendering:auto;enable-background:accumulate"
         d="m -1566.8088,661.53834 c -0.1016,0.0158 -0.2065,0.0371 -0.3182,0.0636 -1.009,0.23917 -1.9254,0.86644 -3.0269,2.07137 -1.6,1.75055 -2.7781,4.25182 -2.7616,5.86352 0.01,0.73637 0.056,0.84572 0.5279,1.19494 0.7504,0.55534 1.9972,0.78945 3.105,0.58304 l 0.9226,-0.17182 -0.1032,-1.13246 c -0.1252,-1.36965 0.061,-1.90979 1.0495,-3.05112 0.6919,-0.79893 0.7887,-0.85484 1.9474,-1.12257 1.1715,-0.27066 2.1189,-0.2993 4.1829,-0.12712 0.4705,0.0392 0.8623,0.13689 0.8707,0.21704 0.026,0.25404 -1.5698,1.76476 -3.2127,3.04026 -2.7105,2.10417 -4.8346,3.87545 -5.4148,4.51558 -0.4672,0.51536 -0.5575,0.74296 -0.5615,1.41491 l -0.01,0.8006 0.7143,-0.19667 c 1.1764,-0.32399 1.1127,-0.54248 1.828,6.26046 0.6212,5.9058 0.6237,6.00127 0.3428,6.71909 -0.3641,0.9234 -0.7287,1.18605 -1.6221,1.16877 l -0.7008,-0.0136 0.1771,0.4401 c 0.098,0.24204 0.355,0.7123 0.5717,1.04485 0.3402,0.52192 0.5228,0.62785 1.3359,0.77509 1.7155,0.31074 3.7875,-0.64823 6.9351,-3.21004 0.5797,-0.47171 1.1649,-0.87236 1.3007,-0.89035 0.272,-0.036 0.6998,0.41849 0.9594,1.01912 0.4142,0.95911 1.1775,2.00434 1.5829,2.1681 l 0,2.6e-4 c 0.921,0.372 1.0968,0.19671 3.2754,-3.26219 1.5408,-2.44618 2.0214,-3.33399 1.9248,-3.55535 -0.2081,-0.47714 -0.516,-0.43591 -1.1954,0.15905 -0.4958,0.43431 -0.6923,0.52469 -0.8773,0.40421 -0.198,-0.12908 -0.3943,-1.71145 -1.1643,-9.38302 -0.9017,-8.9838 -0.9196,-9.24682 -0.6651,-9.94518 0.2557,-0.70195 0.2533,-0.73602 -0.1133,-1.59419 -0.3535,-0.82682 -0.843,-1.4441 -1.1165,-1.40789 -0.067,0.009 -0.3065,0.25284 -0.5319,0.54194 -0.2945,0.37801 -0.6276,0.5849 -1.1864,0.73679 -1.5173,0.41255 -2.8122,0.13292 -5.9701,-1.2889 -1.7355,-0.78137 -2.2953,-0.96005 -3.007,-0.85056 z m 7.4318,6.39853 c 0.041,-0.007 0.073,-0.003 0.096,0.0157 0.048,0.0389 -0.042,0.55357 -0.2003,1.14375 -0.2611,0.96899 -0.2658,1.35986 -0.05,4.02831 0.2689,3.32682 0.3105,3.14716 -1.0315,4.42741 -0.9543,0.91023 -1.0439,0.97634 -1.178,0.86948 -0.1816,-0.14462 -0.4804,-3.44029 -0.4085,-4.50944 0.1116,-1.66789 0.6215,-3.29976 1.4793,-4.73359 0.3397,-0.56773 1.009,-1.19187 1.2933,-1.24164 z m 0.2152,11.10305 c 0.066,-0.0387 0.3078,1.70941 0.5367,3.88488 l 0.4159,3.95537 -0.6421,0.42067 c -0.3531,0.23139 -1.3112,0.62253 -2.1289,0.86903 -0.8179,0.2465 -1.7247,0.47983 -2.0153,0.51858 -0.4753,0.0635 -0.5209,0.0328 -0.4535,-0.30759 0.042,-0.20811 0.4162,-1.18473 0.833,-2.17028 0.6136,-1.45037 0.7668,-2.01678 0.8048,-2.97188 0.077,-1.9354 0.1447,-2.08828 1.3968,-3.15978 0.6225,-0.53268 1.1861,-1.00018 1.2526,-1.039 z"
         id="path3643"
         inkscape:connector-curvature="0"
         sodipodi:nodetypes="cccccccccscssccccscccccccscccssccsccscsscccccccccscccsccscccccc" />
    </g>
  </g>
</svg>
