<?xml version="1.0" encoding="UTF-8" standalone="no"?>
<!-- Created with Inkscape (http://www.inkscape.org/) -->

<svg
   xmlns:dc="http://purl.org/dc/elements/1.1/"
   xmlns:cc="http://creativecommons.org/ns#"
   xmlns:rdf="http://www.w3.org/1999/02/22-rdf-syntax-ns#"
   xmlns:svg="http://www.w3.org/2000/svg"
   xmlns="http://www.w3.org/2000/svg"
   xmlns:sodipodi="http://sodipodi.sourceforge.net/DTD/sodipodi-0.dtd"
   xmlns:inkscape="http://www.inkscape.org/namespaces/inkscape"
   width="116.09099"
   height="220"
   id="svg2"
   version="1.1"
   inkscape:version="0.91 r13725"
   sodipodi:docname="aleona.svg"
   inkscape:export-filename="/home/mimooh/wargus.png"
   inkscape:export-xdpi="90"
   inkscape:export-ydpi="90">
  <defs
     id="defs4">
    <filter
       inkscape:collect="always"
       id="filter4519-2"
       x="-0.088692531"
       width="1.1773851"
       y="-0.1854682"
       height="1.3709364"
       style="color-interpolation-filters:sRGB">
      <feGaussianBlur
         inkscape:collect="always"
         stdDeviation="0.75660286"
         id="feGaussianBlur4521-9" />
    </filter>
  </defs>
  <sodipodi:namedview
     id="base"
     pagecolor="#ffffff"
     bordercolor="#666666"
     borderopacity="1.0"
     inkscape:pageopacity="0.0"
     inkscape:pageshadow="2"
     inkscape:zoom="1.4142136"
     inkscape:cx="-17.138691"
     inkscape:cy="109.81394"
     inkscape:document-units="px"
     inkscape:current-layer="layer1"
     showgrid="false"
     inkscape:window-width="934"
     inkscape:window-height="975"
     inkscape:window-x="0"
     inkscape:window-y="0"
     inkscape:window-maximized="0"
     fit-margin-top="0"
     fit-margin-left="0"
     fit-margin-right="0"
     fit-margin-bottom="0"
     showguides="true"
     inkscape:guide-bbox="true"
     inkscape:snap-bbox="false"
     inkscape:snap-global="false" />
  <metadata
     id="metadata7">
    <rdf:RDF>
      <cc:Work
         rdf:about="">
        <dc:format>image/svg+xml</dc:format>
        <dc:type
           rdf:resource="http://purl.org/dc/dcmitype/StillImage" />
        <dc:title></dc:title>
      </cc:Work>
    </rdf:RDF>
  </metadata>
  <g
     inkscape:label="Layer 1"
     inkscape:groupmode="layer"
     id="layer1"
     transform="translate(1939.7336,-583.06335)">
    <g
       id="layer1-85"
       inkscape:label="Layer 1"
       transform="translate(-1.2456738,-1.4142184)">
      <g
         style="opacity:1"
         inkscape:label="Layer 1"
         id="layer1-6"
         transform="translate(-4.24264,0)">
        <g
           transform="matrix(0.8710547,-0.00256253,0.00194429,1.1480278,0,0)"
           style="color:#000000;font-style:normal;font-weight:normal;font-size:56.95957184px;line-height:125%;font-family:Sans;letter-spacing:0px;word-spacing:0px;clip-rule:nonzero;display:inline;overflow:visible;visibility:visible;opacity:1;isolation:auto;mix-blend-mode:normal;color-interpolation:sRGB;color-interpolation-filters:linearRGB;solid-color:#000000;solid-opacity:1;fill:#5c3566;fill-opacity:1;fill-rule:nonzero;stroke:none;stroke-width:1.24492085;stroke-linecap:butt;stroke-linejoin:miter;stroke-miterlimit:4;stroke-dasharray:none;stroke-dashoffset:0;stroke-opacity:1;color-rendering:auto;image-rendering:auto;shape-rendering:auto;text-rendering:auto;enable-background:accumulate"
           id="text3537-5" />
        <g
           id="g3659"
           transform="translate(-315.36962,0)">
          <g
             id="g3537"
             transform="matrix(0.90626031,0,0,0.90626031,-426.87666,91.512928)">
            <g
               transform="matrix(1.6281124,0,0,1.6281124,-1471.902,663.02363)"
               id="g3541">
              <path
                 sodipodi:nodetypes="ccsccsccccc"
                 inkscape:connector-curvature="0"
                 id="path3543"
                 transform="matrix(0.62995741,0,0,0.62995741,906.64029,-453.22758)"
                 d="m -1218.7578,674.12695 -27.3008,0.60157 c -4.8012,6.61837 -34.1946,2.38157 -20.5156,53.97851 2.6044,9.82391 -4.9572,8.86237 -6.5,17.46485 -0.2665,1.48573 -4.3295,2.60654 -6.9453,0.14453 0.1827,3.11133 3.4936,4.76568 7.432,6.18337 3.4205,1.23124 6.6395,2.71589 7.8522,0.97803 2.624,-0.88288 5.8395,1.0297 5.0592,4.12574 l 65.8012,0.20114 c 2.0599,-31.85128 -16.232,-53.96273 -24.8828,-83.67774 z"
                 style="fill:#f57900;stroke:none" />
              <path
                 style="opacity:0.2;fill:#000000;stroke:none"
                 d="m 118.28865,-18.87524 c -2.20946,0.743914 -7.77056,2.964058 -8.93475,4.840399 -1.63393,7.5450694 2.53176,15.5893537 1.88081,23.615974 -0.26759,1.905482 -1.61202,3.350276 -2.81159,4.74805 1.08405,-0.54479 2.35003,-1.727154 3.46673,-2.566061 1.43742,-1.096346 2.0703,-3.04556 1.47017,-4.766121 -0.27725,-1.824253 1.32125,-3.208746 2.42597,-4.434667 2.74122,-2.61081102 5.85022,-4.872099 9.24712,-6.553 -2.32398,-4.400019 -3.24906,-9.414142 -5.68823,-13.763595 -0.28049,-0.424888 -0.55739,-0.925888 -1.05623,-1.120979 z m -11.12566,32.35913 c -0.92197,2.344738 -1.98299,4.161035 -4.45226,4.992266 -1.58046,0.278705 0.44943,2.093433 1.65407,0.806058 2.53949,-1.242314 2.55439,-3.18187 2.79819,-5.798324 z"
                 id="path3545"
                 inkscape:connector-curvature="0"
                 sodipodi:nodetypes="cccccccccccccc" />
              <path
                 style="opacity:0.4;fill:#ffffff;stroke:none"
                 d="m 139.06169,-28.556182 -17.19727,0.3789 c -3.02453,4.16929 -20.79099,1.18754 -12.17383,33.691409 1.64067,6.188643 -3.78002,6.457757 -4.75195,11.001953 -0.10094,0.471958 1.28752,-1.715902 1.39453,-2.3125 1.65943,-3.387946 5.84438,-1.90706 4.20371,-8.095703 -8.61716,-32.503869 9.01004,-30.115869 12.03457,-34.285159 l 16.49414,-0.36328 c -0.002,-0.0052 -0.002,-0.01043 -0.004,-0.01562 z"
                 id="path3547"
                 inkscape:connector-curvature="0"
                 sodipodi:nodetypes="ccsscscccc" />
            </g>
            <g
               transform="matrix(1.578365,0,0,1.578365,-1363.9614,185.14911)"
               id="g3549">
              <path
                 style="color:#000000;display:inline;overflow:visible;visibility:visible;fill:#2d3c50;fill-opacity:1;fill-rule:nonzero;stroke:none;enable-background:accumulate"
                 d="m 16.09375,-96.929688 c -0.370027,-0.0126 -0.911539,0.110254 -0.996094,0.470704 l -8.2089841,33.445312 c -0.054192,0.230253 2.0984294,2.404619 3.0097656,3.31836 l 5.2128905,0 0.748808,-3.153352 -0.417033,-1.757069 0.956759,-0.9315 0.788403,-3.574439 -1.256207,-1.300017 1.501268,-0.654872 5.189721,-24.706877 c 0.112872,-0.476928 -0.238694,-0.936595 -0.728516,-0.953124 z"
                 transform="matrix(1.0315183,0,0,1.0315183,78.965533,389.26043)"
                 id="path3551"
                 inkscape:connector-curvature="0"
                 sodipodi:nodetypes="cccccccccccccc" />
              <path
                 style="color:#000000;display:inline;overflow:visible;visibility:visible;fill:#618599;fill-opacity:1;fill-rule:nonzero;stroke:none;enable-background:accumulate"
                 d="m 16.880859,-96.154297 -8.3144528,35.091797 1.3339844,1.367188 3.5937504,0 0.907722,-3.801304 -0.459219,-1.41809 0.972473,-1.114723 0.659561,-2.94005 -1.321728,-1.840723 1.886105,-1.011564 L 21.4375,-95.0625 Z"
                 transform="matrix(1.0315183,0,0,1.0315183,78.965533,389.26043)"
                 id="path3553"
                 inkscape:connector-curvature="0"
                 sodipodi:nodetypes="cccccccccccc" />
              <path
                 sodipodi:nodetypes="ccccccccccccccccccccccc"
                 inkscape:connector-curvature="0"
                 id="path3555"
                 d="m 101.74023,272.35547 c -2.086545,-4.5e-4 -3.795372,1.70837 -3.794918,3.79492 5.09e-4,1.14321 0.603854,2.13296 1.46875,2.8457 l -2.535307,8.04875 c -2.550347,-0.38628 -4.791544,-0.75846 -7.30462,-1.12697 -0.324591,-0.0481 -0.645056,0.10979 -0.804687,0.39648 l -2.552836,4.85572 c -0.282865,0.5105 0.06749,1.14073 0.650391,1.16993 l 8.009833,0.42967 c -0.399954,2.06177 -1.978379,15.12516 -0.953261,17.11022 1.883076,-0.80574 6.057863,-14.85717 6.698935,-16.24265 l 1.05668,0.40784 0.23686,0.0914 6.41217,2.24642 c 0.56583,0.20796 1.14631,-0.27002 1.05078,-0.86524 l -0.49212,-5.22085 c -0.0488,-0.30223 -0.26807,-0.54893 -0.5625,-0.63281 0,0 -4.04252,-1.31194 -6.66797,-1.88287 l 1.44518,-8.15227 c 1.42908,-0.56221 2.43089,-1.90587 2.4336,-3.47657 l 0,-0.002 c 4.5e-4,-2.08655 -1.70838,-3.79537 -3.79493,-3.79492 z"
                 style="color:#000000;display:inline;overflow:visible;visibility:visible;fill:#2d3c50;fill-opacity:1;fill-rule:nonzero;stroke:none;enable-background:accumulate" />
              <path
                 style="color:#000000;display:inline;overflow:visible;visibility:visible;fill:#425b68;fill-opacity:1;fill-rule:nonzero;stroke:none;enable-background:accumulate"
                 d="m 101.73962,273.14499 c -1.66024,-3.6e-4 -3.006226,1.34562 -3.005864,3.00586 4.84e-4,1.08897 0.590036,2.09248 1.541014,2.62305 l -2.212889,9.4746 c -2.788413,-0.44065 -5.511674,-0.75794 -8.28125,-1.16406 l -2.164481,3.88871 8.512138,0.72262 c -1.04795,4.89757 -2.341591,18.35266 -2.10253,17.69923 0.0636,0.67326 5.687192,-15.47845 6.077832,-17.17947 l 8.23916,2.91054 -0.75084,-4.64002 c 0,0 -5.00948,-1.52774 -7.39526,-1.96543 l 2.954,-9.94936 c 1.35915,-0.31621 1.59243,-1.02496 1.59483,-2.42041 3.6e-4,-1.66024 -1.34562,-3.00622 -3.00586,-3.00586 z"
                 id="path3557"
                 inkscape:connector-curvature="0"
                 sodipodi:nodetypes="ccccccccccccccc" />
            </g>
            <path
               sodipodi:nodetypes="ccccc"
               inkscape:connector-curvature="0"
               id="path3559"
               d="m -1213.8431,646.35689 -12.7127,52.56004 1.8484,1.97058 c 1.5955,-7.05274 8.3439,-29.04859 8.3439,-29.04859 1.1234,-17.10407 2.5204,-25.48203 2.5204,-25.48203 z"
               style="fill:#ffffff;fill-rule:evenodd;stroke:none" />
            <path
               inkscape:connector-curvature="0"
               id="path3561"
               d="m -1207.0398,632.98315 c -0.6838,0.0116 -1.1242,0.16734 -1.1684,0.41309 -0.075,0.3981 0.8957,0.91058 2.1672,1.1437 1.2708,0.23349 2.3604,0.0995 2.4323,-0.29904 0.075,-0.39809 -0.8957,-0.91058 -2.1672,-1.14369 -0.4406,-0.081 -0.8794,-0.12061 -1.2639,-0.11412 z m -0.8355,3.07041 c -0.6837,0.0116 -1.1241,0.16734 -1.1683,0.41309 -0.07,0.39783 0.8996,0.90813 2.1672,1.14062 1.269,0.23263 2.3564,0.0988 2.4291,-0.29903 0.07,-0.39783 -0.8996,-0.90812 -2.1671,-1.14061 -0.4394,-0.0808 -0.877,-0.12037 -1.2609,-0.11411 z m -13.934,1.84966 -0.3946,1.18377 28.312,4.7351 c -3.8705,-1.568 -7.8405,-2.57462 -11.8501,-3.35403 0.3934,-0.0627 0.63,-0.19308 0.6659,-0.36686 0.076,-0.39776 -0.8932,-0.91014 -2.1641,-1.14368 -0.4406,-0.081 -0.8794,-0.12061 -1.264,-0.11412 -0.6837,0.0116 -1.1241,0.16734 -1.1683,0.41309 -0.031,0.18456 0.1646,0.40295 0.5456,0.61039 -4.2196,-0.70018 -8.4653,-1.24929 -12.6824,-1.96371 z"
               style="color:#000000;display:inline;overflow:visible;visibility:visible;opacity:0.4;fill:#ffffff;fill-opacity:1;fill-rule:nonzero;stroke:none;enable-background:accumulate"
               sodipodi:nodetypes="ccccccccccccccccccccccccc" />
            <path
               style="color:#000000;display:inline;overflow:visible;visibility:visible;fill:#2d3c50;fill-opacity:1;fill-rule:nonzero;stroke:none;enable-background:accumulate"
               d="m -1200.0965,608.30946 c -4.4305,0.1616 -9.1185,1.18158 -9.1185,1.18158 l -18.9639,-0.51345 c -3.2262,11.75137 1.6794,17.57612 5.453,27.40692 0.3613,-0.43507 9.1322,-8.99916 12.1589,-12.18433 0,0 1.7444,5.36896 2.5193,5.95019 1.2593,0.64578 5.3334,2.3911 8.6966,-0.94082 l 0.628,-1.17877 9.3993,-3.19937 c 1.3274,-7.64011 -4.1426,-15.48307 -4.1426,-15.48307 -1.4065,-0.92375 -3.9716,-1.13582 -6.6301,-1.03888 z"
               id="path3563"
               inkscape:connector-curvature="0"
               sodipodi:nodetypes="scccccccccs" />
            <path
               inkscape:connector-curvature="0"
               style="fill:#000000;fill-opacity:1;stroke:none"
               d="m -1251.7965,610.53683 c -1.8522,0.0329 -3.843,0.59781 -6.1118,0.59781 -4.3658,0 -8.4199,2.32428 -11.772,6.28033 -5.1767,-0.4115 -9.8283,-2.28324 -13.5366,-0.69624 -19.1988,6.37751 -24.6261,19.43457 -25.8084,26.99816 7.0287,-0.47912 10.6287,-1.2785 19.341,-2.53711 l 10.7606,-5.75043 c 2.8297,13.01773 -1.5245,33.55747 -3.5589,42.77272 -1.2016,2.6346 -2.2153,4.24682 -1.7267,5.2691 1.8528,2.15674 4.5397,1.25842 8.1279,1.32602 -0.8368,2.84999 -1.4023,6.18084 -1.0558,8.87512 -4.9278,1.32215 -9.4518,4.89877 -10.3983,9.30615 l 63.0544,0 c -5.4264,-5.27603 -13.6634,-9.19543 -20.4118,-9.92623 2.3535,-3.06141 3.449,-6.05938 4.1688,-9.48566 5.3211,-0.76188 11.5089,-1.56269 12.5486,-3.36741 -0.3793,-13.30434 -3.5757,-33.34036 -4.8446,-41.91497 -0.078,-0.52889 -0.739,-5.22055 -0.819,-5.66089 l 1.2163,3.97653 10.1766,-4.57484 c 1.9381,1.00524 -1.356,-17.96713 -3.8969,-17.89733 -2.7175,0.75323 -12.3187,1.66148 -14.9152,2.37788 -1.4888,0.41076 -3.8681,-3.77857 -5.2595,-3.38024 -1.7131,-2.1224 -3.4265,-2.62139 -5.2787,-2.58844 z m -1.8157,74.10455 0,0.003 c -0.6474,2.81802 -0.6703,5.54122 -0.067,7.62859 -4.455,-0.29154 -8.6541,0.54035 -12.7769,0.35933 -0.095,-0.003 -0.1853,-0.006 -0.2798,-0.01 1.1588,-2.47759 1.8902,-5.18562 2.1051,-7.73672 3.5647,-0.0169 7.3166,-0.0901 11.0184,-0.24486 z"
               id="path3565"
               sodipodi:nodetypes="csccccccccccccccscccccccccccccccc" />
            <path
               inkscape:connector-curvature="0"
               id="path3567"
               d="m -1255.106,567.7338 c -5.242,-0.0211 -12.4828,1.03073 -18.4286,2.73747 -2.9723,0.8532 -5.6107,1.85669 -7.5682,3.0735 -0.9766,0.60713 -1.8088,1.26971 -2.4045,2.09933 -0.5374,0.7485 -0.7922,1.70112 -0.6844,2.66659 1.489,12.71598 3.181,25.51195 4.7988,38.2476 0.067,0.52283 0.403,0.976 0.8847,1.18994 6.1343,2.71882 12.0668,4.15371 17.1401,4.58403 5.0707,0.43011 9.2743,-0.0857 12.1213,-1.58144 0.6073,-0.31827 0.9264,-1.01236 0.7707,-1.68009 l -0.01,-0.0462 2.7005,0.74294 c 0.1153,0.0315 0.2386,0.0124 0.3391,-0.0524 l 7.8518,-5.07729 c 0.3694,-0.21001 0.548,-0.58374 0.6288,-0.94331 0.081,-0.35958 0.071,-0.72907 -0.032,-1.06047 -0.1488,-0.48522 -0.9576,-3.60134 -1.9853,-7.68835 -1.0278,-4.08748 -2.3197,-9.28472 -3.5852,-14.39334 -2.5311,-10.21718 -4.954,-20.09025 -4.954,-20.09025 l 0,0 c -0.013,-0.0467 -0.026,-0.0949 -0.043,-0.14174 -0.2388,-0.67751 -0.6971,-1.16494 -1.2361,-1.49204 -0.5402,-0.3278 -1.159,-0.51557 -1.7788,-0.66588 -1.2567,-0.3048 -2.779,-0.42146 -4.5254,-0.4285 z m 4.917,21.6501 0.5117,2.51244 -2.5093,1.49822 c -0.5565,0.33202 -0.8387,0.98548 -0.6998,1.61844 l -0.01,-0.0246 2.5679,16.11042 -3.6191,-15.58943 c -0.1683,-0.72288 -0.8445,-1.219 -1.5846,-1.1622 l -6.819,0.52099 -0.7152,-3.03651 c 3.4243,0.16602 6.5134,-0.18457 8.9338,-0.87549 1.6932,-0.48334 2.9132,-1.03285 3.9397,-1.57221 z"
               style="color:#000000;display:inline;overflow:visible;visibility:visible;fill:#2c3e46;fill-opacity:1;fill-rule:nonzero;stroke:none;enable-background:accumulate"
               sodipodi:nodetypes="cssccccsccccccccsscccccccccccccccccscc" />
            <path
               sodipodi:nodetypes="ccccccc"
               inkscape:connector-curvature="0"
               id="path3569"
               d="m -1271.8237,586.4085 5.7674,33.49649 8.5591,0.50005 c 3.0089,-1.82431 6.1541,-2.33736 9.5447,-2.9244 l 2.5355,-1.06423 -1.8872,-35.32087 z"
               style="fill:#000000;fill-rule:evenodd;stroke:none" />
            <path
               sodipodi:nodetypes="scccccccccccccs"
               inkscape:connector-curvature="0"
               id="path3571"
               d="m -1255.1122,569.24124 c -10.0592,-0.0405 -28.7524,4.15497 -27.6152,9.0972 l 4.8313,38.02944 c 11.9683,5.30457 23.133,5.57601 27.9506,3.04503 l -5.1537,-23.17873 -8.4187,0.23847 -3.4279,-6.18205 c 8.233,1.00568 18.3288,-3.32705 19.8799,-4.54335 l -0.1117,0.71059 0.1932,5.98477 -4.4301,2.24689 5.4361,23.31105 c 1.2765,-1.05332 7.5407,-4.92267 7.5407,-4.92267 -0.8462,-2.75835 -10.5492,-42.25516 -10.5492,-42.25516 -0.3804,-1.08361 -2.7723,-1.56792 -6.1254,-1.58146 z"
               style="fill:#425b68;fill-opacity:1;stroke:none" />
            <path
               sodipodi:nodetypes="cccccccccccccc"
               inkscape:connector-curvature="0"
               id="path3573"
               d="m -1247.1435,586.42629 -1.131,0.7055 -0.113,4.65408 -4.3204,2.04116 4.577,23.65631 2.2251,0.49324 -4.4963,-23.16259 3.5916,-2.24388 z m -9.0053,8.17811 -7.5678,1.01751 0.3407,1.53842 8.243,-0.87531 z"
               style="fill:#70979f;fill-opacity:1;stroke:none" />
            <path
               style="color:#000000;display:inline;overflow:visible;visibility:visible;fill:#2c3e46;fill-opacity:1;fill-rule:nonzero;stroke:none;enable-background:accumulate"
               d="m -1248.598,569.95067 c 0.3426,1.69254 -6.8757,5.59842 -15.7526,7.23113 -8.8768,1.63272 -18.2507,1.39076 -18.5932,-0.30169 -0.3426,-1.69252 7.6845,-5.05812 16.5613,-6.69082 8.8769,-1.63275 17.442,-1.93107 17.7845,-0.23854 z"
               id="path3575"
               inkscape:connector-curvature="0"
               sodipodi:nodetypes="cssssc" />
            <path
               sodipodi:nodetypes="ccccc"
               inkscape:connector-curvature="0"
               id="path3577"
               d="m -1275.4168,617.01213 c -3.7636,-36.59569 4.9008,-44.6579 10.6576,-47.16691 -6.0237,0.39336 -14.7785,2.58401 -18.3667,7.41172 0.3624,1.63086 5.6453,38.50245 5.6453,38.50245 z"
               style="opacity:0.3;fill:#000000;fill-opacity:1;stroke:none" />
            <path
               style="color:#000000;display:inline;overflow:visible;visibility:visible;fill:#618599;fill-opacity:1;fill-rule:nonzero;stroke:none;enable-background:accumulate"
               d="m -1225.6383,611.33611 c 2.3317,2.92658 5.7525,12.64552 4.9994,20.63342 3.2654,-4.30965 5.4327,-6.20643 9.8372,-10.35337 2.3126,0.69447 4.07,6.28709 4.07,6.28709 1.9272,1.08581 4.946,1.74434 6.5337,-1.58459 0,0 -2.8452,-5.03568 -3.4702,-7.28944 2.1875,1.40574 8.1533,-1.50328 8.1533,-1.50328 0.1926,0.18283 -3.5231,2.29691 -3.7908,2.86416 -0.051,0.10573 2.9025,-0.11817 2.8712,0.0393 -0.038,0.19088 -2.7783,1.0061 -2.8018,1.23142 -0.1538,1.47526 1.1629,2.95755 1.4851,2.82859 l 6.2643,-2.5075 c 1.04,-1.3307 -2.9972,-11.23376 -2.9972,-11.23376 -0.1652,-0.82599 -8.3021,-0.95249 -14.1888,0.9577 -4.6287,0.0941 -16.4621,-0.97367 -16.9654,-0.36971 z"
               id="path3579"
               inkscape:connector-curvature="0"
               sodipodi:nodetypes="ccccccssssscccc" />
            <path
               style="color:#000000;display:inline;overflow:visible;visibility:visible;opacity:0.6;fill:#ffffff;fill-opacity:1;fill-rule:evenodd;stroke:none;enable-background:accumulate"
               d="m -1225.7261,611.13563 2.5053,4.0338 15.1004,-1.47889 c 0,0 2.3507,-1.60315 13.1367,-2.97564 l -13.9111,1.05907 z"
               id="path3581"
               inkscape:connector-curvature="0"
               sodipodi:nodetypes="cccccc" />
            <g
               id="g3583"
               transform="matrix(1.6281124,0,0,1.6281124,-1465.5701,670.50675)">
              <g
                 transform="translate(23.422913,-3.9774757)"
                 id="g3585">
                <path
                   style="fill:#ce5c00;fill-opacity:1;fill-rule:evenodd;stroke:none"
                   d="m 189.05487,-32.209897 c -3.30908,-0.242547 -7.65142,0.310977 -8.53219,2.541188 -0.006,0.02516 1.01349,-0.108714 1.72377,-0.137918 -0.91854,0.07454 -4.65166,1.091771 -4.77189,3.363622 -0.16274,0.126338 1.69776,-0.279874 1.69776,-0.279874 -3.45957,1.972878 -4.4954,3.076655 -3.82032,5.401649 0.008,0.198658 0.47749,-0.37786 1.46582,-1.042124 -3.17815,4.076443 2.40874,9.208374 6.33987,11.097596 0.49486,0.289501 -0.73314,-1.28009 0.32786,-3.888071 0.13853,-0.340501 -1.28459,-1.140324 -1.36456,-1.453366 -0.14661,-0.789726 1.92089,-0.88538 0.37999,-2.752487 0.83206,-1.102756 2.55456,-0.83331 3.7568,-1.612963 0.63792,-0.424084 0.97114,-0.95032 1.19531,-1.34375 0.22418,-0.393431 0.34334,-0.623754 0.625,-0.826172 0.28167,-0.202418 0.7962,-0.41411 1.85352,-0.517578 0.50828,-0.04974 0.77946,-0.278695 1.00977,-0.386719 0.2303,-0.108024 0.25394,-0.0822 0.21875,-0.101563 0.20861,0.11433 0.46227,0.109124 0.66601,-0.01367 4.77143,-1.825536 0.92405,-7.594497 -2.77127,-8.0478 z"
                   id="path3587"
                   inkscape:connector-curvature="0"
                   sodipodi:nodetypes="ccccccccscccccccccc"
                   transform="matrix(1.9613291,0,0,1.9613291,-274.66355,-10.474304)" />
                <path
                   sodipodi:nodetypes="csscccccccscccccccc"
                   inkscape:connector-curvature="0"
                   id="path3589"
                   d="m 100.89573,-58.985211 c 4.90496,-0.02871 4.8311,-8.073467 -0.83677,-11.899948 -3.441356,-2.32332 -11.154676,-1.986701 -18.858245,1.538622 -0.202616,0.09272 6.930619,-1.390988 10.14569,0.582854 -4.955082,-1.423768 -14.319439,1.804032 -16.434052,5.316954 3.46241,-0.962805 8.955276,-2.54653 9.83339,-2.805617 -6.567902,2.981363 -13.039829,6.913769 -13.999034,11.123487 -0.254609,0.483309 5.412369,-2.581718 9.99646,-4.666873 -5.522079,4.021782 -9.032981,3.514446 -8.954019,10.55258 0.18727,8.371327 12.343552,15.906965 12.343552,15.906965 0,0 -2.054396,-4.149309 -0.965956,-6.241437 0.892325,-1.715169 -1.779586,-1.984993 -2.079628,-3.460066 -0.119189,-1.049727 0.835791,-1.917744 0.835791,-1.917744 -0.639474,0.569106 -3.657129,0.404513 -3.558697,0.147451 0.109662,-0.235658 1.897524,-0.504443 2.827186,-3.707751 -0.787467,1.127869 -2.269962,0.80777 -2.269962,0.80777 -0.119944,-1.78067 1.65677,-1.853619 4.069336,-3.330234 11.523039,7.000072 14.69401,-3.90439 15.134826,-7.231672 0.904224,-0.148935 1.764832,-1.268254 2.770132,-0.715341 z"
                   style="fill:#f57900;fill-rule:evenodd;stroke:none" />
                <path
                   inkscape:connector-curvature="0"
                   style="color:#000000;display:inline;overflow:visible;visibility:visible;opacity:0.2;fill:#000000;fill-opacity:1;fill-rule:evenodd;stroke:none;enable-background:accumulate"
                   d="m -47.8125,-154.35742 c 0.63234,1.00622 1.951339,1.83729 3.193359,2.90039 -1.88021,-1.13881 -11.391958,0.41009 -13.173828,-0.19922 2.30272,2.09603 15.781173,0.27028 15.132813,8.41602 l 0.251953,-0.0899 c 0.42939,-3.2166 0.126041,-5.10355 -0.605469,-6.44922 1.14862,1.58705 1.949821,3.0077 0.712891,6.38868 l 0.253906,-0.13868 c 5.98498,-10.38661 -2.201675,-8.98103 -5.765625,-10.82812 z m -2.898438,6.08594 c -4.353479,-0.14824 -9.819522,1.15027 -14.707031,3.63671 3.02148,0.75262 19.254928,-6.03874 22.548828,1.43946 l 0.189453,-0.0332 c -0.436944,-3.30057 -3.67777,-4.89473 -8.03125,-5.04296 z"
                   id="path3591"
                   transform="translate(142.85075,83.852018)" />
                <path
                   style="opacity:0.3;fill:#ffffff;fill-rule:evenodd;stroke:none"
                   d="m -49.402344,-156.21484 c -3.577375,0.0593 -7.914789,1.03263 -12.248047,3.01562 -0.131097,0.06 2.806856,-0.52746 5.769532,-0.42383 2.792383,-0.80617 5.425966,-1.62086 9.800781,-2.34375 -1.002877,-0.18365 -2.11847,-0.26798 -3.322266,-0.24804 z m -9.548828,3.88476 c -3.923956,0.97148 -7.731611,2.94684 -8.986328,5.03125 0.796418,-0.22146 1.773258,-0.42523 2.703661,-0.68872 z m -5.544315,5.64967 c -4.626441,2.21767 -7.173224,5.79169 -7.608029,7.69994 -0.118247,0.22446 1.111123,-0.35635 2.845704,-1.20898 0.123016,-2.11709 3.868496,-4.98668 4.762325,-6.49096 z m -4.738888,7.66674 c -1.208738,1.20199 -1.862689,2.83714 -1.828125,5.91797 0.06887,3.07852 1.76083,6.04126 3.867188,8.56054 -2.573338,-4.51576 -2.821286,-9.61727 -2.039063,-14.47851 z"
                   id="path3593"
                   inkscape:connector-curvature="0"
                   sodipodi:nodetypes="scccscccccccccccc"
                   transform="translate(142.85075,83.852018)" />
                <path
                   style="color:#000000;display:inline;overflow:visible;visibility:visible;opacity:0.3;fill:#000000;fill-opacity:1;fill-rule:evenodd;stroke:none;enable-background:accumulate"
                   d="m 83.39678,-51.61118 c 0.0818,-0.106293 8.48039,3.856742 13.93881,-4.56185 -0.32871,1.139581 -4.40216,11.281243 -13.93881,4.56185 z"
                   id="path3595"
                   inkscape:connector-curvature="0"
                   sodipodi:nodetypes="ccc" />
                <path
                   style="color:#000000;display:inline;overflow:visible;visibility:visible;opacity:0.3;fill:#ffffff;fill-opacity:1;fill-rule:evenodd;stroke:none;filter:url(#filter4519-2);enable-background:accumulate"
                   d="m 94.975754,-55.900288 c -1.972225,4.567875 -7.631748,3.321188 -11.41504,2.630879 -2.410376,1.602043 -6.966195,5.301753 -8.210724,0.365881 -0.4091,-3.980511 4.754933,-3.586565 6.227265,-6.69233 3.180684,-2.189681 6.434611,2.212684 10.039408,0.808537 1.957392,-0.51581 5.893647,0.231756 3.359091,2.887033 z"
                   id="path3597"
                   inkscape:connector-curvature="0" />
              </g>
              <g
                 transform="translate(-3.2703689,-4.7729708)"
                 id="g3599">
                <path
                   style="color:#000000;display:inline;overflow:visible;visibility:visible;fill:#888a85;fill-opacity:1;fill-rule:nonzero;stroke:none;enable-background:accumulate"
                   d="m 124.82774,-55.639338 0.0459,-3.115323 2.66074,-0.553212 1.63416,2.907099 c -1.24721,0.913486 -2.82311,1.337031 -4.34078,0.761436 z"
                   id="path3601"
                   inkscape:connector-curvature="0"
                   sodipodi:nodetypes="ccccc" />
                <path
                   style="color:#000000;display:inline;overflow:visible;visibility:visible;fill:#d3d7cf;fill-opacity:1;fill-rule:nonzero;stroke:none;enable-background:accumulate"
                   d="m 127.78304,-60.10279 c 1.00017,0.421313 0.6989,1.423368 0.4011,1.712729 -1.27771,1.068332 -2.90082,0.869151 -3.66007,0.468359 l -0.20697,-1.100396 c 0.46218,-0.570182 2.34976,0.30469 3.46594,-1.080692 z"
                   id="path3603"
                   inkscape:connector-curvature="0"
                   sodipodi:nodetypes="ccccc" />
              </g>
            </g>
            <ellipse
               style="color:#000000;display:inline;overflow:visible;visibility:visible;fill:#ffffff;fill-opacity:1;fill-rule:nonzero;stroke:none;enable-background:accumulate"
               id="ellipse3605"
               cx="28.329063"
               cy="-136.91936"
               rx="0.8125"
               ry="0.6875"
               transform="matrix(0.8202505,1.4063922,-1.4063922,0.8202505,-1471.902,663.02363)" />
            <ellipse
               ry="0.6875"
               rx="0.8125"
               cy="-139.07039"
               cx="-28.587622"
               id="ellipse3607"
               style="color:#000000;display:inline;overflow:visible;visibility:visible;fill:#ffffff;fill-opacity:1;fill-rule:nonzero;stroke:none;enable-background:accumulate"
               transform="matrix(0.19501726,1.6163905,-1.6163905,0.19501726,-1471.902,663.02363)" />
            <g
               transform="matrix(0.99677612,0.08023333,-0.08023333,0.99677612,49.620678,99.72388)"
               id="g3611">
              <g
                 id="g3613"
                 transform="matrix(0.85612445,-0.16382124,0.16382124,0.85612445,-301.28846,-120.17596)">
                <path
                   sodipodi:nodetypes="ccccscssssscccc"
                   inkscape:connector-curvature="0"
                   id="path3615"
                   d="m -1279.5156,637.10332 c -10.0834,-2.21012 -22.9776,7.10793 -30.2761,12.58097 6.7242,3.71907 5.2015,13.6918 21.423,12.29426 0,0 0.2641,0.40834 0.6156,1.12312 -1.3454,-0.80858 -5.0581,3.15545 -5.0581,3.15545 -1.3301,4.13254 4.2638,8.16364 4.2638,8.16364 1.2494,3.49229 5.3965,4.77157 6.1999,4.73241 2.5164,-0.12265 6.2159,-0.67289 9.2466,-1.68208 0.3167,-0.10547 0.377,-1.21705 0.6935,-1.31356 1.6302,-0.49705 3.4899,-0.38133 4.932,-1.02789 0.3616,-0.16212 0.1722,-1.12862 0.5186,-1.29707 2.0331,-0.98877 3.7044,-1.27961 5.052,-2.34017 l 1.2376,-10.79455 c -3.5159,-4.28628 -13.2555,-8.87095 -13.2555,-8.87095 z"
                   style="color:#000000;display:inline;overflow:visible;visibility:visible;fill:#2d3c50;fill-opacity:1;fill-rule:nonzero;stroke:none;enable-background:accumulate" />
                <path
                   style="color:#000000;display:inline;overflow:visible;visibility:visible;fill:#618599;fill-opacity:1;fill-rule:nonzero;stroke:none;enable-background:accumulate"
                   d="m -1305.9207,649.85402 c 2.413,-2.10868 8.4629,-10.07068 25.4497,-10.74822 0,0 3.0045,11.45692 5.9583,14.04574 7.3207,4.76706 10.742,7.11333 12.0433,8.04899 l -1.158,8.84694 c -0.1597,1.22012 -1.598,1.7706 -3.3196,2.17802 l 0.4956,-5.09932 c -0.5757,1.83039 -1.9145,4.48709 -2.4026,6.12173 -1.2867,1.1746 -3.2165,1.3099 -4.1313,1.31674 -0.2864,0.11131 1.7253,-3.58376 0.3676,-5.45835 -0.4115,0.91244 -1.9952,5.79507 -2.4589,6.02645 -4.7565,2.23371 -11.1398,1.34721 -11.7019,-2.5294 -2.1928,-1.40419 -3.9182,-3.76349 -3.5207,-5.17381 0,0 2.0508,-2.05907 4.0732,-1.73197 0.327,-0.17328 0.4405,3.46796 2.427,5.05866 1.9916,-6.92583 -3.7291,-5.74355 -3.8646,-14.22125 l -0.609,3.55917 c -15.1996,-1.44647 -12.4965,-7.29962 -17.6481,-10.24012 z"
                   id="path3617"
                   inkscape:connector-curvature="0"
                   sodipodi:nodetypes="ccccscccccccsccccc" />
                <path
                   style="color:#000000;display:inline;overflow:visible;visibility:visible;opacity:0.4;fill:#ffffff;fill-opacity:1;fill-rule:evenodd;stroke:none;enable-background:accumulate"
                   d="m -1281.0255,639.30805 c -8.0581,-0.91114 -18.4552,5.43495 -23.858,10.16604 2.5834,2.94284 2.3624,6.15653 8.0403,8.42742 4.6362,-6.02228 -4.1352,-14.06255 15.9856,-17.12734 0.5942,-0.76857 0.1931,-0.65092 -0.1679,-1.46612 z"
                   id="path3619"
                   inkscape:connector-curvature="0"
                   sodipodi:nodetypes="ccccc" />
              </g>
              <path
                 sodipodi:nodetypes="ccssccccccsccsccc"
                 inkscape:connector-curvature="0"
                 id="path3621"
                 d="m -1302.5767,640.31887 c 0.1802,0.33467 -7.9387,5.43324 -9.671,9.2564 5.1691,6.12814 9.1852,6.45461 16.0404,6.40554 0.1951,-10e-4 -0.1381,-3.47178 0.063,-3.4735 0,0 0.8303,3.3997 1.2142,3.3967 l 2.0322,2.58293 c 2.3269,2.27223 2.7546,3.29643 2.4349,6.30593 l -3.1037,-4.26026 c -1.7568,0.48671 -2.0065,1.22461 -2.8708,1.86007 0.3995,1.12559 -0.3513,2.14058 3.891,4.14097 1.5624,2.21904 3.2738,2.34544 4.2813,2.25002 1.4837,-0.14051 1.1414,-1.33084 2.2111,-2.4914 l 0.8964,-8.29264 c -5.4311,-2.99592 -3.4349,-3.91219 -6.7331,-6.19639 -0.2911,-0.2016 5.9911,-3.70224 5.9911,-3.70224 0,0 -8.9205,2.64776 -9.1552,2.60024 -9.6426,0.4826 -17.1928,-1.12597 -7.5218,-10.38237 z"
                 style="color:#000000;display:inline;overflow:visible;visibility:visible;opacity:0.3;fill:#ffffff;fill-opacity:1;fill-rule:evenodd;stroke:none;enable-background:accumulate" />
              <path
                 sodipodi:nodetypes="ccccsc"
                 inkscape:connector-curvature="0"
                 id="path3623"
                 d="m -1284.4965,657.91094 c 3.1322,0.57279 9.4548,-1.80428 10.6265,-5.51038 l 1.2313,9.52552 c -4.4282,3.5461 -10.6152,5.52241 -15.0434,7.45727 0.3863,-0.45531 1.7594,-1.43156 2.0324,-2.424 0.7907,-2.87388 1.1532,-9.04841 1.1532,-9.04841 z"
                 style="color:#000000;display:inline;overflow:visible;visibility:visible;opacity:0.7;fill:#2d3c50;fill-opacity:1;fill-rule:nonzero;stroke:none;enable-background:accumulate" />
            </g>
          </g>
          <path
             sodipodi:nodetypes="cccccccccscssccccscccccccscccssccsccscssccccsscsscsccccscccccsscccscsccccccccccccccccccscccsccsccsscccccscsccssccsccsssccscccccccsccccccscsscccccccsccsssccccccccccscsccccccssscccccsccscscscccssccssscccccccccccccsccccssscccssscssccsccsccccccccscsccccccccccccssccccccscccccssssccsssccccsccccsccccscccccsccsscccccssscccsscccsccscccccsccccscsccccccscccssccccscsccccsscccscccccccscsccccccssccccccccccccccccccscccscccsscccscccscsccscccsccscccccccscsscscccccccsccccccsccscccccccssccc"
             inkscape:connector-curvature="0"
             id="path3515"
             d="m -1609.8203,723.62669 c -0.1286,0.003 -0.2621,0.012 -0.4047,0.0264 -1.2879,0.12968 -2.5115,0.75114 -4.0411,2.05211 -2.2221,1.89007 -4.017,4.77094 -4.2075,6.75338 -0.087,0.90572 -0.041,1.04793 0.5009,1.55369 0.8619,0.80421 2.3841,1.29457 3.7908,1.22121 l 1.1717,-0.061 0.02,-1.40787 c 0.024,-1.70279 0.3262,-2.33599 1.7068,-3.57719 0.9664,-0.86885 1.0942,-0.92179 2.5725,-1.06219 1.4944,-0.14194 2.6782,-0.023 5.2263,0.52418 0.5809,0.12471 1.056,0.30838 1.056,0.40822 0,0.31639 -2.1862,1.91247 -4.3996,3.21202 -3.6513,2.14386 -6.5289,3.97416 -7.3354,4.66609 -0.6494,0.55707 -0.7917,0.82196 -0.8846,1.64672 l -0.1106,0.98268 0.9154,-0.12539 c 1.5076,-0.20665 1.4569,-0.4854 1.4569,7.98748 0,7.35552 -0.01,7.4732 -0.4532,8.30927 -0.5745,1.07506 -1.0629,1.3384 -2.1734,1.17187 l -0.8711,-0.13073 0.1631,0.56943 c 0.09,0.31323 0.3487,0.9327 0.5751,1.37645 0.3553,0.69643 0.5689,0.85627 1.5622,1.16935 2.096,0.66073 4.8023,-0.18021 9.0581,-2.81511 0.7836,-0.48517 1.565,-0.88213 1.7365,-0.88213 0.3436,0 0.8169,0.62789 1.0613,1.40788 0.3905,1.24553 1.2041,2.65358 1.6876,2.9207 l 0,3.2e-4 c 1.0983,0.60674 1.3403,0.42002 4.5068,-3.47443 2.2394,-2.75421 2.9541,-3.76662 2.8629,-4.05423 -0.1967,-0.61996 -0.5857,-0.61939 -1.5097,9.4e-4 -0.6744,0.45286 -0.931,0.53192 -1.1455,0.35384 -0.2298,-0.19077 -0.2669,-2.16642 -0.2213,-11.71519 0.054,-11.1821 0.066,-11.5081 0.4743,-12.32454 0.4103,-0.82068 0.4118,-0.86291 0.068,-1.97668 -0.332,-1.07314 -0.8609,-1.911 -1.2062,-1.911 -0.085,0 -0.4149,0.26072 -0.7334,0.57918 -0.4164,0.41643 -0.8584,0.61639 -1.5741,0.7121 -1.9439,0.25997 -3.52,-0.29413 -7.2669,-2.55428 -2.0591,-1.24208 -2.7329,-1.55261 -3.6338,-1.53389 z m 24.8282,39.66115 c -1.527,0.0344 -3.357,0.79844 -5.7942,2.39527 -2.8679,1.87889 -5.3299,4.86227 -5.3299,6.4583 0,0.83118 0.4389,2.26925 0.6926,2.26925 0.3542,0 0.9591,-0.70594 2.0845,-2.43267 1.3499,-2.07118 1.9809,-2.49918 3.6589,-2.48043 1.4048,0.0157 2.5141,0.41003 2.5141,0.89343 0,0.17103 -0.7389,0.68621 -1.7262,1.20392 -2.1307,1.11719 -3.087,1.82198 -4.991,3.67807 -2.3229,2.26434 -4.0375,4.76031 -5.0725,7.38379 -0.164,0.41553 -0.2782,1.44554 -0.2766,2.51406 0,1.58932 0.085,2.01866 0.6867,3.51968 0.3771,0.94026 0.9594,2.16209 1.2941,2.71519 2.6755,4.42066 7.3851,8.3114 11.4506,9.45945 1.6497,0.46587 4.2871,0.25922 6.3288,-0.49558 4.8171,-1.78078 9.9981,-5.27351 11.1385,-7.50887 0.7662,-1.50172 0.028,-1.80327 -1.4222,-0.58137 -1.0127,0.85296 -3.6008,2.37857 -4.3572,2.56842 l -0.4827,0.12131 0,-9.86266 c 0,-10.91362 -0.052,-10.49461 1.2881,-10.49461 0.3608,0 1.1787,-0.10486 1.8177,-0.23318 1.0057,-0.20198 1.24,-0.34114 1.7432,-1.0358 0.5648,-0.7799 0.5822,-0.8711 0.5801,-3.23622 0,-2.34951 -0.2388,-3.94204 -0.5883,-3.94204 -0.092,0 -0.2158,0.18227 -0.2741,0.40507 -0.066,0.25086 -0.5532,0.61159 -1.2805,0.94749 -0.977,0.45118 -1.462,0.54377 -2.884,0.55026 -2.0915,0.01 -2.6654,-0.23567 -5.6321,-2.40752 -2.499,-1.82941 -2.7978,-1.99358 -4.1542,-2.28056 -0.3238,-0.0685 -0.6598,-0.0994 -1.0122,-0.0915 z m 67.5167,-34.39766 c -0.024,-2.3e-4 -0.049,9.4e-4 -0.072,0.005 0.1273,5.91743 -3.4425,6.80476 -5.7974,9.96604 -0.1485,0.77317 2.7825,5.29941 2.8208,6.24869 0.091,-0.74408 2.691,-7.55193 5.2776,-7.23106 3.387,-1.91538 -0.6846,-8.97355 -2.2293,-8.98839 z m -3.0483,16.21945 c 0,0.029 0,0.0522 -4e-4,0.0619 0,-0.0179 0,-0.0401 4e-4,-0.0619 z m -71.4898,-14.43227 c -0.257,-0.003 -0.4119,0.0744 -0.4717,0.23004 -0.072,0.18844 0.304,0.93271 0.9519,1.88335 l 1.0713,1.57191 0.055,10.67689 c 0.054,10.50123 0.049,10.68266 -0.352,11.04521 -0.6609,0.59817 -0.4979,1.20367 0.6911,2.56685 0.6041,0.69257 1.3943,1.77964 1.7561,2.41569 0.3617,0.63606 0.7759,1.15647 0.9204,1.15647 0.33,0 2.4291,-4.26735 2.5898,-5.26506 0.091,-0.56431 0.018,-0.88184 -0.307,-1.33843 -0.4214,-0.59175 -0.4261,-0.72034 -0.4261,-11.29567 l 0,-10.69731 0.8044,-1.14673 c 0.4425,-0.63079 0.8045,-1.21093 0.8045,-1.28908 0,-0.0782 -0.2623,-0.14205 -0.5826,-0.14205 -0.4456,0 -0.7673,0.21923 -1.3695,0.93272 l -0.7873,0.9324 -2.1052,-1.03831 c -1.6197,-0.79905 -2.6781,-1.19272 -3.2434,-1.19889 z m 41.4373,39.5389 c -0.6265,0.003 -0.5631,0.52226 0.1819,1.55935 1.6552,2.30389 1.5424,1.34845 1.5424,13.05425 0,10.1799 -0.01,10.44433 -0.4022,10.79945 -0.6558,0.59348 -0.4906,1.20171 0.696,2.56214 0.6042,0.69258 1.3945,1.77964 1.7561,2.4157 0.3617,0.63606 0.7759,1.15647 0.9205,1.15647 0.3299,0 2.429,-4.26735 2.5898,-5.26507 0.091,-0.5643 0.018,-0.88183 -0.307,-1.33843 -0.4215,-0.59175 -0.4262,-0.72033 -0.4262,-11.29566 l 0,-10.69732 0.8046,-1.14672 c 0.4424,-0.63079 0.8044,-1.21093 0.8044,-1.28909 0,-0.0782 -0.2622,-0.14204 -0.5826,-0.14204 -0.446,0 -0.7678,0.21968 -1.3736,0.93743 l -0.791,0.93711 -2.1376,-1.04898 c -1.6327,-0.80134 -2.7227,-1.20108 -3.2755,-1.19859 z m -50.826,-37.52105 c 0.052,-0.002 0.091,0.008 0.1175,0.0349 0.055,0.0557 -0.1241,0.67326 -0.3994,1.37236 -0.4521,1.14781 -0.5091,1.62718 -0.5898,4.94013 -0.1008,4.13031 -0.025,3.91638 -1.8645,5.27073 -1.3078,0.9629 -1.4281,1.02952 -1.5811,0.87645 -0.2072,-0.20718 -0.1477,-4.30409 0.082,-5.60571 0.3574,-2.03063 1.2064,-3.95222 2.4625,-5.57399 0.4974,-0.64214 1.4128,-1.29993 1.7734,-1.31485 z m 21.5772,40.30004 0.553,0.12852 c 0.8893,0.20686 2.1959,0.81599 2.3874,1.11311 0.097,0.15081 0.1895,1.72244 0.2043,3.49234 0.015,1.76989 0.091,3.98729 0.1694,4.92755 0.2055,2.47024 -0.046,3.08713 -1.6986,4.17334 -0.7154,0.47013 -1.3715,0.85478 -1.4581,0.85478 -0.087,0 -0.1574,-3.30514 -0.1574,-7.34482 z m -7.1275,0.51506 c 0.05,0.003 0.09,0.0171 0.1179,0.0453 0.1216,0.12163 0.1714,3.47369 0.1326,8.92208 -0.058,8.25604 -0.084,8.77035 -0.4641,9.53142 -0.5928,1.18573 -1.0224,1.13987 -2.3494,-0.2514 -1.8332,-1.92194 -2.6892,-4.14396 -2.9138,-7.56417 -0.1976,-3.00874 0.7435,-5.99383 2.6592,-8.43467 0.9085,-1.1575 2.335,-2.27274 2.8176,-2.24851 z m 55.8094,-37.0305 c -0.5246,0 -3.6628,3.28336 -4.871,5.09632 -1.6594,2.49005 -1.6442,2.93538 0.1235,3.59478 0.5836,0.21768 1.028,0.49428 0.9877,0.615 -0.085,0.25451 -1.2592,0.71237 -1.8846,0.73474 -0.2353,0.008 -0.5412,0.15182 -0.6797,0.31865 -0.2104,0.2535 -0.099,0.46698 0.6794,1.29883 l 0.9312,0.99525 0.01,2.97539 c 0,1.63636 0.084,3.58255 0.1807,4.32513 0.1689,1.3098 0.2182,1.39908 1.6526,2.98418 0.8133,0.89864 1.7044,1.75333 1.9805,1.89937 0.5861,0.31002 0.5697,0.31774 2.0276,-0.94088 0.617,-0.53263 1.2965,-0.96854 1.51,-0.96854 0.2449,0 0.59,0.33394 0.9349,0.90506 0.3007,0.49778 0.6742,0.90506 0.8303,0.90506 0.3144,0 2.0313,-2.04156 3.3188,-3.94644 0.8914,-1.31869 1.0683,-2.08742 0.4802,-2.08731 -0.3277,8e-5 -0.3483,-0.3698 -0.2985,-5.38008 0.031,-3.14903 0.1446,-5.67947 0.2731,-6.10225 0.2757,-0.90681 -0.1753,-1.91228 -0.9899,-2.20703 -1.1268,-0.40772 -1.5843,-0.73915 -3.4638,-2.51028 -1.8593,-1.7522 -2.98,-2.50495 -3.7295,-2.50495 z m -32.3748,0.20113 c -0.1247,0 -0.7575,0.81789 -1.4063,1.81766 -1.0405,1.6037 -1.3781,1.95164 -2.8672,2.95276 -1.622,1.09036 -1.6831,1.15871 -1.5569,1.75198 0.1869,0.87959 0.1973,10.96413 0.012,11.63475 -0.1362,0.49266 -0.039,0.67132 0.824,1.51253 0.5382,0.52463 1.5216,1.41835 2.1853,1.98642 0.6638,0.56806 1.5235,1.53804 1.9108,2.15549 0.3871,0.61745 0.8194,1.1239 0.9606,1.12536 0.1413,9.4e-4 1.0463,-0.65415 2.0113,-1.45691 0.9649,-0.80275 2.0712,-1.67948 2.4584,-1.94808 0.3872,-0.26859 1.1338,-0.84201 1.6593,-1.27431 l 0.9554,-0.78595 0,-5.8122 c 0,-5.59436 0.015,-5.82179 0.4021,-6.06359 0.9505,-0.59358 0.2932,-1.40402 -3.1174,-3.844 -1.1061,-0.7914 -2.5048,-1.95939 -3.108,-2.59545 -0.6031,-0.63605 -1.1986,-1.15646 -1.3233,-1.15646 z m -12.5637,0.009 c -0.1659,-0.004 -0.5173,0.31007 -0.7806,0.69671 -0.2633,0.38664 -1.2529,1.35488 -2.1992,2.15172 -2.8471,2.39757 -4.0595,3.67024 -4.0595,4.26133 0,0.42119 0.096,0.52386 0.4909,0.52386 0.27,0 0.5336,0.069 0.5857,0.15336 0.052,0.0843 0.1248,3.08312 0.1615,6.66415 l 0.067,6.51109 0.6046,0.45442 c 0.3325,0.24996 1.6454,1.01085 2.9176,1.6907 1.2721,0.67986 2.4454,1.36809 2.6073,1.52949 0.5449,0.54291 0.9901,0.33566 1.5659,-0.72876 0.3043,-0.56218 0.8433,-1.41131 1.198,-1.88711 l 0.6452,-0.86516 -1.6508,-0.63511 c -0.9078,-0.34935 -1.9673,-0.79067 -2.3544,-0.98048 l -0.704,-0.34506 -0.056,-2.45686 c -0.066,-2.8719 -0.5044,-2.51049 3.4757,-2.86351 1.4381,-0.12755 2.6881,-0.30437 2.7778,-0.39283 0.089,-0.0884 0.1349,-0.60334 0.1006,-1.14421 l -0.063,-0.98331 -1.4079,-0.0512 c -1.6707,-0.0607 -2.3129,-0.18709 -2.3129,-0.45536 0,-0.10848 0.8145,-0.84053 1.8101,-1.62691 0.9955,-0.78639 1.8101,-1.55649 1.8101,-1.71113 0,-0.15464 -0.8431,-1.52489 -1.8736,-3.04515 -2.9051,-4.28577 -3.0345,-4.458 -3.3557,-4.46466 z m 31.6766,0.19201 c -0.1445,0 -0.5527,0.52042 -0.907,1.15647 -0.7556,1.35649 -1.7509,2.46377 -2.2143,2.46377 -0.4406,0 -1.0247,-0.66802 -1.8023,-2.06152 -0.3549,-0.63606 -0.715,-1.15647 -0.8004,-1.15647 -0.2245,0 -3.2255,4.58631 -3.2255,4.92944 0,0.0922 0.1561,0.34006 0.3469,0.5509 0.3144,0.34739 0.3408,0.90526 0.2816,5.94889 -0.057,4.8792 -0.1125,5.68984 -0.4474,6.57143 -0.2102,0.5531 -0.3821,1.06419 -0.3822,1.13572 -2e-4,0.19802 2.1644,2.98808 2.9807,3.84212 0.3965,0.41482 0.7739,0.75422 0.8381,0.75422 0.064,0 0.29,-0.29415 0.5016,-0.65366 0.2116,-0.35951 0.6152,-0.83466 0.8972,-1.05591 0.282,-0.22123 0.7728,-0.63302 1.0905,-0.91511 l 0.5776,-0.51287 -0.577,-1.09613 -0.5767,-1.09613 0.035,-5.8059 c 0.019,-3.19321 0.085,-6.00611 0.1461,-6.25089 0.1305,-0.52001 1.2705,-1.19612 1.8337,-1.08765 0.8031,0.15466 0.8957,0.81189 0.9044,6.40676 0.01,4.85689 -0.031,5.48258 -0.4352,7.05162 -0.244,0.947 -0.3843,1.8766 -0.3118,2.06561 0.072,0.18903 0.4352,0.52252 0.8061,0.74135 0.3709,0.21881 0.97,0.80939 1.3312,1.31233 0.8043,1.12003 0.7635,1.14572 2.6552,-1.68317 l 1.4107,-2.10929 -0.5484,-0.43713 -0.5484,-0.43745 0.1775,-2.7994 c 0.098,-1.5397 0.1797,-4.39755 0.1824,-6.35082 0,-1.95328 0.072,-3.62021 0.1558,-3.70416 0.3275,-0.33145 0.086,-0.71799 -1.582,-2.52851 -0.953,-1.03469 -1.9126,-2.17529 -2.1319,-2.5348 -0.2193,-0.35951 -0.5167,-0.65366 -0.6612,-0.65366 z m 33.3605,0.22878 c -0.1956,0.0122 -0.3828,0.20079 -0.5719,0.56661 -0.4599,0.8893 -2.1481,2.4946 -3.5034,3.33113 -1.3674,0.84403 -1.4808,1.02494 -1.2171,1.94462 0.2458,0.85683 0.2369,3.12608 -0.019,4.7896 -0.5079,3.30755 -0.5126,3.18242 0.132,3.32578 1.6805,0.37375 2.4905,0.73737 2.4905,1.11781 0,0.21382 -0.6336,1.65343 -1.4079,3.19914 -0.7743,1.54572 -1.4073,2.96983 -1.4073,3.16489 5e-4,0.19505 0.186,0.65848 0.4124,1.02982 0.3549,0.58224 0.4864,0.65612 0.9547,0.53549 0.2987,-0.077 0.9063,-0.18457 1.3504,-0.23915 0.7564,-0.0929 0.8705,-0.0348 1.8101,0.92266 0.5515,0.562 1.1453,1.02181 1.3196,1.02197 0.1742,1.6e-4 0.799,-0.59409 1.3883,-1.32051 0.5894,-0.72643 1.5783,-1.6673 2.1973,-2.09076 1.7264,-1.18081 2.3112,-1.8774 2.1489,-2.55962 -0.074,-0.31099 -0.1328,-0.65586 -0.1307,-0.76647 0.069,-3.72738 0.3037,-6.91215 0.537,-7.28354 0.154,-0.245 0.28,-0.62966 0.28,-0.85479 0,-0.36897 -0.1266,-0.40947 -1.285,-0.40947 -0.9413,0 -1.4056,-0.0977 -1.7356,-0.36486 l -0.4503,-0.36453 1.132,-2.27114 c 1.294,-2.59572 1.3856,-3.26951 0.621,-4.57433 -0.5773,-0.985 -0.6965,-1.03818 -1.0513,-0.47013 -0.1536,0.24588 -0.4656,0.40055 -0.8026,0.39785 -0.8125,-0.007 -2.1799,-0.69069 -2.57,-1.28594 -0.2228,-0.3401 -0.4269,-0.50434 -0.6225,-0.49213 z m -48.9336,38.90882 c -0.9293,0 -5.3176,5.05983 -5.9819,6.89732 -0.3585,0.9913 -0.1599,1.29196 1.1853,1.79378 0.5836,0.21767 1.0279,0.49483 0.9874,0.61626 -0.071,0.21148 -1.0363,0.57664 -2.2104,0.83561 -0.3043,0.0671 -0.5531,0.22413 -0.5531,0.34882 0,0.1247 0.3944,0.64869 0.8768,1.16432 l 0.877,0.93744 0.096,4.14662 c 0.076,3.29556 0.1597,4.2427 0.4079,4.61425 0.1717,0.25712 1.0311,1.21428 1.9097,2.12689 0.8787,0.9126 1.6849,1.65927 1.7916,1.65927 0.1067,0 0.7783,-0.49866 1.4921,-1.10806 0.7849,-0.67011 1.4542,-1.08743 1.6935,-1.05592 0.2176,0.0287 0.6534,0.43682 0.9685,0.90696 0.3152,0.47012 0.6887,0.85477 0.83,0.85477 0.2732,0 1.3341,-1.20065 2.6653,-3.01686 1.4283,-1.94873 1.8262,-3.01702 1.124,-3.01687 -0.3278,6e-5 -0.3483,-0.36982 -0.2985,-5.3801 0.032,-3.22691 0.1434,-5.67526 0.2782,-6.11764 0.1954,-0.64171 0.1684,-0.82837 -0.2078,-1.43709 -0.2472,-0.40002 -0.6626,-0.75757 -0.9698,-0.83467 -0.7755,-0.19462 -1.5469,-0.77424 -3.4782,-2.61369 -1.6131,-1.53637 -2.7909,-2.32141 -3.4835,-2.32141 z m 25.4061,0.20772 c -0.1659,-0.002 -0.5173,0.31259 -0.7806,0.69923 -0.2633,0.38663 -1.2218,1.32882 -2.1304,2.09389 -3.0267,2.54878 -4.1284,3.69492 -4.1284,4.29527 0,0.44664 0.09,0.54775 0.4909,0.54775 0.27,0 0.5336,0.0691 0.5858,0.15336 0.052,0.0843 0.1245,3.07605 0.1612,6.64812 0.064,6.19982 0.085,6.51127 0.4701,6.86463 0.222,0.20358 1.4668,0.93063 2.7661,1.61559 1.2994,0.68497 2.5664,1.41549 2.8157,1.62346 0.6649,0.55462 1.1038,0.47684 1.4783,-0.26209 0.1823,-0.35951 0.69,-1.18436 1.1285,-1.83306 0.4386,-0.6487 0.7219,-1.24747 0.6295,-1.33057 -0.092,-0.0831 -0.8017,-0.39375 -1.576,-0.69042 -0.7744,-0.29668 -1.7246,-0.69421 -2.1119,-0.88338 l -0.7039,-0.34412 -0.056,-2.45685 c -0.066,-2.86791 -0.486,-2.51053 3.3581,-2.85377 1.3733,-0.12264 2.6219,-0.32682 2.7749,-0.4538 0.1817,-0.15084 0.2576,-0.55075 0.2184,-1.15363 l -0.06,-0.92266 -1.4079,-0.0512 c -1.6635,-0.0604 -2.3129,-0.18719 -2.3129,-0.45127 0,-0.10616 0.8146,-0.84516 1.8101,-1.64231 0.9956,-0.79715 1.8102,-1.56497 1.8102,-1.70642 0,-0.14145 -0.6637,-1.23352 -1.4746,-2.42669 -0.8108,-1.19317 -1.9195,-2.82308 -2.4637,-3.62213 -0.5442,-0.79905 -1.1251,-1.45471 -1.291,-1.4569 z m 12.3425,0.42331 c -0.1957,0.0122 -0.3828,0.20078 -0.572,0.5666 -0.4599,0.8893 -2.1481,2.49461 -3.5033,3.33113 -1.3377,0.82562 -1.5057,1.0758 -1.2222,1.82144 0.2514,0.66114 0.2442,3.23441 -0.013,4.91278 -0.5079,3.30755 -0.5127,3.18242 0.132,3.32579 1.6804,0.37374 2.4905,0.73737 2.4905,1.11781 0,0.21382 -0.6336,1.65343 -1.4079,3.19914 -0.7744,1.54571 -1.4073,2.96983 -1.4073,3.16489 5e-4,0.19505 0.1859,0.65847 0.4123,1.02981 0.355,0.58225 0.4865,0.65613 0.9548,0.5355 0.2986,-0.077 0.9063,-0.18457 1.3503,-0.23915 0.7565,-0.0929 0.8705,-0.0348 1.8101,0.92266 0.5515,0.562 1.1453,1.0218 1.3196,1.02196 0.1743,1.7e-4 0.799,-0.59407 1.3884,-1.3205 0.5894,-0.72643 1.5782,-1.6673 2.1972,-2.09075 1.7265,-1.18082 2.3112,-1.87741 2.1489,-2.55963 -0.074,-0.31099 -0.1327,-0.65586 -0.1307,-0.76648 0.069,-3.72738 0.3038,-6.91214 0.5371,-7.28354 0.154,-0.245 0.28,-0.62965 0.28,-0.85478 0,-0.36897 -0.1266,-0.40948 -1.285,-0.40948 -0.9413,0 -1.4056,-0.0976 -1.7356,-0.36485 l -0.4504,-0.36454 1.132,-2.27114 c 1.2941,-2.59571 1.3856,-3.26951 0.6209,-4.57432 -0.5772,-0.98501 -0.6964,-1.03819 -1.0511,-0.47014 -0.1536,0.24588 -0.4656,0.40056 -0.8026,0.39785 -0.8126,-0.007 -2.18,-0.69069 -2.5701,-1.28594 -0.2228,-0.3401 -0.4269,-0.50434 -0.6224,-0.49212 z m -10.4635,-35.88032 c 0.1145,0.005 0.2465,0.0226 0.4063,0.0515 1.3622,0.24662 3.0672,1.28987 3.0672,1.87674 0,0.24747 -0.4262,0.55509 -1.3736,0.9918 -0.7555,0.34823 -1.6639,0.63323 -2.0185,0.63323 -0.5743,0 -0.688,-0.10066 -1.0398,-0.92172 -0.518,-1.20831 -0.4985,-1.60773 0.1077,-2.21394 0.3195,-0.31954 0.5071,-0.43078 0.8507,-0.41765 z m -28.8904,39.59044 c 0.6243,-0.0255 1.4272,0.2284 2.3268,0.76522 1.545,0.92196 1.5063,1.30822 -0.2112,2.09986 -1.4494,0.66809 -2.4791,0.81023 -2.7988,0.38622 -0.3608,-0.47861 -0.7089,-1.9051 -0.5709,-2.33964 0.1844,-0.58108 0.6298,-0.88618 1.2541,-0.91166 z m -15.172,-38.45941 c 0.1621,-0.003 0.3791,0.13216 0.6719,0.36927 0.3584,0.29017 0.4876,0.63814 0.5597,1.50748 0.1172,1.41285 -0.018,1.95982 -0.6763,2.74253 -0.982,1.16701 -1.1215,0.87204 -1.0448,-2.20672 0.043,-1.73042 0.1331,-2.40593 0.4895,-2.41256 z m 13.1181,0.0886 c 0.1729,-0.005 0.3906,0.11869 0.8048,0.4057 1.7628,1.22164 1.6467,0.65245 1.5867,7.7741 -0.046,5.42801 -0.096,6.32423 -0.3548,6.37157 -0.3023,0.0552 -1.0697,-0.3765 -2.0112,-1.13164 l -0.5028,-0.40351 -0.071,-6.30526 c -0.063,-5.60826 -0.035,-6.33472 0.2533,-6.57394 0.1038,-0.0861 0.1914,-0.13448 0.2952,-0.13702 z m 52.4675,0.1213 c 0.636,0 2.2723,0.71565 2.3748,1.03862 0.1371,0.432 -0.2814,1.43397 -1.1967,2.86478 -0.7368,1.15174 -1.0941,1.34696 -1.5219,0.83152 -0.3748,-0.45155 -0.064,-4.73492 0.3438,-4.73492 z m -24.1756,39.3692 c 0.3626,-0.019 0.8293,0.29888 1.0773,0.77842 0.3531,0.68294 0.3952,2.4507 0.073,3.07595 -0.1244,0.24162 -0.4119,0.64297 -0.6386,0.89186 -0.824,0.90468 -0.9452,0.62419 -0.9452,-2.18377 0,-1.37579 0.086,-2.42077 0.203,-2.49363 0.069,-0.0424 0.1466,-0.0645 0.2302,-0.0688 z m 12.9905,0.17064 c 0.6359,0 2.2723,0.71565 2.3748,1.03863 0.1371,0.43199 -0.2815,1.43396 -1.1967,2.86477 -0.7367,1.15175 -1.0938,1.34698 -1.5216,0.83152 -0.3747,-0.45154 -0.064,-4.73492 0.3435,-4.73492 z m -6.3681,-36.11789 c 0.5658,0.0149 0.5091,1.1093 0.5091,5.09599 0,4.97699 -0.011,5.11529 -0.4595,5.78235 -0.5676,0.84429 -1.1256,0.94905 -1.7149,0.32179 -0.7097,-0.75557 -0.8424,-1.60572 -0.8424,-5.39422 0,-4.69265 0.01,-4.73229 1.2868,-5.32698 0.5781,-0.26921 0.9637,-0.48567 1.2209,-0.47893 z m -73.8655,0.83529 c 0.087,-0.0368 0.1596,2.14986 0.1596,4.85937 l 0,4.9263 -0.8548,0.4123 c -0.4701,0.22681 -1.7146,0.55145 -2.7655,0.72122 -1.0508,0.16978 -2.2108,0.30891 -2.5778,0.30923 -0.6003,7.3e-4 -0.653,-0.0444 -0.5245,-0.45159 0.079,-0.24889 0.6735,-1.38759 1.3218,-2.5304 0.954,-1.68181 1.2191,-2.35265 1.3915,-3.51968 0.3494,-2.36487 0.4538,-2.54164 2.1536,-3.65418 0.845,-0.5531 1.6082,-1.03569 1.6961,-1.07257 z m 44.9761,38.7055 c 0.5706,0.006 0.5144,1.0691 0.5144,4.93038 0,5.24123 -0.1223,6.05701 -0.9754,6.51361 -0.2234,0.11952 -0.4944,0.21747 -0.6025,0.21747 -0.4239,0 -1.2209,-1.25274 -1.3761,-2.16303 -0.2116,-1.24161 -0.2101,-6.30807 0,-7.55727 0.157,-0.92283 0.2173,-0.99574 1.2064,-1.45626 0.5825,-0.27123 0.9713,-0.4874 1.2307,-0.4849 z m 47.4036,-34.64215 c 0.1363,-0.009 0.3385,0.0412 0.5147,0.13545 0.4048,0.21665 0.4236,0.35187 0.3563,2.59325 -0.049,1.61865 -0.1582,2.46933 -0.3471,2.69696 -0.3242,0.39044 -2.0673,0.40514 -3.1936,0.0271 -0.1708,-0.0573 0.1683,-0.9231 1.0543,-2.69224 0.7184,-1.43437 1.3955,-2.6634 1.5048,-2.7309 0.027,-0.0169 0.065,-0.0265 0.1106,-0.0295 z m -66.8005,39.01284 -0.012,2.08666 c -0.013,2.29388 -0.2176,3.90507 -0.5356,4.223 -0.3237,0.32377 -3.8307,0.39669 -5.1846,0.10779 -1.1932,-0.25464 -2.384,-0.76493 -2.5998,-1.11404 -0.1276,-0.20637 0.8596,-1.00232 1.8959,-1.52855 0.3872,-0.1966 1.7125,-1.07008 2.9452,-1.94117 1.2327,-0.87109 2.5225,-1.63989 2.8661,-1.70862 l 0.6247,-0.12507 z m 55.6153,0.527 c 0.1363,-0.009 0.3386,0.0412 0.5148,0.13546 0.4048,0.21664 0.4236,0.35187 0.3564,2.59325 -0.049,1.61864 -0.158,2.46933 -0.3469,2.69695 -0.3242,0.39045 -2.0676,0.40516 -3.1939,0.0271 -0.1707,-0.0573 0.1684,-0.9231 1.0544,-2.69225 0.7183,-1.43436 1.3951,-2.6634 1.5043,-2.73089 0.027,-0.0169 0.066,-0.0265 0.1109,-0.0295 z"
             style="fill:#ce5c00" />
          <path
             style="color:#000000;clip-rule:nonzero;display:inline;overflow:visible;visibility:visible;opacity:1;isolation:auto;mix-blend-mode:normal;color-interpolation:sRGB;color-interpolation-filters:linearRGB;solid-color:#000000;solid-opacity:1;fill:#f57900;fill-opacity:1;fill-rule:nonzero;stroke:none;stroke-width:0.90626031;stroke-linecap:butt;stroke-linejoin:miter;stroke-miterlimit:4;stroke-dasharray:none;stroke-dashoffset:0;stroke-opacity:1;color-rendering:auto;image-rendering:auto;shape-rendering:auto;text-rendering:auto;enable-background:accumulate"
             d="m -1566.8088,661.53834 c -0.1016,0.0158 -0.2065,0.0371 -0.3182,0.0636 -1.009,0.23917 -1.9254,0.86644 -3.0269,2.07137 -1.6,1.75055 -2.7781,4.25182 -2.7616,5.86352 0.01,0.73637 0.056,0.84572 0.5279,1.19494 0.7504,0.55534 1.9972,0.78945 3.105,0.58304 l 0.9226,-0.17182 -0.1032,-1.13246 c -0.1252,-1.36965 0.061,-1.90979 1.0495,-3.05112 0.6919,-0.79893 0.7887,-0.85484 1.9474,-1.12257 1.1715,-0.27066 2.1189,-0.2993 4.1829,-0.12712 0.4705,0.0392 0.8623,0.13689 0.8707,0.21704 0.026,0.25404 -1.5698,1.76476 -3.2127,3.04026 -2.7105,2.10417 -4.8346,3.87545 -5.4148,4.51558 -0.4672,0.51536 -0.5575,0.74296 -0.5615,1.41491 l -0.01,0.8006 0.7143,-0.19667 c 1.1764,-0.32399 1.1127,-0.54248 1.828,6.26046 0.6212,5.9058 0.6237,6.00127 0.3428,6.71909 -0.3641,0.9234 -0.7287,1.18605 -1.6221,1.16877 l -0.7008,-0.0136 0.1771,0.4401 c 0.098,0.24204 0.355,0.7123 0.5717,1.04485 0.3402,0.52192 0.5228,0.62785 1.3359,0.77509 1.7155,0.31074 3.7875,-0.64823 6.9351,-3.21004 0.5797,-0.47171 1.1649,-0.87236 1.3007,-0.89035 0.272,-0.036 0.6998,0.41849 0.9594,1.01912 0.4142,0.95911 1.1775,2.00434 1.5829,2.1681 l 0,2.6e-4 c 0.921,0.372 1.0968,0.19671 3.2754,-3.26219 1.5408,-2.44618 2.0214,-3.33399 1.9248,-3.55535 -0.2081,-0.47714 -0.516,-0.43591 -1.1954,0.15905 -0.4958,0.43431 -0.6923,0.52469 -0.8773,0.40421 -0.198,-0.12908 -0.3943,-1.71145 -1.1643,-9.38302 -0.9017,-8.9838 -0.9196,-9.24682 -0.6651,-9.94518 0.2557,-0.70195 0.2533,-0.73602 -0.1133,-1.59419 -0.3535,-0.82682 -0.843,-1.4441 -1.1165,-1.40789 -0.067,0.009 -0.3065,0.25284 -0.5319,0.54194 -0.2945,0.37801 -0.6276,0.5849 -1.1864,0.73679 -1.5173,0.41255 -2.8122,0.13292 -5.9701,-1.2889 -1.7355,-0.78137 -2.2953,-0.96005 -3.007,-0.85056 z m 7.4318,6.39853 c 0.041,-0.007 0.073,-0.003 0.096,0.0157 0.048,0.0389 -0.042,0.55357 -0.2003,1.14375 -0.2611,0.96899 -0.2658,1.35986 -0.05,4.02831 0.2689,3.32682 0.3105,3.14716 -1.0315,4.42741 -0.9543,0.91023 -1.0439,0.97634 -1.178,0.86948 -0.1816,-0.14462 -0.4804,-3.44029 -0.4085,-4.50944 0.1116,-1.66789 0.6215,-3.29976 1.4793,-4.73359 0.3397,-0.56773 1.009,-1.19187 1.2933,-1.24164 z m 0.2152,11.10305 c 0.066,-0.0387 0.3078,1.70941 0.5367,3.88488 l 0.4159,3.95537 -0.6421,0.42067 c -0.3531,0.23139 -1.3112,0.62253 -2.1289,0.86903 -0.8179,0.2465 -1.7247,0.47983 -2.0153,0.51858 -0.4753,0.0635 -0.5209,0.0328 -0.4535,-0.30759 0.042,-0.20811 0.4162,-1.18473 0.833,-2.17028 0.6136,-1.45037 0.7668,-2.01678 0.8048,-2.97188 0.077,-1.9354 0.1447,-2.08828 1.3968,-3.15978 0.6225,-0.53268 1.1861,-1.00018 1.2526,-1.039 z"
             id="path3643"
             inkscape:connector-curvature="0"
             sodipodi:nodetypes="cccccccccscssccccscccccccscccssccsccscsscccccccccscccsccscccccc" />
        </g>
      </g>
      <g
         id="text3537-3"
         style="color:#000000;font-style:normal;font-weight:normal;font-size:56.95957184px;line-height:125%;font-family:Sans;letter-spacing:0px;word-spacing:0px;clip-rule:nonzero;display:inline;overflow:visible;visibility:visible;opacity:1;isolation:auto;mix-blend-mode:normal;color-interpolation:sRGB;color-interpolation-filters:linearRGB;solid-color:#000000;solid-opacity:1;fill:#5c3566;fill-opacity:1;fill-rule:nonzero;stroke:none;stroke-width:1.24492085;stroke-linecap:butt;stroke-linejoin:miter;stroke-miterlimit:4;stroke-dasharray:none;stroke-dashoffset:0;stroke-opacity:1;color-rendering:auto;image-rendering:auto;shape-rendering:auto;text-rendering:auto;enable-background:accumulate"
         transform="matrix(0.8710547,-0.00256253,0.00194429,1.1480278,0,0)" />
    </g>
    <g
       transform="matrix(0.8710547,-0.00256253,0.00194429,1.1480278,0,0)"
       style="color:#000000;font-style:normal;font-weight:normal;font-size:56.95957184px;line-height:125%;font-family:Sans;letter-spacing:0px;word-spacing:0px;clip-rule:nonzero;display:inline;overflow:visible;visibility:visible;opacity:1;isolation:auto;mix-blend-mode:normal;color-interpolation:sRGB;color-interpolation-filters:linearRGB;solid-color:#000000;solid-opacity:1;fill:#5c3566;fill-opacity:1;fill-rule:nonzero;stroke:none;stroke-width:1.24492085;stroke-linecap:butt;stroke-linejoin:miter;stroke-miterlimit:4;stroke-dasharray:none;stroke-dashoffset:0;stroke-opacity:1;color-rendering:auto;image-rendering:auto;shape-rendering:auto;text-rendering:auto;enable-background:accumulate"
       id="text3537" />
  </g>
</svg>
