<?xml version="1.0" encoding="UTF-8" standalone="no"?>
<!-- Created with Inkscape (http://www.inkscape.org/) -->

<svg
   xmlns:dc="http://purl.org/dc/elements/1.1/"
   xmlns:cc="http://creativecommons.org/ns#"
   xmlns:rdf="http://www.w3.org/1999/02/22-rdf-syntax-ns#"
   xmlns:svg="http://www.w3.org/2000/svg"
   xmlns="http://www.w3.org/2000/svg"
   xmlns:sodipodi="http://sodipodi.sourceforge.net/DTD/sodipodi-0.dtd"
   xmlns:inkscape="http://www.inkscape.org/namespaces/inkscape"
   width="116.09099"
   height="220"
   id="svg2"
   version="1.1"
   inkscape:version="0.91 r13725"
   sodipodi:docname="blue.svg"
   inkscape:export-filename="/home/mimooh/wargus.png"
   inkscape:export-xdpi="90"
   inkscape:export-ydpi="90">
  <defs
     id="defs4">
    <filter
       style="color-interpolation-filters:sRGB"
       height="1.3709364"
       y="-0.1854682"
       width="1.1773851"
       x="-0.088692531"
       id="filter4519"
       inkscape:collect="always">
      <feGaussianBlur
         id="feGaussianBlur4521"
         stdDeviation="0.75660286"
         inkscape:collect="always" />
    </filter>
  </defs>
  <sodipodi:namedview
     id="base"
     pagecolor="#ffffff"
     bordercolor="#666666"
     borderopacity="1.0"
     inkscape:pageopacity="0.0"
     inkscape:pageshadow="2"
     inkscape:zoom="16"
     inkscape:cx="10.113011"
     inkscape:cy="117.48348"
     inkscape:document-units="px"
     inkscape:current-layer="layer1"
     showgrid="false"
     inkscape:window-width="1920"
     inkscape:window-height="1035"
     inkscape:window-x="0"
     inkscape:window-y="0"
     inkscape:window-maximized="1"
     fit-margin-top="0"
     fit-margin-left="0"
     fit-margin-right="0"
     fit-margin-bottom="0"
     showguides="true"
     inkscape:guide-bbox="true"
     inkscape:snap-bbox="false"
     inkscape:snap-global="false" />
  <metadata
     id="metadata7">
    <rdf:RDF>
      <cc:Work
         rdf:about="">
        <dc:format>image/svg+xml</dc:format>
        <dc:type
           rdf:resource="http://purl.org/dc/dcmitype/StillImage" />
        <dc:title />
      </cc:Work>
    </rdf:RDF>
  </metadata>
  <g
     inkscape:label="Layer 1"
     inkscape:groupmode="layer"
     id="layer1"
     transform="translate(1939.7336,-583.06335)">
    <g
       transform="translate(-1.2456738,-1.4142184)"
       id="layer1-5"
       inkscape:label="Layer 1">
      <g
         transform="matrix(0.90626031,0,0,0.90626031,-746.48892,91.512928)"
         id="g3668">
        <g
           id="g4829"
           transform="matrix(1.6281124,0,0,1.6281124,-1471.902,663.02363)">
          <path
             style="color:#000000;clip-rule:nonzero;display:inline;overflow:visible;visibility:visible;opacity:1;isolation:auto;mix-blend-mode:normal;color-interpolation:sRGB;color-interpolation-filters:linearRGB;solid-color:#000000;solid-opacity:1;fill:#efcd9a;fill-opacity:1;fill-rule:evenodd;stroke:none;stroke-width:3.11343122;stroke-linecap:butt;stroke-linejoin:miter;stroke-miterlimit:4;stroke-dasharray:none;stroke-dashoffset:0;stroke-opacity:1;color-rendering:auto;image-rendering:auto;shape-rendering:auto;text-rendering:auto;enable-background:accumulate"
             d="m 139.01901,-29.896204 -0.0119,0.0012 -17.03625,0.367898 c -0.41453,0.0091 -0.80093,0.207436 -1.04448,0.53631 -0.33161,0.448026 -1.8584,1.157384 -3.90131,1.991165 -2.04298,0.833775 -4.54137,1.945793 -6.6875,4.042049 -2.14619,2.096263 -3.88035,5.177809 -4.47784,9.672739 -0.59757,4.49493 -0.85482,8.0901948 1.30816,16.0861362 0.8212,2.6178904 1.36667,4.3451358 -0.9646,6.3004257 -0.95875,1.1027271 -1.19849,3.2381291 -1.80591,6.0433221 -0.73884,0.929515 -4.512237,-1.326544 -4.989807,-1.072091 -1.293838,2.223859 -1.086498,7.6667 3.286327,8.566236 l 2.57101,-2.434967 c -0.37086,0.600335 -0.86408,1.298373 -0.86408,1.298373 -0.73691,0.841224 -0.89313,2.227128 0.23816,2.232357 17.62325,1.781552 33.30733,-0.07302 49.91864,0.144619 0.70196,0.0031 1.28473,-0.530617 1.32972,-1.217152 0.73306,-20.4284303 -9.79657,-34.241071 -15.57735,-51.620976 -0.16636,-0.561409 -0.69453,-0.945019 -1.29103,-0.937668 z"
             id="path4229"
             inkscape:connector-curvature="0"
             sodipodi:nodetypes="cccccscccccccccccccc" />
          <path
             style="color:#000000;clip-rule:nonzero;display:inline;overflow:visible;visibility:visible;opacity:1;isolation:auto;mix-blend-mode:normal;color-interpolation:sRGB;color-interpolation-filters:linearRGB;solid-color:#000000;solid-opacity:1;fill:#ffffee;fill-opacity:1;fill-rule:evenodd;stroke:none;stroke-width:1.5874089;stroke-linecap:butt;stroke-linejoin:miter;stroke-miterlimit:4;stroke-dasharray:none;stroke-dashoffset:0;stroke-opacity:1;color-rendering:auto;image-rendering:auto;shape-rendering:auto;text-rendering:auto;enable-background:accumulate"
             d="m 138.87478,-28.556313 -17.19834,0.36538 c -3.02455,4.019841 -21.54114,1.446509 -12.92395,32.7852694 1.64066,5.9668106 -3.12283,5.3827938 -4.09473,10.6077366 -0.16788,0.902397 -2.7274,1.583151 -4.37524,0.08778 -0.622019,1.732905 0.2242,6.781047 2.22287,5.490482 l 2.87015,-1.85327 c 1.21166,-0.08286 -0.80893,3.459276 -0.80893,3.459276 22.16686,3.45105 33.32216,-0.07918 49.98328,-0.118779 1.29765,-19.3457133 -10.22547,-32.775685 -15.67511,-50.823875 z"
             id="path4831"
             inkscape:connector-curvature="0"
             sodipodi:nodetypes="ccsccscccc" />
          <path
             sodipodi:nodetypes="cccccccccccccc"
             inkscape:connector-curvature="0"
             id="path4833"
             d="m 118.28865,-18.87524 c -2.20946,0.743914 -10.64596,3.323484 -11.81015,5.199825 -1.63393,7.5450689 3.96946,13.79222562 3.31851,21.8188459 -0.26759,1.9054821 -1.73183,3.2304671 -2.9314,4.6282411 1.08405,-0.54479 3.18869,-0.229547 4.30539,-1.068454 1.43742,-1.096346 2.78915,-2.985656 2.18902,-4.706217 -0.27725,-1.824253 0.90192,-4.0474055 2.00664,-5.2733265 2.74122,-2.61081107 6.26955,-4.0334395 9.66645,-5.7143405 -2.32398,-4.400019 -3.24906,-9.414142 -5.68823,-13.763595 -0.28049,-0.424888 -0.55739,-0.925888 -1.05623,-1.120979 z m -11.12566,32.35913 c -0.92197,2.344738 -3.4207,2.843141 -5.88997,3.674372 -1.580457,0.278705 0.0845,2.895238 1.28914,1.607863 2.53949,-1.242314 4.35703,-2.665781 4.60083,-5.282235 z"
             style="color:#000000;clip-rule:nonzero;display:inline;overflow:visible;visibility:visible;opacity:1;isolation:auto;mix-blend-mode:normal;color-interpolation:sRGB;color-interpolation-filters:linearRGB;solid-color:#000000;solid-opacity:1;fill:#f6e4c9;fill-opacity:1;fill-rule:evenodd;stroke:none;stroke-width:3.11343122;stroke-linecap:butt;stroke-linejoin:miter;stroke-miterlimit:4;stroke-dasharray:none;stroke-dashoffset:0;stroke-opacity:1;color-rendering:auto;image-rendering:auto;shape-rendering:auto;text-rendering:auto;enable-background:accumulate" />
          <path
             sodipodi:nodetypes="ccsscscccc"
             inkscape:connector-curvature="0"
             id="path4835"
             d="m 139.06169,-28.556182 -17.19727,0.3789 c -3.02453,4.16929 -19.82301,0.681511 -12.41345,33.4817441 1.36712,6.0518659 -3.37178,5.1642699 -4.33262,9.7140119 -0.0997,0.472216 1.10781,-0.218296 1.21482,-0.814894 1.65943,-3.387946 5.84438,-1.90706 4.20371,-8.095703 -8.61716,-32.503869 9.01004,-30.115869 12.03457,-34.285159 l 16.49414,-0.36328 c -0.002,-0.0052 -0.002,-0.01043 -0.004,-0.01562 z"
             style="opacity:0.4;fill:#ffffff;stroke:none" />
        </g>
        <g
           id="g4837"
           transform="matrix(1.578365,0,0,1.578365,-1363.9614,185.14911)">
          <path
             sodipodi:nodetypes="cccccccccccccc"
             inkscape:connector-curvature="0"
             id="path4839"
             transform="matrix(1.0315183,0,0,1.0315183,78.965533,389.26043)"
             d="m 16.09375,-96.929688 c -0.370027,-0.0126 -0.911539,0.110254 -0.996094,0.470704 l -8.2089841,33.445312 c -0.054192,0.230253 2.0984294,2.404619 3.0097656,3.31836 l 5.2128905,0 0.748808,-3.153352 -0.417033,-1.757069 0.956759,-0.9315 0.788403,-3.574439 -1.256207,-1.300017 1.501268,-0.654872 5.189721,-24.706877 c 0.112872,-0.476928 -0.238694,-0.936595 -0.728516,-0.953124 z"
             style="color:#000000;display:inline;overflow:visible;visibility:visible;fill:#2d3c50;fill-opacity:1;fill-rule:nonzero;stroke:none;enable-background:accumulate" />
          <path
             sodipodi:nodetypes="cccccccccccc"
             inkscape:connector-curvature="0"
             id="path4841"
             transform="matrix(1.0315183,0,0,1.0315183,78.965533,389.26043)"
             d="m 16.880859,-96.154297 -8.3991702,35.261232 1.3339844,1.367188 3.5937508,0 0.992439,-3.970739 -0.459219,-1.41809 0.972473,-1.114723 0.659561,-2.94005 -1.321728,-1.840723 1.886105,-1.011564 L 21.4375,-95.0625 Z"
             style="color:#000000;display:inline;overflow:visible;visibility:visible;fill:#618599;fill-opacity:1;fill-rule:nonzero;stroke:none;enable-background:accumulate" />
          <path
             style="color:#000000;display:inline;overflow:visible;visibility:visible;fill:#2d3c50;fill-opacity:1;fill-rule:nonzero;stroke:none;enable-background:accumulate"
             d="m 101.74023,272.35547 c -2.086545,-4.5e-4 -3.795372,1.70837 -3.794918,3.79492 5.09e-4,1.14321 0.603854,2.13296 1.46875,2.8457 l -2.535307,8.04875 c -2.550347,-0.38628 -4.791544,-0.75846 -7.30462,-1.12697 -0.324591,-0.0481 -0.645056,0.10979 -0.804687,0.39648 l -2.552836,4.85572 c -0.282865,0.5105 0.06749,1.14073 0.650391,1.16993 l 8.009833,0.42967 c -0.399954,2.06177 -1.978379,15.12516 -0.953261,17.11022 1.883076,-0.80574 6.057863,-14.85717 6.698935,-16.24265 l 1.05668,0.40784 0.23686,0.0914 6.41217,2.24642 c 0.56583,0.20796 1.14631,-0.27002 1.05078,-0.86524 l -0.49212,-5.22085 c -0.0488,-0.30223 -0.26807,-0.54893 -0.5625,-0.63281 0,0 -4.04252,-1.31194 -6.66797,-1.88287 l 1.44518,-8.15227 c 1.42908,-0.56221 2.43089,-1.90587 2.4336,-3.47657 l 0,-0.002 c 4.5e-4,-2.08655 -1.70838,-3.79537 -3.79493,-3.79492 z"
             id="path4843"
             inkscape:connector-curvature="0"
             sodipodi:nodetypes="ccccccccccccccccccccccc" />
          <path
             sodipodi:nodetypes="ccccccccccccccc"
             inkscape:connector-curvature="0"
             id="path4845"
             d="m 101.73962,273.14499 c -1.66024,-3.6e-4 -3.006226,1.34562 -3.005864,3.00586 4.84e-4,1.08897 0.590036,2.09248 1.541014,2.62305 l -2.212889,9.4746 c -2.788413,-0.44065 -5.511674,-0.75794 -8.28125,-1.16406 l -2.164481,3.88871 8.512138,0.72262 c -1.04795,4.89757 -2.341591,18.35266 -2.10253,17.69923 0.0636,0.67326 5.687192,-15.47845 6.077832,-17.17947 l 8.23916,2.91054 -0.75084,-4.64002 c 0,0 -5.00948,-1.52774 -7.39526,-1.96543 l 2.954,-9.94936 c 1.35915,-0.31621 1.59243,-1.02496 1.59483,-2.42041 3.6e-4,-1.66024 -1.34562,-3.00622 -3.00586,-3.00586 z"
             style="color:#000000;display:inline;overflow:visible;visibility:visible;fill:#425b68;fill-opacity:1;fill-rule:nonzero;stroke:none;enable-background:accumulate" />
        </g>
        <path
           style="fill:#ffffff;fill-rule:evenodd;stroke:none"
           d="m -1213.8431,646.35689 -12.9886,53.24969 1.8484,1.97058 c 1.5955,-7.05274 8.6198,-29.73824 8.6198,-29.73824 1.1234,-17.10407 2.5204,-25.48203 2.5204,-25.48203 z"
           id="path4847"
           inkscape:connector-curvature="0"
           sodipodi:nodetypes="ccccc" />
        <path
           sodipodi:nodetypes="ccccccccccccccccccccccccc"
           style="color:#000000;display:inline;overflow:visible;visibility:visible;opacity:0.4;fill:#ffffff;fill-opacity:1;fill-rule:nonzero;stroke:none;enable-background:accumulate"
           d="m -1207.0398,632.98315 c -0.6838,0.0116 -1.1242,0.16734 -1.1684,0.41309 -0.075,0.3981 0.8957,0.91058 2.1672,1.1437 1.2708,0.23349 2.3604,0.0995 2.4323,-0.29904 0.075,-0.39809 -0.8957,-0.91058 -2.1672,-1.14369 -0.4406,-0.081 -0.8794,-0.12061 -1.2639,-0.11412 z m -0.8355,3.07041 c -0.6837,0.0116 -1.1241,0.16734 -1.1683,0.41309 -0.07,0.39783 0.8996,0.90813 2.1672,1.14062 1.269,0.23263 2.3564,0.0988 2.4291,-0.29903 0.07,-0.39783 -0.8996,-0.90812 -2.1671,-1.14061 -0.4394,-0.0808 -0.877,-0.12037 -1.2609,-0.11411 z m -13.934,1.84966 -0.3946,1.18377 28.312,4.7351 c -3.8705,-1.568 -7.8405,-2.57462 -11.8501,-3.35403 0.3934,-0.0627 0.63,-0.19308 0.6659,-0.36686 0.076,-0.39776 -0.8932,-0.91014 -2.1641,-1.14368 -0.4406,-0.081 -0.8794,-0.12061 -1.264,-0.11412 -0.6837,0.0116 -1.1241,0.16734 -1.1683,0.41309 -0.031,0.18456 0.1646,0.40295 0.5456,0.61039 -4.2196,-0.70018 -8.4653,-1.24929 -12.6824,-1.96371 z"
           id="path4849"
           inkscape:connector-curvature="0" />
        <path
           sodipodi:nodetypes="scccccccccs"
           inkscape:connector-curvature="0"
           id="path4851"
           d="m -1200.0965,608.30946 c -4.4305,0.1616 -9.1185,1.18158 -9.1185,1.18158 l -18.9639,-0.51345 c -3.2262,11.75137 1.6794,17.57612 5.453,27.40692 0.3613,-0.43507 9.1322,-8.99916 12.1589,-12.18433 0,0 1.7444,5.36896 2.5193,5.95019 1.2593,0.64578 5.3334,2.3911 8.6966,-0.94082 l 0.628,-1.17877 9.3993,-3.19937 c 1.3274,-7.64011 -4.1426,-15.48307 -4.1426,-15.48307 -1.4065,-0.92375 -3.9716,-1.13582 -6.6301,-1.03888 z"
           style="color:#000000;display:inline;overflow:visible;visibility:visible;fill:#2d3c50;fill-opacity:1;fill-rule:nonzero;stroke:none;enable-background:accumulate" />
        <path
           sodipodi:nodetypes="csccccccccccccccscccccccccccccccc"
           id="path4853"
           d="m -1251.7965,610.53683 c -1.8522,0.0329 -3.843,0.59781 -6.1118,0.59781 -4.3658,0 -8.4199,2.32428 -11.772,6.28033 -5.1767,-0.4115 -9.8283,-2.28324 -13.5366,-0.69624 -19.1988,6.37751 -24.6261,19.43457 -25.8084,26.99816 7.0287,-0.47912 10.6287,-1.2785 19.341,-2.53711 l 10.7606,-5.75043 c 2.8297,13.01773 -1.5245,33.55747 -3.5589,42.77272 -1.2016,2.6346 -2.2153,4.24682 -1.7267,5.2691 1.8528,2.15674 4.5397,1.25842 8.1279,1.32602 -0.8368,2.84999 -1.4023,6.18084 -1.0558,8.87512 -4.9278,1.32215 -9.4518,4.89877 -10.3983,9.30615 l 63.0544,0 c -5.4264,-5.27603 -13.6634,-9.19543 -20.4118,-9.92623 2.3535,-3.06141 3.449,-6.05938 4.1688,-9.48566 5.3211,-0.76188 11.5089,-1.56269 12.5486,-3.36741 -0.3793,-13.30434 -3.5757,-33.34036 -4.8446,-41.91497 -0.078,-0.52889 -0.739,-5.22055 -0.819,-5.66089 l 1.2163,3.97653 10.1766,-4.57484 c 1.9381,1.00524 -1.356,-17.96713 -3.8969,-17.89733 -2.7175,0.75323 -12.3187,1.66148 -14.9152,2.37788 -1.4888,0.41076 -3.8681,-3.77857 -5.2595,-3.38024 -1.7131,-2.1224 -3.4265,-2.62139 -5.2787,-2.58844 z m -1.8157,74.10455 0,0.003 c -0.6474,2.81802 -0.6703,5.54122 -0.067,7.62859 -4.455,-0.29154 -8.6541,0.54035 -12.7769,0.35933 -0.095,-0.003 -0.1853,-0.006 -0.2798,-0.01 1.1588,-2.47759 1.8902,-5.18562 2.1051,-7.73672 3.5647,-0.0169 7.3166,-0.0901 11.0184,-0.24486 z"
           style="fill:#000000;fill-opacity:1;stroke:none"
           inkscape:connector-curvature="0" />
        <path
           sodipodi:nodetypes="cssccccsccccccccsscccccccccccccccccscc"
           style="color:#000000;display:inline;overflow:visible;visibility:visible;fill:#2c3e46;fill-opacity:1;fill-rule:nonzero;stroke:none;enable-background:accumulate"
           d="m -1255.106,567.7338 c -5.242,-0.0211 -12.4828,1.03073 -18.4286,2.73747 -2.9723,0.8532 -5.6107,1.85669 -7.5682,3.0735 -0.9766,0.60713 -1.8088,1.26971 -2.4045,2.09933 -0.5374,0.7485 -0.7922,1.70112 -0.6844,2.66659 1.489,12.71598 3.181,25.51195 4.7988,38.2476 0.067,0.52283 0.403,0.976 0.8847,1.18994 6.1343,2.71882 12.0668,4.15371 17.1401,4.58403 5.0707,0.43011 9.2743,-0.0857 12.1213,-1.58144 0.6073,-0.31827 0.9264,-1.01236 0.7707,-1.68009 l -0.01,-0.0462 2.7005,0.74294 c 0.1153,0.0315 0.2386,0.0124 0.3391,-0.0524 l 7.8518,-5.07729 c 0.3694,-0.21001 0.548,-0.58374 0.6288,-0.94331 0.081,-0.35958 0.071,-0.72907 -0.032,-1.06047 -0.1488,-0.48522 -0.9576,-3.60134 -1.9853,-7.68835 -1.0278,-4.08748 -2.3197,-9.28472 -3.5852,-14.39334 -2.5311,-10.21718 -4.954,-20.09025 -4.954,-20.09025 l 0,0 c -0.013,-0.0467 -0.026,-0.0949 -0.043,-0.14174 -0.2388,-0.67751 -0.6971,-1.16494 -1.2361,-1.49204 -0.5402,-0.3278 -1.159,-0.51557 -1.7788,-0.66588 -1.2567,-0.3048 -2.779,-0.42146 -4.5254,-0.4285 z m 4.917,21.6501 0.5117,2.51244 -2.5093,1.49822 c -0.5565,0.33202 -0.8387,0.98548 -0.6998,1.61844 l -0.01,-0.0246 2.5679,16.11042 -3.6191,-15.58943 c -0.1683,-0.72288 -0.8445,-1.219 -1.5846,-1.1622 l -6.819,0.52099 -0.7152,-3.03651 c 3.4243,0.16602 6.5134,-0.18457 8.9338,-0.87549 1.6932,-0.48334 2.9132,-1.03285 3.9397,-1.57221 z"
           id="path4857"
           inkscape:connector-curvature="0" />
        <path
           style="fill:#000000;fill-rule:evenodd;stroke:none"
           d="m -1271.8237,586.4085 5.7674,33.49649 8.5591,0.50005 c 3.0089,-1.82431 6.1541,-2.33736 9.5447,-2.9244 l 2.5355,-1.06423 -1.8872,-35.32087 z"
           id="path4859"
           inkscape:connector-curvature="0"
           sodipodi:nodetypes="ccccccc" />
        <path
           style="fill:#425b68;fill-opacity:1;stroke:none"
           d="m -1255.1122,569.24124 c -10.0592,-0.0405 -28.7524,4.15497 -27.6152,9.0972 l 4.8313,38.02944 c 11.9683,5.30457 23.133,5.57601 27.9506,3.04503 l -5.1537,-23.17873 -8.4187,0.23847 -3.4279,-6.18205 c 8.233,1.00568 18.3288,-3.32705 19.8799,-4.54335 l -0.1117,0.71059 0.1932,5.98477 -4.4301,2.24689 5.4361,23.31105 c 1.2765,-1.05332 7.5407,-4.92267 7.5407,-4.92267 -0.8462,-2.75835 -10.5492,-42.25516 -10.5492,-42.25516 -0.3804,-1.08361 -2.7723,-1.56792 -6.1254,-1.58146 z"
           id="path4861"
           inkscape:connector-curvature="0"
           sodipodi:nodetypes="scccccccccccccs" />
        <path
           style="fill:#70979f;fill-opacity:1;stroke:none"
           d="m -1247.1435,586.42629 -1.131,0.7055 -0.113,4.65408 -4.3204,2.04116 4.577,23.65631 2.2251,0.49324 -4.4963,-23.16259 3.5916,-2.24388 z m -9.0053,8.17811 -7.5678,1.01751 0.3407,1.53842 8.243,-0.87531 z"
           id="path4863"
           inkscape:connector-curvature="0"
           sodipodi:nodetypes="cccccccccccccc" />
        <path
           sodipodi:nodetypes="cssssc"
           inkscape:connector-curvature="0"
           id="path4865"
           d="m -1248.598,569.95067 c 0.3426,1.69254 -6.8757,5.59842 -15.7526,7.23113 -8.8768,1.63272 -18.2507,1.39076 -18.5932,-0.30169 -0.3426,-1.69252 7.6845,-5.05812 16.5613,-6.69082 8.8769,-1.63275 17.442,-1.93107 17.7845,-0.23854 z"
           style="color:#000000;display:inline;overflow:visible;visibility:visible;fill:#2c3e46;fill-opacity:1;fill-rule:nonzero;stroke:none;enable-background:accumulate" />
        <path
           style="opacity:0.3;fill:#000000;fill-opacity:1;stroke:none"
           d="m -1275.4168,617.01213 c -3.7636,-36.59569 4.9008,-44.6579 10.6576,-47.16691 -6.0237,0.39336 -14.7785,2.58401 -18.3667,7.41172 0.3624,1.63086 5.6453,38.50245 5.6453,38.50245 z"
           id="path4869"
           inkscape:connector-curvature="0"
           sodipodi:nodetypes="ccccc" />
        <path
           sodipodi:nodetypes="ccccccssssscccc"
           inkscape:connector-curvature="0"
           id="path4873"
           d="m -1225.6383,611.33611 c 2.3317,2.92658 5.7525,12.64552 4.9994,20.63342 3.2654,-4.30965 5.4327,-6.20643 9.8372,-10.35337 2.3126,0.69447 4.07,6.28709 4.07,6.28709 1.9272,1.08581 4.946,1.74434 6.5337,-1.58459 0,0 -2.8452,-5.03568 -3.4702,-7.28944 2.1875,1.40574 8.1533,-1.50328 8.1533,-1.50328 0.1926,0.18283 -3.5231,2.29691 -3.7908,2.86416 -0.051,0.10573 2.9025,-0.11817 2.8712,0.0393 -0.038,0.19088 -2.7783,1.0061 -2.8018,1.23142 -0.1538,1.47526 1.1629,2.95755 1.4851,2.82859 l 6.2643,-2.5075 c 1.04,-1.3307 -2.9972,-11.23376 -2.9972,-11.23376 -0.1652,-0.82599 -8.3021,-0.95249 -14.1888,0.9577 -4.6287,0.0941 -16.4621,-0.97367 -16.9654,-0.36971 z"
           style="color:#000000;display:inline;overflow:visible;visibility:visible;fill:#618599;fill-opacity:1;fill-rule:nonzero;stroke:none;enable-background:accumulate" />
        <path
           sodipodi:nodetypes="cccccc"
           inkscape:connector-curvature="0"
           id="path4875"
           d="m -1225.7261,611.13563 2.5053,4.0338 15.1004,-1.47889 c 0,0 2.3507,-1.60315 13.1367,-2.97564 l -13.9111,1.05907 z"
           style="color:#000000;display:inline;overflow:visible;visibility:visible;opacity:0.6;fill:#ffffff;fill-opacity:1;fill-rule:evenodd;stroke:none;enable-background:accumulate" />
        <g
           transform="matrix(1.6281124,0,0,1.6281124,-1465.5701,670.50675)"
           id="g4877">
          <g
             id="g4879"
             transform="translate(23.422913,-3.9774757)">
            <path
               transform="matrix(1.9613291,0,0,1.9613291,-274.66355,-10.474304)"
               sodipodi:nodetypes="ccccccccscccccccccc"
               inkscape:connector-curvature="0"
               id="path4881"
               d="m 189.05487,-32.209897 c -3.30908,-0.242547 -7.65142,0.310977 -8.53219,2.541188 -0.006,0.02516 1.01349,-0.108714 1.72377,-0.137918 -0.91854,0.07454 -4.65166,1.091771 -4.77189,3.363622 -0.16274,0.126338 1.69776,-0.279874 1.69776,-0.279874 -3.45957,1.972878 -4.4954,3.076655 -3.82032,5.401649 0.008,0.198658 0.47749,-0.37786 1.46582,-1.042124 -3.17815,4.076443 2.40874,9.208374 6.33987,11.097596 0.49486,0.289501 -0.73314,-1.28009 0.32786,-3.888071 0.13853,-0.340501 -1.28459,-1.140324 -1.36456,-1.453366 -0.14661,-0.789726 1.92089,-0.88538 0.37999,-2.752487 0.83206,-1.102756 2.55456,-0.83331 3.7568,-1.612963 0.63792,-0.424084 0.97114,-0.95032 1.19531,-1.34375 0.22418,-0.393431 0.34334,-0.623754 0.625,-0.826172 0.28167,-0.202418 0.7962,-0.41411 1.85352,-0.517578 0.50828,-0.04974 0.77946,-0.278695 1.00977,-0.386719 0.2303,-0.108024 0.25394,-0.0822 0.21875,-0.101563 0.20861,0.11433 0.46227,0.109124 0.66601,-0.01367 4.77143,-1.825536 0.92405,-7.594497 -2.77127,-8.0478 z"
               style="fill:#efcd9a;fill-opacity:1;fill-rule:evenodd;stroke:none" />
            <path
               style="fill:#ffffee;fill-rule:evenodd;stroke:none;fill-opacity:1"
               d="m 100.89573,-58.985211 c 4.90496,-0.02871 4.8311,-8.073467 -0.83677,-11.899948 -3.441356,-2.32332 -11.154676,-1.986701 -18.858245,1.538622 -0.202616,0.09272 6.930619,-1.390988 10.14569,0.582854 -4.955082,-1.423768 -14.319439,1.804032 -16.434052,5.316954 3.46241,-0.962805 8.955276,-2.54653 9.83339,-2.805617 -6.567902,2.981363 -13.039829,6.913769 -13.999034,11.123487 -0.254609,0.483309 5.412369,-2.581718 9.99646,-4.666873 -5.522079,4.021782 -9.032981,3.514446 -8.954019,10.55258 0.18727,8.371327 12.343552,15.906965 12.343552,15.906965 0,0 -2.054396,-4.149309 -0.965956,-6.241437 0.892325,-1.715169 -1.779586,-1.984993 -2.079628,-3.460066 -0.119189,-1.049727 0.835791,-1.917744 0.835791,-1.917744 -0.639474,0.569106 -3.657129,0.404513 -3.558697,0.147451 0.109662,-0.235658 1.897524,-0.504443 2.827186,-3.707751 -0.787467,1.127869 -2.269962,0.80777 -2.269962,0.80777 -0.119944,-1.78067 1.65677,-1.853619 4.069336,-3.330234 11.523039,7.000072 14.69401,-3.90439 15.134826,-7.231672 0.904224,-0.148935 1.764832,-1.268254 2.770132,-0.715341 z"
               id="path4883"
               inkscape:connector-curvature="0"
               sodipodi:nodetypes="csscccccccscccccccc" />
            <path
               transform="translate(142.85075,83.852018)"
               id="path4885"
               d="m -47.8125,-154.35742 c 0.63234,1.00622 1.951339,1.83729 3.193359,2.90039 -1.88021,-1.13881 -11.391958,0.41009 -13.173828,-0.19922 2.30272,2.09603 15.781173,0.27028 15.132813,8.41602 l 0.251953,-0.0899 c 0.42939,-3.2166 0.126041,-5.10355 -0.605469,-6.44922 1.14862,1.58705 1.949821,3.0077 0.712891,6.38868 l 0.253906,-0.13868 c 5.98498,-10.38661 -2.201675,-8.98103 -5.765625,-10.82812 z m -2.898438,6.08594 c -4.353479,-0.14824 -9.819522,1.15027 -14.707031,3.63671 3.02148,0.75262 19.254928,-6.03874 22.548828,1.43946 l 0.189453,-0.0332 c -0.436944,-3.30057 -3.67777,-4.89473 -8.03125,-5.04296 z"
               style="color:#000000;display:inline;overflow:visible;visibility:visible;opacity:1;fill:#efcd9a;fill-opacity:1;fill-rule:evenodd;stroke:none;enable-background:accumulate;clip-rule:nonzero;isolation:auto;mix-blend-mode:normal;color-interpolation:sRGB;color-interpolation-filters:linearRGB;solid-color:#000000;solid-opacity:1;stroke-width:1.9613291;stroke-linecap:butt;stroke-linejoin:miter;stroke-miterlimit:4;stroke-dasharray:none;stroke-dashoffset:0;stroke-opacity:1;filter-blend-mode:normal;filter-gaussianBlur-deviation:0;color-rendering:auto;image-rendering:auto;shape-rendering:auto;text-rendering:auto"
               inkscape:connector-curvature="0" />
            <path
               transform="translate(142.85075,83.852018)"
               sodipodi:nodetypes="scccscccccccccccc"
               inkscape:connector-curvature="0"
               id="path4887"
               d="m -49.402344,-156.21484 c -3.577375,0.0593 -7.914789,1.03263 -12.248047,3.01562 -0.131097,0.06 2.806856,-0.52746 5.769532,-0.42383 2.792383,-0.80617 5.425966,-1.62086 9.800781,-2.34375 -1.002877,-0.18365 -2.11847,-0.26798 -3.322266,-0.24804 z m -9.548828,3.88476 c -3.923956,0.97148 -7.731611,2.94684 -8.986328,5.03125 0.796418,-0.22146 1.773258,-0.42523 2.703661,-0.68872 z m -5.544315,5.64967 c -4.626441,2.21767 -7.173224,5.79169 -7.608029,7.69994 -0.118247,0.22446 1.111123,-0.35635 2.845704,-1.20898 0.123016,-2.11709 3.868496,-4.98668 4.762325,-6.49096 z m -4.738888,7.66674 c -1.208738,1.20199 -1.862689,2.83714 -1.828125,5.91797 0.06887,3.07852 1.76083,6.04126 3.867188,8.56054 -2.573338,-4.51576 -2.821286,-9.61727 -2.039063,-14.47851 z"
               style="opacity:0.3;fill:#ffffff;fill-rule:evenodd;stroke:none" />
            <path
               sodipodi:nodetypes="ccc"
               inkscape:connector-curvature="0"
               id="path4889"
               d="m 83.39678,-51.61118 c 0.0818,-0.106293 8.48039,3.856742 13.93881,-4.56185 -0.32871,1.139581 -4.40216,11.281243 -13.93881,4.56185 z"
               style="color:#000000;display:inline;overflow:visible;visibility:visible;opacity:1;fill:#efcd9a;fill-opacity:1;fill-rule:evenodd;stroke:none;enable-background:accumulate;clip-rule:nonzero;isolation:auto;mix-blend-mode:normal;color-interpolation:sRGB;color-interpolation-filters:linearRGB;solid-color:#000000;solid-opacity:1;stroke-width:1.9613291;stroke-linecap:butt;stroke-linejoin:miter;stroke-miterlimit:4;stroke-dasharray:none;stroke-dashoffset:0;stroke-opacity:1;filter-blend-mode:normal;filter-gaussianBlur-deviation:0;color-rendering:auto;image-rendering:auto;shape-rendering:auto;text-rendering:auto" />
            <path
               inkscape:connector-curvature="0"
               id="path4891"
               d="m 94.975754,-55.900288 c -1.972225,4.567875 -7.631748,3.321188 -11.41504,2.630879 -2.410376,1.602043 -6.966195,5.301753 -8.210724,0.365881 -0.4091,-3.980511 4.754933,-3.586565 6.227265,-6.69233 3.180684,-2.189681 6.434611,2.212684 10.039408,0.808537 1.957392,-0.51581 5.893647,0.231756 3.359091,2.887033 z"
               style="color:#000000;display:inline;overflow:visible;visibility:visible;opacity:1;fill:#ffffff;fill-opacity:1;fill-rule:evenodd;stroke:none;filter:url(#filter4519);enable-background:accumulate" />
          </g>
          <g
             id="g4893"
             transform="translate(-3.2703689,-4.7729708)">
            <path
               sodipodi:nodetypes="ccccc"
               inkscape:connector-curvature="0"
               id="path4895"
               d="m 124.82774,-55.639338 0.0459,-3.115323 2.66074,-0.553212 1.63416,2.907099 c -1.24721,0.913486 -2.82311,1.337031 -4.34078,0.761436 z"
               style="color:#000000;display:inline;overflow:visible;visibility:visible;fill:#888a85;fill-opacity:1;fill-rule:nonzero;stroke:none;enable-background:accumulate" />
            <path
               sodipodi:nodetypes="ccccc"
               inkscape:connector-curvature="0"
               id="path4897"
               d="m 127.78304,-60.10279 c 1.00017,0.421313 0.6989,1.423368 0.4011,1.712729 -1.27771,1.068332 -2.90082,0.869151 -3.66007,0.468359 l -0.20697,-1.100396 c 0.46218,-0.570182 2.34976,0.30469 3.46594,-1.080692 z"
               style="color:#000000;display:inline;overflow:visible;visibility:visible;fill:#d3d7cf;fill-opacity:1;fill-rule:nonzero;stroke:none;enable-background:accumulate" />
          </g>
        </g>
        <ellipse
           transform="matrix(0.8202505,1.4063922,-1.4063922,0.8202505,-1471.902,663.02363)"
           ry="0.6875"
           rx="0.8125"
           cy="-136.91936"
           cx="28.329063"
           id="ellipse4899"
           style="color:#000000;display:inline;overflow:visible;visibility:visible;fill:#ffffff;fill-opacity:1;fill-rule:nonzero;stroke:none;enable-background:accumulate" />
        <ellipse
           transform="matrix(0.19501726,1.6163905,-1.6163905,0.19501726,-1471.902,663.02363)"
           style="color:#000000;display:inline;overflow:visible;visibility:visible;fill:#ffffff;fill-opacity:1;fill-rule:nonzero;stroke:none;enable-background:accumulate"
           id="ellipse4901"
           cx="-28.587622"
           cy="-139.07039"
           rx="0.8125"
           ry="0.6875" />
        <g
           id="g3489"
           transform="matrix(0.99677612,0.08023333,-0.08023333,0.99677612,49.620678,99.72388)">
          <g
             transform="matrix(0.85612445,-0.16382124,0.16382124,0.85612445,-301.28846,-120.17596)"
             id="g3416">
            <path
               style="color:#000000;display:inline;overflow:visible;visibility:visible;fill:#2d3c50;fill-opacity:1;fill-rule:nonzero;stroke:none;enable-background:accumulate"
               d="m -1279.5156,637.10332 c -10.0834,-2.21012 -22.9776,7.10793 -30.2761,12.58097 6.7242,3.71907 5.2015,13.6918 21.423,12.29426 0,0 0.2641,0.40834 0.6156,1.12312 -1.3454,-0.80858 -5.0581,3.15545 -5.0581,3.15545 -1.3301,4.13254 4.2638,8.16364 4.2638,8.16364 1.2494,3.49229 5.3965,4.77157 6.1999,4.73241 2.5164,-0.12265 6.2159,-0.67289 9.2466,-1.68208 0.3167,-0.10547 0.377,-1.21705 0.6935,-1.31356 1.6302,-0.49705 3.4899,-0.38133 4.932,-1.02789 0.3616,-0.16212 0.1722,-1.12862 0.5186,-1.29707 2.0331,-0.98877 3.7044,-1.27961 5.052,-2.34017 l 1.2376,-10.79455 c -3.5159,-4.28628 -13.2555,-8.87095 -13.2555,-8.87095 z"
               id="path4855"
               inkscape:connector-curvature="0"
               sodipodi:nodetypes="ccccscssssscccc" />
            <path
               sodipodi:nodetypes="ccccscccccccsccccc"
               inkscape:connector-curvature="0"
               id="path4871"
               d="m -1305.9207,649.85402 c 2.413,-2.10868 8.4629,-10.07068 25.4497,-10.74822 0,0 3.0045,11.45692 5.9583,14.04574 7.3207,4.76706 10.742,7.11333 12.0433,8.04899 l -1.158,8.84694 c -0.1597,1.22012 -1.598,1.7706 -3.3196,2.17802 l 0.4956,-5.09932 c -0.5757,1.83039 -1.9145,4.48709 -2.4026,6.12173 -1.2867,1.1746 -3.2165,1.3099 -4.1313,1.31674 -0.2864,0.11131 1.7253,-3.58376 0.3676,-5.45835 -0.4115,0.91244 -1.9952,5.79507 -2.4589,6.02645 -4.7565,2.23371 -11.1398,1.34721 -11.7019,-2.5294 -2.1928,-1.40419 -3.9182,-3.76349 -3.5207,-5.17381 0,0 2.0508,-2.05907 4.0732,-1.73197 0.327,-0.17328 0.4405,3.46796 2.427,5.05866 1.9916,-6.92583 -3.7291,-5.74355 -3.8646,-14.22125 l -0.609,3.55917 c -15.1996,-1.44647 -12.4965,-7.29962 -17.6481,-10.24012 z"
               style="color:#000000;display:inline;overflow:visible;visibility:visible;fill:#618599;fill-opacity:1;fill-rule:nonzero;stroke:none;enable-background:accumulate" />
            <path
               sodipodi:nodetypes="ccccc"
               inkscape:connector-curvature="0"
               id="path4905"
               d="m -1281.0255,639.30805 c -8.0581,-0.91114 -18.4552,5.43495 -23.858,10.16604 2.5834,2.94284 2.3624,6.15653 8.0403,8.42742 4.6362,-6.02228 -4.1352,-14.06255 15.9856,-17.12734 0.5942,-0.76857 0.1931,-0.65092 -0.1679,-1.46612 z"
               style="color:#000000;display:inline;overflow:visible;visibility:visible;opacity:0.4;fill:#ffffff;fill-opacity:1;fill-rule:evenodd;stroke:none;enable-background:accumulate" />
          </g>
          <path
             style="color:#000000;display:inline;overflow:visible;visibility:visible;opacity:0.3;fill:#ffffff;fill-opacity:1;fill-rule:evenodd;stroke:none;enable-background:accumulate"
             d="m -1302.5767,640.31887 c 0.1802,0.33467 -7.9387,5.43324 -9.671,9.2564 5.1691,6.12814 9.1852,6.45461 16.0404,6.40554 0.1951,-10e-4 -0.1381,-3.47178 0.063,-3.4735 0,0 0.8303,3.3997 1.2142,3.3967 l 2.0322,2.58293 c 2.3269,2.27223 2.7546,3.29643 2.4349,6.30593 l -3.1037,-4.26026 c -1.7568,0.48671 -2.0065,1.22461 -2.8708,1.86007 0.3995,1.12559 -0.3513,2.14058 3.891,4.14097 1.5624,2.21904 3.2738,2.34544 4.2813,2.25002 1.4837,-0.14051 1.1414,-1.33084 2.2111,-2.4914 l 0.8964,-8.29264 c -5.4311,-2.99592 -3.4349,-3.91219 -6.7331,-6.19639 -0.2911,-0.2016 5.9911,-3.70224 5.9911,-3.70224 0,0 -8.9205,2.64776 -9.1552,2.60024 -9.6426,0.4826 -17.1928,-1.12597 -7.5218,-10.38237 z"
             id="path4427-3"
             inkscape:connector-curvature="0"
             sodipodi:nodetypes="ccssccccccsccsccc" />
          <path
             style="color:#000000;display:inline;overflow:visible;visibility:visible;opacity:0.7;fill:#2d3c50;fill-opacity:1;fill-rule:nonzero;stroke:none;enable-background:accumulate"
             d="m -1284.4965,657.91094 c 3.1322,0.57279 9.4548,-1.80428 10.6265,-5.51038 l 1.2313,9.52552 c -4.4282,3.5461 -10.6152,5.52241 -15.0434,7.45727 0.3863,-0.45531 1.7594,-1.43156 2.0324,-2.424 0.7907,-2.87388 1.1532,-9.04841 1.1532,-9.04841 z"
             id="path4431-5"
             inkscape:connector-curvature="0"
             sodipodi:nodetypes="ccccsc" />
        </g>
      </g>
      <g
         id="text3537-59"
         style="color:#000000;font-style:normal;font-weight:normal;font-size:56.95957184px;line-height:125%;font-family:Sans;letter-spacing:0px;word-spacing:0px;clip-rule:nonzero;display:inline;overflow:visible;visibility:visible;opacity:1;isolation:auto;mix-blend-mode:normal;color-interpolation:sRGB;color-interpolation-filters:linearRGB;solid-color:#000000;solid-opacity:1;fill:#5c3566;fill-opacity:1;fill-rule:nonzero;stroke:none;stroke-width:1.24492085;stroke-linecap:butt;stroke-linejoin:miter;stroke-miterlimit:4;stroke-dasharray:none;stroke-dashoffset:0;stroke-opacity:1;color-rendering:auto;image-rendering:auto;shape-rendering:auto;text-rendering:auto;enable-background:accumulate"
         transform="matrix(0.8710547,-0.00256253,0.00194429,1.1480278,0,0)" />
    </g>
    <g
       transform="matrix(0.8710547,-0.00256253,0.00194429,1.1480278,0,0)"
       style="color:#000000;font-style:normal;font-weight:normal;font-size:56.95957184px;line-height:125%;font-family:Sans;letter-spacing:0px;word-spacing:0px;clip-rule:nonzero;display:inline;overflow:visible;visibility:visible;opacity:1;isolation:auto;mix-blend-mode:normal;color-interpolation:sRGB;color-interpolation-filters:linearRGB;solid-color:#000000;solid-opacity:1;fill:#5c3566;fill-opacity:1;fill-rule:nonzero;stroke:none;stroke-width:1.24492085;stroke-linecap:butt;stroke-linejoin:miter;stroke-miterlimit:4;stroke-dasharray:none;stroke-dashoffset:0;stroke-opacity:1;color-rendering:auto;image-rendering:auto;shape-rendering:auto;text-rendering:auto;enable-background:accumulate"
       id="text3537" />
  </g>
</svg>
