<?xml version="1.0" encoding="UTF-8" standalone="no"?>
<!-- Created with Inkscape (http://www.inkscape.org/) -->

<svg
   xmlns:dc="http://purl.org/dc/elements/1.1/"
   xmlns:cc="http://creativecommons.org/ns#"
   xmlns:rdf="http://www.w3.org/1999/02/22-rdf-syntax-ns#"
   xmlns:svg="http://www.w3.org/2000/svg"
   xmlns="http://www.w3.org/2000/svg"
   xmlns:sodipodi="http://sodipodi.sourceforge.net/DTD/sodipodi-0.dtd"
   xmlns:inkscape="http://www.inkscape.org/namespaces/inkscape"
   id="svg2"
   version="1.1"
   inkscape:version="0.91 r13725"
   width="24.721579"
   height="24.12315"
   viewBox="0 0 24.721579 24.123149"
   sodipodi:docname="github.svg">
  <metadata
     id="metadata8">
    <rdf:RDF>
      <cc:Work
         rdf:about="">
        <dc:format>image/svg+xml</dc:format>
        <dc:type
           rdf:resource="http://purl.org/dc/dcmitype/StillImage" />
        <dc:title></dc:title>
      </cc:Work>
    </rdf:RDF>
  </metadata>
  <defs
     id="defs6">
    <clipPath
       clipPathUnits="userSpaceOnUse"
       id="clipPath3020">
      <path
         inkscape:connector-curvature="0"
         d="m 0,0 4802,0 0,1298.75 -4802,0 L 0,0 Z"
         id="path3022" />
    </clipPath>
  </defs>
  <sodipodi:namedview
     pagecolor="#ffffff"
     bordercolor="#666666"
     borderopacity="1"
     objecttolerance="10"
     gridtolerance="10"
     guidetolerance="10"
     inkscape:pageopacity="0"
     inkscape:pageshadow="2"
     inkscape:window-width="1676"
     inkscape:window-height="996"
     id="namedview4"
     showgrid="false"
     fit-margin-top="0"
     fit-margin-left="0"
     fit-margin-right="0"
     fit-margin-bottom="0"
     inkscape:zoom="11.313708"
     inkscape:cx="-2.6089944"
     inkscape:cy="-3.1865937"
     inkscape:window-x="0"
     inkscape:window-y="5"
     inkscape:window-maximized="0"
     inkscape:current-layer="svg2" />
  <path
     style="fill:#cc0000"
     d="m 12.310755,4.5806722e-4 c -0.720975,0 -1.44218,0.0449535528 -1.957181,0.13486393278 C 5.805746,0.92839559 2.1876727,4.5229323 1.2953415,9.1350863 1.1199761,10.041462 1.0977998,12.048133 1.2531067,12.955238 c 0.6616319,3.86435 3.2639929,7.140913 6.8168246,8.583979 1.3021337,0.528888 1.4341768,0.422388 1.4341768,-1.166194 l 0,-1.158065 -0.8429675,0.04382 C 7.0884508,19.341085 6.2753913,18.893376 5.6433518,17.597199 5.3432596,16.981768 5.0862891,16.673517 4.350482,16.042821 3.9298146,15.682255 4.0359873,15.534995 4.6753282,15.588049 c 0.6353322,0.05269 1.1067524,0.380912 1.6599355,1.156432 0.258302,0.362112 0.5887598,0.693631 0.8592167,0.860837 0.3816689,0.235982 0.5235045,0.270485 1.0801092,0.267994 0.3524627,-0.0014 0.7901105,-0.05355 0.9728914,-0.116979 0.2862761,-0.09937 0.3404661,-0.164284 0.3914327,-0.466152 0.032647,-0.192731 0.1736335,-0.531494 0.3134788,-0.752014 L 10.207386,16.138625 9.310832,15.948583 C 6.5325765,15.363479 5.2170577,13.685133 5.2145667,10.723495 5.2133353,9.3717695 5.3880564,8.8401186 6.2004576,7.7268232 6.3128436,7.5728328 6.3204317,7.4846705 6.2378241,7.2736711 6.0823163,6.8768123 6.1029608,5.7241317 6.2767654,5.1329523 6.4282219,4.618181 6.4338627,4.613213 6.7721522,4.613213 c 0.4816137,0 1.3212444,0.3027409 2.0903669,0.7536312 L 9.5203284,5.7517773 10.303194,5.5877371 c 1.067411,-0.2211501 2.950987,-0.219303 4.024797,0.00288 l 0.795865,0.165672 0.581475,-0.349213 c 0.812029,-0.4863096 1.713793,-0.809552 2.161821,-0.7763804 0.348653,0.025771 0.372476,0.046814 0.493769,0.4336672 0.146473,0.4669677 0.176266,1.9315948 0.04554,2.25279 -0.07402,0.1818364 -0.02705,0.3074084 0.300478,0.7958656 0.481342,0.7178105 0.666027,1.3010448 0.727647,2.2933925 0.103499,1.665389 -0.424448,3.286039 -1.374091,4.213203 -0.756794,0.738872 -1.755713,1.170377 -3.337765,1.442308 -0.3228,0.05541 -0.337102,0.07145 -0.206276,0.216009 0.0776,0.08575 0.234452,0.358694 0.347581,0.60584 0.190327,0.415658 0.208523,0.609849 0.251761,2.601989 0.05012,2.308654 0.05312,2.324175 0.524618,2.327496 0.337533,0.0029 1.577489,-0.515587 2.359982,-0.985892 C 22.386929,18.19096 24.43781,13.14159 23.121547,8.2201963 22.613853,6.3220828 21.692245,4.7470025 20.238558,3.2907077 18.527296,1.5763976 16.555298,0.53375534 14.267949,0.1348633 13.752948,0.04509759 13.03173,0 12.310769,0 Z"
     id="path3338"
     inkscape:connector-curvature="0"
     sodipodi:nodetypes="ccssssccsscscccccccccccsccccccccsscscccscscsccc" />
</svg>
