<?xml version="1.0" encoding="UTF-8" standalone="no"?>
<!-- Created with Inkscape (http://www.inkscape.org/) -->

<svg
   xmlns:dc="http://purl.org/dc/elements/1.1/"
   xmlns:cc="http://creativecommons.org/ns#"
   xmlns:rdf="http://www.w3.org/1999/02/22-rdf-syntax-ns#"
   xmlns:svg="http://www.w3.org/2000/svg"
   xmlns="http://www.w3.org/2000/svg"
   xmlns:sodipodi="http://sodipodi.sourceforge.net/DTD/sodipodi-0.dtd"
   xmlns:inkscape="http://www.inkscape.org/namespaces/inkscape"
   version="1.0"
   viewBox="0 0 25.499401 29.736534"
   id="svg2"
   inkscape:version="0.91 r13725"
   sodipodi:docname="mac.svg"
   width="25.499401"
   height="29.736534">
  <defs
     id="defs12" />
  <sodipodi:namedview
     pagecolor="#ffffff"
     bordercolor="#666666"
     borderopacity="1"
     objecttolerance="10"
     gridtolerance="10"
     guidetolerance="10"
     inkscape:pageopacity="0"
     inkscape:pageshadow="2"
     inkscape:window-width="1680"
     inkscape:window-height="1004"
     id="namedview10"
     showgrid="false"
     showguides="true"
     inkscape:guide-bbox="true"
     fit-margin-top="0"
     fit-margin-left="0"
     fit-margin-right="0"
     fit-margin-bottom="0"
     inkscape:zoom="5.6568542"
     inkscape:cx="10.378952"
     inkscape:cy="36.474371"
     inkscape:window-x="0"
     inkscape:window-y="0"
     inkscape:window-maximized="1"
     inkscape:current-layer="svg2" />
  <metadata
     id="metadata4">
    <rdf:RDF>
      <cc:Work
         rdf:about="">
        <dc:format>image/svg+xml</dc:format>
        <dc:type
           rdf:resource="http://purl.org/dc/dcmitype/StillImage" />
        <dc:title></dc:title>
      </cc:Work>
    </rdf:RDF>
  </metadata>
  <path
     style="fill:#000000"
     d=""
     id="path3468"
     inkscape:connector-curvature="0" />
  <path
     style="fill:#000000"
     d=""
     id="path3466"
     inkscape:connector-curvature="0" />
  <path
     style="fill:#000000"
     d=""
     id="path3464"
     inkscape:connector-curvature="0" />
  <path
     style="color:#000000;clip-rule:nonzero;display:inline;overflow:visible;visibility:visible;isolation:auto;mix-blend-mode:normal;color-interpolation:sRGB;color-interpolation-filters:linearRGB;solid-color:#000000;solid-opacity:1;fill:#f57900;fill-opacity:1;fill-rule:nonzero;stroke-width:1;stroke-linecap:butt;stroke-linejoin:miter;stroke-miterlimit:4;stroke-dasharray:none;stroke-dashoffset:0;stroke-opacity:1;color-rendering:auto;image-rendering:auto;shape-rendering:auto;text-rendering:auto;enable-background:accumulate"
     d="m 17.722897,0.24811067 c 0,0 -2.321702,0.41704194 -3.877247,2.07314973 -1.554347,1.6573256 -1.296969,4.2747327 -1.296969,4.2747327 0,0 2.427259,-0.232465 4.080576,-1.9553513 1.653277,-1.7239951 1.09364,-4.39253113 1.09364,-4.39253113 z M 17.479423,6.9320163 c -1.36737,-0.014056 -2.242534,0.4519977 -3.11666,0.8246342 -1.166653,0.4980477 -1.748947,0.4977635 -1.748947,0.4977635 -1.683573,0 -2.914421,-1.8240608 -6.122032,-0.9936062 -2.209852,0.5706855 -4.535906,3.1814862 -4.956236,6.2971862 -0.420309,3.116859 0.486626,7.093676 2.235386,10.176018 1.748747,3.084708 3.530002,4.244256 4.79438,4.27762 1.264424,0.03216 2.526752,-0.927117 4.048502,-1.160651 1.522903,-0.231155 2.460334,0.564936 3.954108,0.995057 1.487947,0.428947 2.009561,0.03081 3.72343,-1.460966 1.718458,-1.491731 3.273746,-5.770446 3.273746,-5.770446 0,0 -2.88504,-0.957858 -3.631382,-4.803876 -0.746324,-3.843644 2.818982,-6.0977883 2.818982,-6.0977883 0,0 -1.389016,-2.0563643 -3.723404,-2.585403 C 18.445983,6.9950114 17.93525,6.9367222 17.479423,6.9320163 Z"
     id="path3602"
     inkscape:connector-curvature="0" />
</svg>
