<?xml version="1.0" encoding="UTF-8" standalone="no"?>
<!-- Created with Inkscape (http://www.inkscape.org/) -->

<svg
   xmlns:dc="http://purl.org/dc/elements/1.1/"
   xmlns:cc="http://creativecommons.org/ns#"
   xmlns:rdf="http://www.w3.org/1999/02/22-rdf-syntax-ns#"
   xmlns:svg="http://www.w3.org/2000/svg"
   xmlns="http://www.w3.org/2000/svg"
   xmlns:sodipodi="http://sodipodi.sourceforge.net/DTD/sodipodi-0.dtd"
   xmlns:inkscape="http://www.inkscape.org/namespaces/inkscape"
   version="1.0"
   viewBox="0 0 25.499401 29.736534"
   id="svg2"
   inkscape:version="0.91 r13725"
   sodipodi:docname="srcZip.svg"
   width="25.499401"
   height="29.736534">
  <defs
     id="defs12" />
  <sodipodi:namedview
     pagecolor="#ffffff"
     bordercolor="#666666"
     borderopacity="1"
     objecttolerance="10"
     gridtolerance="10"
     guidetolerance="10"
     inkscape:pageopacity="0"
     inkscape:pageshadow="2"
     inkscape:window-width="1680"
     inkscape:window-height="1005"
     id="namedview10"
     showgrid="false"
     showguides="true"
     inkscape:guide-bbox="true"
     fit-margin-top="0"
     fit-margin-left="0"
     fit-margin-right="0"
     fit-margin-bottom="0"
     inkscape:zoom="11.313708"
     inkscape:cx="-0.92362005"
     inkscape:cy="4.838816"
     inkscape:window-x="0"
     inkscape:window-y="0"
     inkscape:window-maximized="1"
     inkscape:current-layer="svg2" />
  <metadata
     id="metadata4">
    <rdf:RDF>
      <cc:Work
         rdf:about="">
        <dc:format>image/svg+xml</dc:format>
        <dc:type
           rdf:resource="http://purl.org/dc/dcmitype/StillImage" />
        <dc:title />
      </cc:Work>
    </rdf:RDF>
  </metadata>
  <path
     style="fill:#000000"
     d=""
     id="path3468"
     inkscape:connector-curvature="0" />
  <path
     style="fill:#000000"
     d=""
     id="path3466"
     inkscape:connector-curvature="0" />
  <path
     style="fill:#000000"
     d=""
     id="path3464"
     inkscape:connector-curvature="0" />
  <path
     style="color:#000000;clip-rule:nonzero;display:inline;overflow:visible;visibility:visible;opacity:1;isolation:auto;mix-blend-mode:normal;color-interpolation:sRGB;color-interpolation-filters:linearRGB;solid-color:#000000;solid-opacity:1;fill:#f57900;fill-opacity:1;fill-rule:nonzero;stroke:none;stroke-width:1;stroke-linecap:butt;stroke-linejoin:miter;stroke-miterlimit:4;stroke-dasharray:none;stroke-dashoffset:0;stroke-opacity:1;marker:none;marker-start:none;marker-mid:none;marker-end:none;color-rendering:auto;image-rendering:auto;shape-rendering:auto;text-rendering:auto;enable-background:accumulate"
     d="M 2.9160156 2.1601562 C 1.7897713 2.1601562 0.88476562 3.065162 0.88476562 4.1914062 L 0.88476562 25.316406 C 0.88476562 26.442651 1.7897713 27.349609 2.9160156 27.349609 L 22.451172 27.349609 C 23.577416 27.349609 24.484375 26.442651 24.484375 25.316406 L 24.484375 4.1914062 C 24.484375 3.065162 23.577416 2.1601562 22.451172 2.1601562 L 2.9160156 2.1601562 z M 6.4804688 12.160156 C 6.850719 12.160156 7.2407886 12.188042 7.6484375 12.244141 C 8.0560867 12.30024 8.4998087 12.388135 8.9785156 12.507812 L 8.9785156 14.033203 C 8.5484273 13.853693 8.132591 13.720619 7.7324219 13.630859 C 7.3322524 13.541102 6.9549 13.492188 6.5996094 13.492188 C 6.2181397 13.492188 5.9330887 13.541432 5.7460938 13.638672 C 5.5628397 13.732174 5.4707032 13.87991 5.4707031 14.078125 C 5.4707031 14.23894 5.5432648 14.363201 5.6816406 14.449219 C 5.823757 14.535231 6.0747298 14.597528 6.4375 14.638672 L 6.7910156 14.689453 C 7.8194879 14.820349 8.511897 15.034797 8.8671875 15.333984 C 9.2224779 15.633177 9.4003906 16.104618 9.4003906 16.744141 C 9.4003906 17.413585 9.153823 17.913406 8.6601562 18.25 C 8.1664892 18.586589 7.4290724 18.755859 6.4492188 18.755859 C 6.0340901 18.755859 5.601298 18.72357 5.15625 18.65625 C 4.7149418 18.592664 4.2604561 18.494177 3.7929688 18.363281 L 3.7929688 16.837891 C 4.193138 17.032365 4.606522 17.178151 5.0253906 17.275391 C 5.4479993 17.372631 5.8747654 17.419922 6.3085938 17.419922 C 6.7012834 17.419922 6.9970978 17.36432 7.1953125 17.255859 C 7.3935274 17.1474 7.4921875 16.988565 7.4921875 16.775391 C 7.4921875 16.595876 7.423533 16.462963 7.2851562 16.376953 C 7.1505199 16.287198 6.8783521 16.220495 6.4707031 16.171875 L 6.1191406 16.126953 C 5.2253045 16.014755 4.5973115 15.806838 4.2382812 15.503906 C 3.8792508 15.200974 3.7011719 14.740131 3.7011719 14.123047 C 3.7011719 13.457346 3.9284977 12.962256 4.3847656 12.640625 C 4.8410333 12.318994 5.5380142 12.160156 6.4804688 12.160156 z M 15.007812 12.160156 C 15.075129 12.160156 15.149986 12.162422 15.228516 12.169922 C 15.30705 12.173722 15.42267 12.182472 15.572266 12.201172 L 15.576172 14.021484 C 15.400396 13.939207 15.224604 13.879197 15.048828 13.841797 C 14.876793 13.800647 14.703121 13.777344 14.527344 13.777344 C 14.011238 13.777344 13.612523 13.946445 13.332031 14.279297 C 13.05528 14.608407 12.916016 15.084089 12.916016 15.701172 L 12.916016 18.59375 L 10.908203 18.59375 L 10.908203 12.310547 L 12.916016 12.310547 L 12.916016 13.341797 C 13.174068 12.930408 13.469885 12.632307 13.802734 12.445312 C 14.139326 12.254577 14.540325 12.160155 15.007812 12.160156 z M 19.720703 12.160156 C 20.049814 12.160156 20.375467 12.188207 20.693359 12.248047 C 21.01499 12.304146 21.334454 12.391872 21.652344 12.507812 L 21.652344 14.144531 C 21.379332 13.957537 21.100972 13.820229 20.824219 13.730469 C 20.551206 13.640701 20.27006 13.595703 19.974609 13.595703 C 19.413623 13.595703 18.974306 13.760733 18.660156 14.089844 C 18.349743 14.415215 18.195312 14.869867 18.195312 15.457031 C 18.195312 16.044196 18.349743 16.502919 18.660156 16.832031 C 18.974306 17.157405 19.413623 17.318359 19.974609 17.318359 C 20.288761 17.318359 20.586696 17.273177 20.867188 17.179688 C 21.151421 17.086185 21.41299 16.946925 21.652344 16.763672 L 21.652344 18.408203 C 21.338192 18.52414 21.018728 18.611869 20.693359 18.667969 C 20.371727 18.727819 20.046076 18.755859 19.720703 18.755859 C 18.587514 18.755859 17.702023 18.466402 17.0625 17.886719 C 16.422977 17.303297 16.101562 16.492984 16.101562 15.457031 C 16.101562 14.421079 16.422977 13.612888 17.0625 13.033203 C 17.702023 12.449779 18.587515 12.160156 19.720703 12.160156 z "
     id="path3372" />
</svg>
