<?xml version="1.0" encoding="UTF-8" standalone="no"?>
<!-- Created with Inkscape (http://www.inkscape.org/) -->

<svg
   xmlns:dc="http://purl.org/dc/elements/1.1/"
   xmlns:cc="http://creativecommons.org/ns#"
   xmlns:rdf="http://www.w3.org/1999/02/22-rdf-syntax-ns#"
   xmlns:svg="http://www.w3.org/2000/svg"
   xmlns="http://www.w3.org/2000/svg"
   xmlns:sodipodi="http://sodipodi.sourceforge.net/DTD/sodipodi-0.dtd"
   xmlns:inkscape="http://www.inkscape.org/namespaces/inkscape"
   width="90.102112"
   height="39.997784"
   id="svg2"
   version="1.1"
   inkscape:version="0.91 r13725"
   sodipodi:docname="stargus.svg"
   inkscape:export-filename="/home/mimooh/wargus.png"
   inkscape:export-xdpi="90"
   inkscape:export-ydpi="90">
  <defs
     id="defs4" />
  <sodipodi:namedview
     id="base"
     pagecolor="#ffffff"
     bordercolor="#666666"
     borderopacity="1.0"
     inkscape:pageopacity="0.0"
     inkscape:pageshadow="2"
     inkscape:zoom="4.0000002"
     inkscape:cx="-0.35962181"
     inkscape:cy="-67.320611"
     inkscape:document-units="px"
     inkscape:current-layer="g3379"
     showgrid="false"
     inkscape:window-width="2560"
     inkscape:window-height="1377"
     inkscape:window-x="-8"
     inkscape:window-y="-8"
     inkscape:window-maximized="1"
     fit-margin-top="0"
     fit-margin-left="0"
     fit-margin-right="0"
     fit-margin-bottom="0"
     showguides="true"
     inkscape:guide-bbox="true"
     inkscape:snap-bbox="false"
     inkscape:snap-global="false" />
  <metadata
     id="metadata7">
    <rdf:RDF>
      <cc:Work
         rdf:about="">
        <dc:format>image/svg+xml</dc:format>
        <dc:type
           rdf:resource="http://purl.org/dc/dcmitype/StillImage" />
        <dc:title></dc:title>
      </cc:Work>
    </rdf:RDF>
  </metadata>
  <g
     inkscape:label="Layer 1"
     inkscape:groupmode="layer"
     id="layer1"
     transform="translate(1929.1525,-587.97053)">
    <g
       transform="translate(-0.95991383,-1.4142184)"
       id="layer1-8"
       inkscape:label="Layer 1">
      <g
         id="g3379"
         transform="matrix(0.90626031,0,0,0.90626031,-746.77468,91.512928)">
        <path
           style="fill:#003380"
           d="m -1294.6183,549.37056 c -0.3101,0.0193 -0.6076,0.31888 -0.9073,0.89869 -0.7289,1.40947 -3.4036,3.95426 -5.5517,5.28012 -2.1672,1.33775 -2.3468,1.62419 -1.9288,3.08186 0.3895,1.35802 0.375,4.95383 -0.03,7.59042 -0.8051,5.2423 -0.8126,5.04428 0.2091,5.2715 2.6634,0.59238 3.9482,1.16857 3.9482,1.77153 0,0.33891 -1.0055,2.62119 -2.2328,5.07106 -1.2272,2.44988 -2.2305,4.70587 -2.2305,5.01503 7e-4,0.30913 0.2941,1.04503 0.653,1.6336 0.5625,0.92281 0.7728,1.04032 1.515,0.84913 0.4734,-0.12204 1.4362,-0.2928 2.1401,-0.3793 1.1989,-0.14725 1.3793,-0.0564 2.8685,1.46119 0.8742,0.89075 1.8142,1.62043 2.0905,1.62067 0.2761,2.6e-4 1.2665,-0.9413 2.2004,-2.09265 0.9342,-1.15135 2.5016,-2.64347 3.4827,-3.31462 2.7362,-1.87153 3.6645,-2.97469 3.4073,-4.05598 -0.1173,-0.49293 -0.2102,-1.04018 -0.2069,-1.2155 0.1093,-5.90772 0.4794,-10.95434 0.8492,-11.54298 0.244,-0.38831 0.4439,-0.99875 0.4439,-1.35559 0,-0.5848 -0.2006,-0.6487 -2.0366,-0.6487 -1.4918,0 -2.2269,-0.15629 -2.75,-0.57974 l -0.7133,-0.57758 1.7931,-3.59908 c 2.0509,-4.11411 2.1968,-5.18184 0.9849,-7.24993 -0.915,-1.56117 -1.1037,-1.64601 -1.666,-0.74568 -0.2435,0.38973 -0.7373,0.63574 -1.2715,0.63146 -1.2877,-0.011 -3.457,-1.09533 -4.0754,-2.03877 -0.3531,-0.53904 -0.6749,-0.79953 -0.9849,-0.78016 z m 11.7003,3.89219 c -0.282,-0.002 -0.4536,0.081 -0.5194,0.25216 -0.079,0.20793 0.3347,1.03074 1.0496,2.07972 l 1.1831,1.73489 0.06,11.78003 c 0.06,11.58742 0.054,11.7873 -0.3879,12.18736 -0.7293,0.66004 -0.5491,1.3277 0.7629,2.83187 0.6666,0.76422 1.5382,1.96409 1.9375,2.66592 0.3991,0.70187 0.8556,1.27585 1.015,1.27585 0.3642,0 2.6804,-4.70721 2.8578,-5.80813 0.1004,-0.62268 0.02,-0.97461 -0.3384,-1.47843 -0.465,-0.65297 -0.4698,-0.79402 -0.4698,-12.46322 l 0,-3.13789 c 0.2039,-0.0167 0.2853,-0.0248 0.5151,-0.0453 1.5868,-0.14076 2.9678,-0.33559 3.0667,-0.43319 0.098,-0.0975 0.1474,-0.66609 0.11,-1.26292 l -0.067,-1.08403 -1.5538,-0.0582 c -1.0267,-0.0373 -1.6726,-0.0993 -2.069,-0.19612 l 0,-5.58615 0.888,-1.26506 c 0.4882,-0.69604 0.8857,-1.33616 0.8857,-1.4224 0,-0.0863 -0.2888,-0.15733 -0.6422,-0.15733 -0.4917,0 -0.8463,0.24287 -1.5108,1.03016 l -0.8685,1.02801 -2.3232,-1.14654 c -1.7856,-0.88088 -2.9534,-1.31352 -3.5776,-1.32111 l 0,0 z m -11.8986,4.03444 c 1.008,0 3.6005,1.13466 3.7629,1.64653 0.2173,0.68471 -0.4458,2.27098 -1.8965,4.53874 -1.1678,1.82546 -1.7337,2.1359 -2.4116,1.31895 -0.5941,-0.71568 -0.1012,-7.50422 0.5452,-7.50422 z m 27.4717,7.68956 c -0.4317,-0.0327 -0.8085,0.16837 -1.3146,0.52802 -0.9977,0.70952 -3.9094,4.14199 -4.5668,5.38356 -0.6348,1.19985 -0.4876,1.58509 0.8017,2.07325 1.265,0.47903 1.1817,0.83852 -0.278,1.18318 -1.37,0.32349 -1.5101,0.77616 -0.5043,1.64007 0.9638,0.82777 1.0004,1.00634 1.0862,5.36415 l 0.071,3.5991 1.7694,1.71765 c 0.9727,0.94492 1.922,1.71982 2.1099,1.71982 0.1882,0 0.8833,-0.44049 1.5452,-0.97844 0.6617,-0.53795 1.3289,-0.97844 1.4828,-0.97844 0.1541,0 0.5278,0.38488 0.8297,0.85559 0.3017,0.47071 0.7,0.8556 0.8858,0.8556 0.3523,0 2.461,-2.43111 3.3922,-3.91159 0.6415,-1.01999 0.6946,-1.71335 0.1314,-1.71335 -0.3211,0 -0.377,-0.16854 -0.2651,-0.7931 0.2136,-1.19299 0.284,-10.7462 0.084,-11.32313 -0.096,-0.27579 -0.584,-0.64381 -1.0862,-0.81896 -0.5024,-0.17513 -1.7296,-1.05756 -2.7263,-1.96119 -1.8588,-1.68494 -2.7264,-2.38719 -3.446,-2.44179 l 0,0 z m 45.8034,0.20906 -1.347,1.28015 c -1.4648,1.39466 -1.6157,1.8473 -0.8405,2.52368 0.4839,0.42204 0.5064,0.75194 0.5064,7.1357 0,5.76014 -0.052,6.71564 -0.3836,6.83829 -0.5236,0.19373 -1.862,-0.3695 -2.1616,-0.90948 -0.1367,-0.24619 -0.2423,-2.94838 -0.2392,-6.14217 0,-5.15106 0.055,-5.80194 0.5086,-6.76501 0.2759,-0.58628 0.5,-1.21794 0.5,-1.403 0,-0.18511 -0.6529,-0.82986 -1.4504,-1.43317 l -1.4483,-1.09914 -0.5754,0.52155 c -0.3164,0.28654 -1.0047,1.32564 -1.5301,2.31032 -0.8335,1.56188 -0.9135,1.85581 -0.6294,2.29524 0.1791,0.27704 0.2691,0.59113 0.2005,0.69826 -0.07,0.10715 -0.1405,2.93621 -0.1595,6.28657 l -0.034,6.0926 2.6228,2.37498 c 1.4431,1.30662 2.7547,2.37869 2.9138,2.38359 0.1593,0 0.3615,-0.26328 0.4483,-0.59697 0.1973,-0.75771 1.6414,-2.37408 1.9547,-2.18749 0.1276,0.0765 0.4989,0.6413 0.8232,1.25646 l 0.5884,1.11852 0.6401,-0.82974 c 0.352,-0.45622 1.0719,-1.57976 1.5969,-2.49781 0.8316,-1.45347 0.9142,-1.74022 0.6466,-2.22195 -0.3301,-0.59457 -0.2559,-11.53852 0.084,-12.49339 0.1334,-0.37416 -0.2254,-0.96409 -1.5301,-2.51291 l -1.7047,-2.02368 z m -32.3768,0.25 c -0.2399,0.0301 -0.8992,0.82629 -2.1487,2.58186 -1.3319,1.87096 -1.4575,2.14389 -1.0733,2.35127 0.3891,0.20987 0.4354,0.77319 0.4354,5.34908 0,3.94779 -0.089,5.36471 -0.388,6.21544 -0.4371,1.24106 -0.3916,1.34319 2.097,4.72193 0.6191,0.84054 1.2744,1.53016 1.4547,1.53016 0.1799,0 0.4727,-0.3581 0.6509,-0.79526 0.1786,-0.43704 0.6697,-1.15232 1.0926,-1.58834 l 0.7694,-0.79309 -0.556,-0.95043 c -0.5211,-0.89377 -0.5516,-1.24277 -0.5259,-5.68742 0.015,-2.60432 0.1,-5.39556 0.1897,-6.20253 l 0.1638,-1.46765 0.7586,1.05602 c 1.653,2.2933 1.4116,2.22954 2.6142,0.69396 0.5865,-0.7486 1.0646,-1.49155 1.0646,-1.64869 0,-0.37981 -2.5735,-5.11417 -2.7801,-5.11417 -0.089,0 -0.3007,0.36966 -0.4698,0.82112 -0.38,1.01259 -1.1664,1.73073 -1.6854,1.53878 -0.2141,-0.0792 -0.6434,-0.66931 -0.9547,-1.3125 -0.3114,-0.64321 -0.597,-1.21226 -0.6314,-1.26506 -0.017,-0.0262 -0.042,-0.0377 -0.076,-0.0345 l 0,0 z m 15.5472,0.009 c -0.1703,-3.1e-4 -0.5579,0.32338 -0.862,0.71983 -0.3039,0.39647 -1.9673,1.84497 -3.6961,3.21978 -2.4167,1.92199 -3.0955,2.58869 -2.9418,2.88575 0.3186,0.61435 0.3775,8.7494 0.078,10.61195 -0.313,1.94518 -0.1962,2.19192 1.222,2.62928 0.5121,0.15781 1.7804,0.77985 2.8189,1.38144 2.0909,1.21118 1.7613,1.25624 3.0581,-0.42025 l 0.4742,-0.61205 0.4095,0.93964 c 0.5253,1.20322 0.996,3.45707 0.8168,3.90727 -0.077,0.19108 -0.4339,0.40076 -0.7975,0.46767 -0.5518,0.10207 -0.875,-0.10265 -1.9547,-1.24998 -1.7758,-1.88653 -2.8224,-2.47053 -4.4374,-2.47196 -1.3844,0 -1.6142,0.19017 -1.6142,1.35991 0,0.87765 0.9126,3.02374 1.5754,3.70685 l 0.5819,0.59913 0.125,-0.81034 c 0.092,-0.59302 0.3015,-0.87206 0.7758,-1.03231 0.5731,-0.19374 0.8126,-0.0693 2.028,1.05387 1.2031,1.11209 1.4709,1.25363 2.1379,1.12498 1.1058,-0.21322 2.39,-1.29213 3.6207,-3.04522 1.6349,-2.32826 1.9436,-3.66443 1.7413,-7.48268 -0.514,-9.68262 -0.5146,-9.88016 -0.069,-10.04514 0.7499,-0.27729 0.4511,-0.8577 -1.4375,-2.79307 -1.0214,-1.04671 -2.1906,-2.51994 -2.5991,-3.27367 -0.4086,-0.75375 -0.8837,-1.3703 -1.0539,-1.37068 z m 27.6678,0.0345 c -0.2149,-0.0383 -0.3563,0.10945 -0.4634,0.43533 -0.2239,0.67991 -2.0015,2.37433 -3.3598,3.20471 l -1.1681,0.71551 -0.084,3.36634 c -0.048,1.8521 -0.1156,3.79492 -0.1508,4.31677 -0.064,0.94263 -0.054,0.95088 1.1573,1.24998 0.6712,0.16558 1.3293,0.40749 1.4633,0.53663 0.1555,0.14996 -0.3068,1.31534 -1.2823,3.22626 -1.4743,2.88781 -1.5139,3.01285 -1.1487,3.69392 0.5116,0.95369 0.7543,1.05888 1.5797,0.67456 1.0115,-0.4709 1.6353,-0.28802 2.7457,0.80818 0.5381,0.5314 1.0496,0.96767 1.1379,0.96767 0.088,0 0.6091,-0.53736 1.1552,-1.1918 0.546,-0.65434 1.6073,-1.61559 2.3577,-2.13791 0.7503,-0.52246 1.4998,-1.17072 1.6659,-1.43964 0.1903,-0.3083 0.3247,-1.89054 0.3643,-4.28013 0.035,-2.08452 0.169,-3.89375 0.2995,-4.0215 0.1302,-0.12776 0.2371,-0.4859 0.2371,-0.79525 0,-0.50889 -0.116,-0.5625 -1.2198,-0.5625 -2.1365,0 -2.2155,-0.25819 -0.8944,-2.90513 1.2417,-2.48816 1.2992,-3.23814 0.3448,-4.43098 -0.4723,-0.59041 -0.4998,-0.59535 -0.8405,-0.14871 -0.5023,0.65917 -2.0725,0.34232 -2.9892,-0.60344 -0.4039,-0.4169 -0.6925,-0.64061 -0.9073,-0.67887 z m -58.3808,3.49349 c 0.136,-3.7e-4 0.2825,0.0132 0.4375,0.0388 1.0948,0.18248 2.8103,1.19825 2.8103,1.66378 0,0.18407 -0.6298,0.62432 -1.4008,0.97628 -2.1772,0.99378 -2.791,0.8061 -3.0841,-0.93533 -0.1849,-1.09878 0.2852,-1.73924 1.2371,-1.74352 z m 58.3636,1.11637 c 0.1457,0 0.7017,0.18616 1.237,0.41379 1.2078,0.51373 1.2305,0.90674 0.1573,2.78876 -0.8862,1.55392 -1.2693,1.84737 -1.7262,1.31679 -0.3687,-0.42821 -0.069,-4.51934 0.3319,-4.51934 z m -29.4458,0.15302 c 0.1924,0.0192 0.4372,0.20475 0.7521,0.49568 0.3979,0.36743 0.8342,1.06037 0.972,1.53878 0.1378,0.47835 0.2534,3.20662 0.2543,6.06458 0,4.79005 -0.035,5.19653 -0.444,5.18744 -0.2442,0 -0.7341,-0.16119 -1.0883,-0.34698 -1.2479,-0.65453 -1.3278,-1.11673 -1.2155,-6.93095 0.089,-4.62094 0.1921,-6.06595 0.7694,-6.00855 z m -53.1287,0.23276 c 0.216,-0.0142 0.5376,0.064 0.8168,0.21336 0.6416,0.34338 0.6713,0.55955 0.5646,4.11201 -0.077,2.56548 -0.2502,3.91286 -0.5495,4.27366 -0.5139,0.61882 -3.2773,0.64232 -5.0625,0.0431 -0.2707,-0.0908 0.266,-1.46319 1.6703,-4.2672 1.1386,-2.27341 2.2125,-4.22055 2.3857,-4.32754 0.043,-0.0268 0.102,-0.0427 0.1746,-0.0474 z m 28.2173,2.79307 c 0.164,0 0.2568,1.69939 0.2565,4.70899 0,4.2612 -0.049,4.7805 -0.5043,5.49994 -0.6071,0.95958 -0.9876,0.99412 -1.7974,0.16379 -0.5771,-0.59194 -0.6212,-0.833 -0.7047,-3.93315 -0.047,-1.81685 -0.015,-3.7805 0.075,-4.36201 0.1486,-0.95557 0.2729,-1.10547 1.2909,-1.56679 0.6196,-0.28074 1.2423,-0.51077 1.3836,-0.51077 z m 55.4434,4.76933 c 0.4417,0 0.4987,0.21212 0.5646,2.13791 0.042,1.20159 -0.047,2.35128 -0.2004,2.62713 -0.2141,0.38573 -0.5276,0.49206 -1.4677,0.48921 -1.9913,-0.01 -2.0157,-0.11686 -0.625,-2.83402 0.9301,-1.81775 1.3605,-2.42023 1.7285,-2.42023 z"
           id="path5436"
           inkscape:connector-curvature="0" />
      </g>
      <g
         id="text3537-7"
         style="color:#000000;font-style:normal;font-weight:normal;font-size:56.95957184px;line-height:125%;font-family:Sans;letter-spacing:0px;word-spacing:0px;clip-rule:nonzero;display:inline;overflow:visible;visibility:visible;opacity:1;isolation:auto;mix-blend-mode:normal;color-interpolation:sRGB;color-interpolation-filters:linearRGB;solid-color:#000000;solid-opacity:1;fill:#5c3566;fill-opacity:1;fill-rule:nonzero;stroke:none;stroke-width:1.24492085;stroke-linecap:butt;stroke-linejoin:miter;stroke-miterlimit:4;stroke-dasharray:none;stroke-dashoffset:0;stroke-opacity:1;color-rendering:auto;image-rendering:auto;shape-rendering:auto;text-rendering:auto;enable-background:accumulate"
         transform="matrix(0.8710547,-0.00256253,0.00194429,1.1480278,0,0)" />
    </g>
    <g
       transform="matrix(0.8710547,-0.00256253,0.00194429,1.1480278,0,0)"
       style="color:#000000;font-style:normal;font-weight:normal;font-size:56.95957184px;line-height:125%;font-family:Sans;letter-spacing:0px;word-spacing:0px;clip-rule:nonzero;display:inline;overflow:visible;visibility:visible;opacity:1;isolation:auto;mix-blend-mode:normal;color-interpolation:sRGB;color-interpolation-filters:linearRGB;solid-color:#000000;solid-opacity:1;fill:#5c3566;fill-opacity:1;fill-rule:nonzero;stroke:none;stroke-width:1.24492085;stroke-linecap:butt;stroke-linejoin:miter;stroke-miterlimit:4;stroke-dasharray:none;stroke-dashoffset:0;stroke-opacity:1;color-rendering:auto;image-rendering:auto;shape-rendering:auto;text-rendering:auto;enable-background:accumulate"
       id="text3537" />
  </g>
</svg>
