<?xml version="1.0" encoding="UTF-8" standalone="no"?>
<!-- Created with Inkscape (http://www.inkscape.org/) -->

<svg
   xmlns:dc="http://purl.org/dc/elements/1.1/"
   xmlns:cc="http://creativecommons.org/ns#"
   xmlns:rdf="http://www.w3.org/1999/02/22-rdf-syntax-ns#"
   xmlns:svg="http://www.w3.org/2000/svg"
   xmlns="http://www.w3.org/2000/svg"
   xmlns:sodipodi="http://sodipodi.sourceforge.net/DTD/sodipodi-0.dtd"
   xmlns:inkscape="http://www.inkscape.org/namespaces/inkscape"
   width="523.86877"
   height="178.09126"
   id="svg2"
   version="1.1"
   inkscape:version="0.91 r13725"
   sodipodi:docname="stratagus_horiz.svg"
   inkscape:export-filename="/home/mimooh/wargus.png"
   inkscape:export-xdpi="90"
   inkscape:export-ydpi="90">
  <defs
     id="defs4">
    <filter
       style="color-interpolation-filters:sRGB"
       inkscape:collect="always"
       id="filter4519-5"
       x="-0.088692531"
       width="1.1773851"
       y="-0.1854682"
       height="1.3709364">
      <feGaussianBlur
         inkscape:collect="always"
         stdDeviation="0.75660286"
         id="feGaussianBlur4521-6" />
    </filter>
  </defs>
  <sodipodi:namedview
     id="base"
     pagecolor="#ffffff"
     bordercolor="#666666"
     borderopacity="1.0"
     inkscape:pageopacity="0.0"
     inkscape:pageshadow="2"
     inkscape:zoom="0.35355339"
     inkscape:cx="495.97238"
     inkscape:cy="-40.134773"
     inkscape:document-units="px"
     inkscape:current-layer="layer1"
     showgrid="false"
     inkscape:window-width="1276"
     inkscape:window-height="975"
     inkscape:window-x="0"
     inkscape:window-y="0"
     inkscape:window-maximized="0"
     fit-margin-top="0"
     fit-margin-left="0"
     fit-margin-right="0"
     fit-margin-bottom="0"
     showguides="true"
     inkscape:guide-bbox="true"
     inkscape:snap-bbox="false"
     inkscape:snap-global="false" />
  <metadata
     id="metadata7">
    <rdf:RDF>
      <cc:Work
         rdf:about="">
        <dc:format>image/svg+xml</dc:format>
        <dc:type
           rdf:resource="http://purl.org/dc/dcmitype/StillImage" />
        <dc:title />
      </cc:Work>
    </rdf:RDF>
  </metadata>
  <g
     inkscape:label="Layer 1"
     inkscape:groupmode="layer"
     id="layer1"
     transform="translate(2817.4514,-552.37768)">
    <g
       id="g4006"
       transform="matrix(0.99205905,0,0,0.99205905,-20.293229,5.0935096)">
      <g
         transform="matrix(2.8209422,0,0,2.8209422,5506.5285,-2110.497)"
         id="g3525"
         style="fill:#babdb6">
        <path
           style="fill:#babdb6;fill-opacity:1;stroke:none"
           d="m -2904.8051,977.86968 c -0.8402,-0.16275 -0.5476,1.38924 -2.4128,0.91717 -2.2955,-0.58091 -0.2489,-2.30536 -2.592,-1.96367 -2.3432,0.3417 0.1096,1.39128 -1.9244,2.60367 -2.0341,1.21237 -1.7869,-1.42819 -3.2022,0.47027 -1.4151,1.89852 1.0512,0.90671 0.4703,3.20228 -0.5806,2.29567 -2.2857,0.25469 -1.9441,2.59783 0.3419,2.34322 1.3914,-0.10976 2.6038,1.92427 1.2123,2.03406 -1.4538,1.80087 0.4447,3.21616 1.8985,1.41521 0.9322,-1.06519 3.2278,-0.48415 2.2956,0.58092 0.235,2.27989 2.5782,1.93816 2.3432,-0.34163 -0.09,-1.38553 1.9439,-2.59791 2.034,-1.21239 1.7811,1.44791 3.1964,-0.45054 1.4153,-1.89851 -1.0511,-0.90668 -0.4702,-3.20226 0.5816,-2.29538 2.2855,-0.25475 1.9439,-2.5979 -0.3416,-2.34312 -1.3913,0.10981 -2.6037,-1.92425 -1.2123,-2.03403 1.4341,-1.8067 -0.4644,-3.22193 -0.356,-0.26538 -0.6014,-0.38967 -0.7952,-0.4272 z m -3.4085,4.22297 c 0.2706,0.0609 0.5337,0.1852 0.7733,0.3565 0.9588,0.68485 1.1796,2.01501 0.4947,2.97379 -0.685,0.95876 -2.0149,1.17961 -2.9738,0.49473 -0.9587,-0.68486 -1.1993,-2.02079 -0.5144,-2.97959 0.5136,-0.7191 1.4085,-1.02827 2.2202,-0.84537 z"
           id="path3529"
           inkscape:connector-curvature="0"
           sodipodi:nodetypes="ssccsccssscccccscscccccc" />
        <path
           sodipodi:nodetypes="ssccsccssscccccscscccccc"
           inkscape:connector-curvature="0"
           id="path3531"
           d="m -2917.9273,987.66017 c -0.4152,0.15552 0.135,0.76204 -0.8176,1.05878 -1.1719,0.36504 -0.7344,-0.95138 -1.6774,-0.16569 -0.9428,0.78564 0.4254,0.58509 -0.1451,1.6718 -0.5705,1.08669 -1.1765,-0.14715 -1.2877,1.07515 -0.1113,1.22229 0.7101,0.11593 1.0751,1.28772 0.3656,1.17167 -0.9412,0.73169 -0.1554,1.67457 0.7857,0.94289 0.5851,-0.42537 1.6718,0.14509 1.0866,0.57051 -0.1547,1.18961 1.0677,1.30077 1.2223,0.1112 0.1234,-0.72317 1.2953,-1.08821 1.1717,-0.36499 0.7214,0.94385 1.6642,0.15819 0.9429,-0.78561 -0.4151,-0.58786 0.1554,-1.67453 0.5705,-1.08672 1.1792,0.15739 1.2905,-1.0649 0.1111,-1.22227 -0.7101,-0.11593 -1.0753,-1.28769 -0.3645,-1.17194 0.9413,-0.7317 0.1555,-1.67459 -0.7857,-0.94287 -0.5851,0.42536 -1.6719,-0.14509 -1.0866,-0.5705 0.1445,-1.18682 -1.0777,-1.29806 -0.2293,-0.0207 -0.3714,-0.009 -0.4673,0.0267 z m -0.3622,2.78928 c 0.1362,-0.046 0.286,-0.0627 0.4383,-0.0518 0.6092,0.0429 1.067,0.57095 1.0241,1.18014 -0.043,0.60924 -0.5709,1.06703 -1.1803,1.02412 -0.609,-0.043 -1.0773,-0.56818 -1.0343,-1.17738 0.032,-0.45692 0.344,-0.83594 0.7523,-0.97497 z"
           style="fill:#babdb6;fill-opacity:1;stroke:none" />
        <path
           sodipodi:nodetypes="ssccsccssscccccscscccccc"
           inkscape:connector-curvature="0"
           id="path3641"
           d="m -2931.5946,976.77625 c -1.7305,0.125 -0.3384,3.00822 -4.2383,3.06893 -4.7996,0.0748 -1.7043,-4.38086 -6.11,-2.47511 -4.4059,1.90586 0.949,2.66529 -2.3921,6.11211 -3.3413,3.44679 -4.2514,-1.85204 -6.0194,2.61098 -1.7674,4.46298 2.5363,1.21971 2.6111,6.0195 0.075,4.7998 -4.3393,1.70518 -2.4336,6.11102 1.9061,4.40582 2.6653,-0.94935 6.1122,2.39172 3.4467,3.3412 -1.8949,4.2923 2.5683,6.0602 4.4631,1.7678 1.2623,-2.577 6.0621,-2.6517 4.7998,-0.075 1.6635,4.3384 6.0695,2.4325 4.4059,-1.9058 -0.9076,-2.6644 2.4333,-6.1111 3.341,-3.44679 4.2505,1.8936 6.0184,-2.56933 1.7679,-4.46305 -2.5359,-1.21964 -2.6108,-6.01946 -0.074,-4.79977 4.3389,-1.70519 2.4333,-6.11109 -1.9056,-4.40583 -2.6654,0.94945 -6.1121,-2.39174 -3.4467,-3.34119 1.8532,-4.29336 -2.6099,-6.06111 -0.8369,-0.33147 -1.3828,-0.4452 -1.782,-0.41632 z m -4.442,10.06499 c 0.5618,-0.0237 1.1424,0.0808 1.7018,0.28954 2.2382,0.83429 3.3725,3.32124 2.5382,5.55942 -0.8346,2.23818 -3.321,3.37255 -5.5595,2.53828 -2.2379,-0.83438 -3.4141,-3.32216 -2.5797,-5.56038 0.6255,-1.67864 2.2139,-2.75621 3.8992,-2.82675 z"
           style="fill:#babdb6;fill-opacity:1;stroke:none" />
      </g>
      <g
         transform="matrix(4.1835774,0,0,4.1835774,9268.6615,-3411.0727)"
         id="g3533">
        <path
           sodipodi:nodetypes="cssssssssssssscssssscsssssscssssccssssscsscssssssssssssssscsssssccsssssssssssscsssssssssssssssssssssssscsssssssscssssssssscsssssscsssssssssscsssssccssssssssssscsssssssssssssssssccsssssssscccsscsscssccssscsssssssssssssssssssssssscsssscscsssssccsssssssssssssssssssssssssssscssssssssssccssssssscsssssssscssssscssscccscsssscsscscssscssssssssscsssscccccccccc"
           inkscape:connector-curvature="0"
           id="path3535"
           d="m -2786.0508,982.17203 c -0.1659,-0.098 -0.5693,-0.4369 -0.8962,-0.7537 -0.7113,-0.6893 -0.9364,-0.7655 -1.3362,-0.4519 -0.2488,0.195 -0.2883,0.2875 -0.2678,0.6248 0.013,0.2177 -0.014,0.3958 -0.059,0.3958 -0.1776,0 -0.7151,-0.6471 -0.9547,-1.1495 -0.4895,-1.0263 -0.5693,-2.0066 -0.1884,-2.3129 0.1065,-0.086 0.3894,-0.1222 0.8425,-0.1089 0.96,0.028 1.4588,0.316 2.569,1.4828 0.9257,0.9729 1.0634,1.0456 1.6039,0.8465 0.3549,-0.1307 0.3884,-0.4086 0.1677,-1.3924 -0.2138,-0.953 -0.4186,-1.488 -0.6369,-1.6635 -0.1178,-0.095 -0.1799,-0.059 -0.3448,0.1992 -0.1105,0.1731 -0.3348,0.4389 -0.4984,0.5905 l -0.2974,0.2757 -1.0163,-0.6086 c -0.559,-0.3347 -1.3672,-0.7457 -1.796,-0.9133 -0.4287,-0.1675 -0.819,-0.3429 -0.8674,-0.3897 -0.1272,-0.1233 -0.1183,-0.4212 0.05,-1.6574 0.2043,-1.5055 0.2089,-5.5396 0.01,-6.083 -0.078,-0.2107 -0.1431,-0.4137 -0.144,-0.4511 -0.01,-0.1096 0.4644,-0.5143 1.7275,-1.4979 1.1019,-0.858 2.3503,-1.9864 2.7374,-2.4744 0.2645,-0.3331 0.5404,-0.1843 0.8768,0.4726 0.4295,0.8389 0.9127,1.4578 1.9971,2.5578 0.53,0.5378 0.9638,1.0556 0.9638,1.1505 0,0.095 -0.1181,0.2476 -0.2625,0.3393 l -0.2626,0.1667 0.067,2.0237 c 0.037,1.113 0.109,2.4547 0.1601,2.9816 0.1504,1.552 0.1234,3.3842 -0.058,3.982 -0.561,1.8432 -1.9898,3.5711 -3.2268,3.902 -0.2884,0.077 -0.4093,0.062 -0.6554,-0.083 z m 0.8276,-9.7166 c 0,-3.4128 -0.01,-3.4533 -0.2292,-3.8994 -0.2214,-0.4355 -0.8089,-1.034 -1.015,-1.034 -0.055,0 -0.1738,0.1616 -0.2632,0.3592 -0.1383,0.3052 -0.1684,0.8638 -0.2004,3.712 l -0.038,3.3528 0.2584,0.3346 c 0.3203,0.4148 0.8002,0.675 1.1904,0.6457 l 0.2966,-0.023 z m -54.7923,7.2761 c -0.12,-0.081 -0.3611,-0.3508 -0.5359,-0.5987 -0.4653,-0.6595 -1.5328,-1.6746 -2.1569,-2.0511 -0.8742,-0.5272 -2.2844,-0.9327 -2.8042,-0.8063 -0.5673,0.138 -0.779,0.6506 -0.566,1.3706 0.1117,0.3772 -0.049,0.468 -0.4148,0.2352 -0.8272,-0.5258 -1.7509,-2.332 -1.7511,-3.4238 0,-0.9424 0.1272,-1.1688 0.8312,-1.4781 1.1397,-0.5007 2.0123,-0.566 3.8552,-0.2881 0.8274,0.1247 0.9793,0.085 1.2402,-0.3239 0.3718,-0.5832 0.3151,-0.6564 -0.8602,-1.1095 -3.1966,-1.2325 -5.2217,-2.8038 -5.6978,-4.4212 -0.2192,-0.7446 -0.2015,-1.0481 0.1042,-1.789 0.639,-1.5485 1.8696,-3.2507 5.3442,-7.39256 l 0.6831,-0.8142 0.6541,-0.029 c 0.533,-0.023 0.843,0.033 1.6738,0.3017 0.5609,0.1814 1.2207,0.4145 1.4662,0.518 1.4435,0.6088 2.7589,0.8577 3.233,0.6119 0.1164,-0.06 0.8343,-1.0598 0.9505,-1.218 0.2897,-0.3942 0.7398,-0.4913 1.1382,-0.052 0.7194,1.0926 -0.8739,4.73406 -2.1081,6.42496 -0.3081,0.4047 -0.3153,0.6202 -0.027,0.8155 1.9453,1.3184 2.5047,1.7363 3.1411,2.3465 0.4135,0.3965 0.9397,1.0278 1.1691,1.4028 0.5709,0.9329 0.6796,1.5422 0.5237,2.9369 -0.2162,1.9345 -0.6959,3.1537 -1.5172,3.8561 -2.3242,1.9876 -5.4909,4.3019 -6.6753,4.8784 -0.5882,0.2862 -0.6093,0.2885 -0.8932,0.096 z m 4.5496,-4.1197 c 0.4112,-0.2924 0.7734,-0.5969 0.8049,-0.6766 0.075,-0.1902 -0.1882,-0.6748 -0.5185,-0.9537 -0.1446,-0.122 -0.5306,-0.3492 -0.8578,-0.5049 -0.5672,-0.2698 -1.0251,-0.415 -3.2475,-1.0294 l -0.9755,-0.2697 -0.3837,0.3986 c -0.3919,0.4071 -0.4918,0.7757 -0.2603,0.9601 0.068,0.054 0.3592,0.1727 0.6472,0.2636 0.7668,0.2421 2.5921,1.4534 3.2236,2.1392 0.3255,0.3534 0.7291,0.2692 1.5676,-0.3272 z m 2.6827,-3.3093 c 0.1542,-0.9344 -0.2497,-1.7552 -1.4109,-2.8673 -0.9639,-0.9232 -2.1389,-1.6545 -2.9359,-1.8274 -0.6435,-0.1395 -0.7609,-0.097 -1.0762,0.3866 -0.3556,0.546 -0.331,0.7964 0.098,0.9946 0.1922,0.089 0.4314,0.1615 0.5316,0.1615 0.3997,0 2.3128,0.8974 3.0248,1.4189 0.3838,0.281 0.5938,0.5504 0.9684,1.2422 0.263,0.4858 0.5361,0.8832 0.6068,0.8832 0.074,0 0.1561,-0.1663 0.1934,-0.3923 z m -7.4042,-4.0875 c 0.2949,-0.2096 0.7413,-0.8258 0.7413,-1.0231 0,-0.2977 -0.6231,-0.5968 -1.6045,-0.7703 -0.9537,-0.1684 -1.455,-0.3309 -2.3782,-0.7705 -0.9536,-0.4542 -2.3207,-1.5045 -2.5779,-1.9805 -0.2562,-0.4741 -0.5034,-0.3614 -0.5928,0.2702 -0.084,0.5918 0.1712,1.0185 1.1429,1.9128 0.6452,0.5939 2.1689,1.5725 2.4484,1.5725 0.058,0 0.182,0.041 0.2765,0.091 0.5457,0.2898 1.8438,0.7093 2.3464,0.7584 0.054,0.01 0.1435,-0.022 0.1979,-0.061 z m 2.6908,-4.8362 c 0.2851,-0.3005 0.6208,-0.9395 0.6208,-1.1818 0,-0.191 -0.065,-0.2061 -1.1122,-0.2612 -1.2963,-0.068 -1.5433,-0.1358 -3.3729,-0.92386 -1.6235,-0.6992 -2.1583,-0.7967 -2.6745,-0.4876 -0.6294,0.377 -0.602,0.9621 0.063,1.35806 0.7497,0.4461 2.2395,0.8749 4.9563,1.4264 0.4814,0.098 0.9003,0.202 0.9308,0.2317 0.1215,0.1176 0.3942,0.043 0.5883,-0.1617 z m 33.893,15.7753 c -0.081,-0.078 -0.5191,-0.6046 -0.9738,-1.1694 -1.5484,-1.923 -1.7484,-2.3116 -1.3641,-2.6486 0.2022,-0.1773 0.2056,-0.2483 0.2056,-4.3867 0,-2.7164 -0.036,-4.272 -0.1024,-4.3917 -0.066,-0.1193 -0.2069,-0.1853 -0.3954,-0.1853 -0.597,0 -0.3729,-0.3737 1.7321,-2.8877 0.3813,-0.4555 0.8225,-1.0104 0.9803,-1.2332 l 0.287,-0.405 0.1716,0.2204 c 0.2189,0.2812 0.2924,0.8141 0.2924,2.119 0,1.1536 0.012,1.1769 0.7909,1.6457 0.495,0.2976 0.694,0.7631 0.7622,1.7821 0.068,1.0196 0.012,1.0604 -0.7795,0.5681 -0.8089,-0.5031 -0.7849,-0.6148 -0.7522,3.4822 l 0.028,3.5383 0.2774,0.2311 c 0.1525,0.1271 0.3861,0.2311 0.5189,0.2311 0.1495,0 0.2417,0.055 0.2417,0.1445 0,0.1269 -0.3855,1.0004 -1.2556,2.8445 -0.2821,0.5982 -0.441,0.7178 -0.6651,0.5006 z m -23.8392,-0.3044 c -0.1531,-0.1976 -0.3042,-0.3807 -0.3358,-0.4071 -0.1311,-0.1094 -1.3645,-1.7023 -1.5585,-2.0128 -0.4175,-0.6679 -0.4454,-0.8418 -0.1723,-1.0719 l 0.2455,-0.2069 0,-4.0301 c 0,-2.498 -0.04,-4.1666 -0.1035,-4.3893 -0.094,-0.3265 -0.134,-0.3592 -0.4443,-0.3592 -0.1878,0 -0.3413,-0.027 -0.3413,-0.06 0,-0.1967 0.7177,-1.2016 1.6021,-2.2432 0.5611,-0.6609 1.1726,-1.4317 1.3588,-1.7129 l 0.3387,-0.5113 0.2284,0.2574 c 0.2165,0.2439 0.2286,0.332 0.2286,1.6723 0,1.5824 -0.021,1.5298 0.8281,2.0229 0.4945,0.287 0.7121,0.7765 0.7989,1.7968 0.083,0.9774 -0.013,1.0528 -0.7641,0.6004 -0.8478,-0.5108 -0.8134,-0.651 -0.8134,3.3229 0,2.7527 0.028,3.4976 0.1367,3.6952 0.1233,0.2232 0.2865,0.3194 0.8268,0.4876 0.1623,0.05 0.1604,0.086 -0.03,0.5811 -0.1119,0.29 -0.3711,0.8625 -0.5759,1.2723 -0.2048,0.4098 -0.4579,0.9497 -0.5624,1.1998 -0.2411,0.5774 -0.4955,0.6048 -0.8897,0.096 z m 59.1746,-0.2065 c -0.7084,-0.7149 -1.1478,-0.8647 -1.7072,-0.5821 -0.2068,0.1045 -0.4174,0.1899 -0.4679,0.1899 -0.1479,0 -0.5069,-0.4053 -0.6551,-0.7395 -0.1334,-0.3008 -0.1153,-0.3499 0.7358,-2.0117 0.4799,-0.9368 0.8987,-1.8017 0.9307,-1.9219 0.076,-0.2843 -0.1733,-0.4437 -1.0136,-0.6485 -0.9246,-0.2254 -0.9345,-0.2417 -0.724,-1.2018 0.1909,-0.8707 0.2536,-3.4225 0.098,-3.9775 -0.098,-0.3481 -0.089,-0.3581 0.8252,-0.9218 0.7683,-0.4736 1.9791,-1.6262 2.1648,-2.0607 0.1738,-0.4066 0.3224,-0.3924 0.6977,0.066 0.2165,0.2651 0.4747,0.438 0.8654,0.5797 0.6748,0.2446 1.0315,0.2221 1.1654,-0.074 0.1555,-0.3436 0.3642,-0.2126 0.7185,0.4505 0.2535,0.4746 0.3133,0.6812 0.2628,0.9092 -0.049,0.2225 -1.1068,2.4615 -1.3945,2.952 -0.023,0.039 0.1056,0.1571 0.2849,0.2631 0.2474,0.1461 0.4992,0.1928 1.0429,0.193 l 0.7166,3e-4 -0.01,0.3113 c -0.01,0.1712 -0.068,0.395 -0.1483,0.4973 -0.1103,0.1414 -0.1452,0.4845 -0.1452,1.4305 0,0.6844 -0.05,1.6272 -0.1125,2.095 -0.084,0.6361 -0.084,0.8781 0,0.9597 0.336,0.3256 -0.063,0.8931 -1.1653,1.658 -0.4595,0.3188 -1.0672,0.8702 -1.4818,1.3446 -0.3866,0.4423 -0.7539,0.8041 -0.8161,0.8041 -0.062,0 -0.3655,-0.2546 -0.6739,-0.5658 z m 1.3412,-3.1257 c 0.1101,-0.2551 0.1393,-0.6603 0.1186,-1.6422 -0.023,-1.1193 -0.052,-1.3185 -0.2005,-1.4092 -0.1214,-0.074 -0.2218,-0.076 -0.3369,-0.01 -0.1528,0.093 -0.729,1.0699 -0.8572,1.453 -0.031,0.093 -0.2146,0.4503 -0.4072,0.7928 -0.1926,0.3424 -0.3504,0.7177 -0.3507,0.834 0,0.1955 0.053,0.2138 0.7163,0.2444 0.3942,0.018 0.819,0.041 0.9442,0.052 0.1753,0.015 0.261,-0.059 0.3734,-0.3196 z m -0.6284,-5.1457 c 0.2686,-0.2029 1.1643,-1.8203 1.1643,-2.1025 0,-0.2357 -0.076,-0.2998 -0.6561,-0.5548 -0.6726,-0.2955 -0.8803,-0.3424 -0.9586,-0.2165 -0.024,0.039 -0.076,0.6567 -0.1156,1.3716 -0.063,1.1483 -0.052,1.3185 0.095,1.4609 0.1989,0.1927 0.2629,0.1983 0.4707,0.041 z m -46.0272,8.2119 c -0.3021,-0.2384 -0.5843,-0.4929 -0.6269,-0.5654 -0.043,-0.073 -0.3129,-0.3764 -0.6005,-0.6751 -0.6635,-0.6891 -0.7126,-0.923 -0.7134,-3.3921 -2e-4,-1.0334 -0.047,-2.039 -0.1025,-2.2346 -0.067,-0.236 -0.2505,-0.4737 -0.5431,-0.7061 -0.4395,-0.349 -0.598,-0.7705 -0.3176,-0.845 0.068,-0.018 0.3681,-0.087 0.6673,-0.1532 1.0691,-0.2367 1.1231,-0.4531 0.1826,-0.7329 -0.4393,-0.1307 -0.6302,-0.2428 -0.7317,-0.4302 -0.1254,-0.2315 -0.112,-0.3025 0.155,-0.8143 0.7724,-1.4821 3.0297,-3.8657 3.6607,-3.8657 0.3731,0 1.3336,0.6546 2.1211,1.4454 0.7242,0.7273 1.6962,1.4061 2.1375,1.4925 0.3688,0.072 0.7253,0.706 0.6278,1.1161 -0.04,0.1676 -0.1038,1.7057 -0.1422,3.418 -0.038,1.7124 -0.1045,3.2104 -0.147,3.3289 -0.067,0.1862 -0.044,0.2155 0.1709,0.2155 0.5998,0 0.3786,0.5808 -0.803,2.1075 -0.8847,1.1433 -1.3306,1.5852 -1.4982,1.4848 -0.063,-0.038 -0.2685,-0.3013 -0.4559,-0.5853 -0.1969,-0.2981 -0.4127,-0.5158 -0.5109,-0.5153 -0.093,4e-4 -0.5432,0.3023 -0.9994,0.6706 -0.4562,0.3682 -0.8637,0.6695 -0.9053,0.6695 -0.042,0 -0.3231,-0.1951 -0.6253,-0.4336 z m 2.3499,-2.5687 0.3067,-0.3679 0.029,-3.0241 c 0.016,-1.6632 -0.01,-3.06 -0.054,-3.104 -0.1139,-0.1104 -1.3461,0.364 -1.5711,0.6048 -0.1649,0.1762 -0.1866,0.4147 -0.2165,2.3639 -0.043,2.7619 -0.01,3.0405 0.4466,3.5543 0.4286,0.4854 0.6368,0.48 1.0593,-0.027 z m -1.1628,-7.5769 c 0.5454,-0.2505 0.9258,-0.4825 0.9258,-0.5649 -0.3742,-0.7645 -1.9371,-1.4546 -2.5675,-1.0237 -0.3768,0.2599 -0.4552,0.5594 -0.2962,1.1314 0.1523,0.5487 0.443,0.8821 0.7689,0.8821 0.1337,0 0.6598,-0.1912 1.169,-0.4249 z m 15.2586,10.3414 c -0.1898,-0.1309 -0.7186,-0.6306 -1.1753,-1.1103 -0.6563,-0.6897 -0.8468,-0.9559 -0.9099,-1.2709 -0.044,-0.2192 -0.082,-1.2606 -0.084,-2.3144 -0.01,-1.0537 -0.051,-2.077 -0.1075,-2.2739 -0.063,-0.2195 -0.2949,-0.5415 -0.5995,-0.832 -0.434,-0.414 -0.483,-0.4991 -0.3877,-0.6718 0.06,-0.1088 0.201,-0.1978 0.313,-0.1978 0.1121,0 0.4442,-0.068 0.738,-0.1505 0.759,-0.2138 0.735,-0.4411 -0.071,-0.6752 -0.3907,-0.1134 -0.659,-0.2547 -0.7561,-0.3983 -0.1381,-0.2042 -0.131,-0.263 0.087,-0.718 0.4724,-0.9877 2.2038,-3.0569 3.0785,-3.6792 0.3956,-0.2813 0.5332,-0.3298 0.7932,-0.2794 0.4671,0.091 1.0055,0.4772 2.022,1.4522 0.8377,0.8035 1.8498,1.4788 2.2164,1.4788 0.2178,0 0.6176,0.818 0.5253,1.075 -0.043,0.12 -0.1103,1.6192 -0.1495,3.3315 -0.039,1.7124 -0.1028,3.2283 -0.1415,3.3689 -0.06,0.2193 -0.037,0.26 0.1618,0.2874 0.433,0.06 0.3574,0.4754 -0.2457,1.3523 -0.69,1.0033 -1.8255,2.2938 -1.9763,2.2462 -0.063,-0.02 -0.2845,-0.2705 -0.4908,-0.5563 -0.2063,-0.2859 -0.4396,-0.5336 -0.5184,-0.5505 -0.1651,-0.036 -0.502,0.1839 -1.3054,0.8503 -0.3131,0.2596 -0.5919,0.4725 -0.6198,0.4729 -0.028,4e-4 -0.2058,-0.1062 -0.3957,-0.237 z m 1.9497,-2.5642 c 0.5115,-0.542 0.5231,-0.6254 0.5231,-3.7495 0,-1.6065 -0.037,-2.9437 -0.085,-2.9715 -0.098,-0.059 -1.2651,0.3677 -1.5206,0.5553 -0.2576,0.1891 -0.4108,1.8027 -0.3377,3.5554 0.072,1.7369 0.1514,2.0831 0.5707,2.5023 0.3792,0.3791 0.5704,0.4035 0.8491,0.108 z m -1.7739,-7.4388 c 0.094,-0.048 0.4927,-0.2283 0.8851,-0.4015 0.3923,-0.1731 0.7337,-0.3663 0.7586,-0.4292 -0.2531,-0.8813 -2.0345,-1.5017 -2.6014,-1.038 -0.3402,0.2775 -0.3902,0.6147 -0.1761,1.1889 0.2338,0.6271 0.3553,0.7663 0.6677,0.7663 0.162,0 0.3717,-0.039 0.4661,-0.087 z m -24.7606,9.9295 c -0.2708,-0.2872 -2.1051,-2.9536 -2.1051,-3.0599 0,-0.046 0.095,-0.3515 0.2112,-0.6791 0.1945,-0.5487 0.215,-0.8493 0.2603,-3.8119 l 0.049,-3.2161 -0.2602,-0.1984 c -0.1431,-0.1091 -0.2602,-0.2506 -0.2602,-0.3145 0,-0.1085 0.8334,-1.3163 1.6998,-2.4634 0.215,-0.2847 0.4321,-0.4794 0.5043,-0.4525 0.07,0.026 0.2141,0.2674 0.3207,0.5366 0.2326,0.5877 0.8364,1.287 1.0444,1.2097 0.2008,-0.075 0.675,-0.7577 0.8306,-1.1963 0.071,-0.2003 0.1806,-0.3643 0.2433,-0.3643 0.1221,0 1.7736,2.9727 1.7792,3.2026 0.01,0.075 -0.2511,0.4589 -0.562,0.8523 -0.8753,1.1074 -0.9433,1.15 -1.1365,0.711 -0.063,-0.1449 -0.3359,-0.5571 -0.6047,-0.9159 -0.349,-0.4656 -0.5194,-0.6228 -0.5953,-0.5493 -0.072,0.07 -0.1075,1.3523 -0.1099,4.0052 l -0.01,3.9022 0.2719,0.3815 c 0.3776,0.5299 0.3497,0.731 -0.1576,1.1338 -0.3218,0.2555 -0.4843,0.4866 -0.6479,0.9216 -0.2425,0.6444 -0.4267,0.7315 -0.7719,0.3651 z m 43.7643,-0.5378 c -0.4078,-0.4023 -1.1354,-1.0763 -1.6168,-1.4979 l -0.8754,-0.7663 0.015,-3.6402 c 0.01,-2.0021 0.056,-3.8127 0.1052,-4.0234 0.076,-0.3201 0.06,-0.4125 -0.092,-0.5614 -0.1535,-0.15 -0.1668,-0.2338 -0.083,-0.527 0.3092,-1.0865 1.5708,-2.9034 1.8933,-2.7266 0.2096,0.1149 1.0011,0.7338 1.3713,1.0722 0.4494,0.4108 0.4692,0.6663 0.098,1.258 l -0.2707,0.431 -0.028,3.8065 c -0.021,2.6644 0.01,3.8663 0.081,4.0059 0.1325,0.2398 0.954,0.7613 1.1993,0.7613 0.096,0 0.221,-0.083 0.2773,-0.1853 0.066,-0.1198 0.1014,-1.6674 0.1,-4.3826 l -0.01,-4.1974 -0.2939,-0.2794 c -0.4716,-0.4485 -0.4025,-0.6661 0.4893,-1.5406 0.4298,-0.4216 0.8275,-0.7664 0.8835,-0.7664 0.1008,0 1.2156,1.2993 1.866,2.1749 0.2585,0.3479 0.313,0.4897 0.2397,0.6226 -0.186,0.337 -0.3123,2.3032 -0.3123,4.8625 0,2.3776 0.016,2.6282 0.1909,2.9604 0.1885,0.3581 0.1885,0.3686 0,0.7919 -0.2493,0.5636 -0.926,1.676 -1.4177,2.3304 l -0.3928,0.5229 -0.3265,-0.6666 c -0.1797,-0.3667 -0.4165,-0.7261 -0.5264,-0.7988 -0.1811,-0.1196 -0.23,-0.101 -0.5201,0.1974 -0.1761,0.1812 -0.4537,0.594 -0.6168,0.9173 -0.2196,0.4352 -0.3479,0.5862 -0.4943,0.5819 -0.1107,-0.01 -0.5244,-0.328 -0.9393,-0.7372 z"
           style="color:#000000;display:inline;overflow:visible;visibility:visible;fill:#a40000;fill-opacity:1;fill-rule:evenodd;stroke:none;enable-background:accumulate" />
      </g>
      <g
         transform="translate(-1290,-6.4999999)"
         id="g3933">
        <g
           transform="matrix(1.1731166,0,0,1.1731166,710.54806,145.66936)"
           id="g3935">
          <g
             id="g3937"
             transform="matrix(0.93697595,0.01223499,-0.01223499,0.93697595,-1967.8528,421.49005)">
            <path
               style="color:#000000;display:inline;overflow:visible;visibility:visible;fill:#cc0000;fill-opacity:1;fill-rule:nonzero;stroke:none;marker:none;enable-background:accumulate"
               d="m -1219.964,677.59962 -32.8031,0.22809 c 2.4558,16.52315 7.143,28.04575 1.6116,41.42593 10.5206,19.1338 14.8366,24.63917 22.9155,25.85022 20.1276,3.01718 40.0808,-31.22987 65.1948,-25.48584 -29.1293,-30.72342 -42.6312,-10.08823 -56.9188,-42.0184 z"
               transform="matrix(0.62995741,0,0,0.62995741,906.64029,-453.22758)"
               id="path3939"
               inkscape:connector-curvature="0"
               sodipodi:nodetypes="cccscc" />
            <path
               sodipodi:nodetypes="ccccsscsccc"
               inkscape:connector-curvature="0"
               id="path3941"
               transform="matrix(1.0670813,-0.0139339,0.0139339,1.0670813,218.72861,-83.788791)"
               d="m -51.183594,76.394531 c 1.049438,-0.262361 2.1128,-0.464983 3.199219,-0.552734 -10.034229,-11.824823 -18.888551,-4.410187 -27.636719,-17.888672 -5.20491,3.197964 -15.722853,22.347322 -14.228869,25.421876 13.643708,19.749809 26.290671,-5.399088 24.511698,-11.093243 -0.295294,-0.945181 -5.474569,-3.013046 -5.03873,-3.55748 1.088523,-1.359745 4.213039,2.394614 10.382297,3.626571 0.353143,-0.260222 -13.395164,-8.106477 -12.594335,-7.81765 7.230148,2.607625 17.272377,8.611667 21.405439,11.861332 z m -35.867187,-4.533203 c 1.857418,-2.73637 1.304208,-3.005795 0,0 z"
               style="color:#000000;display:inline;overflow:visible;visibility:visible;opacity:0.2;fill:#000000;fill-opacity:1;fill-rule:nonzero;stroke:none;marker:none;enable-background:accumulate" />
            <path
               sodipodi:nodetypes="ccsccc"
               inkscape:connector-curvature="0"
               id="path3943"
               transform="matrix(1.0670813,-0.0139339,0.0139339,1.0670813,218.72861,-83.788791)"
               d="m -76.236328,52.814453 -0.353516,0.707031 c 5.493011,12.718761 10.106339,10.630451 19.710515,15.101103 5.187765,2.414855 4.935786,9.107219 8.287532,14.410616 0,0 4.839569,-1.301782 7.667969,-5.632812 -18.482919,-16.687109 -27.715534,-7.571277 -35.3125,-24.585938 z"
               style="color:#000000;display:inline;overflow:visible;visibility:visible;opacity:1;fill:#f25151;fill-opacity:1;fill-rule:nonzero;stroke:none;marker:none;enable-background:accumulate" />
            <path
               sodipodi:nodetypes="cccsccc"
               inkscape:connector-curvature="0"
               id="path3945"
               transform="matrix(1.0670813,-0.0139339,0.0139339,1.0670813,218.72861,-83.788791)"
               d="m -63.755395,65.378793 c 4.072262,1.903241 13.187203,2.321288 22.206567,12.021598 -2.367675,3.625531 -5.978812,5.061686 -7.146484,5.455078 0.01698,0.02768 -2.799613,-7.386833 -3.722111,-8.975402 -0.36105,-0.621738 3.37545,10.445578 3.388126,10.465636 0,0 5.714569,-2.614282 8.542969,-6.945312 -9.420495,-9.929379 -19.87132,-11.053768 -23.269067,-12.021598 z"
               style="color:#000000;display:inline;overflow:visible;visibility:visible;opacity:1;fill:#a40000;fill-opacity:1;fill-rule:nonzero;stroke:none;marker:none;enable-background:accumulate" />
          </g>
          <path
             style="color:#000000;font-style:normal;font-variant:normal;font-weight:normal;font-stretch:normal;font-size:medium;line-height:normal;font-family:sans-serif;text-indent:0;text-align:start;text-decoration:none;text-decoration-line:none;text-decoration-style:solid;text-decoration-color:#000000;letter-spacing:normal;word-spacing:normal;text-transform:none;direction:ltr;block-progression:tb;writing-mode:lr-tb;baseline-shift:baseline;text-anchor:start;white-space:normal;clip-rule:nonzero;display:inline;overflow:visible;visibility:visible;opacity:1;isolation:auto;mix-blend-mode:normal;color-interpolation:sRGB;color-interpolation-filters:linearRGB;solid-color:#000000;solid-opacity:1;fill:#2d3c50;fill-opacity:1;fill-rule:nonzero;stroke:none;stroke-width:0.48856631;stroke-linecap:butt;stroke-linejoin:miter;stroke-miterlimit:4;stroke-dasharray:none;stroke-dashoffset:0;stroke-opacity:1;color-rendering:auto;image-rendering:auto;shape-rendering:auto;text-rendering:auto;enable-background:accumulate"
             d="m -1888.7899,394.7792 c -0.9464,0.0862 -2.0485,2.00644 -2.1464,2.74414 -0.034,0.25781 0.9321,1.60777 1.0976,1.77735 -0.7355,0.47531 -1.271,3.152 0.092,3.6582 0,0 -1.1024,1.7919 2.1211,3.04492 1.9181,4.3301 4.7138,3.07754 5.4576,2.58383 1.6381,1.50154 5.6977,0.80857 6.5776,-0.91781 0.5595,1.20377 4.2431,5.10514 6.625,6.85742 1.0641,-0.30119 1.7228,-11.87969 0.375,-13.36133 l -4.8833,0.0471 c -0.3928,-1.74856 -3.4451,-3.83957 -5.773,-4.79128 -2.9284,-1.42502 -3.6771,-3.63005 -4.0597,-4.62385 -0.044,-0.33146 -0.9613,-0.66397 -0.9613,-0.66397 -2.7035,0.15364 -4.2594,0.88913 -4.715,2.37001 -0.1139,0.37001 0.1863,0.76663 0.193,1.27523 z"
             id="path3947"
             inkscape:connector-curvature="0"
             sodipodi:nodetypes="cccccccccccccsc" />
          <path
             style="color:#000000;font-style:normal;font-variant:normal;font-weight:normal;font-stretch:normal;font-size:medium;line-height:normal;font-family:sans-serif;text-indent:0;text-align:start;text-decoration:none;text-decoration-line:none;text-decoration-style:solid;text-decoration-color:#000000;letter-spacing:normal;word-spacing:normal;text-transform:none;direction:ltr;block-progression:tb;writing-mode:lr-tb;baseline-shift:baseline;text-anchor:start;white-space:normal;clip-rule:nonzero;display:inline;overflow:visible;visibility:visible;opacity:1;isolation:auto;mix-blend-mode:normal;color-interpolation:sRGB;color-interpolation-filters:linearRGB;solid-color:#000000;solid-opacity:1;fill:#88a4b4;fill-opacity:1;fill-rule:nonzero;stroke:none;stroke-width:0.48856631;stroke-linecap:butt;stroke-linejoin:miter;stroke-miterlimit:4;stroke-dasharray:none;stroke-dashoffset:0;stroke-opacity:1;color-rendering:auto;image-rendering:auto;shape-rendering:auto;text-rendering:auto;enable-background:accumulate"
             d="m -1884.3387,392.23038 c -0.8534,0.15835 -2.9817,0.1712 -3.7246,1.57031 0.6999,2.44921 3.2518,4.73236 6.0435,6.93269 -2.4909,-0.84505 -6.19,-5.04207 -6.19,-5.04207 -0.8147,0.76208 -1.8397,1.56001 -1.3027,2.58399 1.5229,1.74846 4.1944,2.83155 6.4434,3.80664 l 1.8079,-1.39964 c -0.1987,1.45792 -5.1075,4.14523 -5.3978,4.87815 0.5661,1.84931 1.8469,2.24827 2.8516,2.29102 1.2688,0.0202 3.0515,-0.97535 4.0117,-2.68555 1.4559,0.88603 4.4731,0.34422 5.1194,-0.64151 -0.2932,1.21686 -1.4222,1.42983 -4.6682,1.83878 l -1.3287,1.26325 c -0.5069,1.40446 2.8245,0.9274 5.0098,-0.83697 l 5.604,5.78856 c -0.8827,-2.22685 -1.4212,-5.72031 0.6094,-10.36523 l -4.6426,-0.75781 c -1.5237,-2.42279 -3.2552,-2.79029 -5.832,-4.17579 -2.2559,-1.25414 -3.9697,-3.33948 -4.4141,-5.04882 z m 1.0627,9.98554 c -3.1562,0.0564 -5.506,-2.43672 -5.506,-2.43672 -0.8705,1.20253 -0.1914,2.59375 -0.1914,2.59375 l 1.8205,0.81373 -1.4494,-0.0362 c -0.2329,2.49312 1.4173,1.82609 2.2285,1.20703 z"
             id="path3949"
             inkscape:connector-curvature="0"
             sodipodi:nodetypes="cccccccccccccccccccccccccc" />
          <path
             style="fill:#000000;fill-opacity:1;stroke:none"
             d="m 98.976562,46.197266 c -0.116467,0.03436 -0.205591,0.26221 -0.255859,0.740234 -6.127774,0.829745 -13.090036,2.566854 -18.923828,2.535156 -2.947221,-0.03871 -5.700498,1.456338 -7.998047,4.097656 -3.491312,-0.323428 -4.062335,4.578452 -6.580078,5.617188 0,0 -10.197041,2.269857 -13.841797,2.818359 C 49.933668,65.446 50.27977,68.062024 50.3125,70.681641 l 11.023438,-1.982422 c 0.495407,2.432351 2.854439,6.543051 1.501953,7.746093 -9.755873,4.373109 -10.241571,3.00931 -13.666016,6.703126 0.447027,0.218524 0.847981,0.399224 1.287109,0.611328 -0.909681,0.670633 -1.776229,1.397822 -2.552734,2.328125 -2.258674,-5.114371 -11.176404,-12.020249 -14.6875,-11.539063 -5.495182,3.570195 6.631032,26.555422 15.300781,24.712891 2.609342,-0.633036 2.15729,-2.527397 1.5,-7.115235 l 6.931641,-5.363281 c 12.100724,5.348241 20.823151,7.384887 27.353516,4.013672 l 8.814453,5.667969 6.382812,-4.658203 -0.02344,-0.09961 c 0.26898,0.346873 0.552187,0.693773 0.847657,1.03711 4.69188,5.451942 12.5386,8.247509 15.52149,6.24414 1.4258,-2.003308 -6.39617,-9.483522 -9.39454,-14.935547 -3.38796,-6.160164 -6.23988,-6.812054 -9.222654,-4.808593 -2.0578,1.382139 -2.034921,4.687344 -0.283203,8.394531 L 93.7832,90.587891 92.363278,88.416016 c 0.360264,-0.183229 1.62484,-0.668667 1.960938,-0.876954 -0.759359,-11.474077 -7.818866,-16.53981 -4.867188,-24.621093 -0.04692,-0.35773 -1.185547,0.134765 -1.185547,0.134765 3.581525,-5.22526 7.498031,-5.504282 12.791019,-8.703125 0.86029,0.83932 -1.270666,-8.392885 -2.085941,-8.152343 z"
             transform="matrix(0.85243018,0,0,0.85243018,-1912.3436,351.06474)"
             id="path3951"
             inkscape:connector-curvature="0" />
          <g
             transform="matrix(-0.55964008,-0.1785547,0.23413836,-0.46554295,-3616.3689,371.61552)"
             id="g3953">
            <g
               transform="matrix(1.578365,0,0,1.578365,-2929.0503,581.14911)"
               id="g3955">
              <path
                 style="color:#000000;display:inline;overflow:visible;visibility:visible;fill:#2d3c50;fill-opacity:1;fill-rule:nonzero;stroke:none;enable-background:accumulate"
                 d="m 16.09375,-96.929688 c -0.370027,-0.0126 -0.911539,0.110254 -0.996094,0.470704 l -9.5154017,39.330823 3.3306808,4.512656 4.7310409,-0.709469 c 0.860483,-3.414918 1.376804,-6.032239 1.999969,-9.497635 0.144123,-0.801462 -0.349519,-0.982809 -0.200842,-1.783124 l 0.956759,-0.9315 0.788403,-3.574439 -1.256207,-1.300017 1.501268,-0.654872 5.189721,-24.706877 c 0.112872,-0.476928 -0.238694,-0.936595 -0.728516,-0.953124 z"
                 transform="matrix(1.0315183,0,0,1.0315183,78.965533,389.26043)"
                 id="path3957"
                 inkscape:connector-curvature="0"
                 sodipodi:nodetypes="cccccscccccccc" />
              <path
                 style="color:#000000;display:inline;overflow:visible;visibility:visible;fill:#618599;fill-opacity:1;fill-rule:nonzero;stroke:none;enable-background:accumulate"
                 d="m 16.880859,-96.154297 -9.2059121,38.081049 1.9138335,4.190587 2.9741436,-0.631577 1.838939,-8.982378 -0.459219,-1.41809 0.972473,-1.114723 0.659561,-2.94005 -1.321728,-1.840723 1.886105,-1.011564 L 21.4375,-95.0625 Z"
                 transform="matrix(1.0315183,0,0,1.0315183,78.965533,389.26043)"
                 id="path3959"
                 inkscape:connector-curvature="0"
                 sodipodi:nodetypes="cccccccccccc" />
              <path
                 sodipodi:nodetypes="ccccccccccccc"
                 inkscape:connector-curvature="0"
                 id="path3961"
                 d="m 96.498912,288.47734 c -2.550347,-0.38628 -4.411701,-2.19096 -6.924777,-2.55947 -0.324591,-0.0481 -0.645056,0.10979 -0.804687,0.39648 l -2.498946,4.55279 c -0.282865,0.5105 0.06749,1.14073 0.650391,1.16993 l 7.359233,3.03282 c -0.399954,2.06177 -1.699252,14.34665 -0.446284,16.54413 1.883076,-0.80574 5.487582,-13.79852 6.128652,-15.184 0,0 8.436736,0.14264 9.347776,-0.22595 1.01187,-0.55476 -0.23867,-3.94785 -0.42339,-5.90722 -0.0488,-0.30223 -0.26807,-0.54893 -0.5625,-0.63281 0,0 -4.42236,0.12056 -7.04781,-0.45037 z"
                 style="color:#000000;display:inline;overflow:visible;visibility:visible;fill:#2d3c50;fill-opacity:1;fill-rule:nonzero;stroke:none;enable-background:accumulate" />
              <path
                 style="color:#000000;display:inline;overflow:visible;visibility:visible;fill:#425b68;fill-opacity:1;fill-rule:nonzero;stroke:none;enable-background:accumulate"
                 d="m 97.6564,290.17647 c -2.788413,-0.44065 -5.106193,-2.68591 -7.875769,-3.09203 l -2.164481,3.88871 7.795914,3.43373 c -1.282863,4.63702 -1.506603,16.11583 -1.267542,15.4624 0.0636,0.67326 4.612643,-12.82997 5.003283,-14.53099 l 9.194945,-0.21222 -0.75084,-4.64002 c 0,0 -5.41496,0.40023 -7.800741,-0.0375 z"
                 id="path3963"
                 inkscape:connector-curvature="0"
                 sodipodi:nodetypes="cccccccccc" />
            </g>
            <path
               sodipodi:nodetypes="ccccc"
               inkscape:connector-curvature="0"
               id="path3965"
               d="m -2780.3276,1046.5973 -12.5539,55.4729 3.9316,6.0911 c 1.5955,-7.0527 7.7704,-34.2314 7.7704,-34.2314 -2.2743,-5.3522 0.8519,-27.3326 0.8519,-27.3326 z"
               style="opacity:0.7;fill:#ffffff;fill-rule:evenodd;stroke:none" />
          </g>
          <g
             transform="matrix(1.5688395,-0.07007505,0.07007505,1.5688395,2674.1723,-1291.9363)"
             id="g3967">
            <path
               inkscape:connector-curvature="0"
               id="path3969"
               d="m -2939.7353,934.56371 c 1.3974,-1.31833 3.5985,-2.85008 5.617,-3.88228 1.009,-0.516 1.9664,-0.90816 2.7949,-1.07273 0.4134,-0.0821 0.802,-0.11318 1.1692,-0.0403 0.3312,0.0657 0.638,0.25684 0.8509,0.5422 2.7858,3.7757 5.5374,7.62363 8.2937,11.43685 0.1129,0.15667 0.1365,0.3621 0.061,0.53995 -0.9607,2.26374 -2.189,4.13329 -3.4388,5.51888 -1.2493,1.3849 -2.5034,2.29943 -3.6397,2.61217 -0.2423,0.0669 -0.5014,-0.0389 -0.627,-0.25659 l -0.01,-0.0148 -0.5366,0.8751 c -0.023,0.0371 -0.061,0.0629 -0.1038,0.071 l -3.3726,0.60752 c -0.1514,0.0363 -0.2927,-0.0206 -0.4045,-0.095 -0.1117,-0.076 -0.2015,-0.17735 -0.257,-0.29183 -0.082,-0.16708 -0.6455,-1.20351 -1.394,-2.55456 -0.7485,-1.3512 -1.7043,-3.06551 -2.6449,-4.7495 -1.8812,-3.36795 -3.7053,-6.61674 -3.7053,-6.61674 l 0,0 c -0.01,-0.0158 -0.017,-0.0319 -0.024,-0.0487 -0.1058,-0.24111 -0.1052,-0.48631 -0.043,-0.70882 0.062,-0.22299 0.1811,-0.42819 0.3093,-0.62363 0.2599,-0.39626 0.6381,-0.80869 1.1037,-1.2479 z m 4.1057,7.02491 0.4922,0.80049 1.0467,-0.22747 c 0.2321,-0.0505 0.4712,0.0536 0.5925,0.25787 l 0,-0.009 3.3471,4.95423 -2.9353,-5.07806 c -0.136,-0.23556 -0.079,-0.53768 0.133,-0.7078 l 1.9553,-1.56818 -0.569,-0.99167 c -0.8748,0.90193 -1.7893,1.58167 -2.61,2.0029 -0.5741,0.29467 -1.0382,0.4531 -1.448,0.56582 z"
               style="color:#000000;display:inline;overflow:visible;visibility:visible;fill:#2c3e46;fill-opacity:1;fill-rule:nonzero;stroke:none;enable-background:accumulate"
               sodipodi:nodetypes="cssccccsccccccccsscccccccccccccccccscc" />
            <path
               sodipodi:nodetypes="ccccccc"
               inkscape:connector-curvature="0"
               id="path3971"
               d="m -2930.5852,935.37471 6.8447,10.40798 -2.1652,2.27714 c -1.262,0.26529 -2.2322,0.91565 -3.2865,1.60758 l -0.945,0.35015 -8.3399,-9.92452 z"
               style="fill:#000000;fill-rule:evenodd;stroke:none" />
            <path
               sodipodi:nodetypes="scccccccccccccs"
               inkscape:connector-curvature="0"
               id="path3973"
               d="m -2939.3562,934.96555 c 2.6817,-2.52983 8.7347,-6.08821 9.668,-4.48088 l 8.2303,11.38662 c -1.8744,4.41659 -4.7941,7.28503 -6.7171,7.81412 l -4.4252,-7.49322 2.3126,-2.04438 -0.6308,-2.51274 c -1.9513,2.33081 -5.738,3.69953 -6.4577,3.76245 l 0.2079,0.16218 1.447,1.64991 1.7481,-0.5081 4.3828,7.5994 c -0.6053,0.0378 -3.2506,0.57099 -3.2506,0.57099 -0.4643,-0.95006 -7.7584,-13.94926 -7.7584,-13.94926 -0.1696,-0.38524 0.3492,-1.11382 1.2431,-1.95711 z"
               style="fill:#425b68;fill-opacity:1;stroke:none" />
            <path
               sodipodi:nodetypes="cccccccccccccc"
               inkscape:connector-curvature="0"
               id="path3975"
               d="m -2937.1852,941.55982 0.4793,-0.0944 1.1957,1.21715 1.6673,-0.53568 4.6991,7.47663 -0.4719,0.68922 -4.5971,-7.32433 -1.523,0.29893 z m 4.4577,-0.0666 2.28,-1.62282 0.2941,0.497 -2.4251,1.82994 z"
               style="fill:#70979f;fill-opacity:1;stroke:none" />
            <path
               style="color:#000000;display:inline;overflow:visible;visibility:visible;fill:#2c3e46;fill-opacity:1;fill-rule:nonzero;stroke:none;enable-background:accumulate"
               d="m -2940.9218,936.78666 c 0.3322,0.53872 3.2419,-0.22364 6.0263,-2.00965 2.7843,-1.78598 5.2322,-4.19811 4.9,-4.73678 -0.3322,-0.53872 -3.323,0.57076 -6.1074,2.35674 -2.7843,1.786 -5.151,3.85102 -4.8188,4.38971 z"
               id="path3977"
               inkscape:connector-curvature="0"
               sodipodi:nodetypes="cssssc" />
            <path
               sodipodi:nodetypes="ccccc"
               inkscape:connector-curvature="0"
               id="path3979"
               d="m -2921.96,942.66454 c -8.157,-10.73557 -12.4946,-10.72332 -14.6634,-9.95314 1.7104,-1.40317 4.6018,-3.0093 6.771,-2.61593 0.3114,0.52717 8.1309,11.71702 8.1309,11.71702 z"
               style="opacity:0.3;fill:#000000;fill-opacity:1;stroke:none" />
            <g
               id="g3981"
               transform="matrix(-0.43568673,0.40770684,0.40770684,0.43568673,-2857.6786,909.36224)">
              <g
                 transform="translate(23.422913,-3.9774757)"
                 id="g3983">
                <path
                   style="fill:#800000;fill-opacity:1;fill-rule:evenodd;stroke:none"
                   d="m 189.05487,-32.209897 c -3.30908,-0.242547 -7.6954,1.52847 -8.53219,2.541188 -0.006,0.02516 1.01349,-0.108714 1.72377,-0.137918 -0.88725,0.07864 -4.11917,1.161617 -4.77189,3.363622 -0.16274,0.126338 1.69776,-0.279874 1.69776,-0.279874 -3.09639,1.895898 -3.55783,2.877926 -3.82032,5.401649 0.008,0.198658 0.47749,-0.37786 1.46582,-1.042124 -3.17815,4.076443 2.40874,9.208374 6.33987,11.097596 0.49486,0.289501 -0.73314,-1.28009 0.32786,-3.888071 0.13853,-0.340501 -1.28459,-1.140324 -1.36456,-1.453366 -0.14661,-0.789726 1.92089,-0.88538 0.37999,-2.752487 0.83206,-1.102756 2.55456,-0.83331 3.7568,-1.612963 0.63792,-0.424084 0.97114,-0.95032 1.19531,-1.34375 0.22418,-0.393431 0.34334,-0.623754 0.625,-0.826172 0.28167,-0.202418 0.7962,-0.41411 1.85352,-0.517578 0.50828,-0.04974 0.77946,-0.278695 1.00977,-0.386719 0.2303,-0.108024 0.25394,-0.0822 0.21875,-0.101563 0.20861,0.11433 0.46227,0.109124 0.66601,-0.01367 4.77143,-1.825536 0.92405,-7.594497 -2.77127,-8.0478 z"
                   id="path3985"
                   inkscape:connector-curvature="0"
                   sodipodi:nodetypes="ccccccccscccccccccc"
                   transform="matrix(1.9613291,0,0,1.9613291,-274.66355,-10.474304)" />
                <path
                   sodipodi:nodetypes="csscccccccscccccccc"
                   inkscape:connector-curvature="0"
                   id="path3987"
                   d="m 100.89573,-58.985211 c 4.90496,-0.02871 4.8311,-8.073467 -0.83677,-11.899948 -3.441356,-2.32332 -11.154676,-1.986701 -18.858245,1.538622 -0.202616,0.09272 6.930619,-1.390988 10.14569,0.582854 -4.955082,-1.423768 -14.319439,1.804032 -16.434052,5.316954 3.46241,-0.962805 8.955276,-2.54653 9.83339,-2.805617 -6.567902,2.981363 -13.039829,6.913769 -13.999034,11.123487 -0.254609,0.483309 5.412369,-2.581718 9.99646,-4.666873 -5.522079,4.021782 -9.032981,3.514446 -8.954019,10.55258 0.18727,8.371327 12.343552,15.906965 12.343552,15.906965 0,0 -2.054396,-4.149309 -0.965956,-6.241437 0.892325,-1.715169 -2.359612,-1.152934 -2.659654,-2.628007 -0.119189,-1.049727 -0.193064,-1.151285 -0.193064,-1.151285 -0.639474,0.569106 -1.68021,0.05167 -1.581778,-0.205394 0.109662,-0.235658 0.722319,-0.160797 1.450315,-2.442055 -0.787467,1.127869 -3.179525,-0.360941 -3.179525,-0.360941 -0.119944,-1.78067 3.575166,-3.196277 5.987732,-4.672892 11.523039,7.000072 14.69401,-3.90439 15.134826,-7.231672 0.904224,-0.148935 1.764832,-1.268254 2.770132,-0.715341 z"
                   style="fill:#cc0000;fill-rule:evenodd;stroke:none" />
                <path
                   inkscape:connector-curvature="0"
                   style="color:#000000;display:inline;overflow:visible;visibility:visible;opacity:0.2;fill:#000000;fill-opacity:1;fill-rule:evenodd;stroke:none;enable-background:accumulate"
                   d="m -47.8125,-154.35742 c 0.63234,1.00622 1.951339,1.83729 3.193359,2.90039 -1.88021,-1.13881 -11.391958,0.41009 -13.173828,-0.19922 2.30272,2.09603 15.781173,0.27028 15.132813,8.41602 l 0.251953,-0.0899 c 0.42939,-3.2166 0.126041,-5.10355 -0.605469,-6.44922 1.14862,1.58705 1.949821,3.0077 0.712891,6.38868 l 0.253906,-0.13868 c 5.98498,-10.38661 -2.201675,-8.98103 -5.765625,-10.82812 z m -2.898438,6.08594 c -4.353479,-0.14824 -9.819522,1.15027 -14.707031,3.63671 3.02148,0.75262 19.254928,-6.03874 22.548828,1.43946 l 0.189453,-0.0332 c -0.436944,-3.30057 -3.67777,-4.89473 -8.03125,-5.04296 z"
                   id="path3989"
                   transform="translate(142.85075,83.852018)" />
                <path
                   style="opacity:0.3;fill:#ffffff;fill-rule:evenodd;stroke:none"
                   d="m -49.402344,-156.21484 c -3.577375,0.0593 -7.914789,1.03263 -12.248047,3.01562 -0.131097,0.06 2.806856,-0.52746 5.769532,-0.42383 2.792383,-0.80617 5.425966,-1.62086 9.800781,-2.34375 -1.002877,-0.18365 -2.11847,-0.26798 -3.322266,-0.24804 z m -9.548828,3.88476 c -3.923956,0.97148 -7.731611,2.94684 -8.986328,5.03125 0.796418,-0.22146 1.773258,-0.42523 2.703661,-0.68872 z m -5.544315,5.64967 c -4.626441,2.21767 -7.173224,5.79169 -7.608029,7.69994 -0.118247,0.22446 1.111123,-0.35635 2.845704,-1.20898 0.123016,-2.11709 3.868496,-4.98668 4.762325,-6.49096 z m -4.738888,7.66674 c -1.208738,1.20199 -1.862689,2.83714 -1.828125,5.91797 0.06887,3.07852 1.76083,6.04126 3.867188,8.56054 -2.573338,-4.51576 -2.821286,-9.61727 -2.039063,-14.47851 z"
                   id="path3991"
                   inkscape:connector-curvature="0"
                   sodipodi:nodetypes="scccscccccccccccc"
                   transform="translate(142.85075,83.852018)" />
                <path
                   style="color:#000000;display:inline;overflow:visible;visibility:visible;opacity:0.3;fill:#000000;fill-opacity:1;fill-rule:evenodd;stroke:none;enable-background:accumulate"
                   d="m 83.39678,-51.61118 c 0.0818,-0.106293 8.48039,3.856742 13.93881,-4.56185 -0.32871,1.139581 -4.40216,11.281243 -13.93881,4.56185 z"
                   id="path3993"
                   inkscape:connector-curvature="0"
                   sodipodi:nodetypes="ccc" />
                <path
                   style="color:#000000;display:inline;overflow:visible;visibility:visible;opacity:0.3;fill:#ffffff;fill-opacity:1;fill-rule:evenodd;stroke:none;filter:url(#filter4519-5);enable-background:accumulate"
                   d="m 94.975754,-55.900288 c -1.972225,4.567875 -7.631748,3.321188 -11.41504,2.630879 -2.410376,1.602043 -6.966195,5.301753 -8.210724,0.365881 -0.4091,-3.980511 4.754933,-3.586565 6.227265,-6.69233 3.180684,-2.189681 6.434611,2.212684 10.039408,0.808537 1.957392,-0.51581 5.893647,0.231756 3.359091,2.887033 z"
                   id="path3995"
                   inkscape:connector-curvature="0" />
              </g>
              <g
                 transform="translate(-3.2703689,-4.7729708)"
                 id="g3997">
                <path
                   style="color:#000000;display:inline;overflow:visible;visibility:visible;fill:#888a85;fill-opacity:1;fill-rule:nonzero;stroke:none;enable-background:accumulate"
                   d="m 124.82774,-55.639338 0.0459,-3.115323 2.66074,-0.553212 1.63416,2.907099 c -1.24721,0.913486 -2.82311,1.337031 -4.34078,0.761436 z"
                   id="path3999"
                   inkscape:connector-curvature="0"
                   sodipodi:nodetypes="ccccc" />
                <path
                   style="color:#000000;display:inline;overflow:visible;visibility:visible;fill:#d3d7cf;fill-opacity:1;fill-rule:nonzero;stroke:none;enable-background:accumulate"
                   d="m 127.78304,-60.10279 c 1.00017,0.421313 0.6989,1.423368 0.4011,1.712729 -1.27771,1.068332 -2.90082,0.869151 -3.66007,0.468359 l -0.20697,-1.100396 c 0.46218,-0.570182 2.34976,0.30469 3.46594,-1.080692 z"
                   id="path4001"
                   inkscape:connector-curvature="0"
                   sodipodi:nodetypes="ccccc" />
              </g>
            </g>
            <ellipse
               style="color:#000000;display:inline;overflow:visible;visibility:visible;fill:#ffffff;fill-opacity:1;fill-rule:nonzero;stroke:none;enable-background:accumulate"
               id="ellipse4003"
               cx="28.329063"
               cy="-136.91936"
               rx="0.8125"
               ry="0.6875"
               transform="matrix(0.13268337,0.58175846,0.58175846,-0.13268337,-2857.8581,905.77411)" />
            <ellipse
               ry="0.6875"
               rx="0.8125"
               cy="-139.07039"
               cx="-28.587622"
               id="ellipse4005"
               style="color:#000000;display:inline;overflow:visible;visibility:visible;fill:#ffffff;fill-opacity:1;fill-rule:nonzero;stroke:none;enable-background:accumulate"
               transform="matrix(0.35258437,0.48138554,0.48138554,-0.35258437,-2857.8581,905.77411)" />
          </g>
          <path
             inkscape:connector-curvature="0"
             id="path4007"
             d="m -1852.7532,405.95283 -0.3978,0.0498 -0.3445,0.54779 c -1.7682,2.7693 -2.3752,3.89441 -2.6323,4.89468 -0.1229,0.47866 -0.1049,0.6721 0.094,1.12515 0.4314,0.98409 1.8061,1.85454 3.8693,2.45413 0.7584,0.22041 0.7964,0.26514 0.6192,0.64882 -0.1242,0.26907 -0.2137,0.30245 -0.7308,0.26849 -1.152,-0.0756 -1.6801,0.008 -2.3343,0.38189 -0.4041,0.23034 -0.4614,0.37803 -0.3798,0.96621 0.095,0.68134 0.8164,1.76111 1.3682,2.04535 0.2443,0.12586 0.3319,0.0608 0.2309,-0.16872 -0.1927,-0.43801 -0.1051,-0.77036 0.23,-0.88656 0.3072,-0.10643 1.2067,0.0701 1.7874,0.35268 0.4147,0.20184 1.1538,0.78075 1.4956,1.16769 0.1286,0.14544 0.2999,0.30208 0.3802,0.34651 0.1904,0.10523 0.2051,0.1015 0.5403,-0.10831 0.6751,-0.42265 2.4092,-2.0354 3.6597,-3.39923 0.4418,-0.48193 0.6295,-1.26856 0.5944,-2.48733 -0.025,-0.87871 -0.1422,-1.25481 -0.5723,-1.80669 -0.173,-0.22191 -0.5514,-0.58379 -0.8388,-0.80929 -0.4422,-0.34703 -0.8162,-0.57851 -2.1208,-1.29807 -0.1933,-0.1066 -0.2092,-0.24417 -0.056,-0.51312 0.3619,-0.63384 0.6981,-2.09642 0.6544,-2.84122 -0.026,-0.44894 -0.03,-0.45948 -0.2524,-0.66012 -0.282,-0.2533 -0.4676,-0.24947 -0.6107,0.0119 -0.058,0.1049 -0.1612,0.22714 -0.2271,0.27096 -0.269,0.17863 -1.096,0.0949 -2.0321,-0.2084 -0.1592,-0.0516 -0.5834,-0.163 -0.9424,-0.24646 -0.5318,-0.12362 -0.7274,-0.14117 -1.0516,-0.0986 z m -0.4878,2.28321 c 0.2617,-0.0127 0.6435,0.0784 1.3023,0.29733 1.188,0.39474 1.3422,0.42518 2.1415,0.39889 0.646,-0.0211 0.688,-0.0161 0.7045,0.10302 0.022,0.15126 -0.1283,0.57001 -0.2769,0.77268 -0.1011,0.13788 -0.2604,0.1995 -0.3448,0.13247 -0.022,-0.0169 -0.2917,-0.0616 -0.5948,-0.0972 -1.7104,-0.20007 -2.6567,-0.39041 -3.1542,-0.62904 -0.4417,-0.21181 -0.5111,-0.57396 -0.1585,-0.84263 0.1086,-0.0824 0.2239,-0.12751 0.3808,-0.13559 z m -1.5334,2.04057 c 0.058,-0.012 0.1336,0.042 0.2201,0.16552 0.1986,0.28342 1.1279,0.8666 1.7508,1.09939 0.6032,0.2254 0.9243,0.29548 1.5225,0.35003 0.6157,0.0563 1.0203,0.21067 1.0461,0.39644 0.017,0.12319 -0.2004,0.53117 -0.3627,0.67758 -0.031,0.0271 -0.084,0.0517 -0.1174,0.0512 -0.3119,-0.004 -1.1427,-0.19991 -1.5018,-0.35181 -0.062,-0.0264 -0.1418,-0.0441 -0.1771,-0.0411 -0.171,0.0149 -1.1875,-0.51679 -1.6337,-0.85318 -0.672,-0.5066 -0.8676,-0.75609 -0.8676,-1.12982 0,-0.22439 0.047,-0.34848 0.1209,-0.3643 z m 5.6569,2.13501 c 0.079,-0.0149 0.1824,-0.003 0.3345,0.0171 0.5027,0.0655 1.288,0.45898 1.958,0.98403 0.8068,0.6324 1.123,1.1227 1.1095,1.71397 -0.01,0.14303 -0.039,0.24952 -0.084,0.25344 -0.043,0.004 -0.2427,-0.23106 -0.4458,-0.52029 -0.2891,-0.41182 -0.4432,-0.56865 -0.7023,-0.72369 -0.4809,-0.28765 -1.7288,-0.74236 -1.9735,-0.72114 -0.062,0.005 -0.2118,-0.0281 -0.3371,-0.0733 -0.2797,-0.10095 -0.3184,-0.25833 -0.1478,-0.61791 0.094,-0.19922 0.1565,-0.28759 0.2888,-0.31222 z m -1.1834,3.03068 0.6187,0.12069 c 1.4134,0.26554 1.7077,0.32763 2.0782,0.46593 0.2137,0.0798 0.4682,0.2054 0.5673,0.27387 0.2264,0.15651 0.4298,0.44259 0.4001,0.56529 -0.012,0.0516 -0.2076,0.2589 -0.434,0.46323 -0.4616,0.41672 -0.7004,0.4942 -0.9301,0.29091 -0.4458,-0.39449 -1.6695,-1.05613 -2.1597,-1.16651 -0.1842,-0.0415 -0.3711,-0.0978 -0.4174,-0.12792 -0.1576,-0.10273 -0.1292,-0.34192 0.075,-0.61675 l 0.2014,-0.26874 z"
             style="color:#000000;display:inline;overflow:visible;visibility:visible;fill:#f57900;fill-opacity:1;fill-rule:nonzero;stroke:none;enable-background:accumulate" />
          <path
             sodipodi:nodetypes="ccccssscccscc"
             inkscape:connector-curvature="0"
             id="path4009"
             d="m -1827.1088,379.00308 c -0.4728,0.51951 -1.1023,1.64589 -1.0131,2.43138 0.013,0.10989 -0.622,0.31088 -0.622,0.31088 0,0 -0.9509,1.89995 -0.915,2.83874 -0.2067,0.16119 -2.1743,0.95435 -2.2563,1.16379 -0.1481,0.37832 0.3555,2.69993 0.4309,4.10171 0.012,0.22263 2.3049,1.21691 2.3049,1.21691 -0.5635,0.66603 -5.2717,-0.94229 -8.1926,-1.2076 -0.7244,2.96858 4.4607,13.31415 6.8879,13.50576 2.4389,-1.4611 7.5583,-6.108 8.2654,-7.96416 1.5105,-0.30703 5.7278,-4.6087 6.4055,-5.82861 0.3125,-0.5625 -1.1264,-3.10541 -1.8146,-7.13628 -1.625,-2.99568 -9.481,-3.43252 -9.481,-3.43252 z"
             style="color:#000000;clip-rule:nonzero;display:inline;overflow:visible;visibility:visible;opacity:1;isolation:auto;mix-blend-mode:normal;color-interpolation:sRGB;color-interpolation-filters:linearRGB;solid-color:#000000;solid-opacity:1;fill:#2d3c50;fill-opacity:1;fill-rule:nonzero;stroke:none;stroke-width:0.48856631;stroke-linecap:butt;stroke-linejoin:miter;stroke-miterlimit:4;stroke-dasharray:none;stroke-dashoffset:0;stroke-opacity:1;color-rendering:auto;image-rendering:auto;shape-rendering:auto;text-rendering:auto;enable-background:accumulate" />
          <path
             sodipodi:nodetypes="ccccccccccccccsccsccsccc"
             inkscape:connector-curvature="0"
             id="path4011"
             d="m -1826.0356,379.84147 c 0,0 -1.0429,0.459 -0.9131,1.6031 1.6554,0.27895 4.0824,0.37986 3.723,1.12377 0.012,-0.0215 -4.2017,-0.23667 -4.495,0.18927 -0.464,0.33146 -0.8329,1.9095 -0.8329,1.9095 0.2335,-0.11981 4.483,-0.49212 4.358,0.32038 l -6.432,1.19047 0.3801,3.04056 1.8769,0.78756 0.2864,-0.91579 -0.6743,-0.75432 c 4.8744,-0.89613 3.9365,3.46101 8.0443,4.47988 -2.0778,0.68207 -3.526,-0.77474 -3.526,-0.77474 0,0 -0.371,1.99586 -0.4507,1.92068 -0.4161,-0.76465 -0.3976,-2.80239 -0.5779,-2.66108 -0.061,0.0481 -2.2462,-1.35946 -2.4062,-1.01321 -0.1111,1.22501 -2.5092,1.93152 -2.5092,1.93152 l -5.8737,-1.36664 c -2.0015,-0.46569 3.5054,10.47446 5.4325,11.32348 0,0 6.0879,-3.70101 7.9601,-7.5623 0.6818,-0.16308 5.3104,-3.16056 5.956,-5.59803 0,0 -1.3206,-5.6855 -1.5894,-6.19253 -1.7754,-2.10105 -4.9468,-2.4632 -7.7368,-2.98139 z"
             style="color:#000000;clip-rule:nonzero;display:inline;overflow:visible;visibility:visible;opacity:1;isolation:auto;mix-blend-mode:normal;color-interpolation:sRGB;color-interpolation-filters:linearRGB;solid-color:#000000;solid-opacity:1;fill:#88a4b4;fill-opacity:1;fill-rule:nonzero;stroke:none;stroke-width:0.48856631;stroke-linecap:butt;stroke-linejoin:miter;stroke-miterlimit:4;stroke-dasharray:none;stroke-dashoffset:0;stroke-opacity:1;color-rendering:auto;image-rendering:auto;shape-rendering:auto;text-rendering:auto;enable-background:accumulate" />
          <path
             sodipodi:nodetypes="ccccc"
             inkscape:connector-curvature="0"
             id="path4013"
             d="m -1836.7188,390.65571 c 0,0 -0.6001,2.18735 0.9488,3.72008 3.903,-2.2309 5.0464,5.91062 14.4118,-1.41765 l -3.6847,-2.44741 c -6.8086,2.58851 -6.0348,0.85025 -11.6759,0.14498 z"
             style="color:#000000;clip-rule:nonzero;display:inline;overflow:visible;visibility:visible;opacity:0.2;isolation:auto;mix-blend-mode:normal;color-interpolation:sRGB;color-interpolation-filters:linearRGB;solid-color:#000000;solid-opacity:1;fill:#2d3c50;fill-opacity:1;fill-rule:nonzero;stroke:none;stroke-width:0.48856631;stroke-linecap:butt;stroke-linejoin:miter;stroke-miterlimit:4;stroke-dasharray:none;stroke-dashoffset:0;stroke-opacity:1;color-rendering:auto;image-rendering:auto;shape-rendering:auto;text-rendering:auto;enable-background:accumulate" />
          <g
             transform="translate(-435.45743,-212.26496)"
             id="g4015">
            <path
               sodipodi:nodetypes="cccccsccccc"
               inkscape:connector-curvature="0"
               id="path4017"
               d="m -65.939568,43.173483 -0.851448,0.998392 c -0.114096,-0.0119 -0.22318,-0.0583 -0.33789,-0.05859 l -0.002,0 c -0.958856,1.4e-5 -1.905624,0.427701 -2.5625,1.134766 -1.58924,1.996808 -2.084867,5.082925 0.355861,6.258444 2.049661,0.987172 6.09523,0.426125 5.794532,-3.6061 l 0,-0.002 c -4.36e-4,-0.39665 -0.1371,-0.77211 -0.253906,-1.150391 l 0.859107,-1.551011 c 0.2054,-0.319531 -2.46443,-2.12754 -3.001756,-2.02351 z"
               style="color:#000000;clip-rule:nonzero;display:inline;overflow:visible;visibility:visible;opacity:1;isolation:auto;mix-blend-mode:normal;color-interpolation:sRGB;color-interpolation-filters:linearRGB;solid-color:#000000;solid-opacity:1;fill:#2d3c50;fill-opacity:1;fill-rule:nonzero;stroke:none;stroke-width:0.48856631;stroke-linecap:butt;stroke-linejoin:miter;stroke-miterlimit:4;stroke-dasharray:none;stroke-dashoffset:0;stroke-opacity:1;color-rendering:auto;image-rendering:auto;shape-rendering:auto;text-rendering:auto;enable-background:accumulate"
               transform="translate(-1326.4268,557.92307)" />
            <path
               sodipodi:nodetypes="cccscccccc"
               inkscape:connector-curvature="0"
               id="path4019"
               transform="translate(-1326.4268,557.92307)"
               d="m -65.185547,43.511719 -1.130859,1.724609 c -0.262732,-0.09375 -0.537658,-0.14188 -0.814453,-0.142578 -1.440158,2e-5 -2.876683,1.280208 -2.607422,2.806641 0.592664,3.359794 5.141674,2.520151 5.214843,0 -4.78e-4,-0.434639 -0.09475,-0.863219 -0.27539,-1.251953 0.01161,-0.03395 0.01358,-0.07975 -0.0039,-0.146485 l 0.248575,-0.387485 1.013143,-1.579312 c -0.2868,-0.45662 -0.728131,-0.917807 -1.644537,-1.023437 z"
               style="color:#000000;clip-rule:nonzero;display:inline;overflow:visible;visibility:visible;opacity:1;isolation:auto;mix-blend-mode:normal;color-interpolation:sRGB;color-interpolation-filters:linearRGB;solid-color:#000000;solid-opacity:1;fill:#425b68;fill-opacity:1;fill-rule:nonzero;stroke:none;stroke-width:0.90842384;stroke-linecap:butt;stroke-linejoin:miter;stroke-miterlimit:4;stroke-dasharray:none;stroke-dashoffset:0;stroke-opacity:1;color-rendering:auto;image-rendering:auto;shape-rendering:auto;text-rendering:auto;enable-background:accumulate" />
          </g>
          <path
             sodipodi:nodetypes="cssscccccscsccc"
             inkscape:connector-curvature="0"
             id="path4021"
             d="m -1819.8568,381.71292 c -0.185,0.11327 -0.4423,0.86213 -0.6847,1.19581 -0.2074,0.28561 -0.7384,0.0182 -0.9872,0.44353 -0.172,0.29409 -0.3972,1.25369 -0.6299,1.68179 -0.2627,0.48328 -0.7778,0.78579 -1.1631,0.90531 l 0.1,3.20508 1.8164,3.15039 c 0.2365,0.10151 0.4778,0.19665 0.7559,0.26562 0.163,0.0412 0.2465,0.22234 0.1719,0.37305 0.6433,-0.47876 1.3136,-1.01611 1.9082,-1.61328 0.7721,-0.77551 1.3782,-1.60778 1.5839,-2.32813 -0.018,-0.0786 -0.3209,-1.38013 -0.6738,-2.82031 -0.1817,-0.7415 -0.3705,-1.49849 -0.5312,-2.09961 -0.1527,-1.19669 -0.8232,-1.88154 -1.666,-2.35925 z"
             style="opacity:0.4;fill:#ffffff;fill-rule:evenodd;stroke:none;stroke-width:1px;stroke-linecap:butt;stroke-linejoin:miter;stroke-opacity:1" />
          <g
             transform="matrix(0.98552428,0.16953437,-0.16953437,0.98552428,-348.09513,35.286462)"
             id="g4023">
            <path
               sodipodi:nodetypes="ccc"
               inkscape:connector-curvature="0"
               id="path4025"
               d="m -1551.3253,-274.32074 c -5.8668,-3.40887 -6.7065,-19.95547 -3.0027,-21.57621 2.4934,1.10181 4.4544,21.61617 3.0027,21.57621 z"
               style="color:#000000;clip-rule:nonzero;display:inline;overflow:visible;visibility:visible;opacity:0.1;isolation:auto;mix-blend-mode:normal;color-interpolation:sRGB;color-interpolation-filters:linearRGB;solid-color:#000000;solid-opacity:1;fill:#ffffff;fill-opacity:1;fill-rule:nonzero;stroke:none;stroke-width:4;stroke-linecap:butt;stroke-linejoin:miter;stroke-miterlimit:4;stroke-dasharray:none;stroke-dashoffset:0;stroke-opacity:1;color-rendering:auto;image-rendering:auto;shape-rendering:auto;text-rendering:auto;enable-background:accumulate"
               transform="matrix(0.82421143,-0.5662822,0.5662822,0.82421143,0,0)" />
          </g>
          <ellipse
             ry="0.99185306"
             rx="1.25"
             cy="1128.569"
             cx="-1491.9369"
             id="ellipse4027"
             style="color:#000000;clip-rule:nonzero;display:inline;overflow:visible;visibility:visible;opacity:0.1;isolation:auto;mix-blend-mode:normal;color-interpolation:sRGB;color-interpolation-filters:linearRGB;solid-color:#000000;solid-opacity:1;fill:#ffffff;fill-opacity:1;fill-rule:nonzero;stroke:none;stroke-width:0.48856631;stroke-linecap:butt;stroke-linejoin:miter;stroke-miterlimit:4;stroke-dasharray:none;stroke-dashoffset:0;stroke-opacity:1;color-rendering:auto;image-rendering:auto;shape-rendering:auto;text-rendering:auto;enable-background:accumulate"
             transform="matrix(0.90641385,0.42239074,-0.42239074,0.90641385,0,0)"
             inkscape:transform-center-x="-0.088388348"
             inkscape:transform-center-y="0.79549513" />
          <ellipse
             transform="matrix(0.86456033,0.50252904,-0.50252904,0.86456033,0,0)"
             ry="0.43089318"
             rx="1.3037281"
             cy="1256.5237"
             cx="-1383.3186"
             id="ellipse4029"
             style="color:#000000;clip-rule:nonzero;display:inline;overflow:visible;visibility:visible;opacity:0.1;isolation:auto;mix-blend-mode:normal;color-interpolation:sRGB;color-interpolation-filters:linearRGB;solid-color:#000000;solid-opacity:1;fill:#ffffff;fill-opacity:1;fill-rule:nonzero;stroke:none;stroke-width:0.48856631;stroke-linecap:butt;stroke-linejoin:miter;stroke-miterlimit:4;stroke-dasharray:none;stroke-dashoffset:0;stroke-opacity:1;color-rendering:auto;image-rendering:auto;shape-rendering:auto;text-rendering:auto;enable-background:accumulate" />
          <ellipse
             style="color:#000000;clip-rule:nonzero;display:inline;overflow:visible;visibility:visible;opacity:0.1;isolation:auto;mix-blend-mode:normal;color-interpolation:sRGB;color-interpolation-filters:linearRGB;solid-color:#000000;solid-opacity:1;fill:#ffffff;fill-opacity:1;fill-rule:nonzero;stroke:none;stroke-width:0.48856631;stroke-linecap:butt;stroke-linejoin:miter;stroke-miterlimit:4;stroke-dasharray:none;stroke-dashoffset:0;stroke-opacity:1;color-rendering:auto;image-rendering:auto;shape-rendering:auto;text-rendering:auto;enable-background:accumulate"
             id="ellipse4031"
             cx="-1383.1941"
             cy="1255.199"
             rx="1.3037281"
             ry="0.43089318"
             transform="matrix(0.86456033,0.50252904,-0.50252904,0.86456033,0,0)" />
          <path
             style="opacity:0.3;fill:#ffffff;fill-rule:evenodd;stroke:none;stroke-width:1px;stroke-linecap:butt;stroke-linejoin:miter;stroke-opacity:1"
             d="m -1883.7338,394.5699 c -1.6821,3.60241 2.2705,5.17055 4.3866,6.94641 0,0 -1.8185,0.89161 -6.4023,4.59581 0,0 0.6273,1.72176 2.8171,1.3724 1.2758,-0.52834 2.3654,-1.05501 3.2325,-2.4766 1.5841,0.65188 3.4077,0.42257 4.8691,-0.58405 0.1141,-0.17153 3.9356,2.19724 3.9356,2.19724 0.1707,-1.29264 0.4398,-2.64958 1.0957,-4.20117 l -4.3223,-0.7832 c -0.7827,-0.93932 -1.6692,-1.9402 -2.5879,-2.50001 -3.0552,-1.59936 -4.0338,-1.05168 -7.0241,-4.56683 z"
             id="path4033"
             inkscape:connector-curvature="0"
             sodipodi:nodetypes="ccccccccccc" />
          <path
             style="color:#000000;clip-rule:nonzero;display:inline;overflow:visible;visibility:visible;opacity:0.2;isolation:auto;mix-blend-mode:normal;color-interpolation:sRGB;color-interpolation-filters:linearRGB;solid-color:#000000;solid-opacity:1;fill:#2d3c50;fill-opacity:1;fill-rule:nonzero;stroke:none;stroke-width:0.48856631;stroke-linecap:butt;stroke-linejoin:miter;stroke-miterlimit:4;stroke-dasharray:none;stroke-dashoffset:0;stroke-opacity:1;color-rendering:auto;image-rendering:auto;shape-rendering:auto;text-rendering:auto;enable-background:accumulate"
             d="m -1887.9715,395.31294 6.4375,5.9375 -5.6875,4.25 -1.75,-0.5625 -0.625,-2.1875 0.125,-3.4375 -0.875,-1.4375 c 0,0 1.25,-2.9375 2.375,-2.5625 z"
             id="path4035"
             inkscape:connector-curvature="0" />
          <path
             style="color:#000000;clip-rule:nonzero;display:inline;overflow:visible;visibility:visible;opacity:0.6;isolation:auto;mix-blend-mode:normal;color-interpolation:sRGB;color-interpolation-filters:linearRGB;solid-color:#000000;solid-opacity:1;fill:#2d3c50;fill-opacity:1;fill-rule:nonzero;stroke:none;stroke-width:0.48856631;stroke-linecap:butt;stroke-linejoin:miter;stroke-miterlimit:4;stroke-dasharray:none;stroke-dashoffset:0;stroke-opacity:1;color-rendering:auto;image-rendering:auto;shape-rendering:auto;text-rendering:auto;enable-background:accumulate"
             d="m -1875.1418,405.60781 -0.6187,2.16551 -3.9333,1.28163 -2.0329,-0.79549 1.9445,-2.2981 z"
             id="path4037"
             inkscape:connector-curvature="0" />
        </g>
        <path
           sodipodi:nodetypes="cccc"
           inkscape:connector-curvature="0"
           id="path4039"
           d="m -1422.4165,590.78907 10.0625,-11.4375 c -2.6054,4.51882 -4.8564,8.8366 -7.9375,12.5625 z"
           style="opacity:0.1;fill:#ffffff;fill-rule:evenodd;stroke:none;stroke-width:1px;stroke-linecap:butt;stroke-linejoin:miter;stroke-opacity:1" />
      </g>
    </g>
  </g>
</svg>
