<?xml version="1.0" encoding="UTF-8" standalone="no"?>
<!-- Created with Inkscape (http://www.inkscape.org/) -->

<svg
   xmlns:dc="http://purl.org/dc/elements/1.1/"
   xmlns:cc="http://creativecommons.org/ns#"
   xmlns:rdf="http://www.w3.org/1999/02/22-rdf-syntax-ns#"
   xmlns:svg="http://www.w3.org/2000/svg"
   xmlns="http://www.w3.org/2000/svg"
   xmlns:sodipodi="http://sodipodi.sourceforge.net/DTD/sodipodi-0.dtd"
   xmlns:inkscape="http://www.inkscape.org/namespaces/inkscape"
   id="svg3449"
   version="1.1"
   inkscape:version="0.91 r13725"
   width="415.14508"
   height="71.778816"
   viewBox="0 0 415.14508 71.778816"
   sodipodi:docname="vintage_hr.svg">
  <metadata
     id="metadata3455">
    <rdf:RDF>
      <cc:Work
         rdf:about="">
        <dc:format>image/svg+xml</dc:format>
        <dc:type
           rdf:resource="http://purl.org/dc/dcmitype/StillImage" />
        <dc:title></dc:title>
      </cc:Work>
    </rdf:RDF>
  </metadata>
  <defs
     id="defs3453" />
  <sodipodi:namedview
     pagecolor="#ffffff"
     bordercolor="#666666"
     borderopacity="1"
     objecttolerance="10"
     gridtolerance="10"
     guidetolerance="10"
     inkscape:pageopacity="0"
     inkscape:pageshadow="2"
     inkscape:window-width="1676"
     inkscape:window-height="996"
     id="namedview3451"
     showgrid="false"
     inkscape:zoom="1"
     inkscape:cx="221.03375"
     inkscape:cy="135.37117"
     inkscape:window-x="0"
     inkscape:window-y="0"
     inkscape:window-maximized="0"
     inkscape:current-layer="svg3449"
     fit-margin-top="0"
     fit-margin-left="0"
     fit-margin-right="0"
     fit-margin-bottom="0" />
  <path
     style="fill:#000000"
     d="m 75.942824,15.17374 c -9.790959,0.0769 -15.679071,5.388952 -17.679113,8.597601 -5.121028,8.92641 3.496356,16.520938 15.285091,17.586415 29.579698,2.673445 56.946428,-16.10937 106.361298,-3.083458 4.65281,1.226491 9.62861,4.3684 5.23931,6.243579 -7.04548,3.172693 -11.36357,-9.207124 -34.72531,-0.388956 -1.46135,0.27994 -9.40238,-3.715488 -13.53818,-3.727205 -4.38236,0.385978 -6.11163,1.880212 -3.45265,4.066554 2.93777,2.311237 14.96513,1.497877 16.66162,1.023686 l 7.26434,1.46901 c -3.84177,0.02032 -6.74313,1.349113 -8.81542,1.264952 -3.3285,-0.135142 -6.03753,-1.051474 -7.45736,-0.785803 -2.55461,0.379131 -2.37845,2.105483 0.0511,2.991008 2.42437,0.808662 4.88054,-0.803229 8.15839,-0.802716 1.72568,0.426783 5.50487,1.412921 7.35518,1.522 -0.71625,0.163149 -2.52719,0.521529 -3.25683,0.64037 -0.7146,0.06482 -2.8136,-1.779151 -5.90059,-1.472393 -1.72272,0.451217 -1.9337,1.676132 -0.73226,2.234518 1.82075,0.830995 4.01227,0.703051 6.14185,0.385574 0.25521,0.127349 1.46212,0.79135 1.74406,0.898542 -3.7646,0.389713 -7.79082,2.768907 -7.79082,2.768907 0,0 6.48786,-2.550528 8.6579,-1.948158 2.00403,0.908529 7.78145,2.103284 7.28848,0.559194 -0.49296,-1.54409 -2.54604,-1.796768 -6.7251,-1.815124 -0.28166,-0.05989 -1.62301,-0.552902 -1.92572,-0.66855 4.62207,-1.14434 6.88385,-0.303387 11.27047,0.75536 2.17483,0.383952 4.38924,-2.008196 2.17406,-2.795968 -4.054,-1.344171 -8.11941,0.842944 -17.30731,-1.780172 3.62537,-0.752878 6.53498,-1.127381 8.81969,-0.967314 4.32728,0.303162 6.91025,1.864668 11.36271,1.773407 3.0002,-0.286428 3.80938,-2.315024 0.65136,-3.452113 -3.31202,-1.124103 -6.16425,-0.378342 -11.51596,0.04848 -2.01239,0.160465 -7.80929,-1.639247 -7.80929,-1.639247 18.52492,-7.925547 25.8436,4.787708 34.09521,1.124021 2.08496,-0.998473 4.14492,-4.366911 -0.62723,-6.301071 7.05469,2.263997 10.55333,-2.292755 3.82021,-4.010188 1.30288,1.267256 3.55585,2.447609 1.96118,3.05189 -2.54582,0.964702 -7.80915,-0.945798 -12.27239,-2.32133 -50.84178,-18.63972 -75.72008,6.519063 -111.049976,-1.503955 -9.205772,-2.664429 -4.480498,-11.674728 1.400647,-14.230129 20.563291,-8.934901 28.03067,12.372982 15.04385,9.235714 2.033146,-0.488569 4.299093,-2.44938 2.296093,-4.593053 -3.407951,-3.647299 -13.184532,-1.640268 -8.371249,3.148847 -1.558064,0.593504 -8.842395,-2.588528 -8.842395,-2.588528 1.05949,2.729656 14.997141,7.946634 21.48371,5.015835 3.796288,-1.715262 3.204114,-5.333076 1.570929,-7.959488 -4.185768,-6.73145 -29.775517,-10.157496 -33.409784,7.606609 -2.993368,-5.460916 9.730769,-15.710359 19.05704,-15.120774 -0.687415,-0.04358 -1.358115,-0.0615 -2.010853,-0.0564 z m 263.259456,0 c -0.65273,-0.0052 -1.32345,0.01281 -2.01086,0.0564 9.32627,-0.589585 22.05183,9.659859 19.05846,15.120775 -3.63426,-17.764105 -29.22544,-14.338059 -33.41121,-7.606609 -1.63318,2.626412 -2.22534,6.244226 1.57094,7.959488 6.48657,2.930798 20.42422,-2.28618 21.48371,-5.015835 0,0 -7.28434,3.182032 -8.84239,2.588528 4.81328,-4.789116 -4.9633,-6.796147 -8.37125,-3.148848 -2.00298,2.143673 0.26295,4.104485 2.29609,4.593054 -12.98682,3.137268 -5.51945,-18.170615 15.04384,-9.235714 5.88115,2.555401 10.60644,11.5657 1.40066,14.230128 -35.3299,8.023018 -60.20821,-17.135765 -111.05,1.503955 -4.46321,1.375532 -9.72655,3.286032 -12.27234,2.321333 -1.59467,-0.604281 0.6583,-1.784634 1.96118,-3.051889 -6.73313,1.717432 -3.23448,6.274183 3.82021,4.010187 -4.77214,1.93416 -2.71218,5.302598 -0.62723,6.301072 8.25161,3.663686 15.57029,-9.049568 34.09522,-1.124021 0,0 -5.7969,1.799711 -7.8093,1.639246 -5.35171,-0.426817 -8.20396,-1.172577 -11.51597,-0.04848 -3.15801,1.137089 -2.34884,3.165685 0.65138,3.452113 4.45247,0.09126 7.03542,-1.470244 11.3627,-1.773407 2.28472,-0.160066 5.19432,0.214436 8.81969,0.967314 -9.18791,2.623116 -13.25331,0.436001 -17.30731,1.780172 -2.21518,0.787773 -7.3e-4,3.17992 2.17406,2.795969 4.38662,-1.058748 6.6484,-1.8997 11.27046,-0.755361 -0.30269,0.115649 -1.64403,0.608657 -1.92571,0.668551 -4.17905,0.01836 -6.23213,0.271033 -6.72511,1.815124 -0.49296,1.54409 5.28447,0.349334 7.28849,-0.559194 2.17003,-0.602371 8.65791,1.948158 8.65791,1.948158 0,0 -4.02622,-2.379195 -7.79083,-2.768907 0.28194,-0.107192 1.48885,-0.771194 1.74406,-0.898543 2.12957,0.317478 4.32111,0.445421 6.14185,-0.385574 1.20144,-0.558385 0.99046,-1.783301 -0.73225,-2.234517 -3.087,-0.306758 -5.18599,1.53721 -5.90061,1.472392 -0.72962,-0.11884 -2.54057,-0.477221 -3.25683,-0.64037 1.85031,-0.109079 5.63094,-1.095217 7.35659,-1.521999 3.27787,-5.14e-4 5.73404,1.611378 8.15839,0.802716 2.42955,-0.885526 2.60429,-2.611877 0.0497,-2.991009 -1.41983,-0.265671 -4.12885,0.650662 -7.45733,0.785804 -2.07232,0.08416 -4.97368,-1.244634 -8.81545,-1.264953 l 7.26435,-1.469009 c 1.69649,0.47419 13.72526,1.287551 16.66304,-1.023687 2.65898,-2.186341 0.92971,-3.680576 -3.45266,-4.066554 -4.13579,0.01172 -12.07823,4.007145 -13.5396,3.727205 -23.36173,-8.818167 -27.67982,3.561649 -34.7253,0.388956 -4.3893,-1.875178 0.58791,-5.017088 5.24072,-6.243578 49.41488,-13.025913 76.78018,5.756902 106.35988,3.083458 11.78873,-1.065479 20.40611,-8.660005 15.28509,-17.586415 -2.00007,-3.208652 -7.88817,-8.5207 -17.67913,-8.597605 z M 81.939928,24.880707 c 1.318528,0 2.38691,0.751077 2.38691,1.677581 0,0.926503 -1.068382,1.677581 -2.38691,1.677581 -1.318543,0 -2.388346,-0.751078 -2.388346,-1.677581 0,-0.926504 1.069803,-1.677581 2.388346,-1.677581 z m 251.265252,0 c 1.31853,0 2.38834,0.751077 2.38834,1.677581 0,0.926503 -1.06981,1.677581 -2.38834,1.677581 -1.31854,0 -2.38693,-0.751078 -2.38693,-1.677581 0,-0.926504 1.06839,-1.677581 2.38693,-1.677581 z M 190.9748,27.764685 c -2.8497,-0.02436 -5.01453,1.459266 -6.21139,5.117301 0,-2.8e-5 2.39485,-3.175734 5.94601,-3.142082 6.98266,0.158774 14.58402,6.543584 12.33763,11.991091 -1.12316,2.723653 -4.00839,2.994368 -5.92898,2.57838 -3.48481,-0.754788 -5.80324,-4.945038 1.49714,-2.957188 0,0 -4.88096,-3.389149 -6.07373,-0.856826 -2.33193,4.708782 12.80399,9.236175 12.52068,-0.377684 0.27132,-3.738461 -2.1321,-7.623735 -6.3249,-9.872695 -2.91463,-1.529717 -5.54604,-2.461346 -7.76246,-2.480297 z m 33.1955,0 c -2.21642,0.01893 -4.84784,0.95058 -7.76244,2.480297 -4.19281,2.24896 -6.59624,6.134234 -6.32493,9.872695 -0.28329,9.613859 14.85262,5.086466 12.52069,0.377684 -1.19278,-2.532323 -6.07374,0.856826 -6.07374,0.856826 7.3004,-1.98785 4.98195,2.2024 1.49714,2.957188 -1.92057,0.415988 -4.80582,0.145273 -5.92898,-2.57838 -2.24638,-5.447507 5.35498,-11.832317 12.33763,-11.991091 3.55116,-0.03365 5.94603,3.142054 5.94603,3.142082 -1.19687,-3.658035 -3.3617,-5.14166 -6.2114,-5.117301 z m -85.01667,3.049633 c 10.90792,-0.08902 23.72885,0.50214 37.51525,5.759922 -45.55563,-12.565483 -70.83441,4.955861 -102.766729,3.463387 -6.440108,-0.479161 -11.45108,-3.738213 -12.39438,-5.523164 14.926889,9.265966 49.770109,-3.472641 77.645859,-3.700145 z m 136.83783,0 c 27.87576,0.22751 62.71898,12.966117 77.64587,3.70015 -0.9433,1.784952 -5.95427,5.044004 -12.39439,5.523165 -31.9323,1.492474 -57.20965,-16.02887 -102.76531,-3.463393 13.78643,-5.257782 26.60592,-5.848943 37.51383,-5.759922 z M 137.36984,41.573122 c 3.22538,0.08455 8.78507,2.262103 11.42374,3.056398 -3.68186,0.402867 -14.64976,0.915767 -13.82343,-1.985367 0.23241,-0.815946 1.1376,-1.104049 2.39969,-1.071031 z m 140.40542,0 c 1.26209,-0.03301 2.16728,0.255085 2.3997,1.071031 0.82632,2.901134 -10.14158,2.388234 -13.82342,1.985367 2.63864,-0.794295 8.19834,-2.971851 11.42372,-3.056398 z m -112.42368,5.224401 c 2.87147,-0.0052 6.07627,0.29956 5.6693,1.089075 -0.65116,1.263249 -9.62574,-0.783552 -9.62574,-0.783552 0.63128,-0.188317 2.23356,-0.303215 3.95644,-0.305523 z m 84.44194,0 c 1.72287,0.0023 3.32516,0.117206 3.95644,0.305523 0,0 -8.97458,2.046801 -9.62574,0.783552 -0.40696,-0.789515 2.79782,-1.09427 5.6693,-1.089075 z M 142.9852,48.525836 c 1.7732,-0.0023 4.47016,0.288616 4.47016,0.288616 0,0 -4.85759,1.062061 -5.88073,0.158965 -0.38369,-0.338669 0.34665,-0.445849 1.41057,-0.447581 z m 129.17469,0 c 1.06392,0.0017 1.79427,0.108912 1.41059,0.447581 -1.02317,0.903096 -5.88075,-0.158965 -5.88075,-0.158965 0,0 2.69697,-0.290925 4.47016,-0.288616 z m -108.83478,2.580632 c 1.72149,-0.02684 3.32868,0.09763 3.42854,0.837662 0.18684,1.384785 -6.34903,-0.727174 -6.34903,-0.727174 0.81314,-0.02378 1.88761,-0.09437 2.92049,-0.110488 z m 88.49488,0 c 1.03287,0.01611 2.10735,0.08671 2.9205,0.110488 0,0 -6.53588,2.111959 -6.34905,0.727174 0.0998,-0.740035 1.70708,-0.864503 3.42855,-0.837662 z m -102.84194,0.227735 c 1.0839,-0.02817 2.47198,0.908876 3.57186,1.005648 -0.25868,0.04618 -5.19605,0.121017 -4.53259,-0.588505 0.27186,-0.290723 0.59943,-0.407745 0.96073,-0.417143 z m 117.189,0 c 0.3613,0.0094 0.68887,0.12642 0.96072,0.417143 0.66348,0.709522 -4.27391,0.634684 -4.53259,0.588505 1.09987,-0.09677 2.48797,-1.033834 3.57187,-1.005648 z M 157.81476,54.21473 c 1.40368,0.03706 3.26727,0.432232 3.10073,0.722666 -0.27611,0.376015 -3.2072,-0.308785 -4.2587,-0.623457 0.27347,-0.08429 0.69008,-0.111567 1.15797,-0.09921 z m 99.51556,0 c 0.46792,-0.01235 0.88452,0.01495 1.158,0.09921 -1.05151,0.314672 -3.98259,0.999472 -4.25872,0.623457 -0.16652,-0.290434 1.69707,-0.685608 3.10072,-0.722667 z"
     id="path3478"
     inkscape:connector-curvature="0"
     sodipodi:nodetypes="ccssccccccccccccccccccscccccscccccccsccscsccsscccccccssccscsccscccccccscccccsccccccccccccccccccsscccsssssssssssccssccccssccccssccsscccsscccsccsccccccsccccscccsccccccsccsccscccccsccccccacca" />
  <path
     style="fill:#000000"
     d="m 207.87328,10.150207 c -0.24239,-9.64e-4 -0.42288,0.08733 -0.61084,0.301215 -0.16682,0.189887 -0.23063,0.310248 -0.33122,0.617496 -0.0631,0.193155 -0.0736,0.282959 -0.0718,0.687147 0.001,0.415485 0.01,0.488355 0.0827,0.696565 0.0877,0.251681 0.22776,0.494986 0.35325,0.615606 0.0434,0.04165 0.0791,0.08925 0.0791,0.105417 0,0.0162 -0.35412,0.88705 -0.78568,1.935316 -0.43153,1.04827 -0.78026,1.908859 -0.77462,1.912715 0.28947,0.213221 0.43959,0.423628 0.51336,0.721038 0.12891,0.519833 -0.13342,1.072729 -0.62006,1.302753 -0.17038,0.08049 -0.23246,0.09234 -0.47842,0.09032 -0.24049,-9.64e-4 -0.30735,-0.01286 -0.45631,-0.08657 -0.63675,-0.315384 -0.84379,-1.091172 -0.4508,-1.688695 0.0698,-0.106302 0.10036,-0.182359 0.0828,-0.205204 -0.015,-0.01975 -0.57987,-0.796884 -1.25487,-1.728223 l -1.22728,-1.694335 0.0698,-0.163779 c 0.10554,-0.247845 0.12057,-0.750908 0.0331,-1.110728 -0.10036,-0.412246 -0.29117,-0.771989 -0.55199,-1.041078 -0.25665,-0.264789 -0.45344,-0.37288 -0.71943,-0.391579 -0.36193,-0.02545 -0.66103,0.22661 -0.78936,0.662673 -0.0781,0.265147 -0.0698,0.751563 0.0184,1.074959 0.15429,0.565466 0.52697,1.086274 0.91449,1.27828 l 0.17479,0.08657 0.0204,0.42358 c 0.0117,0.232578 0.0351,0.927166 0.0533,1.543726 0.0184,0.616563 0.0392,1.181132 0.0478,1.25381 l 0.0167,0.131784 0.18399,0.02072 c 0.39167,0.0453 0.76861,0.343135 0.9108,0.717269 0.0948,0.252298 0.0952,0.595356 -0.001,0.850931 -0.0974,0.256009 -0.3659,0.530814 -0.61639,0.630673 -0.2709,0.107288 -0.62489,0.104599 -0.86111,-0.0077 -0.55118,-0.261582 -0.80528,-0.843868 -0.61824,-1.411955 l 0.0644,-0.199553 -0.15095,-0.144959 c -0.0833,-0.0798 -0.49022,-0.453531 -0.90344,-0.830228 -0.4132,-0.376688 -1.09672,-1.000294 -1.51981,-1.387469 l -0.76912,-0.704093 0.0404,-0.163778 c 0.0531,-0.207112 0.0531,-0.367282 -0.001,-0.632553 -0.24791,-1.196601 -1.60568,-2.139218 -2.22087,-1.541847 -0.37339,0.362606 -0.29382,1.166199 0.18218,1.848711 0.3201,0.458964 0.8392,0.821224 1.24198,0.867874 0.10437,0.01219 0.19396,0.03692 0.20055,0.05649 0.007,0.01957 0.52729,1.700436 1.15736,3.735071 0.63005,2.034634 1.17382,3.790649 1.20885,3.900743 0.0351,0.11006 0.0725,0.199556 0.081,0.199556 0.008,0 0.13576,-0.08126 0.28337,-0.18073 0.34907,-0.235199 1.10554,-0.607221 1.61917,-0.796336 4.67801,-1.722481 12.7765,-1.313059 15.92132,0.803864 0.14311,0.09638 0.271,0.163912 0.28336,0.150604 0.0134,-0.01336 0.31289,-0.961587 0.6679,-2.106629 0.35499,-1.145024 0.90032,-2.905086 1.21253,-3.910152 l 0.56674,-1.826118 0.20975,-0.03393 c 0.56271,-0.09071 1.13086,-0.580396 1.43701,-1.238743 0.1431,-0.307749 0.19128,-0.505386 0.19503,-0.790687 0.003,-0.26135 -0.0409,-0.433645 -0.15629,-0.596784 -0.13242,-0.186859 -0.28094,-0.252268 -0.58328,-0.252268 -0.21688,0 -0.28012,0.01453 -0.46367,0.103547 -0.55854,0.270707 -1.02642,0.839383 -1.21254,1.474076 -0.0553,0.187745 -0.0653,0.287711 -0.0533,0.513945 0.008,0.154027 0.0247,0.309186 0.0369,0.346393 0.0194,0.05879 -0.19847,0.270679 -1.64676,1.596441 -0.91821,0.840522 -1.66617,1.545693 -1.66335,1.566321 0.003,0.02062 0.0286,0.101493 0.0571,0.180729 0.0751,0.208606 0.0518,0.639241 -0.0459,0.833995 -0.17121,0.340948 -0.40529,0.535912 -0.75255,0.626904 -0.50102,0.131334 -1.0408,-0.133053 -1.27693,-0.625025 -0.0753,-0.157066 -0.0847,-0.216837 -0.0847,-0.483823 3e-5,-0.332639 0.0506,-0.494243 0.22447,-0.719158 0.17881,-0.231371 0.57014,-0.432988 0.84087,-0.432988 l 0.0977,0 0.0202,-0.472539 c 0.0117,-0.259824 0.0379,-1.009903 0.0589,-1.666091 0.021,-0.656206 0.0458,-1.202953 0.0553,-1.21616 0.01,-0.01319 0.098,-0.06621 0.19688,-0.116722 0.36073,-0.184354 0.709,-0.664168 0.87401,-1.204863 0.0609,-0.199456 0.0736,-0.307644 0.0718,-0.640079 -10e-4,-0.487998 -0.0654,-0.690483 -0.29254,-0.929999 -0.55193,-0.582064 -1.50186,0.04154 -1.80687,1.186037 -0.0838,0.31498 -0.0751,0.853023 0.0167,1.112607 0.0391,0.109759 0.0589,0.216731 0.0459,0.239094 -0.0134,0.02236 -0.57009,0.793501 -1.23829,1.713157 -0.66821,0.919659 -1.21622,1.693758 -1.21622,1.718817 0,0.02507 0.0225,0.06342 0.0496,0.08657 0.0807,0.06845 0.19311,0.32353 0.22816,0.517714 0.0885,0.490698 -0.16265,0.988546 -0.61456,1.21616 -0.18946,0.09541 -0.23528,0.105417 -0.49128,0.105417 -0.24061,0 -0.30804,-0.01186 -0.46,-0.08473 -0.22748,-0.109107 -0.44534,-0.33204 -0.55198,-0.564772 -0.0723,-0.157951 -0.085,-0.2242 -0.0847,-0.487592 3.7e-4,-0.267152 0.0117,-0.325698 0.0883,-0.485713 0.0531,-0.111195 0.1553,-0.247547 0.2631,-0.348284 0.16348,-0.152891 0.17358,-0.17163 0.14344,-0.250378 -0.018,-0.04676 -0.37142,-0.909566 -0.78751,-1.918372 l -0.75808,-1.833645 0.12524,-0.131785 c 0.14711,-0.156548 0.29267,-0.450521 0.36616,-0.734213 0.0715,-0.276078 0.0731,-0.840135 0.001,-1.120145 -0.16131,-0.633036 -0.52976,-1.02501 -0.96231,-1.027901 z m 0.37353,11.739872 c -2.6364,-0.03335 -5.28042,0.290662 -7.24396,0.943186 -1.04023,0.345678 -2.14078,0.908098 -2.1988,1.123904 -0.0424,0.158118 -0.0195,1.066022 0.0349,1.378063 0.063,0.359964 0.1588,0.780576 0.20607,0.907415 l 0.0331,0.09032 0.22632,-0.212741 c 1.05035,-0.987176 3.16,-1.716368 5.8309,-2.016253 2.00551,-0.225174 4.44719,-0.18308 6.32398,0.111062 2.34856,0.368069 4.17468,1.083256 5.0213,1.965426 0.0937,0.09767 0.17378,0.174252 0.17849,0.169433 0.005,-0.0048 0.0518,-0.176692 0.10303,-0.380283 0.1431,-0.567838 0.19928,-1.053917 0.184,-1.592673 l -0.0134,-0.46124 -0.0995,-0.08281 c -0.15113,-0.127426 -0.58707,-0.374057 -1.03589,-0.583606 -0.72931,-0.340484 -1.88054,-0.692756 -2.96236,-0.907415 -1.42806,-0.283355 -3.00706,-0.431813 -4.58891,-0.451822 z m -0.37167,0.553476 0.26679,0.131784 c 0.14661,0.0719 0.33063,0.177344 0.41031,0.233443 l 0.14545,0.10166 -0.0753,0.05831 c -0.0411,0.0323 -0.21219,0.131784 -0.38088,0.220268 -0.16869,0.08848 -0.33747,0.160272 -0.37535,0.160021 -0.12039,-9.63e-4 -0.80593,-0.378933 -0.80593,-0.444286 0,-0.03278 0.44889,-0.302371 0.64952,-0.389699 l 0.16565,-0.07152 z m -4.66803,0.480065 0.23185,0.112949 c 0.12824,0.06237 0.31601,0.168092 0.41584,0.233445 l 0.18031,0.118609 -0.0753,0.05831 c -0.0419,0.03258 -0.21149,0.131383 -0.3772,0.220258 -0.16565,0.08877 -0.33446,0.162709 -0.37535,0.161908 -0.12541,-0.002 -0.81143,-0.377689 -0.81143,-0.444295 0,-0.02979 0.43089,-0.286245 0.64767,-0.385931 l 0.16381,-0.07528 z m 9.33052,0.002 0.23185,0.112965 c 0.12741,0.06188 0.31418,0.1662 0.41398,0.231556 l 0.18033,0.11861 -0.0753,0.05831 c -0.0421,0.03258 -0.2115,0.131383 -0.3772,0.220259 -0.16565,0.08887 -0.33447,0.162293 -0.37535,0.161909 -0.12707,-9.64e-4 -0.81143,-0.377641 -0.81143,-0.446175 0,-0.03527 0.42471,-0.287354 0.64952,-0.38593 l 0.16381,-0.07152 z m -5.32121,1.573848 c -3.37238,0.08366 -6.31827,0.830738 -7.52367,1.957902 -0.32483,0.303748 -0.51823,0.711522 -0.47472,1.001547 0.0882,0.587269 0.72767,1.164658 1.81608,1.63974 1.16672,0.50928 3.47712,0.895539 5.9008,0.988362 0.47823,0.01842 2.16656,-0.0087 2.69372,-0.04328 1.7416,-0.114936 3.13385,-0.336369 4.36808,-0.692796 1.10504,-0.319095 2.11448,-0.969605 2.41592,-1.558792 0.11739,-0.229541 0.12106,-0.600272 0.01,-0.839643 -0.1204,-0.257245 -0.57975,-0.697431 -0.97519,-0.935648 -1.45445,-0.876214 -3.87951,-1.418614 -6.76377,-1.511726 -0.49534,-0.01603 -0.98469,-0.01763 -1.46644,-0.0058 z m 0.64215,1.654805 c 1.25311,-1.54e-4 1.86522,0.02785 2.78572,0.12801 1.01686,0.110611 2.65361,0.441982 2.4895,0.504538 -0.11405,0.04347 -0.9091,0.190282 -1.49959,0.276743 -0.69645,0.101944 -1.41049,0.175301 -2.22638,0.225906 l 0,-0.002 c -0.60034,0.03769 -2.67018,0.03654 -3.28617,-0.002 -0.64555,-0.04029 -1.68007,-0.149886 -2.23741,-0.237214 -0.81227,-0.127292 -1.37647,-0.24608 -1.32296,-0.27674 0.0882,-0.05041 0.92649,-0.248578 1.39469,-0.329449 1.20373,-0.207939 2.29335,-0.287913 3.9026,-0.288039 z m 6.56135,1.233105 0.0608,0.103547 c 0.0337,0.05659 0.0608,0.157233 0.0608,0.224027 2.7e-4,0.27495 -0.46837,0.603472 -1.22172,0.856579 -0.75011,0.252019 -1.98311,0.441499 -3.55118,0.544076 -0.51964,0.03403 -2.47238,0.06255 -2.91085,0.04328 -2.03863,-0.09002 -3.56856,-0.288541 -4.41961,-0.576079 -0.6304,-0.212981 -1.00183,-0.422954 -1.17023,-0.660793 -0.1057,-0.149418 -0.11405,-0.23172 -0.0387,-0.39346 0.0424,-0.09157 0.0673,-0.110861 0.11789,-0.096 1.3074,0.384901 2.61743,0.606498 4.46195,0.758686 0.66199,0.05476 3.32812,0.05465 4.00744,0 1.13179,-0.09109 2.1176,-0.217327 2.92374,-0.376513 0.40136,-0.07924 1.23452,-0.286883 1.52901,-0.380293 l 0.15079,-0.04704 z"
     id="path3478-0"
     inkscape:connector-curvature="0"
     sodipodi:nodetypes="ccccccsccccccccccccsccccccsccccccccccsccccccccscsccccsccccccsccccscccccccsccscsccccccsscccsccccccccccccccscccccsscccccccscccccccscsccccccccccsccccccccccscccccsscccccsccccccccccccccccccsccsccccccccc" />
</svg>
