<?xml version="1.0" encoding="UTF-8" standalone="no"?>
<!-- Created with Inkscape (http://www.inkscape.org/) -->

<svg
   xmlns:dc="http://purl.org/dc/elements/1.1/"
   xmlns:cc="http://creativecommons.org/ns#"
   xmlns:rdf="http://www.w3.org/1999/02/22-rdf-syntax-ns#"
   xmlns:svg="http://www.w3.org/2000/svg"
   xmlns="http://www.w3.org/2000/svg"
   xmlns:sodipodi="http://sodipodi.sourceforge.net/DTD/sodipodi-0.dtd"
   xmlns:inkscape="http://www.inkscape.org/namespaces/inkscape"
   width="83.609909mm"
   height="15.18886mm"
   viewBox="0 0 296.25558 53.818794"
   id="svg2"
   version="1.1"
   inkscape:version="0.91 r13725"
   sodipodi:docname="vintage_hr.svg">
  <defs
     id="defs4" />
  <sodipodi:namedview
     id="base"
     pagecolor="#ffffff"
     bordercolor="#666666"
     borderopacity="1.0"
     inkscape:pageopacity="0.0"
     inkscape:pageshadow="2"
     inkscape:zoom="1.4142136"
     inkscape:cx="298.29068"
     inkscape:cy="108.3578"
     inkscape:document-units="px"
     inkscape:current-layer="layer1"
     showgrid="false"
     showguides="true"
     inkscape:window-width="1675"
     inkscape:window-height="746"
     inkscape:window-x="1"
     inkscape:window-y="27"
     inkscape:window-maximized="0"
     inkscape:guide-bbox="true"
     fit-margin-top="0"
     fit-margin-left="0"
     fit-margin-right="0"
     fit-margin-bottom="0" />
  <metadata
     id="metadata7">
    <rdf:RDF>
      <cc:Work
         rdf:about="">
        <dc:format>image/svg+xml</dc:format>
        <dc:type
           rdf:resource="http://purl.org/dc/dcmitype/StillImage" />
        <dc:title></dc:title>
      </cc:Work>
    </rdf:RDF>
  </metadata>
  <g
     inkscape:label="Layer 1"
     inkscape:groupmode="layer"
     id="layer1"
     transform="translate(-165.90425,-107.26312)">
    <g
       transform="matrix(0.02226832,0,0,0.02226832,389.7635,115.16768)"
       id="g3662" />
    <g
       id="g3734"
       transform="translate(0,-5.9964286)">
      <path
         style="fill:#000000"
         d="m 314.06844,191.98058 c -0.23422,-6.2e-4 -0.40864,0.0843 -0.59026,0.29108 -0.1612,0.18349 -0.22286,0.2998 -0.32006,0.59669 -0.0609,0.18665 -0.0711,0.27342 -0.0694,0.664 10e-4,0.40149 0.01,0.47191 0.0799,0.67311 0.0847,0.24319 0.2201,0.4783 0.34135,0.59485 0.0419,0.0403 0.0764,0.0862 0.0764,0.10189 0,0.0156 -0.3422,0.85716 -0.75921,1.87012 -0.417,1.01297 -0.75399,1.84455 -0.74853,1.84829 0.27971,0.20603 0.42478,0.40935 0.49607,0.69676 0.12456,0.50231 -0.12892,1.03659 -0.59918,1.25886 -0.16464,0.0778 -0.22463,0.0892 -0.4623,0.0873 -0.23239,-6.2e-4 -0.297,-0.0125 -0.44094,-0.0837 -0.6153,-0.30477 -0.81537,-1.05442 -0.43562,-1.63182 0.0675,-0.10273 0.097,-0.17621 0.08,-0.1983 -0.0145,-0.019 -0.56033,-0.77003 -1.2126,-1.67 l -1.18594,-1.63726 0.0675,-0.15826 c 0.10199,-0.23949 0.11651,-0.72562 0.0319,-1.07331 -0.097,-0.39837 -0.28136,-0.74599 -0.53339,-1.00602 -0.248,-0.25586 -0.43816,-0.36032 -0.69519,-0.37839 -0.34975,-0.0247 -0.63877,0.21898 -0.76278,0.64035 -0.0754,0.25622 -0.0674,0.72625 0.0178,1.03876 0.14909,0.54642 0.50921,1.04969 0.88368,1.23522 l 0.16891,0.0837 0.0198,0.40932 c 0.0112,0.22473 0.034,0.89593 0.0515,1.49172 0.0178,0.5958 0.0379,1.14135 0.0462,1.21157 l 0.0162,0.12734 0.17778,0.02 c 0.37848,0.0438 0.74273,0.33158 0.88013,0.69311 0.0916,0.2438 0.092,0.57531 -10e-4,0.82226 -0.0942,0.24739 -0.35357,0.51294 -0.59563,0.60943 -0.26177,0.10368 -0.60384,0.10104 -0.8321,-0.007 -0.53261,-0.25279 -0.77815,-0.81546 -0.59741,-1.36441 l 0.0622,-0.19282 -0.14588,-0.14009 c -0.0805,-0.0771 -0.4737,-0.43825 -0.87299,-0.80226 -0.39929,-0.364 -1.05979,-0.96659 -1.46862,-1.34073 l -0.74322,-0.68038 0.039,-0.15826 c 0.0513,-0.20013 0.0513,-0.3549 -10e-4,-0.61124 -0.23956,-1.15629 -1.55159,-2.06715 -2.14606,-1.48991 -0.36082,0.3504 -0.28392,1.12692 0.17604,1.78643 0.30932,0.44352 0.81093,0.79357 1.20014,0.83864 0.10083,0.0118 0.18743,0.0357 0.19379,0.0546 0.006,0.0189 0.50954,1.64315 1.11838,3.60926 0.60883,1.96609 1.13428,3.66296 1.16813,3.76934 0.034,0.10635 0.07,0.19284 0.0783,0.19284 0.007,0 0.13118,-0.0786 0.27383,-0.17464 0.3373,-0.22728 1.06828,-0.58678 1.56462,-0.76953 4.52043,-1.66445 12.34613,-1.26882 15.38502,0.77679 0.13827,0.0931 0.26186,0.1584 0.2738,0.14554 0.0129,-0.0129 0.30235,-0.9292 0.6454,-2.03567 0.34305,-1.10647 0.87001,-2.80723 1.17169,-3.77844 l 0.54766,-1.7646 0.20267,-0.0328 c 0.54377,-0.0876 1.09277,-0.56084 1.38862,-1.19701 0.13828,-0.29738 0.18483,-0.48837 0.18846,-0.76406 0.003,-0.25255 -0.0396,-0.41903 -0.15103,-0.57668 -0.12796,-0.18056 -0.27148,-0.24376 -0.56363,-0.24376 -0.20958,0 -0.27069,0.014 -0.44806,0.10008 -0.53973,0.26159 -0.99184,0.81112 -1.17169,1.42443 -0.0534,0.18141 -0.0631,0.27802 -0.0515,0.49662 0.007,0.14885 0.0238,0.29879 0.0357,0.33474 0.0187,0.0568 -0.19178,0.26156 -1.5913,1.54265 -0.88727,0.81222 -1.61004,1.49363 -1.60732,1.51357 0.003,0.0199 0.0276,0.0981 0.0552,0.17465 0.0726,0.20157 0.05,0.6177 -0.0443,0.80589 -0.16544,0.32946 -0.39163,0.51787 -0.7272,0.6058 -0.48414,0.12689 -1.00574,-0.12858 -1.23391,-0.60398 -0.0728,-0.15177 -0.0819,-0.20953 -0.0819,-0.46753 3e-5,-0.32143 0.0489,-0.47759 0.21692,-0.69493 0.17279,-0.22358 0.55093,-0.41841 0.81254,-0.41841 l 0.0944,0 0.0195,-0.45662 c 0.0113,-0.25107 0.0366,-0.97588 0.0569,-1.60997 0.0203,-0.63409 0.0443,-1.16243 0.0534,-1.1752 0.01,-0.0128 0.0947,-0.064 0.19024,-0.11278 0.34859,-0.17814 0.68512,-0.6418 0.84457,-1.16427 0.0588,-0.19274 0.0711,-0.29729 0.0694,-0.61853 -10e-4,-0.47155 -0.0632,-0.66721 -0.28269,-0.89867 -0.53334,-0.56245 -1.45127,0.0401 -1.746,1.14609 -0.0809,0.30436 -0.0726,0.82429 0.0161,1.07512 0.0378,0.10606 0.0569,0.20945 0.0443,0.23105 -0.0129,0.0217 -0.55089,0.76677 -1.19658,1.65545 -0.64571,0.88867 -1.17525,1.6367 -1.17525,1.66092 0,0.0242 0.0217,0.0613 0.0479,0.0837 0.078,0.0661 0.18659,0.31264 0.22046,0.50029 0.0855,0.47416 -0.15716,0.95524 -0.59386,1.17519 -0.18307,0.0922 -0.22735,0.10189 -0.47473,0.10189 -0.2325,0 -0.29766,-0.0115 -0.4445,-0.0819 -0.21981,-0.10538 -0.43034,-0.32086 -0.53338,-0.54574 -0.0698,-0.15263 -0.0821,-0.21665 -0.0819,-0.47117 3.6e-4,-0.25814 0.0113,-0.31472 0.0853,-0.46935 0.0513,-0.10745 0.15007,-0.23921 0.25424,-0.33655 0.15797,-0.14775 0.16773,-0.16585 0.1386,-0.24195 -0.0174,-0.0452 -0.3589,-0.87893 -0.76098,-1.85375 l -0.73255,-1.77187 0.12102,-0.12736 c 0.14216,-0.15127 0.28282,-0.43534 0.35384,-0.70948 0.0691,-0.26678 0.0707,-0.81183 0.001,-1.08241 -0.15587,-0.6117 -0.51191,-0.99048 -0.92988,-0.99328 z m 0.36094,11.34443 c -2.54758,-0.0322 -5.10254,0.28086 -6.99994,0.9114 -1.00519,0.33404 -2.06867,0.87751 -2.12473,1.08605 -0.0409,0.15279 -0.0188,1.03012 0.0336,1.33165 0.0608,0.34783 0.15347,0.75427 0.19914,0.87684 l 0.0321,0.0873 0.21869,-0.20558 c 1.01497,-0.95391 3.05355,-1.65855 5.63449,-1.94833 1.93795,-0.21759 4.29738,-0.17691 6.11095,0.10732 2.26945,0.35567 4.03406,1.04677 4.85216,1.89923 0.0906,0.0944 0.16793,0.16838 0.17248,0.16372 0.005,-0.005 0.05,-0.17074 0.0996,-0.36748 0.13828,-0.5487 0.19256,-1.01841 0.1778,-1.53902 l -0.0129,-0.4457 -0.0962,-0.08 c -0.14603,-0.12312 -0.56729,-0.36145 -1.00099,-0.56393 -0.70474,-0.32903 -1.81719,-0.66943 -2.86257,-0.87686 -1.37995,-0.27381 -2.90577,-0.41727 -4.43433,-0.4366 z m -0.35914,0.53482 0.25781,0.12735 c 0.14166,0.0695 0.31949,0.17137 0.39648,0.22558 l 0.14055,0.0983 -0.0728,0.0564 c -0.0398,0.0312 -0.20504,0.12734 -0.36804,0.21285 -0.16301,0.0855 -0.3261,0.15488 -0.36271,0.15463 -0.11633,-6.2e-4 -0.77878,-0.36618 -0.77878,-0.42933 0,-0.0317 0.43376,-0.29218 0.62764,-0.37657 l 0.16007,-0.0691 z m -4.51079,0.4639 0.22404,0.10915 c 0.12393,0.0603 0.30536,0.16242 0.40184,0.22557 l 0.17423,0.11461 -0.0728,0.0564 c -0.0405,0.0315 -0.20437,0.12696 -0.36451,0.21285 -0.16006,0.0858 -0.32318,0.15723 -0.3627,0.15645 -0.12119,-0.002 -0.78409,-0.36497 -0.78409,-0.42934 0,-0.0288 0.41637,-0.2766 0.62585,-0.37293 l 0.15829,-0.0728 z m 9.01623,0.002 0.22403,0.10916 c 0.12312,0.0598 0.3036,0.1606 0.40004,0.22376 l 0.17425,0.11461 -0.0728,0.0564 c -0.0406,0.0315 -0.20438,0.12695 -0.3645,0.21284 -0.16007,0.0859 -0.3232,0.15682 -0.36269,0.15645 -0.12281,-0.001 -0.78411,-0.36493 -0.78411,-0.43115 0,-0.0342 0.4104,-0.27767 0.62765,-0.37293 l 0.15829,-0.0691 z m -5.14197,1.52083 c -3.25878,0.0808 -6.10545,0.80276 -7.27024,1.89196 -0.31389,0.29351 -0.50077,0.68755 -0.45873,0.9678 0.0853,0.56749 0.70316,1.12543 1.75491,1.58451 1.12742,0.49212 3.36,0.86537 5.70203,0.95507 0.46212,0.0178 2.09359,-0.008 2.60298,-0.0419 1.68294,-0.11107 3.02829,-0.32504 4.22095,-0.66946 1.06781,-0.30835 2.04325,-0.93695 2.33454,-1.50629 0.11342,-0.2218 0.11698,-0.58005 0.01,-0.81137 -0.11634,-0.24857 -0.56021,-0.67393 -0.94234,-0.90412 -1.40545,-0.8467 -3.74883,-1.37083 -6.53593,-1.46081 -0.47865,-0.0154 -0.95152,-0.017 -1.41704,-0.005 z m 0.62052,1.59906 c 1.2109,-1.3e-4 1.80239,0.027 2.69188,0.1237 0.98261,0.10689 2.56422,0.4271 2.40564,0.48755 -0.1102,0.042 -0.87848,0.18387 -1.44907,0.26742 -0.67299,0.0985 -1.36298,0.16939 -2.15139,0.21829 l 0,-0.002 c -0.58011,0.0364 -2.58023,0.0352 -3.17548,-0.002 -0.62379,-0.0389 -1.62347,-0.14484 -2.16204,-0.22922 -0.78491,-0.123 -1.3301,-0.23779 -1.27839,-0.26742 0.0853,-0.0487 0.89527,-0.24021 1.34771,-0.31836 1.16318,-0.20093 2.2161,-0.2782 3.77114,-0.27833 z m 6.34033,1.19157 0.0587,0.10008 c 0.0326,0.0547 0.0587,0.15194 0.0587,0.21649 2.6e-4,0.26568 -0.4526,0.58314 -1.18056,0.82772 -0.72485,0.24354 -1.91632,0.42664 -3.43157,0.52575 -0.50214,0.0329 -2.38909,0.0604 -2.81279,0.0419 -1.96996,-0.087 -3.44836,-0.27882 -4.27074,-0.55667 -0.60917,-0.20582 -0.96809,-0.40871 -1.13081,-0.63853 -0.1021,-0.14439 -0.11022,-0.22391 -0.0374,-0.38021 0.0409,-0.0885 0.0651,-0.10713 0.11392,-0.0928 1.26336,0.37193 2.52926,0.58606 4.31165,0.73313 0.63969,0.0529 3.21602,0.0528 3.87245,0 1.09366,-0.088 2.04627,-0.21001 2.82526,-0.36384 0.38784,-0.0765 1.19294,-0.27722 1.4775,-0.36747 l 0.14571,-0.0454 z"
         id="path3478-0"
         inkscape:connector-curvature="0"
         sodipodi:nodetypes="ccccccsccccccccccccsccccccsccccccccccsccccccccscsccccsccccccsccccscccccccsccscsccccccsscccsccccccccccccccscccccsscccccccscccccccscsccccccccccsccccccccccscccccsscccccsccccccccccccccccccsccsccccccccc" />
      <path
         sodipodi:nodetypes="cccccsccccccsccccccscccccsccccccccccccccccccccccccccccccscccscccccscccscccssssssssssscccccscsccscccccccsscccsscccccccccscsccscscccccscscssscsssssssscssscsscssssscssscccsscscccssssscscsscccscccccsssscccssscccccccccccscscssscscccccccccccccccccccsccsccscccccccccccccccccscc"
         style="fill:#000000"
         d="m 176.76508,196.22811 c -0.62106,0.0154 -1.26517,0.16722 -1.90893,0.49901 -1.21537,0.66118 -2.21896,2.07576 -2.22263,3.46399 -0.001,0.63101 0.2036,1.25611 0.68878,1.80288 4.88074,5.4998 11.55108,4.44282 16.54077,1.82744 -5.82569,2.31708 -10.62379,1.36639 -13.77114,-0.65194 -3.63025,-2.32797 -1.94942,-4.23613 -0.43424,-5.16975 4.53592,-2.26068 7.58114,3.28795 2.89688,3.40594 5.78593,1.3147 2.558,-5.28498 -1.78949,-5.17757 z m 274.53505,0 c -4.34749,-0.1074 -7.57542,6.49227 -1.7895,5.17757 -4.68426,-0.11799 -1.64014,-5.66662 2.89579,-3.40594 1.51517,0.93362 3.19711,2.84178 -0.43314,5.16975 -3.14736,2.01833 -7.94657,2.96902 -13.77225,0.65194 4.98968,2.61538 11.66002,3.67236 16.54076,-1.82744 0.48518,-0.54677 0.69049,-1.17187 0.68878,-1.80288 -0.003,-1.38823 -1.00726,-2.80281 -2.22263,-3.46399 -0.64375,-0.33179 -1.28675,-0.48366 -1.90781,-0.49901 z m -256.49504,5.6788 c -1.00573,0 -1.33961,0.44811 -1.33961,1.04267 0,1.17527 1.30499,2.9248 1.30499,2.9248 0,0 3.09172,-3.96747 0.0345,-3.96747 z m 238.45392,0 c -3.0571,0 0.0345,3.96747 0.0345,3.96747 0,0 1.305,-1.74953 1.305,-2.9248 0,-0.59456 -0.33388,-1.04267 -1.33961,-1.04267 z m -263.56703,1.2883 -3.78773,2.97838 3.78773,2.97839 c 2.27403,-2.21746 10.01354,-2.97839 10.01354,-2.97839 0,0 -7.76897,-0.75399 -10.01354,-2.97838 z m 288.68014,0 c -2.24457,2.22439 -10.01355,2.97838 -10.01355,2.97838 0,0 7.73952,0.76093 10.01355,2.97839 l 3.78772,-2.97839 z m -164.23319,1.7772 -2.17685,0.89531 c -13.76051,0.0289 -63.42976,0.63406 -84.70872,0.0737 l 0,0.87968 c 15.03875,-0.14575 71.73403,-0.24322 84.70872,-0.0581 l 2.17685,0.89418 3.86141,-1.27597 z m 39.78735,0 -3.86252,1.40881 3.86252,1.27598 2.17573,-0.89419 c 12.97472,-0.18516 69.66997,-0.0877 84.70873,0.0581 l 0,-0.87968 c -21.27897,0.56039 -70.94819,-0.0447 -84.70873,-0.0737 z m -141.76692,0.16634 c -2.61408,-0.0725 -6.79625,1.25253 -6.79625,1.25253 0,0 8.84809,2.68272 8.84809,-0.0313 0,-0.86606 -0.86361,-1.1883 -2.05184,-1.22127 z m 5.04697,0 c -1.18823,0.033 -2.05295,0.35522 -2.05295,1.22126 0,2.71401 8.84921,0.0313 8.84921,0.0313 0,0 -4.18217,-1.32507 -6.79626,-1.25253 z m 233.65256,0 c -2.6141,-0.0725 -6.79737,1.25253 -6.79737,1.25253 0,0 8.84919,2.68274 8.84919,-0.0313 0,-0.86606 -0.8636,-1.1883 -2.05182,-1.22127 z m 5.04584,0 c -1.18823,0.033 -2.05183,0.35522 -2.05183,1.22126 0,2.71399 8.84921,0.0313 8.84921,0.0313 0,0 -4.18329,-1.32507 -6.79738,-1.25253 z m -230.3951,0.2121 c -0.64497,0 -1.16768,0.46169 -1.16768,1.03037 0,0.5687 0.52271,1.02927 1.16768,1.02927 0.64492,0 1.16769,-0.46057 1.16769,-1.02927 0,-0.56868 -0.52277,-1.03037 -1.16769,-1.03037 z m 217.04483,0 c -0.64491,0 -1.16769,0.46169 -1.16769,1.03037 0,0.5687 0.52278,1.02927 1.16769,1.02927 0.64497,0 1.16769,-0.46057 1.16769,-1.02927 0,-0.56868 -0.52272,-1.03037 -1.16769,-1.03037 z m -241.00252,1.39989 c -2.90153,0.0961 -5.78926,1.2064 -8.22964,3.9563 -0.48518,0.54676 -0.69044,1.17299 -0.68878,1.80399 0.003,1.38823 1.00726,2.80281 2.22263,3.46399 5.15007,2.65426 10.31091,-6.18219 3.69842,-4.67968 4.68426,0.118 1.63904,5.66774 -2.89688,3.40705 -1.51518,-0.93362 -3.19601,-2.84288 0.43424,-5.17087 3.14735,-2.01832 7.94545,-2.96789 13.77114,-0.65082 -2.49485,-1.30769 -5.40961,-2.22605 -8.31113,-2.12996 z m 264.96022,0 c -2.90152,-0.0961 -5.81629,0.82227 -8.31113,2.12996 5.82568,-2.31707 10.62489,-1.3675 13.77225,0.65082 3.63025,2.32799 1.94831,4.23725 0.43314,5.17087 -4.53593,2.26069 -7.58005,-3.28905 -2.89579,-3.40705 -6.61248,-1.50251 -1.45277,7.33394 3.69731,4.67968 1.21537,-0.66118 2.2192,-2.07576 2.22263,-3.46399 0.001,-0.631 -0.2036,-1.25723 -0.68878,-1.80399 -2.44038,-2.7499 -5.32811,-3.86023 -8.22963,-3.9563 z m -251.74169,0.0849 c 0,0 -1.30499,1.74951 -1.30499,2.92479 0,0.59457 0.33388,1.04267 1.33961,1.04267 3.05709,0 -0.0345,-3.96746 -0.0345,-3.96746 z m 238.52315,0 c 0,0 -3.0917,3.96746 -0.0345,3.96746 1.00572,0 1.33961,-0.4481 1.33961,-1.04267 0,-1.17528 -1.305,-2.92479 -1.305,-2.92479 z m -109.19891,8.46406 c -1.29135,-0.0307 -2.63228,0.29653 -4.18961,0.63297 -2.62815,-0.99791 -4.03554,-0.55917 -6.48369,0.057 -2.03432,-0.69489 -3.46392,-0.88382 -6.04607,-0.0234 -0.43154,0.0451 -0.7973,0.0346 -0.99131,-0.0414 -3.86883,-1.32991 -6.19308,0.44076 -8.85701,2.62229 -2.33397,1.67397 -4.01447,1.66551 -4.80025,-0.0592 -0.32074,-0.70392 -0.28078,-0.96195 0.23778,-1.53497 0.34274,-0.37874 0.93242,-0.64378 1.31058,-0.58942 0.97888,0.14074 1.08726,1.21442 0.1574,1.5584 -0.52484,0.19415 -0.62861,0.35625 -0.3416,0.53361 0.68083,0.42077 1.99441,-0.095 2.24384,-0.88078 0.48494,-1.52793 -2.20252,-2.55697 -3.78438,-1.44901 -0.64559,0.45218 -0.82492,0.44419 -1.72921,-0.0749 -0.78396,-0.44991 -1.22034,-0.50357 -1.96028,-0.24335 -1.21744,0.42815 -1.3165,1.61208 -0.14847,1.7772 0.61922,0.0876 0.75733,-0.009 0.59947,-0.42086 -0.36366,-0.94765 0.68162,-0.58431 1.60975,0.55929 1.13145,1.39171 1.95772,4.26236 6.31735,2.12662 0.46899,-0.21195 0.58714,-0.10482 0.58943,0.52691 10e-4,1.25495 1.19967,2.89077 2.66245,3.63703 1.82228,0.92965 5.10924,0.92308 7.68375,-0.0156 2.88197,-1.05082 2.88239,-1.05104 3.60577,-0.49118 0.66243,0.51268 0.66323,0.52743 0.0257,1.02033 -0.46917,0.36267 -1.11632,0.4469 -2.35323,0.30588 -2.36713,-0.26989 -3.63306,0.25865 -3.49414,1.45793 0.16597,1.43271 1.53254,1.74675 3.6694,0.84395 1.35496,-0.57246 1.83726,-0.64265 2.32645,-0.33713 0.58733,0.3668 0.57752,0.43274 -0.19871,1.35523 -1.12718,1.33959 -1.09743,3.00092 0.0703,3.91946 0.97931,0.77034 2.68874,0.89947 3.51423,0.26568 1.47109,-1.12948 1.54119,-2.73847 0.18419,-4.21974 -0.68965,-0.75279 -0.69398,-0.8009 -0.10381,-1.23244 0.52187,-0.38159 0.82536,-0.3536 2.01722,0.18754 1.73809,0.78915 2.84726,0.81883 3.64596,0.096 1.51482,-1.37089 -0.11888,-2.67342 -2.9382,-2.34207 -2.6738,0.31426 -4.2162,-0.67437 -2.36663,-1.51711 0.65358,-0.29778 1.21636,-0.20212 2.9996,0.5113 2.50316,1.00142 5.90438,1.18605 7.73843,0.41973 1.51226,-0.63186 2.91476,-2.38305 2.91476,-3.63814 0,-0.84665 0.10045,-0.9749 0.58943,-0.75576 0.32362,0.14505 1.36609,0.62979 2.23491,0.70665 1.84514,0.16324 2.44071,-0.51158 3.89935,-2.52516 0.97491,-1.3458 2.31173,-1.9758 1.89667,-0.89418 -0.13229,0.34469 0.0193,0.50346 0.4789,0.50346 0.83742,0 1.20156,-0.85081 0.64859,-1.5171 -0.54121,-0.65213 -1.82892,-0.63703 -2.85224,0.0335 -0.7436,0.48724 -0.88063,0.48724 -1.57627,0 -1.39249,-0.97535 -3.63813,-0.34495 -3.63813,1.02147 0,0.88678 1.1172,1.63099 1.96028,1.30609 0.51889,-0.19993 0.5163,-0.2421 -0.0268,-0.547 -1.32246,-0.74242 -0.2748,-2.03774 1.06722,-1.31951 1.30069,0.69611 0.6784,2.52797 -1.06945,3.14807 -0.88693,0.31467 -2.22367,-0.3191 -3.86364,-1.83078 -1.84779,-1.96291 -3.42573,-2.59392 -5.08604,-2.63345 z m -0.58162,0.99465 c 3.64443,0 5.94413,3.63993 3.65042,5.77928 -0.50855,0.47432 -1.25606,1.03273 -1.65999,1.24026 -1.74687,0.89746 -7.50289,-0.0859 -7.50289,-1.28157 0,-0.56382 1.55685,-0.78469 2.38896,-0.33937 0.42369,0.22676 1.58962,0.42427 2.59101,0.43873 1.5192,0.022 1.92548,-0.10426 2.45482,-0.75799 0.87028,-1.07472 0.79577,-1.87803 -0.25117,-2.70154 -1.19049,-0.93641 -2.5575,-0.87704 -4.69085,0.20318 -1.48734,0.7531 -1.86269,0.82871 -2.303,0.46328 -0.28936,-0.24015 -0.52579,-0.54718 -0.52579,-0.68209 0,-0.49389 4.62559,-2.36217 5.84848,-2.36217 z m -6.07399,0.0123 c 0.51655,0.0101 0.89754,0.0959 0.89754,0.25118 0,0.14505 -0.41581,0.50454 -0.92433,0.79929 -0.69887,0.40507 -1.10938,0.45183 -1.6812,0.18978 -0.41608,-0.19068 -0.75576,-0.45768 -0.75576,-0.59278 0,-0.1351 0.33968,-0.33615 0.75576,-0.44765 0.53962,-0.14463 1.19147,-0.21008 1.70799,-0.19982 z m -7.2227,8.4e-4 c 0.6833,0.0216 1.43987,0.13791 1.73257,0.33377 0.43652,0.2921 0.41644,0.40514 -0.14848,0.83613 -0.35896,0.27388 -0.73727,0.4835 -0.8406,0.46664 -0.44035,-0.0721 -2.0362,-1.16698 -2.0362,-1.39766 -4.6e-4,-0.18662 0.60943,-0.26049 1.29271,-0.23888 z m -6.51157,0.0123 c 1.10521,-0.0246 2.29541,0.31392 3.75981,1.03484 2.5199,1.24055 2.72541,1.46652 1.78614,1.96922 -0.56695,0.30343 -1.02741,0.2118 -2.42915,-0.48672 -1.97734,-0.98535 -2.91575,-1.06746 -4.26329,-0.37062 -1.18055,0.61049 -1.46071,1.2917 -0.97344,2.36105 0.61905,1.35869 2.30397,1.70613 4.88285,1.00804 1.92024,-0.51977 2.23207,-0.52975 2.67252,-0.0894 0.44042,0.44044 0.30189,0.58235 -1.18333,1.22128 -1.91947,0.82572 -4.70801,0.9374 -6.26264,0.25117 -3.21511,-1.41918 -3.17419,-5.09274 0.0725,-6.46693 0.64177,-0.27163 1.27484,-0.41732 1.93795,-0.43203 z m 9.88515,1.36193 c 0.20665,0.004 0.45642,0.16659 0.87856,0.48561 0.57543,0.43484 0.59979,0.55235 0.16857,0.82497 -1.17555,0.74316 -2.45253,0.0815 -1.66781,-0.86405 0.25035,-0.30165 0.41402,-0.45187 0.62068,-0.44653 z m -9.4509,1.32509 c 0.57526,0.0132 1.27627,0.24795 2.0094,0.70105 l 1.17104,0.7234 -0.79596,0.44095 c -1.85975,1.03116 -4.39384,0.16872 -3.64036,-1.23914 0.23068,-0.43102 0.68062,-0.63944 1.25588,-0.62626 z m 19.21215,0.0268 c 1.09336,0.16074 1.64049,1.07418 1.06163,1.77162 -0.24304,0.2929 -0.91529,0.52157 -1.49365,0.50905 -1.09951,-0.0238 -2.56423,-0.58638 -2.56423,-0.9846 0,-0.45584 2.20978,-1.4117 2.99625,-1.29607 z m -6.82752,0.57268 c 0.76615,0.0413 1.30694,0.6215 0.81381,1.21569 -0.54753,0.65973 -0.77954,0.64848 -1.6879,-0.0871 l -0.74347,-0.60282 0.80598,-0.36728 c 0.27566,-0.12559 0.55619,-0.17226 0.81158,-0.15851 z m -5.48233,0.10269 c 0.30258,0.0112 0.62015,0.0954 0.90536,0.27573 0.43121,0.27262 0.408,0.389 -0.16746,0.82385 -0.81793,0.6181 -1.25479,0.65083 -1.77274,0.13285 -0.64489,-0.64488 0.12714,-1.26606 1.03484,-1.23243 z m 2.75178,1.51486 c 0.22789,0.006 0.43951,0.14333 0.80152,0.4164 l 0.77921,0.58719 -0.82052,0.53696 c -0.75509,0.49476 -0.88894,0.49231 -1.70242,-0.0414 l -0.883,-0.57938 0.92321,-0.54588 c 0.42907,-0.25347 0.67409,-0.37962 0.902,-0.37397 z m -0.163,3.49749 c 0.0925,0 0.46946,0.228 0.83838,0.5068 0.57543,0.43485 0.59979,0.55124 0.16857,0.82386 -0.27649,0.17479 -0.72957,0.31816 -1.00695,0.31816 -0.27738,0 -0.73044,-0.14337 -1.00693,-0.31816 -0.43122,-0.27262 -0.40799,-0.38901 0.16745,-0.82386 0.36895,-0.2788 0.74701,-0.5068 0.83948,-0.5068 z m -5.3104,0.67984 c 0.11891,-0.004 0.23996,-0.003 0.35945,0.007 0.31866,0.0271 0.62885,0.11155 0.87744,0.26903 0.37354,0.23656 0.32809,0.36891 -0.22996,0.66758 -0.89285,0.47757 -1.98042,0.47747 -2.27621,-8.4e-4 -0.31145,-0.50391 0.43682,-0.90437 1.26928,-0.94218 z m 10.70678,0.0346 c 0.60781,0.0101 1.18577,0.2695 1.26592,0.69213 0.0851,0.44866 -0.11452,0.58785 -0.83837,0.58385 -0.52209,-0.002 -1.17608,-0.15393 -1.45346,-0.33603 -0.44831,-0.29428 -0.44831,-0.36933 0,-0.67092 0.28536,-0.19196 0.66122,-0.27524 1.02591,-0.26903 z m -5.41758,2.7473 c 0.0732,-0.006 0.14696,-0.004 0.22104,0.002 0.27343,0.0275 0.54948,0.1464 0.80711,0.37955 0.74836,0.67727 0.89269,2.16945 0.27015,2.79196 -0.66462,0.66464 -2.21716,0.48795 -2.63903,-0.3003 -0.70129,-1.31037 0.24355,-2.79147 1.34073,-2.87345 z"
         id="path3732"
         inkscape:connector-curvature="0" />
    </g>
    <path
       inkscape:connector-curvature="0"
       id="path3738"
       d="m 303.86222,119.25112 0.8339,2.61669 11.95596,11.95596 -1.38314,2.01053 c 0.31845,0.78348 0.84843,0.84842 0.84843,0.84842 0.56853,-1.75533 3.01398,-4.26541 5.21998,-5.21887 0,0 -0.066,-0.52998 -0.84953,-0.84843 l -2.01053,1.38202 -11.95596,-11.95596 -2.65911,-0.79036 z m 19.60845,0 -2.65911,0.79036 -6.85208,6.89562 1.84978,1.80177 6.82863,-6.87106 0.83278,-2.61669 z m -146.70559,3.13132 c -0.62106,0.0154 -1.26517,0.16722 -1.90893,0.49901 -1.21537,0.66118 -2.21896,2.07576 -2.22263,3.46399 -0.001,0.63101 0.2036,1.25611 0.68878,1.80288 4.88074,5.4998 11.55108,4.44282 16.54077,1.82744 -5.82569,2.31708 -10.62379,1.36639 -13.77114,-0.65194 -3.63025,-2.32797 -1.94942,-4.23613 -0.43424,-5.16975 4.53592,-2.26068 7.58114,3.28795 2.89688,3.40594 5.78593,1.3147 2.558,-5.28498 -1.78949,-5.17757 z m 274.53505,0 c -4.34749,-0.1074 -7.57542,6.49227 -1.7895,5.17757 -4.68426,-0.11799 -1.64014,-5.66662 2.89579,-3.40594 1.51517,0.93362 3.19711,2.84178 -0.43314,5.16975 -3.14736,2.01833 -7.94657,2.96902 -13.77225,0.65194 4.98968,2.61538 11.66002,3.67236 16.54076,-1.82744 0.48518,-0.54677 0.69049,-1.17187 0.68878,-1.80288 -0.003,-1.38823 -1.00726,-2.80281 -2.22263,-3.46399 -0.64375,-0.33179 -1.28675,-0.48366 -1.90781,-0.49901 z m -256.49504,5.6788 c -1.00573,0 -1.33961,0.44811 -1.33961,1.04267 0,1.17527 1.30499,2.9248 1.30499,2.9248 0,0 3.09172,-3.96747 0.0345,-3.96747 z m 238.45392,0 c -3.0571,0 0.0345,3.96747 0.0345,3.96747 0,0 1.305,-1.74953 1.305,-2.9248 0,-0.59456 -0.33388,-1.04267 -1.33961,-1.04267 z m -121.65722,1.257 -2.74619,2.6792 -2.01052,-1.38202 c -0.78348,0.31844 -0.84842,0.84843 -0.84842,0.84843 2.206,0.95346 4.65035,3.46354 5.21888,5.21887 0,0 0.52996,-0.0649 0.84841,-0.84842 l -1.38203,-2.01053 2.76293,-2.69707 -1.84306,-1.80846 z m -141.90981,0.0313 -3.78773,2.97838 3.78773,2.97839 c 2.27403,-2.21746 10.01354,-2.97839 10.01354,-2.97839 0,0 -7.76897,-0.75399 -10.01354,-2.97838 z m 288.68014,0 c -2.24457,2.22439 -10.01355,2.97838 -10.01355,2.97838 0,0 7.73952,0.76093 10.01355,2.97839 l 3.78772,-2.97839 -3.78772,-2.97838 z m -164.23319,1.7772 -2.17685,0.89531 c -13.76051,0.0289 -63.42976,0.63406 -84.70872,0.0737 l 0,0.87968 c 15.03875,-0.14575 71.73403,-0.24322 84.70872,-0.0581 l 2.17685,0.89418 3.86141,-1.27597 -3.86141,-1.40881 z m 39.78735,0 -3.86252,1.40881 3.86252,1.27598 2.17573,-0.89419 c 12.97472,-0.18516 69.66997,-0.0877 84.70873,0.0581 l 0,-0.87968 c -21.27897,0.56039 -70.94819,-0.0447 -84.70873,-0.0737 l -2.17573,-0.89531 z m -141.76692,0.16634 c -2.61408,-0.0725 -6.79625,1.25253 -6.79625,1.25253 0,0 8.84809,2.68272 8.84809,-0.0313 0,-0.86606 -0.86361,-1.1883 -2.05184,-1.22127 z m 5.04697,0 c -1.18823,0.033 -2.05295,0.35522 -2.05295,1.22126 0,2.71401 8.84921,0.0313 8.84921,0.0313 0,0 -4.18217,-1.32507 -6.79626,-1.25253 z m 233.65256,0 c -2.6141,-0.0725 -6.79737,1.25253 -6.79737,1.25253 0,0 8.84919,2.68274 8.84919,-0.0313 0,-0.86606 -0.8636,-1.1883 -2.05182,-1.22127 z m 5.04584,0 c -1.18823,0.033 -2.05183,0.35522 -2.05183,1.22126 0,2.71399 8.84921,0.0313 8.84921,0.0313 0,0 -4.18329,-1.32507 -6.79738,-1.25253 z m -230.3951,0.2121 c -0.64497,0 -1.16768,0.46169 -1.16768,1.03037 0,0.5687 0.52271,1.02927 1.16768,1.02927 0.64492,0 1.16769,-0.46057 1.16769,-1.02927 0,-0.56868 -0.52277,-1.03037 -1.16769,-1.03037 z m 217.04483,0 c -0.64491,0 -1.16769,0.46169 -1.16769,1.03037 0,0.5687 0.52278,1.02927 1.16769,1.02927 0.64497,0 1.16769,-0.46057 1.16769,-1.02927 0,-0.56868 -0.52272,-1.03037 -1.16769,-1.03037 z m -241.00252,1.39989 c -2.90153,0.0961 -5.78926,1.2064 -8.22964,3.9563 -0.48518,0.54676 -0.69044,1.17299 -0.68878,1.80399 0.003,1.38823 1.00726,2.80281 2.22263,3.46399 5.15007,2.65426 10.31091,-6.18219 3.69842,-4.67968 4.68426,0.118 1.63904,5.66774 -2.89688,3.40705 -1.51518,-0.93362 -3.19601,-2.84288 0.43424,-5.17087 3.14735,-2.01832 7.94545,-2.96789 13.77114,-0.65082 -2.49485,-1.30769 -5.40961,-2.22605 -8.31113,-2.12996 z m 264.96022,0 c -2.90152,-0.0961 -5.81629,0.82227 -8.31113,2.12996 5.82568,-2.31707 10.62489,-1.3675 13.77225,0.65082 3.63025,2.32799 1.94831,4.23725 0.43314,5.17087 -4.53593,2.26069 -7.58005,-3.28905 -2.89579,-3.40705 -6.61248,-1.50251 -1.45277,7.33394 3.69731,4.67968 1.21537,-0.66118 2.2192,-2.07576 2.22263,-3.46399 0.001,-0.631 -0.2036,-1.25723 -0.68878,-1.80399 -2.44038,-2.7499 -5.32811,-3.86023 -8.22963,-3.9563 z m -251.74169,0.0849 c 0,0 -1.30499,1.74951 -1.30499,2.92479 0,0.59457 0.33388,1.04267 1.33961,1.04267 3.05709,0 -0.0345,-3.96746 -0.0345,-3.96746 z m 238.52315,0 c 0,0 -3.0917,3.96746 -0.0345,3.96746 1.00572,0 1.33961,-0.4481 1.33961,-1.04267 0,-1.17528 -1.305,-2.92479 -1.305,-2.92479 z m -124.89907,0.15964 c -0.0373,0.004 -0.0768,0.0255 -0.10942,0.0581 l -0.23554,0.23554 c -0.0653,0.0652 -0.0784,0.15722 -0.029,0.20653 l 0.89083,0.88972 c 0.0493,0.0493 0.14127,0.0373 0.20652,-0.0279 l 0.23555,-0.23554 c 0.0652,-0.0652 0.0784,-0.15834 0.029,-0.20764 l -0.89083,-0.88973 c -0.0247,-0.0247 -0.0598,-0.0343 -0.0971,-0.029 z m 10.54379,0 c -0.0374,-0.004 -0.0725,0.004 -0.0971,0.029 l -0.88972,0.88973 c -0.0493,0.0493 -0.0373,0.14236 0.0279,0.20763 l 0.23555,0.23555 c 0.0652,0.0652 0.15831,0.0772 0.20764,0.0279 l 0.88971,-0.88971 c 0.0493,-0.0493 0.0362,-0.14127 -0.029,-0.20653 l -0.23556,-0.23555 c -0.0326,-0.0326 -0.072,-0.0528 -0.10942,-0.0581 z m -11.12316,0.57937 c -0.0374,0.004 -0.0768,0.0254 -0.10942,0.0581 l -0.23555,0.23555 c -0.0652,0.0652 -0.0784,0.15721 -0.029,0.20652 l 0.89083,0.88972 c 0.0493,0.0493 0.14126,0.0374 0.20653,-0.0279 l 0.23554,-0.23556 c 0.0652,-0.0652 0.0784,-0.15833 0.029,-0.20763 l -0.88972,-0.88973 c -0.0247,-0.0247 -0.0609,-0.0342 -0.0982,-0.029 z m 11.70254,0 c -0.0374,-0.004 -0.0725,0.004 -0.0971,0.029 l -0.88973,0.88973 c -0.0493,0.0493 -0.0373,0.14125 0.0279,0.20652 l 0.23555,0.23667 c 0.0652,0.0653 0.15831,0.0772 0.20764,0.0279 l 0.88972,-0.88972 c 0.0493,-0.0493 0.0362,-0.14126 -0.029,-0.20652 l -0.23554,-0.23554 c -0.0326,-0.0326 -0.072,-0.0529 -0.10942,-0.0581 z m -12.28193,0.57939 c -0.0374,0.004 -0.0768,0.0255 -0.10941,0.0581 l -0.23556,0.23556 c -0.0652,0.0652 -0.0784,0.15721 -0.029,0.20651 l 0.89084,0.88971 c 0.0493,0.0493 0.14127,0.0375 0.20652,-0.0279 l 0.23555,-0.23554 c 0.0652,-0.0652 0.0784,-0.15833 0.029,-0.20764 l -0.89084,-0.88972 c -0.0247,-0.0246 -0.0598,-0.0342 -0.0971,-0.029 z m 12.86132,0 c -0.0373,-0.004 -0.0725,0.004 -0.0971,0.029 l -0.89084,0.88972 c -0.0493,0.0493 -0.0362,0.14238 0.029,0.20764 l 0.23554,0.23555 c 0.0653,0.0652 0.15832,0.0772 0.20765,0.0279 l 0.88972,-0.88973 c 0.0493,-0.0493 0.0362,-0.14127 -0.029,-0.20653 l -0.23555,-0.23554 c -0.0326,-0.0326 -0.0721,-0.0528 -0.10942,-0.0581 z m -13.4407,0.57937 c -0.0374,0.004 -0.0768,0.0254 -0.10942,0.0581 l -0.23555,0.23555 c -0.0652,0.0652 -0.0784,0.15721 -0.029,0.20652 l 0.89084,0.88973 c 0.0493,0.0493 0.14127,0.0373 0.20651,-0.0279 l 0.23556,-0.23665 c 0.0652,-0.0652 0.0784,-0.15722 0.029,-0.20653 l -0.89084,-0.88971 c -0.0247,-0.0247 -0.0598,-0.0342 -0.0971,-0.029 z m 14.02008,0 c -0.0374,-0.004 -0.0725,0.004 -0.0971,0.029 l -0.88971,0.88971 c -0.0493,0.0493 -0.0374,0.14239 0.0279,0.20765 l 0.23555,0.23554 c 0.0652,0.0653 0.15832,0.0772 0.20765,0.0279 l 0.88971,-0.88972 c 0.0493,-0.0493 0.0362,-0.14127 -0.029,-0.20652 l -0.23554,-0.23556 c -0.0326,-0.0326 -0.0721,-0.0528 -0.10942,-0.0581 z m -14.59946,0.57937 c -0.0374,0.004 -0.0768,0.0255 -0.10942,0.0581 l -0.23555,0.23555 c -0.0652,0.0652 -0.0784,0.15722 -0.029,0.20651 l 0.89084,0.88973 c 0.0493,0.0493 0.14126,0.0374 0.20652,-0.0279 l 0.23556,-0.23667 c 0.0652,-0.0652 0.0784,-0.1572 0.029,-0.20652 l -0.89083,-0.88971 c -0.0247,-0.0247 -0.0598,-0.0342 -0.0971,-0.029 z m 15.17883,0 c -0.0374,-0.004 -0.0725,0.004 -0.0971,0.029 l -0.88972,0.88972 c -0.0493,0.0493 -0.0373,0.14126 0.0279,0.20652 l 0.23555,0.23666 c 0.0652,0.0652 0.15832,0.0772 0.20765,0.0279 l 0.88971,-0.88973 c 0.0493,-0.0493 0.0362,-0.14126 -0.029,-0.20651 l -0.23555,-0.23556 c -0.0326,-0.0326 -0.0721,-0.0529 -0.10942,-0.0581 z m -15.7582,0.57938 c -0.0374,0.004 -0.0768,0.0254 -0.10942,0.058 l -0.23554,0.23555 c -0.0652,0.0652 -0.0784,0.15721 -0.029,0.20652 l 0.89085,0.88973 c 0.0493,0.0493 0.14125,0.0374 0.20651,-0.0279 l 0.23555,-0.23666 c 0.0652,-0.0653 0.0783,-0.15722 0.029,-0.20652 l -0.89083,-0.88972 c -0.0247,-0.0246 -0.0598,-0.0331 -0.0971,-0.0279 l 0,-8.4e-4 z m 16.33757,0 c -0.0373,-0.004 -0.0725,0.004 -0.0971,0.029 l -0.89083,0.88972 c -0.0493,0.0493 -0.0362,0.14127 0.029,0.20653 l 0.23554,0.23665 c 0.0652,0.0652 0.15831,0.0772 0.20762,0.0279 l 0.88973,-0.88973 c 0.0493,-0.0493 0.0362,-0.14126 -0.029,-0.20651 l -0.23554,-0.23554 c -0.0326,-0.0326 -0.0721,-0.0528 -0.10942,-0.058 z m -17.28087,0.43538 c -0.17663,0 -0.35363,0.0678 -0.48896,0.20318 -0.27071,0.27068 -0.27071,0.7061 0,0.9768 l 0.8339,0.83389 c 0.27067,0.2707 0.7061,0.2707 0.9768,0 0.2707,-0.2707 0.27066,-0.70722 0,-0.97791 l -0.83391,-0.83278 c -0.13535,-0.13535 -0.3112,-0.20318 -0.48783,-0.20318 z m 18.2253,0 c -0.17663,0 -0.35361,0.0678 -0.48895,0.20318 l -0.83391,0.83278 c -0.27066,0.27069 -0.2707,0.70721 0,0.97791 0.27069,0.2707 0.70721,0.2707 0.97791,0 l 0.83279,-0.83389 c 0.2707,-0.2707 0.2707,-0.70612 0,-0.9768 -0.13534,-0.13538 -0.31121,-0.20318 -0.48784,-0.20318 z m 1.31505,4.97216 c -1.29135,-0.0307 -2.63228,0.29653 -4.18961,0.63297 -2.62815,-0.99791 -4.03554,-0.55917 -6.48369,0.057 -2.03432,-0.69489 -3.46392,-0.88382 -6.04607,-0.0234 -0.43154,0.0451 -0.7973,0.0346 -0.99131,-0.0414 -3.86883,-1.32991 -6.19308,0.44076 -8.85701,2.62229 -2.33397,1.67397 -4.01447,1.66551 -4.80025,-0.0592 -0.32074,-0.70392 -0.28078,-0.96195 0.23778,-1.53497 0.34274,-0.37874 0.93242,-0.64378 1.31058,-0.58942 0.97888,0.14074 1.08726,1.21442 0.1574,1.5584 -0.52484,0.19415 -0.62861,0.35625 -0.3416,0.53361 0.68083,0.42077 1.99441,-0.095 2.24384,-0.88078 0.48494,-1.52793 -2.20252,-2.55697 -3.78438,-1.44901 -0.64559,0.45218 -0.82492,0.44419 -1.72921,-0.0749 -0.78396,-0.44991 -1.22034,-0.50357 -1.96028,-0.24335 -1.21744,0.42815 -1.3165,1.61208 -0.14847,1.7772 0.61922,0.0876 0.75733,-0.009 0.59947,-0.42086 -0.36366,-0.94765 0.68162,-0.58431 1.60975,0.55929 1.13145,1.39171 1.95772,4.26236 6.31735,2.12662 0.46899,-0.21195 0.58714,-0.10482 0.58943,0.52691 10e-4,1.25495 1.19967,2.89077 2.66245,3.63703 1.82228,0.92965 5.10924,0.92308 7.68375,-0.0156 2.88197,-1.05082 2.88239,-1.05104 3.60577,-0.49118 0.66243,0.51268 0.66323,0.52743 0.0257,1.02033 -0.46917,0.36267 -1.11632,0.4469 -2.35323,0.30588 -2.36713,-0.26989 -3.63306,0.25865 -3.49414,1.45793 0.16597,1.43271 1.53254,1.74675 3.6694,0.84395 1.35496,-0.57246 1.83726,-0.64265 2.32645,-0.33713 0.58733,0.3668 0.57752,0.43274 -0.19871,1.35523 -1.12718,1.33959 -1.09743,3.00092 0.0703,3.91946 0.97931,0.77034 2.68874,0.89947 3.51423,0.26568 1.47109,-1.12948 1.54119,-2.73847 0.18419,-4.21974 -0.68965,-0.75279 -0.69398,-0.8009 -0.10381,-1.23244 0.52187,-0.38159 0.82536,-0.3536 2.01722,0.18754 1.73809,0.78915 2.84726,0.81883 3.64596,0.096 1.51482,-1.37089 -0.11888,-2.67342 -2.9382,-2.34207 -2.6738,0.31426 -4.2162,-0.67437 -2.36663,-1.51711 0.65358,-0.29778 1.21636,-0.20212 2.9996,0.5113 2.50316,1.00142 5.90438,1.18605 7.73843,0.41973 1.51226,-0.63186 2.91476,-2.38305 2.91476,-3.63814 0,-0.84665 0.10045,-0.9749 0.58943,-0.75576 0.32362,0.14505 1.36609,0.62979 2.23491,0.70665 1.84514,0.16324 2.44071,-0.51158 3.89935,-2.52516 0.97491,-1.3458 2.31173,-1.9758 1.89667,-0.89418 -0.13229,0.34469 0.0193,0.50346 0.4789,0.50346 0.83742,0 1.20156,-0.85081 0.64859,-1.5171 -0.54121,-0.65213 -1.82892,-0.63703 -2.85224,0.0335 -0.7436,0.48724 -0.88063,0.48724 -1.57627,0 -1.39249,-0.97535 -3.63813,-0.34495 -3.63813,1.02147 0,0.88678 1.1172,1.63099 1.96028,1.30609 0.51889,-0.19993 0.5163,-0.2421 -0.0268,-0.547 -1.32246,-0.74242 -0.2748,-2.03774 1.06722,-1.31951 1.30069,0.69611 0.6784,2.52797 -1.06945,3.14807 -0.88693,0.31467 -2.22367,-0.3191 -3.86364,-1.83078 -1.84779,-1.96291 -3.42573,-2.59392 -5.08604,-2.63345 z m -0.58162,0.99465 c 3.64443,0 5.94413,3.63993 3.65042,5.77928 -0.50855,0.47432 -1.25606,1.03273 -1.65999,1.24026 -1.74687,0.89746 -7.50289,-0.0859 -7.50289,-1.28157 0,-0.56382 1.55685,-0.78469 2.38896,-0.33937 0.42369,0.22676 1.58962,0.42427 2.59101,0.43873 1.5192,0.022 1.92548,-0.10426 2.45482,-0.75799 0.87028,-1.07472 0.79577,-1.87803 -0.25117,-2.70154 -1.19049,-0.93641 -2.5575,-0.87704 -4.69085,0.20318 -1.48734,0.7531 -1.86269,0.82871 -2.303,0.46328 -0.28936,-0.24015 -0.52579,-0.54718 -0.52579,-0.68209 0,-0.49389 4.62559,-2.36217 5.84848,-2.36217 z m -6.07399,0.0123 c 0.51655,0.0101 0.89754,0.0959 0.89754,0.25118 0,0.14505 -0.41581,0.50454 -0.92433,0.79929 -0.69887,0.40507 -1.10938,0.45183 -1.6812,0.18978 -0.41608,-0.19068 -0.75576,-0.45768 -0.75576,-0.59278 0,-0.1351 0.33968,-0.33615 0.75576,-0.44765 0.53962,-0.14463 1.19147,-0.21008 1.70799,-0.19982 z m -7.2227,8.4e-4 c 0.6833,0.0216 1.43987,0.13791 1.73257,0.33377 0.43652,0.2921 0.41644,0.40514 -0.14848,0.83613 -0.35896,0.27388 -0.73727,0.4835 -0.8406,0.46664 -0.44035,-0.0721 -2.0362,-1.16698 -2.0362,-1.39766 -4.6e-4,-0.18662 0.60943,-0.26049 1.29271,-0.23888 z m -6.51157,0.0123 c 1.10521,-0.0246 2.29541,0.31392 3.75981,1.03484 2.5199,1.24055 2.72541,1.46652 1.78614,1.96922 -0.56695,0.30343 -1.02741,0.2118 -2.42915,-0.48672 -1.97734,-0.98535 -2.91575,-1.06746 -4.26329,-0.37062 -1.18055,0.61049 -1.46071,1.2917 -0.97344,2.36105 0.61905,1.35869 2.30397,1.70613 4.88285,1.00804 1.92024,-0.51977 2.23207,-0.52975 2.67252,-0.0894 0.44042,0.44044 0.30189,0.58235 -1.18333,1.22128 -1.91947,0.82572 -4.70801,0.9374 -6.26264,0.25117 -3.21511,-1.41918 -3.17419,-5.09274 0.0725,-6.46693 0.64177,-0.27163 1.27484,-0.41732 1.93795,-0.43203 z m 9.88515,1.36193 c 0.20665,0.004 0.45642,0.16659 0.87856,0.48561 0.57543,0.43484 0.59979,0.55235 0.16857,0.82497 -1.17555,0.74316 -2.45253,0.0815 -1.66781,-0.86405 0.25035,-0.30165 0.41402,-0.45187 0.62068,-0.44653 z m -9.4509,1.32509 c 0.57526,0.0132 1.27627,0.24795 2.0094,0.70105 l 1.17104,0.7234 -0.79596,0.44095 c -1.85975,1.03116 -4.39384,0.16872 -3.64036,-1.23914 0.23068,-0.43102 0.68062,-0.63944 1.25588,-0.62626 z m 19.21215,0.0268 c 1.09336,0.16074 1.64049,1.07418 1.06163,1.77162 -0.24304,0.2929 -0.91529,0.52157 -1.49365,0.50905 -1.09951,-0.0238 -2.56423,-0.58638 -2.56423,-0.9846 0,-0.45584 2.20978,-1.4117 2.99625,-1.29607 z m -6.82752,0.57268 c 0.76615,0.0413 1.30694,0.6215 0.81381,1.21569 -0.54753,0.65973 -0.77954,0.64848 -1.6879,-0.0871 l -0.74347,-0.60282 0.80598,-0.36728 c 0.27566,-0.12559 0.55619,-0.17226 0.81158,-0.15851 z m -5.48233,0.10269 c 0.30258,0.0112 0.62015,0.0954 0.90536,0.27573 0.43121,0.27262 0.408,0.389 -0.16746,0.82385 -0.81793,0.6181 -1.25479,0.65083 -1.77274,0.13285 -0.64489,-0.64488 0.12714,-1.26606 1.03484,-1.23243 z m 2.75178,1.51486 c 0.22789,0.006 0.43951,0.14333 0.80152,0.4164 l 0.77921,0.58719 -0.82052,0.53696 c -0.75509,0.49476 -0.88894,0.49231 -1.70242,-0.0414 l -0.883,-0.57938 0.92321,-0.54588 c 0.42907,-0.25347 0.67409,-0.37962 0.902,-0.37397 z m -0.163,3.49749 c 0.0925,0 0.46946,0.228 0.83838,0.5068 0.57543,0.43485 0.59979,0.55124 0.16857,0.82386 -0.27649,0.17479 -0.72957,0.31816 -1.00695,0.31816 -0.27738,0 -0.73044,-0.14337 -1.00693,-0.31816 -0.43122,-0.27262 -0.40799,-0.38901 0.16745,-0.82386 0.36895,-0.2788 0.74701,-0.5068 0.83948,-0.5068 z m -5.3104,0.67984 c 0.11891,-0.004 0.23996,-0.003 0.35945,0.007 0.31866,0.0271 0.62885,0.11155 0.87744,0.26903 0.37354,0.23656 0.32809,0.36891 -0.22996,0.66758 -0.89285,0.47757 -1.98042,0.47747 -2.27621,-8.4e-4 -0.31145,-0.50391 0.43682,-0.90437 1.26928,-0.94218 z m 10.70678,0.0346 c 0.60781,0.0101 1.18577,0.2695 1.26592,0.69213 0.0851,0.44866 -0.11452,0.58785 -0.83837,0.58385 -0.52209,-0.002 -1.17608,-0.15393 -1.45346,-0.33603 -0.44831,-0.29428 -0.44831,-0.36933 0,-0.67092 0.28536,-0.19196 0.66122,-0.27524 1.02591,-0.26903 z m -5.41758,2.7473 c 0.0732,-0.006 0.14696,-0.004 0.22104,0.002 0.27343,0.0275 0.54948,0.1464 0.80711,0.37955 0.74836,0.67727 0.89269,2.16945 0.27015,2.79196 -0.66462,0.66464 -2.21716,0.48795 -2.63903,-0.3003 -0.70129,-1.31037 0.24355,-2.79147 1.34073,-2.87345 z"
       style="fill:#000000" />
  </g>
</svg>
