<?xml version="1.0" encoding="UTF-8" standalone="no"?>
<!-- Created with Inkscape (http://www.inkscape.org/) -->

<svg
   xmlns:dc="http://purl.org/dc/elements/1.1/"
   xmlns:cc="http://creativecommons.org/ns#"
   xmlns:rdf="http://www.w3.org/1999/02/22-rdf-syntax-ns#"
   xmlns:svg="http://www.w3.org/2000/svg"
   xmlns="http://www.w3.org/2000/svg"
   xmlns:sodipodi="http://sodipodi.sourceforge.net/DTD/sodipodi-0.dtd"
   xmlns:inkscape="http://www.inkscape.org/namespaces/inkscape"
   width="116.09099"
   height="220"
   id="svg2"
   version="1.1"
   inkscape:version="0.91 r13725"
   sodipodi:docname="war1gus.svg"
   inkscape:export-filename="/home/mimooh/wargus.png"
   inkscape:export-xdpi="90"
   inkscape:export-ydpi="90">
  <defs
     id="defs4">
    <filter
       style="color-interpolation-filters:sRGB"
       height="1.3709364"
       y="-0.1854682"
       width="1.1773851"
       x="-0.088692531"
       id="filter4519-3"
       inkscape:collect="always">
      <feGaussianBlur
         id="feGaussianBlur4521-8"
         stdDeviation="0.75660286"
         inkscape:collect="always" />
    </filter>
  </defs>
  <sodipodi:namedview
     id="base"
     pagecolor="#ffffff"
     bordercolor="#666666"
     borderopacity="1.0"
     inkscape:pageopacity="0.0"
     inkscape:pageshadow="2"
     inkscape:zoom="2.0000001"
     inkscape:cx="9.3215912"
     inkscape:cy="171.69599"
     inkscape:document-units="px"
     inkscape:current-layer="layer1"
     showgrid="false"
     inkscape:window-width="934"
     inkscape:window-height="975"
     inkscape:window-x="180"
     inkscape:window-y="0"
     inkscape:window-maximized="0"
     fit-margin-top="0"
     fit-margin-left="0"
     fit-margin-right="0"
     fit-margin-bottom="0"
     showguides="true"
     inkscape:guide-bbox="true"
     inkscape:snap-bbox="false"
     inkscape:snap-global="false" />
  <metadata
     id="metadata7">
    <rdf:RDF>
      <cc:Work
         rdf:about="">
        <dc:format>image/svg+xml</dc:format>
        <dc:type
           rdf:resource="http://purl.org/dc/dcmitype/StillImage" />
        <dc:title />
      </cc:Work>
    </rdf:RDF>
  </metadata>
  <g
     inkscape:label="Layer 1"
     inkscape:groupmode="layer"
     id="layer1"
     transform="translate(1939.7336,-583.06335)">
    <g
       transform="translate(-0.95991383,-1.4142184)"
       id="layer1-8"
       inkscape:label="Layer 1">
      <g
         id="g3379"
         transform="matrix(0.90626031,0,0,0.90626031,-746.77468,91.512928)">
        <g
           id="g3622">
          <path
             style="fill:#555753"
             d="m 259.13477,194.10352 c -1.49403,0 -5.28522,4.15417 -7.44727,8.16015 -1.64043,3.04015 -1.84872,3.72656 -1.59961,5.2793 0.15748,0.98161 0.38331,6.03156 0.50195,11.2207 0.11827,5.18916 0.25685,10.49574 0.30664,11.79297 l 0.0918,2.35742 5.3086,5.03906 c 2.91921,2.77152 5.45425,5.03907 5.63476,5.03907 0.18014,0 0.83619,-0.83423 1.45703,-1.85547 1.87199,-3.0791 1.87005,-3.07928 6.19727,-0.47656 3.80261,2.28734 3.89706,2.31563 4.7207,1.52148 0.46199,-0.44552 1.558,-2.04572 2.43555,-3.55859 1.87572,-3.23329 3.03512,-4.34969 5.2207,-5.02344 l 1.60352,-0.49609 0.31445,-5.88282 c 0.64263,-12.03031 0.93113,-15.06745 1.48437,-15.59961 0.30588,-0.29416 0.55665,-0.84579 0.55665,-1.22461 0,-0.63296 -7.5193,-7.2871 -8.23438,-7.2871 -0.29119,0 -4.66797,4.31263 -4.66797,4.5996 0,0.0711 0.65201,0.68994 1.44727,1.375 l 1.44531,1.2461 0,11.6289 c 0,9.87255 -0.10165,11.69093 -0.66797,12.03321 -0.79812,0.48235 -2.13484,0.15378 -3.2793,-0.80664 -0.7838,-0.65813 -0.8212,-1.33334 -0.625,-11.33399 0.14155,-7.22405 0.37138,-10.79026 0.72071,-11.12695 0.28259,-0.27256 0.51562,-0.7043 0.51562,-0.95899 0,-0.79993 -6.69668,-7.08593 -7.54883,-7.08593 -0.91514,0 -3.18324,2.31797 -4.29296,4.38672 -0.69367,1.29307 -0.6901,1.39731 0.0645,1.8164 2.50615,1.39328 2.43555,0.99307 2.43555,13.74024 0,9.33345 -0.11937,11.79297 -0.57227,11.79297 -0.31509,0 -1.25408,-0.54736 -2.08594,-1.2168 -1.51096,-1.21608 -1.51164,-1.22158 -1.84179,-6.11133 -0.18176,-2.69174 -0.34415,-8.31076 -0.36133,-12.48633 l -0.0312,-7.59179 -1.78125,-1.37891 c -0.97876,-0.75821 -1.7793,-1.74156 -1.7793,-2.18555 0,-1.1359 1.14667,-3.15301 3.40234,-5.98633 2.18895,-2.75005 2.3598,-3.35546 0.95118,-3.35546 z m 69.94726,10.35351 c -0.62707,2.34612 -1.51134,4.31616 -2.65234,5.91016 -1.14094,1.59398 -2.75445,2.95513 -4.83985,4.08398 l 0.10547,8.53125 c 1.41414,-0.72405 4.94059,-4.35303 5.93399,-5.64139 l -0.12808,19.73792 -2.13407,3.92965 c 0,0 2.76822,6.14526 5.66144,6.28404 l 3.68724,-6.77905 -1.80401,-3.81461 -0.32582,-21.67837 1.71158,-1.66926 -1.12822,-8.86502 z m -34.20703,9.33985 c -0.53743,-0.0407 -1.00874,0.20851 -1.63867,0.65624 -1.24218,0.8833 -4.86531,5.15746 -5.6836,6.70313 -0.7904,1.49372 -0.6069,1.97236 0.99805,2.58008 1.57483,0.59636 1.46956,1.04552 -0.34766,1.47461 -1.70541,0.40272 -1.87896,0.9655 -0.62695,2.04101 1.19986,1.03051 1.24487,1.25261 1.35156,6.67774 l 0.0879,4.48047 2.20313,2.14062 c 1.21093,1.17633 2.39303,2.13867 2.62695,2.13867 0.23417,0 1.09994,-0.54903 1.92383,-1.21875 0.82389,-0.66969 1.65399,-1.21875 1.8457,-1.21875 0.19185,0 0.65737,0.48041 1.03321,1.06641 0.37559,0.586 0.87221,1.06445 1.10351,1.06445 0.43859,0 3.06339,-3.02606 4.22266,-4.86914 0.79874,-1.26979 0.8652,-2.13086 0.16406,-2.13086 -0.39974,0 -0.47121,-0.21273 -0.33203,-0.99023 0.26604,-1.4852 0.35628,-13.37551 0.10742,-14.09375 -0.11951,-0.34334 -0.72819,-0.80344 -1.35351,-1.02149 -0.62545,-0.21799 -2.15177,-1.31647 -3.39258,-2.4414 -2.31394,-2.09763 -3.3953,-2.9711 -4.29102,-3.03906 z m 74.43164,0.25781 -1.67578,1.59765 c -1.82344,1.73623 -2.01011,2.29664 -1.04492,3.13868 0.60229,0.52541 0.63086,0.9375 0.63086,8.88476 0,7.17093 -0.0675,8.35906 -0.48047,8.51172 -0.65184,0.24119 -2.31648,-0.45863 -2.68945,-1.13086 -0.17019,-0.30647 -0.30074,-3.67046 -0.29688,-7.64648 0,-6.41267 0.0665,-7.22489 0.63086,-8.42383 0.34347,-0.72986 0.625,-1.5157 0.625,-1.7461 0,-0.23043 -0.81186,-1.0321 -1.80469,-1.7832 l -1.80664,-1.36719 -0.71484,0.64844 c -0.3939,0.35672 -1.25217,1.65108 -1.90625,2.87695 -1.03752,1.94442 -1.13676,2.31037 -0.78321,2.85743 0.22297,0.34489 0.33553,0.73578 0.25,0.86914 -0.0859,0.13333 -0.17556,3.65524 -0.19921,7.82617 l -0.043,7.58398 3.26757,2.95703 c 1.79667,1.62667 3.42889,2.96265 3.62696,2.96875 0.19844,0 0.44846,-0.33066 0.55664,-0.74609 0.24562,-0.94326 2.04551,-2.95495 2.43555,-2.72266 0.15885,0.0952 0.61775,0.79862 1.02148,1.56446 l 0.73633,1.39258 0.79492,-1.03321 c 0.43821,-0.56797 1.33274,-1.96647 1.98633,-3.10937 1.03515,-1.80946 1.13966,-2.16785 0.80664,-2.76758 -0.41107,-0.74018 -0.31768,-14.36203 0.10547,-15.55078 0.16607,-0.4658 -0.282,-1.20075 -1.90625,-3.12891 z m -57.7168,0.3125 c -0.29854,0.0376 -1.12023,1.02941 -2.67578,3.21484 -1.65811,2.32921 -1.81436,2.66761 -1.33594,2.92578 0.48428,0.26127 0.54297,0.96355 0.54297,6.66016 0,4.91468 -0.11177,6.67918 -0.48437,7.73828 -0.54416,1.545 -0.48678,1.67264 2.61133,5.87891 0.77073,1.04639 1.58608,1.90429 1.81054,1.90429 0.22397,0 0.58871,-0.44603 0.81055,-0.99023 0.22234,-0.54408 0.83485,-1.43374 1.36133,-1.97656 l 0.95703,-0.98633 -0.69141,-1.18555 c -0.64872,-1.11268 -0.68824,-1.54684 -0.65625,-7.08008 0.0187,-3.24216 0.12441,-6.7161 0.23633,-7.7207 l 0.20313,-1.82812 0.94726,1.31445 c 2.05786,2.85499 1.75481,2.77497 3.25196,0.86328 0.73014,-0.93195 1.32617,-1.85516 1.32617,-2.05078 0,-0.47284 -3.20569,-6.36719 -3.46289,-6.36719 -0.1108,0 -0.37152,0.45947 -0.58203,1.02148 -0.47307,1.2606 -1.45558,2.15695 -2.10157,1.91797 -0.26653,-0.0986 -0.79995,-0.83405 -1.1875,-1.63476 -0.38767,-0.80075 -0.74037,-1.51045 -0.7832,-1.57617 -0.0208,-0.0328 -0.0532,-0.0472 -0.0957,-0.043 z m 36.76758,0.01 c -0.21201,-3.8e-4 -0.69368,0.40293 -1.07226,0.89649 -0.37834,0.49357 -2.4513,2.29822 -4.60352,4.00976 -3.0086,2.39272 -3.85345,3.22395 -3.66211,3.59375 0.39663,0.76482 0.47172,10.89026 0.0996,13.20899 -0.38978,2.42159 -0.24601,2.73091 1.51953,3.27539 0.63753,0.19647 2.21509,0.9698 3.50781,1.71875 2.60301,1.5078 2.19614,1.56365 3.81055,-0.52344 l 0.58789,-0.76172 0.51172,1.16992 c 0.65383,1.49792 1.24054,4.30281 1.01758,4.86328 -0.0959,0.23787 -0.54357,0.50069 -0.9961,0.58399 -0.68707,0.12704 -1.08749,-0.12833 -2.43164,-1.55664 -2.21073,-2.34858 -3.51484,-3.07635 -5.52539,-3.07813 -1.72334,0 -2.00781,0.23713 -2.00781,1.69336 0,1.09262 1.13373,3.76482 1.95899,4.61524 l 0.72461,0.74609 0.1582,-1.00976 c 0.11453,-0.73828 0.37425,-1.08566 0.96484,-1.28516 0.71347,-0.24119 1.01024,-0.0877 2.52344,1.31055 1.49776,1.38446 1.8337,1.56055 2.66406,1.40039 1.37651,-0.26546 2.97166,-1.60661 4.50391,-3.78907 2.03532,-2.89849 2.42189,-4.56103 2.16992,-9.31445 -0.63989,-12.05411 -0.64067,-12.30047 -0.0859,-12.50586 0.93344,-0.3452 0.5621,-1.06913 -1.78906,-3.47851 -1.27156,-1.30306 -2.72973,-3.13783 -3.23828,-4.07618 -0.50868,-0.93834 -1.09866,-1.70657 -1.31055,-1.70703 z m 34.44141,0.0449 c -0.26754,-0.0477 -0.44284,0.13535 -0.57617,0.54101 -0.27874,0.84643 -2.48884,2.95649 -4.17969,3.99023 l -1.45703,0.89063 -0.10352,4.19141 c -0.0585,2.3057 -0.14172,4.72339 -0.18554,5.37304 -0.0797,1.17352 -0.069,1.18429 1.43945,1.55664 0.83559,0.20614 1.65544,0.50718 1.82226,0.66797 0.19359,0.18668 -0.38323,1.6367 -1.59765,4.01563 -1.83539,3.59512 -1.88434,3.75367 -1.42969,4.60156 0.6369,1.18724 0.93729,1.31436 1.96484,0.83594 1.25924,-0.58625 2.03757,-0.35687 3.41993,1.00781 0.66989,0.66156 1.30804,1.20313 1.41796,1.20313 0.10956,0 0.75582,-0.66574 1.43555,-1.48047 0.67973,-0.81461 2.00136,-2.01382 2.93555,-2.66407 0.93406,-0.65041 1.86744,-1.45623 2.07422,-1.79101 0.23691,-0.38381 0.40382,-2.35328 0.45312,-5.32813 0.0436,-2.59508 0.21059,-4.84877 0.37305,-5.00781 0.16209,-0.15905 0.29492,-0.60513 0.29492,-0.99023 0,-0.63354 -0.14539,-0.69922 -1.51953,-0.69922 -2.65977,0 -2.75599,-0.32001 -1.11133,-3.61524 1.54582,-3.09756 1.61784,-4.03257 0.42969,-5.51758 -0.58798,-0.73498 -0.62468,-0.74157 -1.04883,-0.18554 -0.62532,0.82061 -2.57753,0.42544 -3.71875,-0.75196 -0.50282,-0.519 -0.86345,-0.7961 -1.13086,-0.84374 z m -90.08985,4.3496 c 0.16931,-4.7e-4 0.35001,0.015 0.54297,0.0469 1.36294,0.22717 3.5,1.49273 3.5,2.07226 0,0.22917 -0.78626,0.77471 -1.74609,1.2129 -2.71044,1.23715 -3.47105,1.00779 -3.83594,-1.16016 -0.23018,-1.36788 0.35402,-2.16656 1.53906,-2.17188 z m 90.07032,1.39063 c 0.18138,0 0.87461,0.2303 1.54101,0.51367 1.50362,0.63957 1.53136,1.1297 0.19531,3.47266 -1.10324,1.9345 -1.57963,2.29723 -2.14843,1.63672 -0.459,-0.5331 -0.0865,-5.62305 0.41211,-5.62305 z m -36.65821,0.18945 c 0.23953,0.0239 0.54353,0.25501 0.93555,0.61719 0.49535,0.45743 1.04134,1.32046 1.21289,1.91602 0.17168,0.5955 0.31333,3.99284 0.31445,7.55078 0,5.96323 -0.0422,6.46834 -0.55078,6.45703 -0.30401,0 -0.91451,-0.2023 -1.35547,-0.4336 -1.55353,-0.81485 -1.65543,-1.39066 -1.51562,-8.6289 0.1108,-5.75269 0.24029,-7.54998 0.95898,-7.47852 z m -48.42382,3.76758 c 0.20416,0 0.31873,2.11266 0.31835,5.85938 0,5.30486 -0.0586,5.95396 -0.62695,6.8496 -0.75579,1.19461 -1.23014,1.23683 -2.23828,0.20313 -0.71844,-0.73689 -0.773,-1.03707 -0.87695,-4.89648 -0.0585,-2.26184 -0.0183,-4.70576 0.0937,-5.42969 0.18499,-1.18959 0.33997,-1.37685 1.60742,-1.95117 0.77135,-0.34949 1.54687,-0.63477 1.72266,-0.63477 z m 86.43359,5.93555 c 0.54988,0 0.62108,0.26464 0.70312,2.66211 0.0523,1.49587 -0.0576,2.92807 -0.24804,3.27148 -0.26654,0.48022 -0.65973,0.61097 -1.83008,0.60742 -2.47901,-0.0129 -2.50853,-0.14469 -0.77734,-3.52734 1.1579,-2.26297 1.69421,-3.01367 2.15234,-3.01367 z"
             transform="matrix(0.80326395,0,0,0.80326395,-1508.8738,541.0346)"
             id="path3381"
             inkscape:connector-curvature="0"
             sodipodi:nodetypes="ccsccccsccccccccsssccsccccssccsscssccscscccccccccccccccccccccccscscscscccccccccsccccsccccccscccsccccccccccccscsscccccccccssccccccccccccccccccccscccccccccsccccccccccccccscccccssccccccccccccscccsccccccccsccccccsscccsscccs" />
          <g
             id="g3383"
             transform="matrix(1.6281124,0,0,1.6281124,-1471.902,663.02363)">
            <path
               style="fill:#888a85;stroke:none"
               d="m -1218.7578,674.12695 -27.3008,0.60157 c -4.8012,6.61837 -34.1946,2.38157 -20.5156,53.97851 2.6044,9.82391 -4.9572,8.86237 -6.5,17.46485 -0.2665,1.48573 -4.3295,2.60654 -6.9453,0.14453 -0.9874,2.8531 -0.9557,6.78562 2.0547,9.13476 l 5.8398,-4.95312 c 4.9664,0.52923 -0.5234,6.93164 -0.5234,6.93164 l 78.7734,0.375 c 2.0599,-31.85128 -16.232,-53.96273 -24.8828,-83.67774 z"
               transform="matrix(0.62995741,0,0,0.62995741,906.64029,-453.22758)"
               id="path3385"
               inkscape:connector-curvature="0"
               sodipodi:nodetypes="ccsccccccc" />
            <path
               sodipodi:nodetypes="cccccccccccccc"
               inkscape:connector-curvature="0"
               id="path3387"
               d="m 118.28865,-18.87524 c -2.20946,0.743914 -7.77056,2.964058 -8.93475,4.840399 -1.63393,7.5450694 2.53176,15.5893537 1.88081,23.615974 -0.26759,1.905482 -1.61202,3.350276 -2.81159,4.74805 1.08405,-0.54479 2.35003,-1.727154 3.46673,-2.566061 1.43742,-1.096346 2.0703,-3.04556 1.47017,-4.766121 -0.27725,-1.824253 1.32125,-3.208746 2.42597,-4.434667 2.74122,-2.61081102 5.85022,-4.872099 9.24712,-6.553 -2.32398,-4.400019 -3.24906,-9.414142 -5.68823,-13.763595 -0.28049,-0.424888 -0.55739,-0.925888 -1.05623,-1.120979 z m -11.12566,32.35913 c -0.92197,2.344738 -2.76175,4.460556 -5.23102,5.291787 -1.58046,0.278705 0.0845,2.895238 1.28914,1.607863 2.53949,-1.242314 3.69808,-4.283196 3.94188,-6.89965 z"
               style="opacity:0.2;fill:#000000;stroke:none" />
            <path
               sodipodi:nodetypes="ccsscscccc"
               inkscape:connector-curvature="0"
               id="path3389"
               d="m 139.06169,-28.556182 -17.19727,0.3789 c -3.02453,4.16929 -20.79099,1.18754 -12.17383,33.691409 1.64067,6.188643 -3.78002,6.457757 -4.75195,11.001953 -0.10094,0.471958 1.28752,-1.715902 1.39453,-2.3125 1.65943,-3.387946 5.84438,-1.90706 4.20371,-8.095703 -8.61716,-32.503869 9.01004,-30.115869 12.03457,-34.285159 l 16.49414,-0.36328 c -0.002,-0.0052 -0.002,-0.01043 -0.004,-0.01562 z"
               style="opacity:0.4;fill:#ffffff;stroke:none" />
          </g>
          <g
             id="g3391"
             transform="matrix(1.578365,0,0,1.578365,-1363.9614,185.14911)">
            <path
               sodipodi:nodetypes="cccccccccccccc"
               inkscape:connector-curvature="0"
               id="path3393"
               transform="matrix(1.0315183,0,0,1.0315183,78.965533,389.26043)"
               d="m 16.09375,-96.929688 c -0.370027,-0.0126 -0.911539,0.110254 -0.996094,0.470704 l -8.2089841,33.445312 c -0.054192,0.230253 2.0984294,2.404619 3.0097656,3.31836 l 5.2128905,0 0.748808,-3.153352 -0.417033,-1.757069 0.956759,-0.9315 0.788403,-3.574439 -1.256207,-1.300017 1.501268,-0.654872 5.189721,-24.706877 c 0.112872,-0.476928 -0.238694,-0.936595 -0.728516,-0.953124 z"
               style="color:#000000;display:inline;overflow:visible;visibility:visible;fill:#2d3c50;fill-opacity:1;fill-rule:nonzero;stroke:none;enable-background:accumulate" />
            <path
               sodipodi:nodetypes="cccccccccccc"
               inkscape:connector-curvature="0"
               id="path3395"
               transform="matrix(1.0315183,0,0,1.0315183,78.965533,389.26043)"
               d="m 16.880859,-96.154297 -8.3144528,35.091797 1.3339844,1.367188 3.5937504,0 0.907722,-3.801304 -0.459219,-1.41809 0.972473,-1.114723 0.659561,-2.94005 -1.321728,-1.840723 1.886105,-1.011564 L 21.4375,-95.0625 Z"
               style="color:#000000;display:inline;overflow:visible;visibility:visible;fill:#618599;fill-opacity:1;fill-rule:nonzero;stroke:none;enable-background:accumulate" />
            <path
               style="color:#000000;display:inline;overflow:visible;visibility:visible;fill:#2d3c50;fill-opacity:1;fill-rule:nonzero;stroke:none;enable-background:accumulate"
               d="m 101.74023,272.35547 c -2.086545,-4.5e-4 -3.795372,1.70837 -3.794918,3.79492 5.09e-4,1.14321 0.603854,2.13296 1.46875,2.8457 l -2.535307,8.04875 c -2.550347,-0.38628 -4.791544,-0.75846 -7.30462,-1.12697 -0.324591,-0.0481 -0.645056,0.10979 -0.804687,0.39648 l -2.552836,4.85572 c -0.282865,0.5105 0.06749,1.14073 0.650391,1.16993 l 8.009833,0.42967 c -0.399954,2.06177 -1.978379,15.12516 -0.953261,17.11022 1.883076,-0.80574 6.057863,-14.85717 6.698935,-16.24265 l 1.05668,0.40784 0.23686,0.0914 6.41217,2.24642 c 0.56583,0.20796 1.14631,-0.27002 1.05078,-0.86524 l -0.49212,-5.22085 c -0.0488,-0.30223 -0.26807,-0.54893 -0.5625,-0.63281 0,0 -4.04252,-1.31194 -6.66797,-1.88287 l 1.44518,-8.15227 c 1.42908,-0.56221 2.43089,-1.90587 2.4336,-3.47657 l 0,-0.002 c 4.5e-4,-2.08655 -1.70838,-3.79537 -3.79493,-3.79492 z"
               id="path3397"
               inkscape:connector-curvature="0"
               sodipodi:nodetypes="ccccccccccccccccccccccc" />
            <path
               sodipodi:nodetypes="ccccccccccccccc"
               inkscape:connector-curvature="0"
               id="path3399"
               d="m 101.73962,273.14499 c -1.66024,-3.6e-4 -3.006226,1.34562 -3.005864,3.00586 4.84e-4,1.08897 0.590036,2.09248 1.541014,2.62305 l -2.212889,9.4746 c -2.788413,-0.44065 -5.511674,-0.75794 -8.28125,-1.16406 l -2.164481,3.88871 8.512138,0.72262 c -1.04795,4.89757 -2.341591,18.35266 -2.10253,17.69923 0.0636,0.67326 5.687192,-15.47845 6.077832,-17.17947 l 8.23916,2.91054 -0.75084,-4.64002 c 0,0 -5.00948,-1.52774 -7.39526,-1.96543 l 2.954,-9.94936 c 1.35915,-0.31621 1.59243,-1.02496 1.59483,-2.42041 3.6e-4,-1.66024 -1.34562,-3.00622 -3.00586,-3.00586 z"
               style="color:#000000;display:inline;overflow:visible;visibility:visible;fill:#425b68;fill-opacity:1;fill-rule:nonzero;stroke:none;enable-background:accumulate" />
          </g>
          <path
             style="fill:#ffffff;fill-rule:evenodd;stroke:none"
             d="m -1213.8431,646.35689 -12.7127,52.56004 1.8484,1.97058 c 1.5955,-7.05274 8.3439,-29.04859 8.3439,-29.04859 1.1234,-17.10407 2.5204,-25.48203 2.5204,-25.48203 z"
             id="path3401"
             inkscape:connector-curvature="0"
             sodipodi:nodetypes="ccccc" />
          <path
             sodipodi:nodetypes="ccccccccccccccccccccccccc"
             style="color:#000000;display:inline;overflow:visible;visibility:visible;opacity:0.4;fill:#ffffff;fill-opacity:1;fill-rule:nonzero;stroke:none;enable-background:accumulate"
             d="m -1207.0398,632.98315 c -0.6838,0.0116 -1.1242,0.16734 -1.1684,0.41309 -0.075,0.3981 0.8957,0.91058 2.1672,1.1437 1.2708,0.23349 2.3604,0.0995 2.4323,-0.29904 0.075,-0.39809 -0.8957,-0.91058 -2.1672,-1.14369 -0.4406,-0.081 -0.8794,-0.12061 -1.2639,-0.11412 z m -0.8355,3.07041 c -0.6837,0.0116 -1.1241,0.16734 -1.1683,0.41309 -0.07,0.39783 0.8996,0.90813 2.1672,1.14062 1.269,0.23263 2.3564,0.0988 2.4291,-0.29903 0.07,-0.39783 -0.8996,-0.90812 -2.1671,-1.14061 -0.4394,-0.0808 -0.877,-0.12037 -1.2609,-0.11411 z m -13.934,1.84966 -0.3946,1.18377 28.312,4.7351 c -3.8705,-1.568 -7.8405,-2.57462 -11.8501,-3.35403 0.3934,-0.0627 0.63,-0.19308 0.6659,-0.36686 0.076,-0.39776 -0.8932,-0.91014 -2.1641,-1.14368 -0.4406,-0.081 -0.8794,-0.12061 -1.264,-0.11412 -0.6837,0.0116 -1.1241,0.16734 -1.1683,0.41309 -0.031,0.18456 0.1646,0.40295 0.5456,0.61039 -4.2196,-0.70018 -8.4653,-1.24929 -12.6824,-1.96371 z"
             id="path3403"
             inkscape:connector-curvature="0" />
          <path
             sodipodi:nodetypes="scccccccccs"
             inkscape:connector-curvature="0"
             id="path3405"
             d="m -1200.0965,608.30946 c -4.4305,0.1616 -9.1185,1.18158 -9.1185,1.18158 l -18.9639,-0.51345 c -3.2262,11.75137 1.6794,17.57612 5.453,27.40692 0.3613,-0.43507 9.1322,-8.99916 12.1589,-12.18433 0,0 1.7444,5.36896 2.5193,5.95019 1.2593,0.64578 5.3334,2.3911 8.6966,-0.94082 l 0.628,-1.17877 9.3993,-3.19937 c 1.3274,-7.64011 -4.1426,-15.48307 -4.1426,-15.48307 -1.4065,-0.92375 -3.9716,-1.13582 -6.6301,-1.03888 z"
             style="color:#000000;display:inline;overflow:visible;visibility:visible;fill:#2d3c50;fill-opacity:1;fill-rule:nonzero;stroke:none;enable-background:accumulate" />
          <path
             sodipodi:nodetypes="csccccccccccccccscccccccccccccccc"
             id="path3407"
             d="m -1251.7965,610.53683 c -1.8522,0.0329 -3.843,0.59781 -6.1118,0.59781 -4.3658,0 -8.4199,2.32428 -11.772,6.28033 -5.1767,-0.4115 -9.8283,-2.28324 -13.5366,-0.69624 -19.1988,6.37751 -24.6261,19.43457 -25.8084,26.99816 7.0287,-0.47912 10.6287,-1.2785 19.341,-2.53711 l 10.7606,-5.75043 c 2.8297,13.01773 -1.5245,33.55747 -3.5589,42.77272 -1.2016,2.6346 -2.2153,4.24682 -1.7267,5.2691 1.8528,2.15674 4.5397,1.25842 8.1279,1.32602 -0.8368,2.84999 -1.4023,6.18084 -1.0558,8.87512 -4.9278,1.32215 -9.4518,4.89877 -10.3983,9.30615 l 63.0544,0 c -5.4264,-5.27603 -13.6634,-9.19543 -20.4118,-9.92623 2.3535,-3.06141 3.449,-6.05938 4.1688,-9.48566 5.3211,-0.76188 11.5089,-1.56269 12.5486,-3.36741 -0.3793,-13.30434 -3.5757,-33.34036 -4.8446,-41.91497 -0.078,-0.52889 -0.739,-5.22055 -0.819,-5.66089 l 1.2163,3.97653 10.1766,-4.57484 c 1.9381,1.00524 -1.356,-17.96713 -3.8969,-17.89733 -2.7175,0.75323 -12.3187,1.66148 -14.9152,2.37788 -1.4888,0.41076 -3.8681,-3.77857 -5.2595,-3.38024 -1.7131,-2.1224 -3.4265,-2.62139 -5.2787,-2.58844 z m -1.8157,74.10455 0,0.003 c -0.6474,2.81802 -0.6703,5.54122 -0.067,7.62859 -4.455,-0.29154 -8.6541,0.54035 -12.7769,0.35933 -0.095,-0.003 -0.1853,-0.006 -0.2798,-0.01 1.1588,-2.47759 1.8902,-5.18562 2.1051,-7.73672 3.5647,-0.0169 7.3166,-0.0901 11.0184,-0.24486 z"
             style="fill:#000000;fill-opacity:1;stroke:none"
             inkscape:connector-curvature="0" />
          <path
             sodipodi:nodetypes="cssccccsccccccccsscccccccccccccccccscc"
             style="color:#000000;display:inline;overflow:visible;visibility:visible;fill:#2c3e46;fill-opacity:1;fill-rule:nonzero;stroke:none;enable-background:accumulate"
             d="m -1255.106,567.7338 c -5.242,-0.0211 -12.4828,1.03073 -18.4286,2.73747 -2.9723,0.8532 -5.6107,1.85669 -7.5682,3.0735 -0.9766,0.60713 -1.8088,1.26971 -2.4045,2.09933 -0.5374,0.7485 -0.7922,1.70112 -0.6844,2.66659 1.489,12.71598 3.181,25.51195 4.7988,38.2476 0.067,0.52283 0.403,0.976 0.8847,1.18994 6.1343,2.71882 12.0668,4.15371 17.1401,4.58403 5.0707,0.43011 9.2743,-0.0857 12.1213,-1.58144 0.6073,-0.31827 0.9264,-1.01236 0.7707,-1.68009 l -0.01,-0.0462 2.7005,0.74294 c 0.1153,0.0315 0.2386,0.0124 0.3391,-0.0524 l 7.8518,-5.07729 c 0.3694,-0.21001 0.548,-0.58374 0.6288,-0.94331 0.081,-0.35958 0.071,-0.72907 -0.032,-1.06047 -0.1488,-0.48522 -0.9576,-3.60134 -1.9853,-7.68835 -1.0278,-4.08748 -2.3197,-9.28472 -3.5852,-14.39334 -2.5311,-10.21718 -4.954,-20.09025 -4.954,-20.09025 l 0,0 c -0.013,-0.0467 -0.026,-0.0949 -0.043,-0.14174 -0.2388,-0.67751 -0.6971,-1.16494 -1.2361,-1.49204 -0.5402,-0.3278 -1.159,-0.51557 -1.7788,-0.66588 -1.2567,-0.3048 -2.779,-0.42146 -4.5254,-0.4285 z m 4.917,21.6501 0.5117,2.51244 -2.5093,1.49822 c -0.5565,0.33202 -0.8387,0.98548 -0.6998,1.61844 l -0.01,-0.0246 2.5679,16.11042 -3.6191,-15.58943 c -0.1683,-0.72288 -0.8445,-1.219 -1.5846,-1.1622 l -6.819,0.52099 -0.7152,-3.03651 c 3.4243,0.16602 6.5134,-0.18457 8.9338,-0.87549 1.6932,-0.48334 2.9132,-1.03285 3.9397,-1.57221 z"
             id="path3409"
             inkscape:connector-curvature="0" />
          <path
             style="fill:#000000;fill-rule:evenodd;stroke:none"
             d="m -1271.8237,586.4085 5.7674,33.49649 8.5591,0.50005 c 3.0089,-1.82431 6.1541,-2.33736 9.5447,-2.9244 l 2.5355,-1.06423 -1.8872,-35.32087 z"
             id="path3411"
             inkscape:connector-curvature="0"
             sodipodi:nodetypes="ccccccc" />
          <path
             style="fill:#425b68;fill-opacity:1;stroke:none"
             d="m -1255.1122,569.24124 c -10.0592,-0.0405 -28.7524,4.15497 -27.6152,9.0972 l 4.8313,38.02944 c 11.9683,5.30457 23.133,5.57601 27.9506,3.04503 l -5.1537,-23.17873 -8.4187,0.23847 -3.4279,-6.18205 c 8.233,1.00568 18.3288,-3.32705 19.8799,-4.54335 l -0.1117,0.71059 0.1932,5.98477 -4.4301,2.24689 5.4361,23.31105 c 1.2765,-1.05332 7.5407,-4.92267 7.5407,-4.92267 -0.8462,-2.75835 -10.5492,-42.25516 -10.5492,-42.25516 -0.3804,-1.08361 -2.7723,-1.56792 -6.1254,-1.58146 z"
             id="path3413"
             inkscape:connector-curvature="0"
             sodipodi:nodetypes="scccccccccccccs" />
          <path
             style="fill:#70979f;fill-opacity:1;stroke:none"
             d="m -1247.1435,586.42629 -1.131,0.7055 -0.113,4.65408 -4.3204,2.04116 4.577,23.65631 2.2251,0.49324 -4.4963,-23.16259 3.5916,-2.24388 z m -9.0053,8.17811 -7.5678,1.01751 0.3407,1.53842 8.243,-0.87531 z"
             id="path3415"
             inkscape:connector-curvature="0"
             sodipodi:nodetypes="cccccccccccccc" />
          <path
             sodipodi:nodetypes="cssssc"
             inkscape:connector-curvature="0"
             id="path3417"
             d="m -1248.598,569.95067 c 0.3426,1.69254 -6.8757,5.59842 -15.7526,7.23113 -8.8768,1.63272 -18.2507,1.39076 -18.5932,-0.30169 -0.3426,-1.69252 7.6845,-5.05812 16.5613,-6.69082 8.8769,-1.63275 17.442,-1.93107 17.7845,-0.23854 z"
             style="color:#000000;display:inline;overflow:visible;visibility:visible;fill:#2c3e46;fill-opacity:1;fill-rule:nonzero;stroke:none;enable-background:accumulate" />
          <path
             style="opacity:0.3;fill:#000000;fill-opacity:1;stroke:none"
             d="m -1275.4168,617.01213 c -3.7636,-36.59569 4.9008,-44.6579 10.6576,-47.16691 -6.0237,0.39336 -14.7785,2.58401 -18.3667,7.41172 0.3624,1.63086 5.6453,38.50245 5.6453,38.50245 z"
             id="path3419"
             inkscape:connector-curvature="0"
             sodipodi:nodetypes="ccccc" />
          <path
             sodipodi:nodetypes="ccccccssssscccc"
             inkscape:connector-curvature="0"
             id="path3421"
             d="m -1225.6383,611.33611 c 2.3317,2.92658 5.7525,12.64552 4.9994,20.63342 3.2654,-4.30965 5.4327,-6.20643 9.8372,-10.35337 2.3126,0.69447 4.07,6.28709 4.07,6.28709 1.9272,1.08581 4.946,1.74434 6.5337,-1.58459 0,0 -2.8452,-5.03568 -3.4702,-7.28944 2.1875,1.40574 8.1533,-1.50328 8.1533,-1.50328 0.1926,0.18283 -3.5231,2.29691 -3.7908,2.86416 -0.051,0.10573 2.9025,-0.11817 2.8712,0.0393 -0.038,0.19088 -2.7783,1.0061 -2.8018,1.23142 -0.1538,1.47526 1.1629,2.95755 1.4851,2.82859 l 6.2643,-2.5075 c 1.04,-1.3307 -2.9972,-11.23376 -2.9972,-11.23376 -0.1652,-0.82599 -8.3021,-0.95249 -14.1888,0.9577 -4.6287,0.0941 -16.4621,-0.97367 -16.9654,-0.36971 z"
             style="color:#000000;display:inline;overflow:visible;visibility:visible;fill:#618599;fill-opacity:1;fill-rule:nonzero;stroke:none;enable-background:accumulate" />
          <path
             sodipodi:nodetypes="cccccc"
             inkscape:connector-curvature="0"
             id="path3423"
             d="m -1225.7261,611.13563 2.5053,4.0338 15.1004,-1.47889 c 0,0 2.3507,-1.60315 13.1367,-2.97564 l -13.9111,1.05907 z"
             style="color:#000000;display:inline;overflow:visible;visibility:visible;opacity:0.6;fill:#ffffff;fill-opacity:1;fill-rule:evenodd;stroke:none;enable-background:accumulate" />
          <g
             transform="matrix(1.6281124,0,0,1.6281124,-1465.5701,670.50675)"
             id="g3425">
            <g
               id="g3427"
               transform="translate(23.422913,-3.9774757)">
              <path
                 transform="matrix(1.9613291,0,0,1.9613291,-274.66355,-10.474304)"
                 sodipodi:nodetypes="ccccccccscccccccccc"
                 inkscape:connector-curvature="0"
                 id="path3429"
                 d="m 189.05487,-32.209897 c -3.30908,-0.242547 -7.65142,0.310977 -8.53219,2.541188 -0.006,0.02516 1.01349,-0.108714 1.72377,-0.137918 -0.91854,0.07454 -4.65166,1.091771 -4.77189,3.363622 -0.16274,0.126338 1.69776,-0.279874 1.69776,-0.279874 -3.45957,1.972878 -4.4954,3.076655 -3.82032,5.401649 0.008,0.198658 0.47749,-0.37786 1.46582,-1.042124 -3.17815,4.076443 2.40874,9.208374 6.33987,11.097596 0.49486,0.289501 -0.73314,-1.28009 0.32786,-3.888071 0.13853,-0.340501 -1.28459,-1.140324 -1.36456,-1.453366 -0.14661,-0.789726 1.92089,-0.88538 0.37999,-2.752487 0.83206,-1.102756 2.55456,-0.83331 3.7568,-1.612963 0.63792,-0.424084 0.97114,-0.95032 1.19531,-1.34375 0.22418,-0.393431 0.34334,-0.623754 0.625,-0.826172 0.28167,-0.202418 0.7962,-0.41411 1.85352,-0.517578 0.50828,-0.04974 0.77946,-0.278695 1.00977,-0.386719 0.2303,-0.108024 0.25394,-0.0822 0.21875,-0.101563 0.20861,0.11433 0.46227,0.109124 0.66601,-0.01367 4.77143,-1.825536 0.92405,-7.594497 -2.77127,-8.0478 z"
                 style="fill:#555753;fill-opacity:1;fill-rule:evenodd;stroke:none" />
              <path
                 style="fill:#888a85;fill-rule:evenodd;stroke:none"
                 d="m 100.89573,-58.985211 c 4.90496,-0.02871 4.8311,-8.073467 -0.83677,-11.899948 -3.441356,-2.32332 -11.154676,-1.986701 -18.858245,1.538622 -0.202616,0.09272 6.930619,-1.390988 10.14569,0.582854 -4.955082,-1.423768 -14.319439,1.804032 -16.434052,5.316954 3.46241,-0.962805 8.955276,-2.54653 9.83339,-2.805617 -6.567902,2.981363 -13.039829,6.913769 -13.999034,11.123487 -0.254609,0.483309 5.412369,-2.581718 9.99646,-4.666873 -5.522079,4.021782 -9.032981,3.514446 -8.954019,10.55258 0.18727,8.371327 12.343552,15.906965 12.343552,15.906965 0,0 -2.054396,-4.149309 -0.965956,-6.241437 0.892325,-1.715169 -1.779586,-1.984993 -2.079628,-3.460066 -0.119189,-1.049727 0.835791,-1.917744 0.835791,-1.917744 -0.639474,0.569106 -3.657129,0.404513 -3.558697,0.147451 0.109662,-0.235658 1.897524,-0.504443 2.827186,-3.707751 -0.787467,1.127869 -2.269962,0.80777 -2.269962,0.80777 -0.119944,-1.78067 1.65677,-1.853619 4.069336,-3.330234 11.523039,7.000072 14.69401,-3.90439 15.134826,-7.231672 0.904224,-0.148935 1.764832,-1.268254 2.770132,-0.715341 z"
                 id="path3431"
                 inkscape:connector-curvature="0"
                 sodipodi:nodetypes="csscccccccscccccccc" />
              <path
                 transform="translate(142.85075,83.852018)"
                 id="path3433"
                 d="m -47.8125,-154.35742 c 0.63234,1.00622 1.951339,1.83729 3.193359,2.90039 -1.88021,-1.13881 -11.391958,0.41009 -13.173828,-0.19922 2.30272,2.09603 15.781173,0.27028 15.132813,8.41602 l 0.251953,-0.0899 c 0.42939,-3.2166 0.126041,-5.10355 -0.605469,-6.44922 1.14862,1.58705 1.949821,3.0077 0.712891,6.38868 l 0.253906,-0.13868 c 5.98498,-10.38661 -2.201675,-8.98103 -5.765625,-10.82812 z m -2.898438,6.08594 c -4.353479,-0.14824 -9.819522,1.15027 -14.707031,3.63671 3.02148,0.75262 19.254928,-6.03874 22.548828,1.43946 l 0.189453,-0.0332 c -0.436944,-3.30057 -3.67777,-4.89473 -8.03125,-5.04296 z"
                 style="color:#000000;display:inline;overflow:visible;visibility:visible;opacity:0.2;fill:#000000;fill-opacity:1;fill-rule:evenodd;stroke:none;enable-background:accumulate"
                 inkscape:connector-curvature="0" />
              <path
                 transform="translate(142.85075,83.852018)"
                 sodipodi:nodetypes="scccscccccccccccc"
                 inkscape:connector-curvature="0"
                 id="path3435"
                 d="m -49.402344,-156.21484 c -3.577375,0.0593 -7.914789,1.03263 -12.248047,3.01562 -0.131097,0.06 2.806856,-0.52746 5.769532,-0.42383 2.792383,-0.80617 5.425966,-1.62086 9.800781,-2.34375 -1.002877,-0.18365 -2.11847,-0.26798 -3.322266,-0.24804 z m -9.548828,3.88476 c -3.923956,0.97148 -7.731611,2.94684 -8.986328,5.03125 0.796418,-0.22146 1.773258,-0.42523 2.703661,-0.68872 z m -5.544315,5.64967 c -4.626441,2.21767 -7.173224,5.79169 -7.608029,7.69994 -0.118247,0.22446 1.111123,-0.35635 2.845704,-1.20898 0.123016,-2.11709 3.868496,-4.98668 4.762325,-6.49096 z m -4.738888,7.66674 c -1.208738,1.20199 -1.862689,2.83714 -1.828125,5.91797 0.06887,3.07852 1.76083,6.04126 3.867188,8.56054 -2.573338,-4.51576 -2.821286,-9.61727 -2.039063,-14.47851 z"
                 style="opacity:0.3;fill:#ffffff;fill-rule:evenodd;stroke:none" />
              <path
                 sodipodi:nodetypes="ccc"
                 inkscape:connector-curvature="0"
                 id="path3437"
                 d="m 83.39678,-51.61118 c 0.0818,-0.106293 8.48039,3.856742 13.93881,-4.56185 -0.32871,1.139581 -4.40216,11.281243 -13.93881,4.56185 z"
                 style="color:#000000;display:inline;overflow:visible;visibility:visible;opacity:0.3;fill:#000000;fill-opacity:1;fill-rule:evenodd;stroke:none;enable-background:accumulate" />
              <path
                 inkscape:connector-curvature="0"
                 id="path3439"
                 d="m 94.975754,-55.900288 c -1.972225,4.567875 -7.631748,3.321188 -11.41504,2.630879 -2.410376,1.602043 -6.966195,5.301753 -8.210724,0.365881 -0.4091,-3.980511 4.754933,-3.586565 6.227265,-6.69233 3.180684,-2.189681 6.434611,2.212684 10.039408,0.808537 1.957392,-0.51581 5.893647,0.231756 3.359091,2.887033 z"
                 style="color:#000000;display:inline;overflow:visible;visibility:visible;opacity:0.3;fill:#ffffff;fill-opacity:1;fill-rule:evenodd;stroke:none;filter:url(#filter4519-3);enable-background:accumulate" />
            </g>
            <g
               id="g3441"
               transform="translate(-3.2703689,-4.7729708)">
              <path
                 sodipodi:nodetypes="ccccc"
                 inkscape:connector-curvature="0"
                 id="path3443"
                 d="m 124.82774,-55.639338 0.0459,-3.115323 2.66074,-0.553212 1.63416,2.907099 c -1.24721,0.913486 -2.82311,1.337031 -4.34078,0.761436 z"
                 style="color:#000000;display:inline;overflow:visible;visibility:visible;fill:#888a85;fill-opacity:1;fill-rule:nonzero;stroke:none;enable-background:accumulate" />
              <path
                 sodipodi:nodetypes="ccccc"
                 inkscape:connector-curvature="0"
                 id="path3445"
                 d="m 127.78304,-60.10279 c 1.00017,0.421313 0.6989,1.423368 0.4011,1.712729 -1.27771,1.068332 -2.90082,0.869151 -3.66007,0.468359 l -0.20697,-1.100396 c 0.46218,-0.570182 2.34976,0.30469 3.46594,-1.080692 z"
                 style="color:#000000;display:inline;overflow:visible;visibility:visible;fill:#d3d7cf;fill-opacity:1;fill-rule:nonzero;stroke:none;enable-background:accumulate" />
            </g>
          </g>
          <ellipse
             transform="matrix(0.8202505,1.4063922,-1.4063922,0.8202505,-1471.902,663.02363)"
             ry="0.6875"
             rx="0.8125"
             cy="-136.91936"
             cx="28.329063"
             id="ellipse3447"
             style="color:#000000;display:inline;overflow:visible;visibility:visible;fill:#ffffff;fill-opacity:1;fill-rule:nonzero;stroke:none;enable-background:accumulate" />
          <ellipse
             transform="matrix(0.19501726,1.6163905,-1.6163905,0.19501726,-1471.902,663.02363)"
             style="color:#000000;display:inline;overflow:visible;visibility:visible;fill:#ffffff;fill-opacity:1;fill-rule:nonzero;stroke:none;enable-background:accumulate"
             id="ellipse3449"
             cx="-28.587622"
             cy="-139.07039"
             rx="0.8125"
             ry="0.6875" />
          <g
             id="g3453"
             transform="matrix(0.99677612,0.08023333,-0.08023333,0.99677612,49.620678,99.72388)">
            <g
               transform="matrix(0.85612445,-0.16382124,0.16382124,0.85612445,-301.28846,-120.17596)"
               id="g3455">
              <path
                 style="color:#000000;display:inline;overflow:visible;visibility:visible;fill:#2d3c50;fill-opacity:1;fill-rule:nonzero;stroke:none;enable-background:accumulate"
                 d="m -1279.5156,637.10332 c -10.0834,-2.21012 -22.9776,7.10793 -30.2761,12.58097 6.7242,3.71907 5.2015,13.6918 21.423,12.29426 0,0 0.2641,0.40834 0.6156,1.12312 -1.3454,-0.80858 -5.0581,3.15545 -5.0581,3.15545 -1.3301,4.13254 4.2638,8.16364 4.2638,8.16364 1.2494,3.49229 5.3965,4.77157 6.1999,4.73241 2.5164,-0.12265 6.2159,-0.67289 9.2466,-1.68208 0.3167,-0.10547 0.377,-1.21705 0.6935,-1.31356 1.6302,-0.49705 3.4899,-0.38133 4.932,-1.02789 0.3616,-0.16212 0.1722,-1.12862 0.5186,-1.29707 2.0331,-0.98877 3.7044,-1.27961 5.052,-2.34017 l 1.2376,-10.79455 c -3.5159,-4.28628 -13.2555,-8.87095 -13.2555,-8.87095 z"
                 id="path3457"
                 inkscape:connector-curvature="0"
                 sodipodi:nodetypes="ccccscssssscccc" />
              <path
                 sodipodi:nodetypes="ccccscccccccsccccc"
                 inkscape:connector-curvature="0"
                 id="path3459"
                 d="m -1305.9207,649.85402 c 2.413,-2.10868 8.4629,-10.07068 25.4497,-10.74822 0,0 3.0045,11.45692 5.9583,14.04574 7.3207,4.76706 10.742,7.11333 12.0433,8.04899 l -1.158,8.84694 c -0.1597,1.22012 -1.598,1.7706 -3.3196,2.17802 l 0.4956,-5.09932 c -0.5757,1.83039 -1.9145,4.48709 -2.4026,6.12173 -1.2867,1.1746 -3.2165,1.3099 -4.1313,1.31674 -0.2864,0.11131 1.7253,-3.58376 0.3676,-5.45835 -0.4115,0.91244 -1.9952,5.79507 -2.4589,6.02645 -4.7565,2.23371 -11.1398,1.34721 -11.7019,-2.5294 -2.1928,-1.40419 -3.9182,-3.76349 -3.5207,-5.17381 0,0 2.0508,-2.05907 4.0732,-1.73197 0.327,-0.17328 0.4405,3.46796 2.427,5.05866 1.9916,-6.92583 -3.7291,-5.74355 -3.8646,-14.22125 l -0.609,3.55917 c -15.1996,-1.44647 -12.4965,-7.29962 -17.6481,-10.24012 z"
                 style="color:#000000;display:inline;overflow:visible;visibility:visible;fill:#618599;fill-opacity:1;fill-rule:nonzero;stroke:none;enable-background:accumulate" />
              <path
                 sodipodi:nodetypes="ccccc"
                 inkscape:connector-curvature="0"
                 id="path3461"
                 d="m -1281.0255,639.30805 c -8.0581,-0.91114 -18.4552,5.43495 -23.858,10.16604 2.5834,2.94284 2.3624,6.15653 8.0403,8.42742 4.6362,-6.02228 -4.1352,-14.06255 15.9856,-17.12734 0.5942,-0.76857 0.1931,-0.65092 -0.1679,-1.46612 z"
                 style="color:#000000;display:inline;overflow:visible;visibility:visible;opacity:0.4;fill:#ffffff;fill-opacity:1;fill-rule:evenodd;stroke:none;enable-background:accumulate" />
            </g>
            <path
               style="color:#000000;display:inline;overflow:visible;visibility:visible;opacity:0.3;fill:#ffffff;fill-opacity:1;fill-rule:evenodd;stroke:none;enable-background:accumulate"
               d="m -1302.5767,640.31887 c 0.1802,0.33467 -7.9387,5.43324 -9.671,9.2564 5.1691,6.12814 9.1852,6.45461 16.0404,6.40554 0.1951,-10e-4 -0.1381,-3.47178 0.063,-3.4735 0,0 0.8303,3.3997 1.2142,3.3967 l 2.0322,2.58293 c 2.3269,2.27223 2.7546,3.29643 2.4349,6.30593 l -3.1037,-4.26026 c -1.7568,0.48671 -2.0065,1.22461 -2.8708,1.86007 0.3995,1.12559 -0.3513,2.14058 3.891,4.14097 1.5624,2.21904 3.2738,2.34544 4.2813,2.25002 1.4837,-0.14051 1.1414,-1.33084 2.2111,-2.4914 l 0.8964,-8.29264 c -5.4311,-2.99592 -3.4349,-3.91219 -6.7331,-6.19639 -0.2911,-0.2016 5.9911,-3.70224 5.9911,-3.70224 0,0 -8.9205,2.64776 -9.1552,2.60024 -9.6426,0.4826 -17.1928,-1.12597 -7.5218,-10.38237 z"
               id="path3463"
               inkscape:connector-curvature="0"
               sodipodi:nodetypes="ccssccccccsccsccc" />
            <path
               style="color:#000000;display:inline;overflow:visible;visibility:visible;opacity:0.7;fill:#2d3c50;fill-opacity:1;fill-rule:nonzero;stroke:none;enable-background:accumulate"
               d="m -1284.4965,657.91094 c 3.1322,0.57279 9.4548,-1.80428 10.6265,-5.51038 l 1.2313,9.52552 c -4.4282,3.5461 -10.6152,5.52241 -15.0434,7.45727 0.3863,-0.45531 1.7594,-1.43156 2.0324,-2.424 0.7907,-2.87388 1.1532,-9.04841 1.1532,-9.04841 z"
               id="path3465"
               inkscape:connector-curvature="0"
               sodipodi:nodetypes="ccccsc" />
          </g>
          <path
             sodipodi:nodetypes="cccccccccccccc"
             inkscape:connector-curvature="0"
             id="path3606"
             d="m -1251.063,628.32981 c -0.3354,1.98983 -0.9044,3.7509 -1.7066,5.28311 -0.8022,1.5322 -2.0005,3.0017 -3.5948,4.4089 l 0.6969,6.63409 c 1.0841,-0.92189 3.6564,-4.64435 4.362,-5.90073 l 1.3128,15.44268 -1.4323,3.60614 c 0,0 2.6643,4.09996 4.9983,3.4788 l 2.9693,-5.78242 -2.2163,-2.96344 -1.8167,-16.84321 1.2552,-1.73485 -1.5422,-6.63686 z"
             style="color:#000000;clip-rule:nonzero;display:inline;overflow:visible;visibility:visible;opacity:1;isolation:auto;mix-blend-mode:normal;color-interpolation:sRGB;color-interpolation-filters:linearRGB;solid-color:#000000;solid-opacity:1;fill:#f57900;fill-opacity:1;fill-rule:nonzero;stroke:none;stroke-width:1.35230219;stroke-linecap:butt;stroke-linejoin:miter;stroke-miterlimit:4;stroke-dasharray:none;stroke-dashoffset:0;stroke-opacity:1;color-rendering:auto;image-rendering:auto;shape-rendering:auto;text-rendering:auto;enable-background:accumulate" />
        </g>
      </g>
      <g
         id="text3537-7"
         style="color:#000000;font-style:normal;font-weight:normal;font-size:56.95957184px;line-height:125%;font-family:Sans;letter-spacing:0px;word-spacing:0px;clip-rule:nonzero;display:inline;overflow:visible;visibility:visible;opacity:1;isolation:auto;mix-blend-mode:normal;color-interpolation:sRGB;color-interpolation-filters:linearRGB;solid-color:#000000;solid-opacity:1;fill:#5c3566;fill-opacity:1;fill-rule:nonzero;stroke:none;stroke-width:1.24492085;stroke-linecap:butt;stroke-linejoin:miter;stroke-miterlimit:4;stroke-dasharray:none;stroke-dashoffset:0;stroke-opacity:1;color-rendering:auto;image-rendering:auto;shape-rendering:auto;text-rendering:auto;enable-background:accumulate"
         transform="matrix(0.8710547,-0.00256253,0.00194429,1.1480278,0,0)" />
    </g>
    <g
       transform="matrix(0.8710547,-0.00256253,0.00194429,1.1480278,0,0)"
       style="color:#000000;font-style:normal;font-weight:normal;font-size:56.95957184px;line-height:125%;font-family:Sans;letter-spacing:0px;word-spacing:0px;clip-rule:nonzero;display:inline;overflow:visible;visibility:visible;opacity:1;isolation:auto;mix-blend-mode:normal;color-interpolation:sRGB;color-interpolation-filters:linearRGB;solid-color:#000000;solid-opacity:1;fill:#5c3566;fill-opacity:1;fill-rule:nonzero;stroke:none;stroke-width:1.24492085;stroke-linecap:butt;stroke-linejoin:miter;stroke-miterlimit:4;stroke-dasharray:none;stroke-dashoffset:0;stroke-opacity:1;color-rendering:auto;image-rendering:auto;shape-rendering:auto;text-rendering:auto;enable-background:accumulate"
       id="text3537" />
  </g>
</svg>
