<?xml version="1.0" encoding="UTF-8" standalone="no"?>
<!-- Created with Inkscape (http://www.inkscape.org/) -->

<svg
   xmlns:dc="http://purl.org/dc/elements/1.1/"
   xmlns:cc="http://creativecommons.org/ns#"
   xmlns:rdf="http://www.w3.org/1999/02/22-rdf-syntax-ns#"
   xmlns:svg="http://www.w3.org/2000/svg"
   xmlns="http://www.w3.org/2000/svg"
   xmlns:sodipodi="http://sodipodi.sourceforge.net/DTD/sodipodi-0.dtd"
   xmlns:inkscape="http://www.inkscape.org/namespaces/inkscape"
   width="116.15882"
   height="181.6619"
   id="svg2"
   version="1.1"
   inkscape:version="0.91 r13725"
   sodipodi:docname="wargus.svg"
   inkscape:export-filename="/home/mimooh/wargus.png"
   inkscape:export-xdpi="90"
   inkscape:export-ydpi="90">
  <defs
     id="defs4">
    <filter
       inkscape:collect="always"
       id="filter4519"
       x="-0.088692531"
       width="1.1773851"
       y="-0.1854682"
       height="1.3709364"
       style="color-interpolation-filters:sRGB">
      <feGaussianBlur
         inkscape:collect="always"
         stdDeviation="0.75660286"
         id="feGaussianBlur4521" />
    </filter>
  </defs>
  <sodipodi:namedview
     id="base"
     pagecolor="#ffffff"
     bordercolor="#666666"
     borderopacity="1.0"
     inkscape:pageopacity="0.0"
     inkscape:pageshadow="2"
     inkscape:zoom="1.4142136"
     inkscape:cx="167.1802"
     inkscape:cy="60.677613"
     inkscape:document-units="px"
     inkscape:current-layer="layer1"
     showgrid="false"
     inkscape:window-width="934"
     inkscape:window-height="975"
     inkscape:window-x="0"
     inkscape:window-y="0"
     inkscape:window-maximized="0"
     fit-margin-top="0"
     fit-margin-left="0"
     fit-margin-right="0"
     fit-margin-bottom="0"
     showguides="true"
     inkscape:guide-bbox="true"
     inkscape:snap-bbox="false"
     inkscape:snap-global="false" />
  <metadata
     id="metadata7">
    <rdf:RDF>
      <cc:Work
         rdf:about="">
        <dc:format>image/svg+xml</dc:format>
        <dc:type
           rdf:resource="http://purl.org/dc/dcmitype/StillImage" />
        <dc:title></dc:title>
      </cc:Work>
    </rdf:RDF>
  </metadata>
  <g
     inkscape:label="Layer 1"
     inkscape:groupmode="layer"
     id="layer1"
     transform="translate(1939.7336,-583.06336)">
    <g
       id="g3668"
       transform="matrix(0.90626031,0,0,0.90626031,-746.48892,91.512928)">
      <path
         inkscape:connector-curvature="0"
         id="path5436"
         d="m -1300.7197,696.95096 c -1.2001,0 -4.2459,3.33676 -5.9826,6.55462 -1.3177,2.44204 -1.4843,2.99369 -1.2842,4.24095 0.1265,0.78849 0.3075,4.84414 0.4028,9.01239 0.095,4.16826 0.2064,8.43104 0.2464,9.47306 l 0.074,1.89428 4.2632,4.04818 0,0 c 2.3449,2.22626 4.3817,4.04739 4.5267,4.04739 0.1447,0 0.6712,-0.67109 1.1699,-1.49142 1.5037,-2.47333 1.5032,-2.47333 4.9791,-0.38266 3.0545,1.83734 3.1292,1.86131 3.7908,1.2234 0.3711,-0.35787 1.2514,-1.64454 1.9563,-2.85978 1.5067,-2.59718 2.439,-3.49414 4.1946,-4.03534 l 1.2872,-0.39747 0.2531,-4.7264 c 0.5162,-9.66352 0.7476,-12.10269 1.192,-12.53015 0.2457,-0.23629 0.4474,-0.67862 0.4474,-0.98291 0,-0.50844 -6.0401,-5.85438 -6.6145,-5.85438 -0.2339,0 -3.749,3.46438 -3.749,3.6949 0,0.0571 0.5227,0.55469 1.1615,1.10498 l 1.1613,1.00036 0,9.34185 c 0,7.93026 -0.081,9.39085 -0.5359,9.66579 -0.6411,0.38746 -1.716,0.12262 -2.6353,-0.64885 -0.6296,-0.52865 -0.6591,-1.07006 -0.5015,-9.10322 0.1137,-5.80282 0.2992,-8.66851 0.5798,-8.93896 0.227,-0.21894 0.4131,-0.56541 0.4131,-0.76999 0,-0.64256 -5.3788,-5.69102 -6.0633,-5.69102 -0.7351,0 -2.5568,1.8606 -3.4482,3.52235 -0.5572,1.03868 -0.5541,1.12353 0.052,1.46017 2.0131,1.11917 1.9554,0.79668 1.9554,11.03602 0,7.49723 -0.096,9.47312 -0.4598,9.47312 -0.2531,0 -1.0064,-0.4397 -1.6746,-0.97744 -1.2137,-0.97683 -1.2151,-0.98131 -1.4803,-4.90907 -0.146,-2.16218 -0.2766,-6.67517 -0.2904,-10.02925 l -0.025,-6.09851 -1.43,-1.10773 c -0.7862,-0.60904 -1.4287,-1.39904 -1.4287,-1.75568 0,-0.91243 0.9203,-2.53222 2.7322,-4.80812 1.7583,-2.20902 1.8959,-2.69546 0.7644,-2.69546 z m 28.7085,15.81938 c -0.4317,-0.0327 -0.8097,0.16714 -1.3157,0.52679 -0.9978,0.70952 -3.9095,4.14292 -4.5668,5.3845 -0.6349,1.19985 -0.4865,1.58413 0.8027,2.07229 1.265,0.47904 1.1798,0.83923 -0.2799,1.1839 -1.3699,0.32349 -1.5085,0.77614 -0.5028,1.64006 0.9638,0.82777 0.9998,1.00559 1.0855,5.3634 l 0.071,3.60032 1.7687,1.718 c 0.9727,0.9449 1.9226,1.7181 2.1105,1.7181 0.1881,0 0.8834,-0.44041 1.5452,-0.97837 0.6618,-0.53794 1.3291,-0.97835 1.4831,-0.97835 0.1541,0 0.5275,0.38563 0.8294,0.85634 0.3017,0.47071 0.7004,0.85532 0.8862,0.85532 0.3523,0 2.4617,-2.43192 3.3929,-3.9124 0.6416,-1.01998 0.6946,-1.71166 0.1314,-1.71166 -0.3211,0 -0.3784,-0.17018 -0.2666,-0.79472 0.2137,-1.19301 0.2859,-10.74453 0.086,-11.32147 -0.096,-0.27579 -0.5848,-0.64534 -1.0871,-0.82049 -0.5024,-0.17511 -1.7289,-1.05762 -2.7256,-1.96124 -1.8587,-1.68495 -2.7277,-2.38573 -3.4472,-2.44032 z m 45.802,0.20742 -1.3472,1.28211 c -1.4647,1.39465 -1.6149,1.84562 -0.8396,2.522 0.4838,0.42205 0.5066,0.75269 0.5066,7.13644 0,5.76015 -0.053,6.71474 -0.3847,6.83737 -0.5236,0.19374 -1.8614,-0.3686 -2.161,-0.90858 -0.1367,-0.24618 -0.242,-2.94791 -0.2389,-6.14171 0,-5.15106 0.054,-5.80352 0.5073,-6.76659 0.2759,-0.58627 0.5017,-1.21725 0.5017,-1.40232 0,-0.1851 -0.6525,-0.83021 -1.45,-1.43354 l -1.4498,-1.09765 -0.575,0.52129 c -0.3164,0.28654 -1.0054,1.3262 -1.5308,2.3109 -0.8334,1.56188 -0.9134,1.85498 -0.6294,2.29441 0.1791,0.27704 0.2697,0.59128 0.201,0.6984 -0.069,0.1071 -0.141,2.93627 -0.16,6.28663 l -0.034,6.09121 2.6237,2.37601 c 1.4432,1.30664 2.7549,2.37947 2.914,2.38437 0.1594,0 0.3605,-0.26464 0.4474,-0.59834 0.1973,-0.75769 1.6422,-2.37366 1.9555,-2.18707 0.1276,0.0765 0.4973,0.64129 0.8216,1.25646 l 0.5901,1.11874 0.6399,-0.82972 c 0.352,-0.45623 1.0705,-1.58099 1.5955,-2.49904 0.8315,-1.45347 0.9149,-1.74013 0.6474,-2.22187 -0.3302,-0.59456 -0.2559,-11.53765 0.084,-12.49253 0.1334,-0.37416 -0.2261,-0.96398 -1.5308,-2.5128 l -1.705,-2.02458 z m -32.3748,0.25054 c -0.2389,0.0279 -0.8992,0.82352 -2.1506,2.58165 -1.3319,1.87097 -1.4563,2.14393 -1.072,2.35131 0.389,0.20987 0.435,0.77279 0.435,5.34867 0,3.94779 -0.089,5.36616 -0.3883,6.2169 -0.4371,1.24104 -0.3914,1.34317 2.0972,4.72191 0.6191,0.84053 1.2736,1.52896 1.4539,1.52896 0.1799,0 0.4726,-0.3577 0.6508,-0.79484 0.1786,-0.43704 0.6712,-1.15168 1.0941,-1.58771 l 0.7682,-0.79288 -0.555,-0.95173 c -0.5211,-0.89378 -0.5532,-1.24268 -0.5275,-5.68733 0.015,-2.60431 0.1006,-5.39528 0.1905,-6.20224 l 0.1628,-1.46749 0.7606,1.05542 c 1.653,2.29331 1.4097,2.22942 2.6123,0.69383 0.5865,-0.7486 1.0654,-1.49023 1.0654,-1.64737 0,-0.37981 -2.5743,-5.11467 -2.7809,-5.11467 -0.089,0 -0.2991,0.36902 -0.4682,0.82047 -0.38,1.01259 -1.1682,1.73196 -1.6871,1.54 -0.2141,-0.0792 -0.6435,-0.67012 -0.9548,-1.3133 -0.3114,-0.64321 -0.595,-1.21281 -0.6294,-1.2656 -0.017,-0.0268 -0.043,-0.038 -0.078,-0.034 z m 15.5462,0.008 c -0.1703,-3.1e-4 -0.5576,0.32398 -0.8617,0.72044 -0.3039,0.39647 -1.9678,1.8456 -3.6966,3.22042 -2.4167,1.92198 -3.0964,2.5893 -2.9427,2.88635 0.3186,0.61435 0.3789,8.74855 0.08,10.6111 -0.3131,1.94518 -0.1978,2.19298 1.2204,2.63034 0.5121,0.15782 1.7805,0.77962 2.8189,1.38122 2.0909,1.21116 1.763,1.25616 3.0598,-0.42032 l 0.4731,-0.61221 0.4104,0.93979 c 0.5252,1.20322 0.9959,3.45578 0.8168,3.90599 -0.077,0.19107 -0.4354,0.40206 -0.7989,0.46897 -0.5519,0.10205 -0.8736,-0.10363 -1.9533,-1.25094 -1.7758,-1.88653 -2.8243,-2.471 -4.4393,-2.47243 -1.3843,0 -1.6128,0.19129 -1.6128,1.36103 0,0.87766 0.9118,3.02373 1.5747,3.70684 l 0.5816,0.59936 0.1267,-0.81135 c 0.092,-0.59303 0.3015,-0.87125 0.7759,-1.0315 0.5731,-0.19374 0.8104,-0.0705 2.0259,1.05262 1.2031,1.11209 1.473,1.25381 2.14,1.12516 1.1057,-0.21323 2.3878,-1.29115 3.6186,-3.04424 1.6349,-2.32826 1.9457,-3.66418 1.7433,-7.48243 -0.514,-9.68263 -0.5156,-9.8808 -0.07,-10.04578 0.7498,-0.27729 0.4512,-0.85829 -1.4374,-2.79366 -1.0214,-1.0467 -2.1914,-2.51989 -2.5999,-3.27363 -0.4086,-0.75374 -0.8828,-1.37077 -1.053,-1.37114 z m 27.6663,0.035 c -0.2149,-0.0383 -0.3556,0.10917 -0.4627,0.43502 -0.2239,0.67991 -2.0005,2.37535 -3.3587,3.20572 l -1.1692,0.71492 -0.084,3.36727 c -0.047,1.85209 -0.1144,3.79443 -0.1496,4.31627 -0.064,0.94264 -0.055,0.95081 1.1567,1.24991 0.6712,0.16558 1.3294,0.40686 1.4634,0.53602 0.1555,0.14995 -0.3078,1.315 -1.2833,3.22591 -1.4743,2.88783 -1.5134,3.01474 -1.1482,3.69582 0.5116,0.95367 0.7539,1.05701 1.5793,0.67271 1.0115,-0.47091 1.6363,-0.28678 2.7467,0.80942 0.5381,0.53141 1.0501,0.96641 1.1384,0.96641 0.088,0 0.6079,-0.5359 1.1539,-1.19035 0.546,-0.65434 1.6069,-1.61689 2.3573,-2.13921 0.7503,-0.52245 1.4998,-1.17016 1.6659,-1.43908 0.1903,-0.3083 0.3251,-1.88998 0.3647,-4.27957 0.035,-2.08454 0.1694,-3.89475 0.2999,-4.0225 0.1302,-0.12776 0.2369,-0.48543 0.2369,-0.79477 0,-0.5089 -0.1166,-0.56258 -1.2204,-0.56258 -2.1365,0 -2.215,-0.25685 -0.8939,-2.90379 1.2417,-2.48816 1.2999,-3.239 0.3455,-4.43185 -0.4723,-0.59039 -0.501,-0.59532 -0.8417,-0.14868 -0.5023,0.65917 -2.0716,0.34188 -2.9883,-0.60388 -0.4039,-0.4169 -0.6933,-0.64087 -0.9081,-0.67914 z m -58.38,3.49482 c 0.136,-3.8e-4 0.2819,0.0119 0.4369,0.0375 1.0948,0.18248 2.8115,1.1993 2.8115,1.66482 0,0.18408 -0.6313,0.62268 -1.4023,0.97466 -2.1772,0.99376 -2.7896,0.80808 -3.0827,-0.93336 -0.1849,-1.09877 0.2847,-1.73948 1.2366,-1.74375 z m 58.3629,1.11599 c 0.1457,0 0.7032,0.18629 1.2385,0.41391 1.2078,0.51374 1.2302,0.90706 0.157,2.78907 -0.8862,1.55392 -1.2691,1.84571 -1.726,1.31514 -0.3687,-0.42822 -0.07,-4.51812 0.3305,-4.51812 z m -29.4456,0.15326 c 0.1924,0.0192 0.4371,0.20465 0.752,0.49558 0.3979,0.36744 0.836,1.0598 0.9738,1.53819 0.1379,0.47835 0.2514,3.2075 0.2523,6.06546 0,4.79005 -0.034,5.1962 -0.4425,5.18711 -0.2442,0 -0.7341,-0.162 -1.0883,-0.34779 -1.2479,-0.65454 -1.329,-1.11668 -1.2167,-6.9309 0.089,-4.62093 0.1921,-6.06505 0.7694,-6.00765 z m -24.9102,3.02585 c 0.164,0 0.2554,1.69763 0.2551,4.70723 0,4.26121 -0.047,4.78251 -0.5035,5.50195 -0.6071,0.95958 -0.9878,0.99366 -1.7976,0.16333 -0.5771,-0.59192 -0.621,-0.83339 -0.7045,-3.93352 -0.047,-1.81685 -0.014,-3.77968 0.076,-4.36119 0.1486,-0.95555 0.2728,-1.1062 1.2909,-1.56753 0.6196,-0.28073 1.2421,-0.51027 1.3833,-0.51027 z m 55.4428,4.76773 c 0.4417,0 0.4977,0.2126 0.5636,2.1384 0.042,1.20158 -0.046,2.35265 -0.199,2.6285 -0.2141,0.38574 -0.5288,0.49009 -1.4689,0.48724 -1.9913,-0.0104 -2.015,-0.11589 -0.6244,-2.83305 0.9301,-1.81776 1.3607,-2.42109 1.7287,-2.42109 z"
         style="fill:#a40000" />
      <g
         transform="matrix(1.6281124,0,0,1.6281124,-1471.902,663.02363)"
         id="g4829">
        <path
           sodipodi:nodetypes="ccsccccccc"
           inkscape:connector-curvature="0"
           id="path4831"
           transform="matrix(0.62995741,0,0,0.62995741,906.64029,-453.22758)"
           d="m -1218.7578,674.12695 -27.3008,0.60157 c -4.8012,6.61837 -34.1946,2.38157 -20.5156,53.97851 2.6044,9.82391 -4.9572,8.86237 -6.5,17.46485 -0.2665,1.48573 -4.3295,2.60654 -6.9453,0.14453 -0.9874,2.8531 -0.9557,6.78562 2.0547,9.13476 l 5.8398,-4.95312 c 4.9664,0.52923 -0.5234,6.93164 -0.5234,6.93164 l 78.7734,0.375 c 2.0599,-31.85128 -16.232,-53.96273 -24.8828,-83.67774 z"
           style="fill:#cc0000;stroke:none" />
        <path
           style="opacity:0.2;fill:#000000;stroke:none"
           d="m 118.28865,-18.87524 c -2.20946,0.743914 -7.77056,2.964058 -8.93475,4.840399 -1.63393,7.5450694 2.53176,15.5893537 1.88081,23.615974 -0.26759,1.905482 -1.61202,3.350276 -2.81159,4.74805 1.08405,-0.54479 2.35003,-1.727154 3.46673,-2.566061 1.43742,-1.096346 2.0703,-3.04556 1.47017,-4.766121 -0.27725,-1.824253 1.32125,-3.208746 2.42597,-4.434667 2.74122,-2.61081102 5.85022,-4.872099 9.24712,-6.553 -2.32398,-4.400019 -3.24906,-9.414142 -5.68823,-13.763595 -0.28049,-0.424888 -0.55739,-0.925888 -1.05623,-1.120979 z m -11.12566,32.35913 c -0.92197,2.344738 -2.76175,4.460556 -5.23102,5.291787 -1.58046,0.278705 0.0845,2.895238 1.28914,1.607863 2.53949,-1.242314 3.69808,-4.283196 3.94188,-6.89965 z"
           id="path4833"
           inkscape:connector-curvature="0"
           sodipodi:nodetypes="cccccccccccccc" />
        <path
           style="opacity:0.4;fill:#ffffff;stroke:none"
           d="m 139.06169,-28.556182 -17.19727,0.3789 c -3.02453,4.16929 -20.79099,1.18754 -12.17383,33.691409 1.64067,6.188643 -3.78002,6.457757 -4.75195,11.001953 -0.10094,0.471958 1.28752,-1.715902 1.39453,-2.3125 1.65943,-3.387946 5.84438,-1.90706 4.20371,-8.095703 -8.61716,-32.503869 9.01004,-30.115869 12.03457,-34.285159 l 16.49414,-0.36328 c -0.002,-0.0052 -0.002,-0.01043 -0.004,-0.01562 z"
           id="path4835"
           inkscape:connector-curvature="0"
           sodipodi:nodetypes="ccsscscccc" />
      </g>
      <g
         transform="matrix(1.578365,0,0,1.578365,-1363.9614,185.14911)"
         id="g4837">
        <path
           style="color:#000000;display:inline;overflow:visible;visibility:visible;fill:#2d3c50;fill-opacity:1;fill-rule:nonzero;stroke:none;enable-background:accumulate"
           d="m 16.09375,-96.929688 c -0.370027,-0.0126 -0.911539,0.110254 -0.996094,0.470704 l -8.2089841,33.445312 c -0.054192,0.230253 2.0984294,2.404619 3.0097656,3.31836 l 5.2128905,0 0.748808,-3.153352 -0.417033,-1.757069 0.956759,-0.9315 0.788403,-3.574439 -1.256207,-1.300017 1.501268,-0.654872 5.189721,-24.706877 c 0.112872,-0.476928 -0.238694,-0.936595 -0.728516,-0.953124 z"
           transform="matrix(1.0315183,0,0,1.0315183,78.965533,389.26043)"
           id="path4839"
           inkscape:connector-curvature="0"
           sodipodi:nodetypes="cccccccccccccc" />
        <path
           style="color:#000000;display:inline;overflow:visible;visibility:visible;fill:#618599;fill-opacity:1;fill-rule:nonzero;stroke:none;enable-background:accumulate"
           d="m 16.880859,-96.154297 -8.3144528,35.091797 1.3339844,1.367188 3.5937504,0 0.907722,-3.801304 -0.459219,-1.41809 0.972473,-1.114723 0.659561,-2.94005 -1.321728,-1.840723 1.886105,-1.011564 L 21.4375,-95.0625 Z"
           transform="matrix(1.0315183,0,0,1.0315183,78.965533,389.26043)"
           id="path4841"
           inkscape:connector-curvature="0"
           sodipodi:nodetypes="cccccccccccc" />
        <path
           sodipodi:nodetypes="ccccccccccccccccccccccc"
           inkscape:connector-curvature="0"
           id="path4843"
           d="m 101.74023,272.35547 c -2.086545,-4.5e-4 -3.795372,1.70837 -3.794918,3.79492 5.09e-4,1.14321 0.603854,2.13296 1.46875,2.8457 l -2.535307,8.04875 c -2.550347,-0.38628 -4.791544,-0.75846 -7.30462,-1.12697 -0.324591,-0.0481 -0.645056,0.10979 -0.804687,0.39648 l -2.552836,4.85572 c -0.282865,0.5105 0.06749,1.14073 0.650391,1.16993 l 8.009833,0.42967 c -0.399954,2.06177 -1.978379,15.12516 -0.953261,17.11022 1.883076,-0.80574 6.057863,-14.85717 6.698935,-16.24265 l 1.05668,0.40784 0.23686,0.0914 6.41217,2.24642 c 0.56583,0.20796 1.14631,-0.27002 1.05078,-0.86524 l -0.49212,-5.22085 c -0.0488,-0.30223 -0.26807,-0.54893 -0.5625,-0.63281 0,0 -4.04252,-1.31194 -6.66797,-1.88287 l 1.44518,-8.15227 c 1.42908,-0.56221 2.43089,-1.90587 2.4336,-3.47657 l 0,-0.002 c 4.5e-4,-2.08655 -1.70838,-3.79537 -3.79493,-3.79492 z"
           style="color:#000000;display:inline;overflow:visible;visibility:visible;fill:#2d3c50;fill-opacity:1;fill-rule:nonzero;stroke:none;enable-background:accumulate" />
        <path
           style="color:#000000;display:inline;overflow:visible;visibility:visible;fill:#425b68;fill-opacity:1;fill-rule:nonzero;stroke:none;enable-background:accumulate"
           d="m 101.73962,273.14499 c -1.66024,-3.6e-4 -3.006226,1.34562 -3.005864,3.00586 4.84e-4,1.08897 0.590036,2.09248 1.541014,2.62305 l -2.212889,9.4746 c -2.788413,-0.44065 -5.511674,-0.75794 -8.28125,-1.16406 l -2.164481,3.88871 8.512138,0.72262 c -1.04795,4.89757 -2.341591,18.35266 -2.10253,17.69923 0.0636,0.67326 5.687192,-15.47845 6.077832,-17.17947 l 8.23916,2.91054 -0.75084,-4.64002 c 0,0 -5.00948,-1.52774 -7.39526,-1.96543 l 2.954,-9.94936 c 1.35915,-0.31621 1.59243,-1.02496 1.59483,-2.42041 3.6e-4,-1.66024 -1.34562,-3.00622 -3.00586,-3.00586 z"
           id="path4845"
           inkscape:connector-curvature="0"
           sodipodi:nodetypes="ccccccccccccccc" />
      </g>
      <path
         sodipodi:nodetypes="ccccc"
         inkscape:connector-curvature="0"
         id="path4847"
         d="m -1213.8431,646.35689 -12.7127,52.56004 1.8484,1.97058 c 1.5955,-7.05274 8.3439,-29.04859 8.3439,-29.04859 1.1234,-17.10407 2.5204,-25.48203 2.5204,-25.48203 z"
         style="fill:#ffffff;fill-rule:evenodd;stroke:none" />
      <path
         inkscape:connector-curvature="0"
         id="path4849"
         d="m -1207.0398,632.98315 c -0.6838,0.0116 -1.1242,0.16734 -1.1684,0.41309 -0.075,0.3981 0.8957,0.91058 2.1672,1.1437 1.2708,0.23349 2.3604,0.0995 2.4323,-0.29904 0.075,-0.39809 -0.8957,-0.91058 -2.1672,-1.14369 -0.4406,-0.081 -0.8794,-0.12061 -1.2639,-0.11412 z m -0.8355,3.07041 c -0.6837,0.0116 -1.1241,0.16734 -1.1683,0.41309 -0.07,0.39783 0.8996,0.90813 2.1672,1.14062 1.269,0.23263 2.3564,0.0988 2.4291,-0.29903 0.07,-0.39783 -0.8996,-0.90812 -2.1671,-1.14061 -0.4394,-0.0808 -0.877,-0.12037 -1.2609,-0.11411 z m -13.934,1.84966 -0.3946,1.18377 28.312,4.7351 c -3.8705,-1.568 -7.8405,-2.57462 -11.8501,-3.35403 0.3934,-0.0627 0.63,-0.19308 0.6659,-0.36686 0.076,-0.39776 -0.8932,-0.91014 -2.1641,-1.14368 -0.4406,-0.081 -0.8794,-0.12061 -1.264,-0.11412 -0.6837,0.0116 -1.1241,0.16734 -1.1683,0.41309 -0.031,0.18456 0.1646,0.40295 0.5456,0.61039 -4.2196,-0.70018 -8.4653,-1.24929 -12.6824,-1.96371 z"
         style="color:#000000;display:inline;overflow:visible;visibility:visible;opacity:0.4;fill:#ffffff;fill-opacity:1;fill-rule:nonzero;stroke:none;enable-background:accumulate"
         sodipodi:nodetypes="ccccccccccccccccccccccccc" />
      <path
         style="color:#000000;display:inline;overflow:visible;visibility:visible;fill:#2d3c50;fill-opacity:1;fill-rule:nonzero;stroke:none;enable-background:accumulate"
         d="m -1200.0965,608.30946 c -4.4305,0.1616 -9.1185,1.18158 -9.1185,1.18158 l -18.9639,-0.51345 c -3.2262,11.75137 1.6794,17.57612 5.453,27.40692 0.3613,-0.43507 9.1322,-8.99916 12.1589,-12.18433 0,0 1.7444,5.36896 2.5193,5.95019 1.2593,0.64578 5.3334,2.3911 8.6966,-0.94082 l 0.628,-1.17877 9.3993,-3.19937 c 1.3274,-7.64011 -4.1426,-15.48307 -4.1426,-15.48307 -1.4065,-0.92375 -3.9716,-1.13582 -6.6301,-1.03888 z"
         id="path4851"
         inkscape:connector-curvature="0"
         sodipodi:nodetypes="scccccccccs" />
      <path
         inkscape:connector-curvature="0"
         style="fill:#000000;fill-opacity:1;stroke:none"
         d="m -1251.7965,610.53683 c -1.8522,0.0329 -3.843,0.59781 -6.1118,0.59781 -4.3658,0 -8.4199,2.32428 -11.772,6.28033 -5.1767,-0.4115 -9.8283,-2.28324 -13.5366,-0.69624 -19.1988,6.37751 -24.6261,19.43457 -25.8084,26.99816 7.0287,-0.47912 10.6287,-1.2785 19.341,-2.53711 l 10.7606,-5.75043 c 2.8297,13.01773 -1.5245,33.55747 -3.5589,42.77272 -1.2016,2.6346 -2.2153,4.24682 -1.7267,5.2691 1.8528,2.15674 4.5397,1.25842 8.1279,1.32602 -0.8368,2.84999 -1.4023,6.18084 -1.0558,8.87512 -4.9278,1.32215 -9.4518,4.89877 -10.3983,9.30615 l 63.0544,0 c -5.4264,-5.27603 -13.6634,-9.19543 -20.4118,-9.92623 2.3535,-3.06141 3.449,-6.05938 4.1688,-9.48566 5.3211,-0.76188 11.5089,-1.56269 12.5486,-3.36741 -0.3793,-13.30434 -3.5757,-33.34036 -4.8446,-41.91497 -0.078,-0.52889 -0.739,-5.22055 -0.819,-5.66089 l 1.2163,3.97653 10.1766,-4.57484 c 1.9381,1.00524 -1.356,-17.96713 -3.8969,-17.89733 -2.7175,0.75323 -12.3187,1.66148 -14.9152,2.37788 -1.4888,0.41076 -3.8681,-3.77857 -5.2595,-3.38024 -1.7131,-2.1224 -3.4265,-2.62139 -5.2787,-2.58844 z m -1.8157,74.10455 0,0.003 c -0.6474,2.81802 -0.6703,5.54122 -0.067,7.62859 -4.455,-0.29154 -8.6541,0.54035 -12.7769,0.35933 -0.095,-0.003 -0.1853,-0.006 -0.2798,-0.01 1.1588,-2.47759 1.8902,-5.18562 2.1051,-7.73672 3.5647,-0.0169 7.3166,-0.0901 11.0184,-0.24486 z"
         id="path4853"
         sodipodi:nodetypes="csccccccccccccccscccccccccccccccc" />
      <path
         inkscape:connector-curvature="0"
         id="path4857"
         d="m -1255.106,567.7338 c -5.242,-0.0211 -12.4828,1.03073 -18.4286,2.73747 -2.9723,0.8532 -5.6107,1.85669 -7.5682,3.0735 -0.9766,0.60713 -1.8088,1.26971 -2.4045,2.09933 -0.5374,0.7485 -0.7922,1.70112 -0.6844,2.66659 1.489,12.71598 3.181,25.51195 4.7988,38.2476 0.067,0.52283 0.403,0.976 0.8847,1.18994 6.1343,2.71882 12.0668,4.15371 17.1401,4.58403 5.0707,0.43011 9.2743,-0.0857 12.1213,-1.58144 0.6073,-0.31827 0.9264,-1.01236 0.7707,-1.68009 l -0.01,-0.0462 2.7005,0.74294 c 0.1153,0.0315 0.2386,0.0124 0.3391,-0.0524 l 7.8518,-5.07729 c 0.3694,-0.21001 0.548,-0.58374 0.6288,-0.94331 0.081,-0.35958 0.071,-0.72907 -0.032,-1.06047 -0.1488,-0.48522 -0.9576,-3.60134 -1.9853,-7.68835 -1.0278,-4.08748 -2.3197,-9.28472 -3.5852,-14.39334 -2.5311,-10.21718 -4.954,-20.09025 -4.954,-20.09025 l 0,0 c -0.013,-0.0467 -0.026,-0.0949 -0.043,-0.14174 -0.2388,-0.67751 -0.6971,-1.16494 -1.2361,-1.49204 -0.5402,-0.3278 -1.159,-0.51557 -1.7788,-0.66588 -1.2567,-0.3048 -2.779,-0.42146 -4.5254,-0.4285 z m 4.917,21.6501 0.5117,2.51244 -2.5093,1.49822 c -0.5565,0.33202 -0.8387,0.98548 -0.6998,1.61844 l -0.01,-0.0246 2.5679,16.11042 -3.6191,-15.58943 c -0.1683,-0.72288 -0.8445,-1.219 -1.5846,-1.1622 l -6.819,0.52099 -0.7152,-3.03651 c 3.4243,0.16602 6.5134,-0.18457 8.9338,-0.87549 1.6932,-0.48334 2.9132,-1.03285 3.9397,-1.57221 z"
         style="color:#000000;display:inline;overflow:visible;visibility:visible;fill:#2c3e46;fill-opacity:1;fill-rule:nonzero;stroke:none;enable-background:accumulate"
         sodipodi:nodetypes="cssccccsccccccccsscccccccccccccccccscc" />
      <path
         sodipodi:nodetypes="ccccccc"
         inkscape:connector-curvature="0"
         id="path4859"
         d="m -1271.8237,586.4085 5.7674,33.49649 8.5591,0.50005 c 3.0089,-1.82431 6.1541,-2.33736 9.5447,-2.9244 l 2.5355,-1.06423 -1.8872,-35.32087 z"
         style="fill:#000000;fill-rule:evenodd;stroke:none" />
      <path
         sodipodi:nodetypes="scccccccccccccs"
         inkscape:connector-curvature="0"
         id="path4861"
         d="m -1255.1122,569.24124 c -10.0592,-0.0405 -28.7524,4.15497 -27.6152,9.0972 l 4.8313,38.02944 c 11.9683,5.30457 23.133,5.57601 27.9506,3.04503 l -5.1537,-23.17873 -8.4187,0.23847 -3.4279,-6.18205 c 8.233,1.00568 18.3288,-3.32705 19.8799,-4.54335 l -0.1117,0.71059 0.1932,5.98477 -4.4301,2.24689 5.4361,23.31105 c 1.2765,-1.05332 7.5407,-4.92267 7.5407,-4.92267 -0.8462,-2.75835 -10.5492,-42.25516 -10.5492,-42.25516 -0.3804,-1.08361 -2.7723,-1.56792 -6.1254,-1.58146 z"
         style="fill:#425b68;fill-opacity:1;stroke:none" />
      <path
         sodipodi:nodetypes="cccccccccccccc"
         inkscape:connector-curvature="0"
         id="path4863"
         d="m -1247.1435,586.42629 -1.131,0.7055 -0.113,4.65408 -4.3204,2.04116 4.577,23.65631 2.2251,0.49324 -4.4963,-23.16259 3.5916,-2.24388 z m -9.0053,8.17811 -7.5678,1.01751 0.3407,1.53842 8.243,-0.87531 z"
         style="fill:#70979f;fill-opacity:1;stroke:none" />
      <path
         style="color:#000000;display:inline;overflow:visible;visibility:visible;fill:#2c3e46;fill-opacity:1;fill-rule:nonzero;stroke:none;enable-background:accumulate"
         d="m -1248.598,569.95067 c 0.3426,1.69254 -6.8757,5.59842 -15.7526,7.23113 -8.8768,1.63272 -18.2507,1.39076 -18.5932,-0.30169 -0.3426,-1.69252 7.6845,-5.05812 16.5613,-6.69082 8.8769,-1.63275 17.442,-1.93107 17.7845,-0.23854 z"
         id="path4865"
         inkscape:connector-curvature="0"
         sodipodi:nodetypes="cssssc" />
      <path
         sodipodi:nodetypes="ccccc"
         inkscape:connector-curvature="0"
         id="path4869"
         d="m -1275.4168,617.01213 c -3.7636,-36.59569 4.9008,-44.6579 10.6576,-47.16691 -6.0237,0.39336 -14.7785,2.58401 -18.3667,7.41172 0.3624,1.63086 5.6453,38.50245 5.6453,38.50245 z"
         style="opacity:0.3;fill:#000000;fill-opacity:1;stroke:none" />
      <path
         style="color:#000000;display:inline;overflow:visible;visibility:visible;fill:#618599;fill-opacity:1;fill-rule:nonzero;stroke:none;enable-background:accumulate"
         d="m -1225.6383,611.33611 c 2.3317,2.92658 5.7525,12.64552 4.9994,20.63342 3.2654,-4.30965 5.4327,-6.20643 9.8372,-10.35337 2.3126,0.69447 4.07,6.28709 4.07,6.28709 1.9272,1.08581 4.946,1.74434 6.5337,-1.58459 0,0 -2.8452,-5.03568 -3.4702,-7.28944 2.1875,1.40574 8.1533,-1.50328 8.1533,-1.50328 0.1926,0.18283 -3.5231,2.29691 -3.7908,2.86416 -0.051,0.10573 2.9025,-0.11817 2.8712,0.0393 -0.038,0.19088 -2.7783,1.0061 -2.8018,1.23142 -0.1538,1.47526 1.1629,2.95755 1.4851,2.82859 l 6.2643,-2.5075 c 1.04,-1.3307 -2.9972,-11.23376 -2.9972,-11.23376 -0.1652,-0.82599 -8.3021,-0.95249 -14.1888,0.9577 -4.6287,0.0941 -16.4621,-0.97367 -16.9654,-0.36971 z"
         id="path4873"
         inkscape:connector-curvature="0"
         sodipodi:nodetypes="ccccccssssscccc" />
      <path
         style="color:#000000;display:inline;overflow:visible;visibility:visible;opacity:0.6;fill:#ffffff;fill-opacity:1;fill-rule:evenodd;stroke:none;enable-background:accumulate"
         d="m -1225.7261,611.13563 2.5053,4.0338 15.1004,-1.47889 c 0,0 2.3507,-1.60315 13.1367,-2.97564 l -13.9111,1.05907 z"
         id="path4875"
         inkscape:connector-curvature="0"
         sodipodi:nodetypes="cccccc" />
      <g
         id="g4877"
         transform="matrix(1.6281124,0,0,1.6281124,-1465.5701,670.50675)">
        <g
           transform="translate(23.422913,-3.9774757)"
           id="g4879">
          <path
             style="fill:#800000;fill-opacity:1;fill-rule:evenodd;stroke:none"
             d="m 189.05487,-32.209897 c -3.30908,-0.242547 -7.65142,0.310977 -8.53219,2.541188 -0.006,0.02516 1.01349,-0.108714 1.72377,-0.137918 -0.91854,0.07454 -4.65166,1.091771 -4.77189,3.363622 -0.16274,0.126338 1.69776,-0.279874 1.69776,-0.279874 -3.45957,1.972878 -4.4954,3.076655 -3.82032,5.401649 0.008,0.198658 0.47749,-0.37786 1.46582,-1.042124 -3.17815,4.076443 2.40874,9.208374 6.33987,11.097596 0.49486,0.289501 -0.73314,-1.28009 0.32786,-3.888071 0.13853,-0.340501 -1.28459,-1.140324 -1.36456,-1.453366 -0.14661,-0.789726 1.92089,-0.88538 0.37999,-2.752487 0.83206,-1.102756 2.55456,-0.83331 3.7568,-1.612963 0.63792,-0.424084 0.97114,-0.95032 1.19531,-1.34375 0.22418,-0.393431 0.34334,-0.623754 0.625,-0.826172 0.28167,-0.202418 0.7962,-0.41411 1.85352,-0.517578 0.50828,-0.04974 0.77946,-0.278695 1.00977,-0.386719 0.2303,-0.108024 0.25394,-0.0822 0.21875,-0.101563 0.20861,0.11433 0.46227,0.109124 0.66601,-0.01367 4.77143,-1.825536 0.92405,-7.594497 -2.77127,-8.0478 z"
             id="path4881"
             inkscape:connector-curvature="0"
             sodipodi:nodetypes="ccccccccscccccccccc"
             transform="matrix(1.9613291,0,0,1.9613291,-274.66355,-10.474304)" />
          <path
             sodipodi:nodetypes="csscccccccscccccccc"
             inkscape:connector-curvature="0"
             id="path4883"
             d="m 100.89573,-58.985211 c 4.90496,-0.02871 4.8311,-8.073467 -0.83677,-11.899948 -3.441356,-2.32332 -11.154676,-1.986701 -18.858245,1.538622 -0.202616,0.09272 6.930619,-1.390988 10.14569,0.582854 -4.955082,-1.423768 -14.319439,1.804032 -16.434052,5.316954 3.46241,-0.962805 8.955276,-2.54653 9.83339,-2.805617 -6.567902,2.981363 -13.039829,6.913769 -13.999034,11.123487 -0.254609,0.483309 5.412369,-2.581718 9.99646,-4.666873 -5.522079,4.021782 -9.032981,3.514446 -8.954019,10.55258 0.18727,8.371327 12.343552,15.906965 12.343552,15.906965 0,0 -2.054396,-4.149309 -0.965956,-6.241437 0.892325,-1.715169 -1.779586,-1.984993 -2.079628,-3.460066 -0.119189,-1.049727 0.835791,-1.917744 0.835791,-1.917744 -0.639474,0.569106 -3.657129,0.404513 -3.558697,0.147451 0.109662,-0.235658 1.897524,-0.504443 2.827186,-3.707751 -0.787467,1.127869 -2.269962,0.80777 -2.269962,0.80777 -0.119944,-1.78067 1.65677,-1.853619 4.069336,-3.330234 11.523039,7.000072 14.69401,-3.90439 15.134826,-7.231672 0.904224,-0.148935 1.764832,-1.268254 2.770132,-0.715341 z"
             style="fill:#cc0000;fill-rule:evenodd;stroke:none" />
          <path
             inkscape:connector-curvature="0"
             style="color:#000000;display:inline;overflow:visible;visibility:visible;opacity:0.2;fill:#000000;fill-opacity:1;fill-rule:evenodd;stroke:none;enable-background:accumulate"
             d="m -47.8125,-154.35742 c 0.63234,1.00622 1.951339,1.83729 3.193359,2.90039 -1.88021,-1.13881 -11.391958,0.41009 -13.173828,-0.19922 2.30272,2.09603 15.781173,0.27028 15.132813,8.41602 l 0.251953,-0.0899 c 0.42939,-3.2166 0.126041,-5.10355 -0.605469,-6.44922 1.14862,1.58705 1.949821,3.0077 0.712891,6.38868 l 0.253906,-0.13868 c 5.98498,-10.38661 -2.201675,-8.98103 -5.765625,-10.82812 z m -2.898438,6.08594 c -4.353479,-0.14824 -9.819522,1.15027 -14.707031,3.63671 3.02148,0.75262 19.254928,-6.03874 22.548828,1.43946 l 0.189453,-0.0332 c -0.436944,-3.30057 -3.67777,-4.89473 -8.03125,-5.04296 z"
             id="path4885"
             transform="translate(142.85075,83.852018)" />
          <path
             style="opacity:0.3;fill:#ffffff;fill-rule:evenodd;stroke:none"
             d="m -49.402344,-156.21484 c -3.577375,0.0593 -7.914789,1.03263 -12.248047,3.01562 -0.131097,0.06 2.806856,-0.52746 5.769532,-0.42383 2.792383,-0.80617 5.425966,-1.62086 9.800781,-2.34375 -1.002877,-0.18365 -2.11847,-0.26798 -3.322266,-0.24804 z m -9.548828,3.88476 c -3.923956,0.97148 -7.731611,2.94684 -8.986328,5.03125 0.796418,-0.22146 1.773258,-0.42523 2.703661,-0.68872 z m -5.544315,5.64967 c -4.626441,2.21767 -7.173224,5.79169 -7.608029,7.69994 -0.118247,0.22446 1.111123,-0.35635 2.845704,-1.20898 0.123016,-2.11709 3.868496,-4.98668 4.762325,-6.49096 z m -4.738888,7.66674 c -1.208738,1.20199 -1.862689,2.83714 -1.828125,5.91797 0.06887,3.07852 1.76083,6.04126 3.867188,8.56054 -2.573338,-4.51576 -2.821286,-9.61727 -2.039063,-14.47851 z"
             id="path4887"
             inkscape:connector-curvature="0"
             sodipodi:nodetypes="scccscccccccccccc"
             transform="translate(142.85075,83.852018)" />
          <path
             style="color:#000000;display:inline;overflow:visible;visibility:visible;opacity:0.3;fill:#000000;fill-opacity:1;fill-rule:evenodd;stroke:none;enable-background:accumulate"
             d="m 83.39678,-51.61118 c 0.0818,-0.106293 8.48039,3.856742 13.93881,-4.56185 -0.32871,1.139581 -4.40216,11.281243 -13.93881,4.56185 z"
             id="path4889"
             inkscape:connector-curvature="0"
             sodipodi:nodetypes="ccc" />
          <path
             style="color:#000000;display:inline;overflow:visible;visibility:visible;opacity:0.3;fill:#ffffff;fill-opacity:1;fill-rule:evenodd;stroke:none;filter:url(#filter4519);enable-background:accumulate"
             d="m 94.975754,-55.900288 c -1.972225,4.567875 -7.631748,3.321188 -11.41504,2.630879 -2.410376,1.602043 -6.966195,5.301753 -8.210724,0.365881 -0.4091,-3.980511 4.754933,-3.586565 6.227265,-6.69233 3.180684,-2.189681 6.434611,2.212684 10.039408,0.808537 1.957392,-0.51581 5.893647,0.231756 3.359091,2.887033 z"
             id="path4891"
             inkscape:connector-curvature="0" />
        </g>
        <g
           transform="translate(-3.2703689,-4.7729708)"
           id="g4893">
          <path
             style="color:#000000;display:inline;overflow:visible;visibility:visible;fill:#888a85;fill-opacity:1;fill-rule:nonzero;stroke:none;enable-background:accumulate"
             d="m 124.82774,-55.639338 0.0459,-3.115323 2.66074,-0.553212 1.63416,2.907099 c -1.24721,0.913486 -2.82311,1.337031 -4.34078,0.761436 z"
             id="path4895"
             inkscape:connector-curvature="0"
             sodipodi:nodetypes="ccccc" />
          <path
             style="color:#000000;display:inline;overflow:visible;visibility:visible;fill:#d3d7cf;fill-opacity:1;fill-rule:nonzero;stroke:none;enable-background:accumulate"
             d="m 127.78304,-60.10279 c 1.00017,0.421313 0.6989,1.423368 0.4011,1.712729 -1.27771,1.068332 -2.90082,0.869151 -3.66007,0.468359 l -0.20697,-1.100396 c 0.46218,-0.570182 2.34976,0.30469 3.46594,-1.080692 z"
             id="path4897"
             inkscape:connector-curvature="0"
             sodipodi:nodetypes="ccccc" />
        </g>
      </g>
      <ellipse
         style="color:#000000;display:inline;overflow:visible;visibility:visible;fill:#ffffff;fill-opacity:1;fill-rule:nonzero;stroke:none;enable-background:accumulate"
         id="ellipse4899"
         cx="28.329063"
         cy="-136.91936"
         rx="0.8125"
         ry="0.6875"
         transform="matrix(0.8202505,1.4063922,-1.4063922,0.8202505,-1471.902,663.02363)" />
      <ellipse
         ry="0.6875"
         rx="0.8125"
         cy="-139.07039"
         cx="-28.587622"
         id="ellipse4901"
         style="color:#000000;display:inline;overflow:visible;visibility:visible;fill:#ffffff;fill-opacity:1;fill-rule:nonzero;stroke:none;enable-background:accumulate"
         transform="matrix(0.19501726,1.6163905,-1.6163905,0.19501726,-1471.902,663.02363)" />
      <path
         inkscape:connector-curvature="0"
         id="path3276-2"
         d="m -1253.9816,656.80474 c -0.522,-0.35582 -1.3494,-0.91821 -1.8386,-1.24983 -1.544,-1.04655 -2.7505,-1.94036 -3.4847,-2.58172 -0.666,-0.58163 -0.7174,-0.69136 -0.817,-1.74276 -0.056,-0.61743 -0.2532,-1.87201 -0.433,-2.78867 -0.4534,-2.31198 -0.7251,-5.11674 -0.7846,-8.10167 -0.048,-2.41793 -0.071,-2.5702 -0.4935,-3.33911 -0.3379,-0.61436 -0.429,-0.9755 -0.3836,-1.52112 0.2026,-2.43714 3.1695,-8.09154 4.7438,-9.04089 1.0715,-0.64619 1.1885,0.0148 0.2685,1.51464 -1.4438,2.35288 -2.0545,3.70245 -2.0665,4.56666 -0.011,0.76706 0.033,0.85478 0.5891,1.20384 0.3303,0.20705 0.8669,0.56911 1.1923,0.80467 l 0.5917,0.42816 0.3851,4.74567 c 0.5281,6.48093 1.0841,10.64735 1.4856,11.13026 0.3307,0.39764 1.8007,1.09167 2.1612,1.02029 0.1766,-0.0349 0.1015,-1.49884 -0.3879,-7.58934 -0.6767,-8.41615 -0.5876,-8.01785 -1.8809,-8.41536 -0.378,-0.11628 -0.6942,-0.30576 -0.7026,-0.4212 -0.031,-0.42763 0.9003,-2.29016 1.6228,-3.24543 0.9356,-1.23682 1.4989,-1.41602 2.1985,-0.6995 0.5212,0.53389 1.5847,1.36536 3.004,2.34859 0.5151,0.35681 0.9414,0.70986 0.9474,0.78452 0.01,0.0748 -0.1366,0.38092 -0.3168,0.68049 -0.3241,0.53886 -0.3218,0.61967 0.2223,7.5345 l 0.5496,6.98986 0.4604,0.24418 c 0.5373,0.2849 1.6812,0.24113 2.0241,-0.0773 0.2055,-0.19078 0.1555,-1.24683 -0.3671,-7.74639 l -0.605,-7.52539 -0.9442,-0.61464 c -0.5193,-0.33807 -0.948,-0.69181 -0.9526,-0.78612 -0.01,-0.0941 0.3056,-0.49394 0.6896,-0.88803 0.3839,-0.39413 0.8811,-1.0963 1.1048,-1.56039 0.2618,-0.54292 0.5277,-0.86786 0.7459,-0.91128 0.2972,-0.0593 2.538,1.26252 4.8645,2.86899 0.8008,0.55298 0.8326,0.70248 0.3486,1.63853 -0.1891,0.36572 -0.2405,1.21258 -0.2129,3.50497 0.02,1.66249 0.016,3.61118 -0.01,4.33041 -0.026,0.71923 0.04,2.33803 0.1461,3.59739 0.2169,2.61037 0.2509,2.52567 -1.2604,3.32976 -0.958,0.50964 -1.4975,1.22838 -2.2544,3.00314 -0.9722,2.27972 -1.7003,3.53991 -2.0899,3.61707 -0.2107,0.0417 -0.9709,-0.18637 -1.6893,-0.50692 -0.7183,-0.32054 -1.7521,-0.74211 -2.2973,-0.93676 l -0.9912,-0.35392 -0.3999,0.47546 c -0.2199,0.26152 -0.611,0.97839 -0.869,1.59309 -0.2581,0.61465 -0.5585,1.16672 -0.6676,1.22679 -0.1091,0.06 -0.6256,-0.18178 -1.1475,-0.53766 z"
         style="color:#000000;display:inline;overflow:visible;visibility:visible;fill:#f57900;fill-opacity:1;fill-rule:nonzero;stroke:none;enable-background:accumulate" />
      <g
         transform="matrix(0.99677612,0.08023333,-0.08023333,0.99677612,49.620678,99.72388)"
         id="g3489">
        <g
           id="g3416"
           transform="matrix(0.85612445,-0.16382124,0.16382124,0.85612445,-301.28846,-120.17596)">
          <path
             sodipodi:nodetypes="ccccscssssscccc"
             inkscape:connector-curvature="0"
             id="path4855"
             d="m -1279.5156,637.10332 c -10.0834,-2.21012 -22.9776,7.10793 -30.2761,12.58097 6.7242,3.71907 5.2015,13.6918 21.423,12.29426 0,0 0.2641,0.40834 0.6156,1.12312 -1.3454,-0.80858 -5.0581,3.15545 -5.0581,3.15545 -1.3301,4.13254 4.2638,8.16364 4.2638,8.16364 1.2494,3.49229 5.3965,4.77157 6.1999,4.73241 2.5164,-0.12265 6.2159,-0.67289 9.2466,-1.68208 0.3167,-0.10547 0.377,-1.21705 0.6935,-1.31356 1.6302,-0.49705 3.4899,-0.38133 4.932,-1.02789 0.3616,-0.16212 0.1722,-1.12862 0.5186,-1.29707 2.0331,-0.98877 3.7044,-1.27961 5.052,-2.34017 l 1.2376,-10.79455 c -3.5159,-4.28628 -13.2555,-8.87095 -13.2555,-8.87095 z"
             style="color:#000000;display:inline;overflow:visible;visibility:visible;fill:#2d3c50;fill-opacity:1;fill-rule:nonzero;stroke:none;enable-background:accumulate" />
          <path
             style="color:#000000;display:inline;overflow:visible;visibility:visible;fill:#618599;fill-opacity:1;fill-rule:nonzero;stroke:none;enable-background:accumulate"
             d="m -1305.9207,649.85402 c 2.413,-2.10868 8.4629,-10.07068 25.4497,-10.74822 0,0 3.0045,11.45692 5.9583,14.04574 7.3207,4.76706 10.742,7.11333 12.0433,8.04899 l -1.158,8.84694 c -0.1597,1.22012 -1.598,1.7706 -3.3196,2.17802 l 0.4956,-5.09932 c -0.5757,1.83039 -1.9145,4.48709 -2.4026,6.12173 -1.2867,1.1746 -3.2165,1.3099 -4.1313,1.31674 -0.2864,0.11131 1.7253,-3.58376 0.3676,-5.45835 -0.4115,0.91244 -1.9952,5.79507 -2.4589,6.02645 -4.7565,2.23371 -11.1398,1.34721 -11.7019,-2.5294 -2.1928,-1.40419 -3.9182,-3.76349 -3.5207,-5.17381 0,0 2.0508,-2.05907 4.0732,-1.73197 0.327,-0.17328 0.4405,3.46796 2.427,5.05866 1.9916,-6.92583 -3.7291,-5.74355 -3.8646,-14.22125 l -0.609,3.55917 c -15.1996,-1.44647 -12.4965,-7.29962 -17.6481,-10.24012 z"
             id="path4871"
             inkscape:connector-curvature="0"
             sodipodi:nodetypes="ccccscccccccsccccc" />
          <path
             style="color:#000000;display:inline;overflow:visible;visibility:visible;opacity:0.4;fill:#ffffff;fill-opacity:1;fill-rule:evenodd;stroke:none;enable-background:accumulate"
             d="m -1281.0255,639.30805 c -8.0581,-0.91114 -18.4552,5.43495 -23.858,10.16604 2.5834,2.94284 2.3624,6.15653 8.0403,8.42742 4.6362,-6.02228 -4.1352,-14.06255 15.9856,-17.12734 0.5942,-0.76857 0.1931,-0.65092 -0.1679,-1.46612 z"
             id="path4905"
             inkscape:connector-curvature="0"
             sodipodi:nodetypes="ccccc" />
        </g>
        <path
           sodipodi:nodetypes="ccssccccccsccsccc"
           inkscape:connector-curvature="0"
           id="path4427-3"
           d="m -1302.5767,640.31887 c 0.1802,0.33467 -7.9387,5.43324 -9.671,9.2564 5.1691,6.12814 9.1852,6.45461 16.0404,6.40554 0.1951,-10e-4 -0.1381,-3.47178 0.063,-3.4735 0,0 0.8303,3.3997 1.2142,3.3967 l 2.0322,2.58293 c 2.3269,2.27223 2.7546,3.29643 2.4349,6.30593 l -3.1037,-4.26026 c -1.7568,0.48671 -2.0065,1.22461 -2.8708,1.86007 0.3995,1.12559 -0.3513,2.14058 3.891,4.14097 1.5624,2.21904 3.2738,2.34544 4.2813,2.25002 1.4837,-0.14051 1.1414,-1.33084 2.2111,-2.4914 l 0.8964,-8.29264 c -5.4311,-2.99592 -3.4349,-3.91219 -6.7331,-6.19639 -0.2911,-0.2016 5.9911,-3.70224 5.9911,-3.70224 0,0 -8.9205,2.64776 -9.1552,2.60024 -9.6426,0.4826 -17.1928,-1.12597 -7.5218,-10.38237 z"
           style="color:#000000;display:inline;overflow:visible;visibility:visible;opacity:0.3;fill:#ffffff;fill-opacity:1;fill-rule:evenodd;stroke:none;enable-background:accumulate" />
        <path
           sodipodi:nodetypes="ccccsc"
           inkscape:connector-curvature="0"
           id="path4431-5"
           d="m -1284.4965,657.91094 c 3.1322,0.57279 9.4548,-1.80428 10.6265,-5.51038 l 1.2313,9.52552 c -4.4282,3.5461 -10.6152,5.52241 -15.0434,7.45727 0.3863,-0.45531 1.7594,-1.43156 2.0324,-2.424 0.7907,-2.87388 1.1532,-9.04841 1.1532,-9.04841 z"
           style="color:#000000;display:inline;overflow:visible;visibility:visible;opacity:0.7;fill:#2d3c50;fill-opacity:1;fill-rule:nonzero;stroke:none;enable-background:accumulate" />
      </g>
    </g>
    <g
       transform="matrix(0.8710547,-0.00256253,0.00194429,1.1480278,0,0)"
       style="color:#000000;font-style:normal;font-weight:normal;font-size:56.95957184px;line-height:125%;font-family:Sans;letter-spacing:0px;word-spacing:0px;clip-rule:nonzero;display:inline;overflow:visible;visibility:visible;opacity:1;isolation:auto;mix-blend-mode:normal;color-interpolation:sRGB;color-interpolation-filters:linearRGB;solid-color:#000000;solid-opacity:1;fill:#5c3566;fill-opacity:1;fill-rule:nonzero;stroke:none;stroke-width:1.24492085;stroke-linecap:butt;stroke-linejoin:miter;stroke-miterlimit:4;stroke-dasharray:none;stroke-dashoffset:0;stroke-opacity:1;color-rendering:auto;image-rendering:auto;shape-rendering:auto;text-rendering:auto;enable-background:accumulate"
       id="text3537" />
  </g>
</svg>
